<?xml version="1.0" encoding="UTF-8" standalone="yes"?><svg xmlns="http://www.w3.org/2000/svg" xmlns:xlink="http://www.w3.org/1999/xlink" width="297.000mm" height="210.000mm" viewBox="0.000000 0.000000 297.000000 210.000000" stroke-linejoin="round" stroke-linecap="round" fill="none" fill-rule="evenodd"><desc>Composer Export</desc><script type="text/ecmascript"><![CDATA[
if(typeof(top) != "undefined")
{
	top.ShowPaper = ShowPaper;
}
function ShowHotSpot(evt,hotspotid)
{
	var svgDocument = evt.target.ownerDocument;
	var strId = "hotspot."+hotspotid;
	var hotspot = svgDocument.getElementById(strId);
	if(hotspot)
		hotspot.setAttribute("opacity",".5");
}
function HideHotSpot(evt,hotspotid)
{
	var svgDocument = evt.target.ownerDocument;
	var strId = "hotspot."+hotspotid;
	var hotspot = svgDocument.getElementById(strId);
	if(hotspot)
		hotspot.setAttribute("opacity","0");

	var toolTip = svgDocument.getElementById('ToolTip');
	if(toolTip)
		toolTip.setAttribute("visibility","hidden");
}
function ShowToolTip(evt,hotspotid,strTooltip)
{
	if(strTooltip=="")
	return;

	// change text
	var svgDocument = evt.target.ownerDocument;
	var tiptext = svgDocument.getElementById('ToolTipText');
	if( !tiptext )
	return;
	tiptext.firstChild.nodeValue = " " + strTooltip + "  " ;

	// show tooltip before, else some refresh issue

	var toolTip = svgDocument.getElementById('ToolTip');
	if(!toolTip)
	return;

	toolTip.setAttribute("visibility","visible");
	toolTip.setAttribute("opacity",".95");

	// move tooltip
	// get viewbox

	var root = svgDocument.documentElement;
	var vbox = (root.getAttribute("viewBox")).split(' ');
	var x0 = parseFloat(vbox[0]);
	var y0 = parseFloat(vbox[1]);
	var vboxW = parseFloat(vbox[2]);
	var vboxH = parseFloat(vbox[3]);

	// get default width of svg

	var strW = root.getAttribute("width");
	var svgW = parseFloat(strW);
	if(strW.indexOf('mm') != -1)
	svgW *= 3.779;

	var strH = root.getAttribute("height");
	var svgH = parseFloat(strH);
	if(strH.indexOf('mm') != -1)
	svgH *= 3.779;  	// 96 dpi  -> 96/25.4 = 3.779

	// update the viewbox / width / height if svg is embedded in html with zoom fit all
	var realx0 = x0;
	var realy0 = y0;
	var realvboxW = vboxW;
	var realvboxH = vboxH;
	var realsvgW = svgW;
	var realsvgH = svgH;

	if ((typeof(top) == "undefined") || (typeof(top.svgctl1) != "undefined")) // embedded in html
	{
		// get window size in pxl

		svgW = window.innerWidth;
		svgH = window.innerHeight;

		// calculate real viewbox

		realsvgW = svgW;
		realsvgH = svgH;
		if((svgW / svgH) > (vboxW / vboxH))
		{
			realvboxW = (vboxH * svgW) / svgH;
			realvboxH = vboxH;
			realx0 = x0 - (realvboxW - vboxW)/2 ;
		}
		else
		{
			realvboxH = (vboxW * svgH) / svgW;
			realvboxW = vboxW;
			realy0 = y0 - (realvboxH - vboxH)/2 ;
		}
	}

	// get user zoom/pan

	var newScale = root.currentScale;
	var translation = root.currentTranslate;

	// transform pxl to user unit

	var xPos = (((evt.clientX+10- translation.x)/newScale) * realvboxW)/realsvgW  + realx0 ;
	var yPos = (((evt.clientY+5- translation.y)/newScale) * realvboxH)/ realsvgH  + realy0 ;
	var scaleForWidth = ( (1 / newScale) * realvboxH) / realsvgH;

	// move tooltip

	toolTip.setAttribute("transform", "translate(" + xPos + "," + yPos + ")" );

	// resize tooltip

	var fontsize = 12;
	tiptext.setAttribute("font-size",fontsize*scaleForWidth);
	tiptext.setAttribute("y", fontsize*scaleForWidth);
	var tipBG = svgDocument.getElementById('ToolTipBG');
	var outline = tiptext.getBBox();
	if(tipBG)
	{
		tipBG.setAttribute("stroke-width", 1*scaleForWidth);
		tipBG.setAttribute("width", Number(outline.width) );
		tipBG.setAttribute("height", Number(outline.height) + fontsize*.5*scaleForWidth );
	}
	var ToolTipShadow = svgDocument.getElementById('ToolTipShadow');
	if(ToolTipShadow)
	{
		ToolTipShadow.setAttribute("width", Number(outline.width) );
		ToolTipShadow.setAttribute("height", Number(outline.height) + fontsize*.5*scaleForWidth );
		ToolTipShadow.setAttribute("x", 3*scaleForWidth);
		ToolTipShadow.setAttribute("y", 3*scaleForWidth);
	}
}
function ShowPaper()
{
  var svgDocument = getDocument();
  var paper = svgDocument.getElementById("paperID");
  if(paper)
  {
    paper.setAttribute("transform","scale(1)");
    paper.setAttribute("opacity","1");
    paper.setAttribute("visibility","visible");
  }
  var svg = svgDocument.getRootElement();
  if(svg)
  {
    svg.setAttribute("width","307.000mm");
    svg.setAttribute("height","220.000mm");
    svg.setAttribute("viewBox","-5.000000 -5.000000 307.000000 220.000000");
  }
}
]]></script><defs/><g><g id="Actor_.0"><g style="stroke:#000000;stroke-width:0.176"><path d="M176.58,36.15L176.65,35.84L176.81,35.63L177.05,35.53L177.34,35.56L177.65,35.71L177.95,35.97L178.22,36.31L178.43,36.70L178.55,37.11L178.57,37.48L178.50,37.79L178.34,38.00L178.10,38.10L177.81,38.07L177.50,37.92"/><path d="M176.86,35.30L177.14,35.18L177.05,35.53"/><path d="M178.67,38.12L178.86,37.86L178.95,37.50L178.92,37.05L178.77,36.57L178.53,36.11L178.21,35.70L177.85,35.39L177.48,35.22L177.14,35.18L181.00,32.95"/><path d="M178.10,38.10L178.39,38.24"/><path d="M187.78,30.07L188.49,29.66"/><path d="M187.71,29.08L187.72,29.08L188.09,29.36"/><path d="M189.22,31.16L189.11,30.75L188.81,30.23"/></g><g style="stroke:#000000;stroke-width:0.353"><path d="M182.59,35.85L178.67,38.12L178.39,38.24L178.04,38.20L177.67,38.02L177.50,37.92L177.19,37.67L176.93,37.32L176.72,36.93L176.60,36.53L176.58,36.15L176.58,35.92L176.66,35.55L176.86,35.30L180.91,32.96"/><path d="M185.64,28.90L186.15,29.15L186.26,29.24"/><path d="M188.21,29.45L188.12,29.36L187.72,29.08L186.66,28.67L185.97,29.06"/><path d="M189.25,31.20L189.11,30.75L188.85,30.24L188.68,29.99"/><path d="M188.81,30.23L188.49,29.66L188.09,29.36"/></g></g><g id="Actor_.1"><g style="stroke:#000000;stroke-width:0.176"><path d="M22.49,160.89L22.54,160.44L22.68,160.08L22.92,159.84L23.25,159.72L23.26,159.32L24.03,159.90L23.62,159.74L23.25,159.72"/><path d="M24.12,163.61L24.53,163.77L24.91,163.79L25.23,163.67L25.47,163.42L25.61,163.07L25.66,162.62L25.59,162.11L25.42,161.57L26.04,162.66L27.47,161.84L26.61,163.20L27.08,163.87L26.38,163.81L25.93,163.59"/><path d="M24.44,160.18L24.83,160.58L25.17,161.06L25.42,161.57L25.08,160.31L24.03,159.90L24.44,160.18"/><path d="M24.07,157.48L24.69,157.22L25.45,157.29L26.27,157.68L27.07,158.37L27.17,158.49L27.78,159.27L28.31,160.30L28.23,160.34L28.14,160.38L28.05,160.42L27.96,160.45L27.87,160.48L27.38,159.53L26.73,158.70L25.99,158.07L25.23,157.70L24.53,157.63L23.96,157.87L23.56,158.39L23.39,159.15L23.39,159.24"/><path d="M24.91,163.79L25.18,164.02L25.47,163.42L26.04,162.66"/><path d="M25.08,160.31L26.51,159.49L24.69,158.50L24.53,157.63"/><path d="M26.51,159.49L27.47,161.84"/><path d="M27.45,163.98L28.08,163.72L28.51,163.16L28.70,162.34L28.63,161.36L28.31,160.30L28.37,160.27L28.42,160.23L28.44,160.19L28.43,160.17"/><path d="M27.08,163.87L27.66,163.63L27.88,163.33L28.05,163.11L28.23,162.36L28.16,161.45L27.87,160.48"/><path d="M29.23,160.71L29.43,160.45L29.51,160.08L29.51,160.00L29.48,159.64L29.34,159.16L29.10,158.70L28.78,158.29L28.42,157.98L28.05,157.80L27.81,157.78L27.71,157.77L27.42,157.89"/><path d="M27.71,157.77L33.45,154.45"/><path d="M28.40,158.19L28.71,158.45L28.98,158.79L29.18,159.18L29.30,159.59L29.33,159.96"/><path d="M28.23,158.09L28.59,158.40L28.91,158.80L29.15,159.27L29.30,159.75L29.33,160.19"/><path d="M34.17,154.66L34.53,154.97L34.84,155.38L35.09,155.84L35.23,156.32L35.26,156.77"/></g><g style="stroke:#000000;stroke-width:0.353"><path d="M26.61,163.20L25.18,164.02L24.12,163.61L23.72,163.32L23.32,162.93L22.99,162.45L22.73,161.93L22.56,161.41L22.49,160.89"/><path d="M23.63,163.24L23.35,163.03L23.16,162.70"/><path d="M24.69,158.50L23.26,159.32L22.68,160.08L22.39,160.68L22.54,161.22"/><path d="M28.69,162.74L28.51,163.16L28.37,163.44L28.42,163.36L28.73,162.67L28.75,162.60L28.81,161.71L28.62,160.71L28.43,160.17L28.20,159.68L27.61,158.75L26.86,157.96L26.06,157.43L25.21,157.18L24.69,157.22L24.42,157.28L24.07,157.48L24.00,157.53L23.58,158.09L23.54,158.16L23.34,159.02L23.35,159.27"/><path d="M28.37,163.44L28.08,163.72L27.84,163.85L27.45,163.98L27.38,164.01L27.30,164.01L26.55,163.94L26.48,163.92L25.86,163.62"/><path d="M29.08,160.77L29.23,160.71L34.98,157.39L35.17,157.13L35.26,156.77L35.26,156.53L35.24,156.16L35.11,155.76L34.91,155.37L34.64,155.02L34.34,154.76L34.17,154.66L33.80,154.49L33.45,154.45L33.17,154.57L27.42,157.89L27.39,157.93"/><path d="M28.40,158.19L28.23,158.09L27.86,157.91L27.52,157.88L27.24,158.00L27.01,158.12"/><path d="M28.68,161.03L29.05,160.82L29.24,160.56L29.33,160.19L29.33,159.96"/></g></g><g id="Actor_.2"><g style="stroke:#000000;stroke-width:0.176"><path d="M169.94,25.18L170.48,25.16L171.07,25.38L184.32,32.63L184.94,33.08L185.49,33.71L185.94,34.46L186.23,35.25L186.33,35.99L187.19,74.21L187.10,74.88L186.84,75.37L186.41,75.63"/><path d="M171.07,25.38L175.03,23.10"/><path d="M172.08,28.21L171.81,28.38L171.77,28.46"/><path d="M172.88,64.07L172.61,64.24L172.57,64.31"/><path d="M173.45,31.35L173.58,31.34"/><path d="M174.39,67.20L174.25,67.21"/><path d="M181.58,68.83L181.31,69.00L181.27,69.07"/><path d="M180.78,32.97L180.51,33.14L180.47,33.21"/><path d="M182.28,36.10L182.15,36.11"/><path d="M183.09,71.96L182.95,71.97"/><path d="M184.32,32.63L188.28,30.35"/><path d="M186.33,35.99L190.29,33.71"/><path d="M187.19,74.21L191.14,71.93"/></g><g style="stroke:#000000;stroke-width:0.353"><path d="M169.69,49.92L170.02,64.82L170.11,65.48L170.18,65.69"/><path d="M169.67,49.06L169.32,33.43"/><path d="M188.76,50.46L192.81,48.12L193.58,46.73L193.47,41.66L193.45,41.49L193.38,41.36L193.29,41.27L190.60,39.72L190.50,39.63L190.44,39.50L190.41,39.33L190.29,33.71L190.18,32.97L189.89,32.17L189.45,31.43L188.90,30.80L188.28,30.35L175.03,23.10L174.44,22.88L173.89,22.90L169.94,25.18L169.51,25.45L169.25,25.93L169.16,26.60L169.24,29.92"/><path d="M177.60,71.23L175.48,70.07L175.22,69.98L175.01,69.98L174.97,70.00L174.83,70.01L174.69,69.97L172.76,68.91L172.62,68.81L172.47,68.64L172.36,68.49L172.24,68.37"/><path d="M173.58,31.34L173.85,31.17L174.02,30.86L174.05,30.54L174.07,30.45L174.00,29.97L173.81,29.47L173.53,29.00L173.18,28.61L172.80,28.33L172.42,28.19L172.08,28.21"/><path d="M174.39,67.20L174.65,67.03L174.82,66.72L174.83,66.63L174.87,66.31L174.80,65.83L174.61,65.33L174.33,64.86L173.98,64.47L173.60,64.19L173.22,64.05L172.88,64.07"/><path d="M193.75,54.22L193.83,57.81L193.82,58.00L193.76,58.20L193.67,58.40L191.12,62.97L191.03,63.17L190.97,63.37L190.96,63.56L191.14,71.93L191.06,72.60L190.79,73.08L190.37,73.35L186.41,75.63L185.87,75.65L185.28,75.43L184.18,74.83L183.92,74.74L183.71,74.74L183.67,74.76L183.53,74.77L183.39,74.73L181.46,73.67L181.32,73.57L180.94,73.13"/><path d="M182.28,36.10L182.55,35.93L182.72,35.62L182.76,35.30L182.77,35.21L182.70,34.73L182.51,34.23L182.23,33.76L181.88,33.37L181.50,33.09L181.12,32.95L180.78,32.97"/><path d="M183.09,71.96L183.35,71.79L183.38,71.75L183.52,71.48L183.57,71.07L183.50,70.59L183.31,70.09L183.03,69.62L182.69,69.23L182.30,68.95L181.92,68.81L181.58,68.83"/></g></g><g id="Actor_.3"><g style="stroke:#000000;stroke-width:0.176"><path d="M21.69,125.03L21.73,124.58L21.88,124.22L22.12,123.98L22.44,123.86L22.82,123.88L23.23,124.04L23.63,124.32L24.02,124.72L24.36,125.20L24.62,125.71L25.24,126.81L26.67,125.98L25.80,127.34L26.28,128.01L25.58,127.95L25.12,127.73"/><path d="M22.44,123.86L22.46,123.46L23.23,124.04L24.28,124.46L24.62,125.71L24.79,126.25L24.86,126.76L24.81,127.21L24.67,127.57L24.43,127.81L24.10,127.93L23.72,127.91L23.32,127.75"/><path d="M22.59,123.38L22.58,123.29L22.76,122.53L23.15,122.01L23.73,121.77L24.43,121.84L25.19,122.21L25.93,122.84L26.57,123.67L27.07,124.62L27.15,124.59L27.25,124.56L27.34,124.52L27.43,124.48L27.51,124.44L26.97,123.41L26.70,123.05L26.27,122.51L25.47,121.83L24.65,121.43L24.27,121.39L23.89,121.36L23.27,121.62"/><path d="M24.10,127.93L24.37,128.16L24.67,127.57L25.24,126.81"/><path d="M24.28,124.46L25.71,123.63L23.88,122.64L23.73,121.77"/><path d="M26.65,128.12L27.28,127.86L27.70,127.30L27.89,126.48L27.83,125.50L27.51,124.44L27.56,124.41L27.61,124.37L27.64,124.33L27.63,124.31"/><path d="M26.28,128.01L26.85,127.78L27.25,127.25L27.42,126.50L27.36,125.59L27.07,124.62"/><path d="M26.67,125.98L25.71,123.63"/><path d="M26.62,122.03L26.90,121.91L27.25,121.94L27.62,122.12L27.98,122.43L28.29,122.84L28.54,123.30L28.55,123.33L28.68,123.78L28.71,124.23L28.62,124.59L28.43,124.85"/><path d="M27.60,122.33L27.91,122.59L28.17,122.93L28.38,123.32L28.50,123.73L28.52,124.10"/><path d="M27.43,122.23L27.79,122.54L28.11,122.95L28.35,123.41L28.49,123.89L28.52,124.33"/><path d="M26.90,121.91L32.65,118.59"/><path d="M34.46,120.91L34.43,120.46L34.29,120.00L34.28,119.98L34.04,119.52L33.72,119.11L33.36,118.81"/></g><g style="stroke:#000000;stroke-width:0.353"><path d="M21.69,125.03L21.76,125.55L21.93,126.07L22.18,126.59L22.52,127.07L22.91,127.46L23.32,127.75L24.37,128.16L25.80,127.34"/><path d="M23.88,122.64L22.46,123.46L21.88,124.22L21.59,124.82L21.73,125.36"/><path d="M22.83,127.38L22.55,127.17L22.36,126.84"/><path d="M22.55,123.41L22.53,123.16L22.73,122.30L22.78,122.22L23.20,121.67L23.27,121.62L23.62,121.42L23.89,121.36L24.40,121.32L25.26,121.57L26.06,122.10L26.81,122.89L27.40,123.82L27.63,124.32L27.82,124.85L28.01,125.86L27.95,126.74L27.93,126.81L27.62,127.50L27.57,127.58L27.70,127.30L27.88,126.88"/><path d="M27.57,127.58L27.28,127.86L27.04,127.99L26.65,128.12L26.58,128.15L26.49,128.16L25.75,128.08L25.68,128.06L25.06,127.76"/><path d="M27.60,122.33L27.43,122.23L27.06,122.05L26.72,122.02L26.43,122.14L26.21,122.27"/><path d="M28.28,124.91L28.43,124.85L34.18,121.53L34.37,121.27L34.46,120.91L34.46,120.67L34.43,120.30L34.31,119.90L34.11,119.51L33.84,119.16L33.54,118.90L33.36,118.81L32.99,118.63L32.65,118.59L32.37,118.71L26.62,122.03L26.59,122.07"/><path d="M27.88,125.17L28.24,124.96L28.44,124.70L28.52,124.33L28.52,124.10"/></g></g><g id="Actor_.4"><g style="stroke:#000000;stroke-width:0.176"><path d="M61.64,61.78L61.41,62.99L60.56,64.10L60.01,64.44L59.15,65.00L57.33,65.60L55.27,65.85L53.18,65.72L51.27,65.23L49.76,64.44L49.71,64.42L48.66,63.37L48.22,62.18"/><path d="M48.22,55.90L48.66,57.08L49.71,58.13L51.27,58.95L53.18,59.44L55.27,59.57L57.33,59.32L59.15,58.71L60.56,57.81L61.18,57.01L61.41,56.71L61.64,55.50"/><path d="M49.71,67.96L51.27,68.77L53.18,69.26L53.39,69.28L55.27,69.39L57.33,69.14L59.15,68.54"/><path d="M59.06,52.63L59.89,53.46L60.24,54.40L60.06,55.35L59.91,55.56L59.38,56.23L58.27,56.94L56.83,57.42L55.20,57.62L53.55,57.52L52.03,57.13L50.79,56.49L49.97,55.65L49.62,54.71L49.80,53.76L50.48,52.88L51.59,52.17"/><path d="M50.57,62.11L50.85,62.88L51.53,63.56L52.55,64.09L53.80,64.41L55.15,64.50L56.49,64.33L57.67,63.94L58.59,63.36L59.14,62.64L59.27,61.95"/><path d="M52.04,54.64L52.13,54.12L52.50,53.64L53.11,53.26L53.90,53.00L54.78,52.89L55.68,52.94L56.51,53.16L56.85,53.33L57.18,53.51L57.63,53.96L57.82,54.47"/><path d="M57.74,54.93L57.63,54.65L57.18,54.19L56.51,53.84L55.68,53.63L54.78,53.57L53.90,53.68L53.11,53.94L52.50,54.33L52.13,54.81L52.12,54.87"/><path d="M53.04,55.30L53.11,54.96L53.35,54.65L53.39,54.62L53.74,54.39L54.26,54.22L54.83,54.15L55.42,54.19L55.96,54.33L56.18,54.44L56.40,54.56L56.69,54.85L56.82,55.19"/></g><g style="stroke:#000000;stroke-width:0.353"><path d="M48.79,60.53L48.45,60.97L48.22,62.18L48.22,65.72L48.66,66.91L49.71,67.96L50.79,68.59L52.03,69.24L53.55,69.63L55.20,69.73L56.83,69.53L58.27,69.05L59.15,68.54L60.56,67.64L61.41,66.53L61.64,65.32L61.64,61.78L61.20,60.60L61.07,60.46"/><path d="M48.66,60.40L49.71,61.45L51.27,62.26L53.18,62.75L55.27,62.88L57.33,62.63L59.15,62.03L60.56,61.13L61.41,60.02L61.64,58.81L61.64,55.50L61.20,54.31L60.15,53.26L59.06,52.63L57.83,51.99L56.31,51.59L54.66,51.49L53.03,51.69L51.59,52.17L50.71,52.68L49.30,53.58L48.45,54.69L48.22,55.90L48.22,59.21L48.66,60.40"/><path d="M50.57,62.11L50.57,61.90"/><path d="M52.04,54.64L52.23,55.15L52.68,55.61L53.35,55.96L54.18,56.17L55.08,56.23L55.96,56.12L56.75,55.86L57.22,55.56L57.36,55.47L57.73,54.99L57.82,54.47"/><path d="M53.04,55.30L53.17,55.63L53.46,55.93L53.69,56.04"/><path d="M56.19,56.04L56.51,55.84L56.75,55.53L56.82,55.19"/></g></g><g id="Actor_.5"><g style="stroke:#000000;stroke-width:0.176"><path d="M222.77,53.56L222.91,53.55L223.05,53.60L224.61,54.46L228.57,52.17"/><path d="M223.05,53.60L227.01,51.32"/><path d="M224.61,54.46L224.76,54.57L225.12,54.92L225.31,55.05L229.27,52.77"/><path d="M226.06,57.74L225.80,57.91L225.76,57.98"/><path d="M225.31,55.05L236.87,61.38L237.10,61.47L237.33,61.49L241.28,59.20"/><path d="M224.85,54.66L228.80,52.37"/><path d="M226.87,93.60L226.60,93.77L226.56,93.85"/><path d="M227.57,60.87L227.45,60.88"/><path d="M228.37,96.73L228.24,96.74"/><path d="M234.77,62.50L234.50,62.67L234.45,62.75"/><path d="M235.57,98.36L235.30,98.53L235.26,98.61"/><path d="M236.27,65.63L236.14,65.64"/><path d="M236.87,61.38L240.83,59.09"/><path d="M237.07,101.49L236.94,101.50"/><path d="M237.33,61.49L237.47,61.51L237.56,61.54L241.52,59.26"/><path d="M237.56,61.54L239.12,62.40L239.27,62.50L239.41,62.66L239.54,62.88L239.64,63.17L239.69,63.50L240.58,103.42L240.50,104.09L240.23,104.58L239.81,104.84"/><path d="M239.12,62.40L243.08,60.11"/><path d="M239.69,63.50L243.64,61.22"/><path d="M240.58,103.42L244.54,101.14"/><path d="M242.29,85.95L242.26,85.96L242.23,85.96L242.21,85.95"/></g><g style="stroke:#000000;stroke-width:0.353"><path d="M223.77,95.46L223.52,94.77L223.41,94.03L222.71,62.64"/><path d="M242.21,85.95L242.19,85.89L242.09,81.50L242.11,81.42L242.13,81.38L242.19,81.32L246.25,78.98L247.02,77.60L246.90,72.50L246.88,72.34L246.81,72.20L246.72,72.11L244.03,70.56L243.93,70.47L243.87,70.34L243.84,70.17L243.64,61.22L243.60,60.89L243.49,60.60L243.36,60.38L243.22,60.22L243.08,60.11L241.52,59.26L241.43,59.22L241.06,59.18L240.83,59.09L229.27,52.77L229.07,52.64L228.72,52.28L228.57,52.17L227.01,51.32L226.87,51.27L226.73,51.27L222.77,53.56L222.65,53.64L222.55,53.82L222.52,54.11L222.65,59.78"/><path d="M231.59,100.77L229.46,99.60L229.21,99.51L229.00,99.52L228.96,99.53L228.82,99.55L228.68,99.50L226.74,98.44L226.61,98.34L226.23,97.90"/><path d="M226.87,93.60L227.21,93.58L227.53,93.70L227.59,93.72L227.97,94.00L228.32,94.39L228.60,94.86L228.79,95.36L228.86,95.84L228.81,96.26L228.66,96.52L228.64,96.56L228.37,96.73"/><path d="M227.57,60.87L227.84,60.70L228.00,60.40L228.05,59.98L227.98,59.50L227.80,59.00L227.52,58.53L227.17,58.14L226.78,57.86L226.76,57.85L226.40,57.72L226.06,57.74"/><path d="M247.22,86.61L247.26,88.65L247.25,88.84L247.19,89.04L247.10,89.24L244.55,93.82L244.46,94.02L244.40,94.22L244.39,94.41L244.54,101.14L244.45,101.81L244.19,102.29L243.76,102.56L239.81,104.84L239.26,104.86L238.67,104.64L238.17,104.36L237.91,104.27L237.70,104.28L237.66,104.29L237.52,104.31L237.38,104.26L235.45,103.20L235.31,103.10L234.93,102.66"/><path d="M237.07,101.49L237.34,101.32L237.51,101.02L237.51,100.95L237.56,100.60L237.49,100.12L237.30,99.62L237.02,99.15L236.67,98.76L236.29,98.48L236.23,98.46L235.91,98.34L235.57,98.36"/><path d="M236.27,65.63L236.54,65.46L236.70,65.16L236.75,64.74L236.71,64.44L236.68,64.26L236.50,63.76L236.22,63.29L235.87,62.90L235.49,62.62L235.11,62.48L234.77,62.50"/></g></g><g id="Actor_.6"><g style="stroke:#000000;stroke-width:0.176"><path d="M222.91,71.45L222.23,71.06"/><path d="M242.19,81.32L243.20,81.91L243.32,81.92L260.68,82.49L260.68,87.05"/><path d="M243.12,86.43L242.77,86.23L242.77,81.89L242.09,81.50"/><path d="M243.32,86.48L243.32,81.92"/><path d="M243.20,81.91L243.12,81.93L242.93,81.94L242.85,81.92L242.77,81.89"/><path d="M254.44,75.54L253.75,76.78"/><path d="M253.86,76.98L253.86,76.95L254.59,75.66L254.61,75.64"/><path d="M253.72,75.34L254.04,74.76"/><path d="M260.68,82.49L264.09,82.30L267.23,81.52L268.08,81.10L269.83,80.23L271.62,78.55L272.46,76.64"/><path d="M268.02,75.64L268.05,75.66L268.78,76.95L268.78,76.98"/><path d="M268.02,75.39L268.17,75.50L268.89,76.78"/><path d="M268.92,75.34L268.17,74.02L267.91,73.81"/></g><g style="stroke:#000000;stroke-width:0.353"><path d="M222.89,70.67L222.23,71.06L222.23,75.63L223.01,76.08"/><path d="M243.06,86.40L242.19,85.89"/><path d="M254.90,69.90L259.35,69.68L262.77,69.63L266.05,70.18L268.89,71.28L271.03,72.82L272.25,74.67L272.46,76.64L272.46,81.21L271.62,83.12L269.83,84.80L267.23,86.09L264.09,86.86L260.68,87.05L243.32,86.48L243.20,86.48L243.12,86.43"/><path d="M243.09,86.41L242.86,86.28"/><path d="M254.05,69.94L243.92,70.44"/><path d="M268.92,75.45L268.92,76.73L268.17,78.05L266.76,79.18L264.81,79.99L262.52,80.42L260.11,80.42L257.83,79.99L255.88,79.18L254.46,78.05L253.72,76.73L253.72,75.34L253.72,75.42"/><path d="M253.72,75.34L253.72,75.50"/><path d="M268.92,75.56L268.92,75.34"/></g></g><g id="Actor_.7"><g style="stroke:#000000;stroke-width:0.176"><path d="M187.67,51.09L189.47,52.12L189.47,56.69"/><path d="M187.48,28.99L187.45,28.97"/><path d="M188.34,28.81L187.60,27.48L187.34,27.27"/><path d="M189.47,52.12L199.76,46.19L199.76,50.75"/><path d="M191.86,35.26L191.86,30.70L190.53,39.66"/><path d="M191.86,30.70L191.94,28.72"/><path d="M199.76,46.19L199.91,46.06L199.99,45.92L199.99,45.77"/></g><g style="stroke:#000000;stroke-width:0.353"><path d="M191.15,40.04L191.86,35.26L191.94,33.29L191.94,28.72L190.98,26.83L189.08,25.18L186.41,23.95L183.22,23.24L179.80,23.13L176.48,23.61L176.17,23.72"/><path d="M188.76,50.46L187.67,51.09L187.77,55.71L189.47,56.69L199.76,50.75L199.91,50.63L199.99,50.49L199.99,45.77L199.91,45.62L199.76,45.50L193.48,41.88"/><path d="M188.34,28.81L188.34,29.55"/></g></g><g id="Actor_.8"><g style="stroke:#000000;stroke-width:0.176"><path d="M179.88,25.06L180.60,24.98L181.50,25.03L182.33,25.24L183.00,25.60L183.45,26.05L183.64,26.56"/><path d="M180.26,25.70L180.60,25.66L181.50,25.72L182.33,25.93L183.00,26.28L183.45,26.73L183.55,27.02"/><path d="M182.62,27.25L182.51,26.94L182.21,26.65L181.78,26.42L181.24,26.28L180.79,26.25"/><path d="M184.91,28.50L185.20,28.32L185.88,27.44L186.05,26.49L185.71,25.55L184.88,24.72"/><path d="M187.45,27.59L187.23,28.80L187.17,28.87"/></g><g style="stroke:#000000;stroke-width:0.353"><path d="M178.19,24.00L178.85,23.78L180.47,23.58L182.13,23.68L183.65,24.07L184.88,24.72L185.97,25.35L187.02,26.40L187.45,27.59L187.45,28.98"/><path d="M183.64,26.56L183.54,27.08L183.17,27.55"/></g></g><g id="Actor_.9"><g style="stroke:#000000;stroke-width:0.176"><path d="M134.33,120.71L134.38,120.25L134.52,119.90L134.76,119.65L135.08,119.53L135.46,119.56L135.87,119.71L135.10,119.14L135.08,119.53"/><path d="M135.91,117.29L136.53,117.03L136.82,117.06L137.29,117.10L138.11,117.50L138.91,118.18L139.62,119.08L140.15,120.11L140.07,120.15L139.98,120.20L139.89,120.23L139.80,120.27L139.71,120.29L139.22,119.34L138.57,118.51L137.83,117.88L137.07,117.52L136.37,117.45L135.80,117.69L135.40,118.21L135.23,118.96L135.23,119.06"/><path d="M137.77,123.40L138.22,123.62L138.92,123.69L138.44,123.01L139.31,121.65L137.88,122.48L137.26,121.39L137.43,121.92L137.50,122.43L137.45,122.89L137.31,123.24L137.07,123.49L136.75,123.60L136.37,123.58L135.96,123.42"/><path d="M136.75,123.60L137.02,123.84L137.31,123.24L137.88,122.48"/><path d="M136.67,120.39L137.01,120.87L137.26,121.39L136.92,120.13L135.87,119.71L136.28,120.00L136.67,120.39"/><path d="M136.92,120.13L138.35,119.30L136.53,118.31L136.37,117.45"/><path d="M138.92,123.69L139.49,123.45L139.58,123.33L139.89,122.93L140.06,122.18L140.00,121.27L139.71,120.29"/><path d="M139.31,121.65L138.35,119.30"/><path d="M140.27,119.99L140.28,120.01L140.26,120.04L140.21,120.08L140.15,120.11L140.47,121.17L140.54,122.16L140.35,122.97L139.92,123.54L139.29,123.80"/><path d="M145.29,114.27L143.52,115.29"/><path d="M146.01,114.48L146.37,114.79L146.68,115.19L146.87,115.56L146.93,115.66L147.07,116.14L147.10,116.58"/></g><g style="stroke:#000000;stroke-width:0.353"><path d="M138.44,123.01L137.02,123.84L135.96,123.42L135.55,123.14L135.16,122.74L134.83,122.26L134.57,121.75L134.40,121.22L134.33,120.71"/><path d="M136.53,118.31L135.10,119.14L134.52,119.90L134.23,120.49L134.38,121.04"/><path d="M135.47,123.05L135.19,122.84L135.00,122.51"/><path d="M135.19,119.08L135.17,118.84L135.38,117.97L135.42,117.90L135.84,117.34L135.91,117.29L136.26,117.09L136.53,117.03L137.04,116.99L137.90,117.25L138.70,117.78L139.45,118.57L140.04,119.49L140.27,119.99L140.46,120.52L140.65,121.53L140.59,122.41L140.57,122.49L140.26,123.18L140.21,123.25L139.92,123.54L139.68,123.67L139.29,123.80L139.22,123.83L139.14,123.83L138.39,123.76L138.32,123.74L137.70,123.44"/><path d="M140.52,122.55L140.35,122.97L140.21,123.25"/><path d="M143.48,115.27L145.01,114.38L145.29,114.27L145.64,114.30L146.01,114.48L146.18,114.58L146.48,114.84L146.75,115.18L146.95,115.57L147.07,115.97L147.10,116.35L147.10,116.58L147.01,116.95L146.82,117.20L146.32,117.49"/></g></g><g id="Actor_.10"><g style="stroke:#000000;stroke-width:0.176"><path d="M125.63,115.95L125.67,115.49L125.82,115.13L126.06,114.89L126.38,114.77L126.76,114.79L127.17,114.95L127.57,115.24L127.96,115.63L128.30,116.11L128.56,116.63L129.18,117.72L130.61,116.89L129.74,118.25L130.22,118.93L129.52,118.86L129.06,118.64"/><path d="M126.38,114.77L126.39,114.38L127.17,114.95L128.22,115.37L128.56,116.63L128.73,117.16L128.79,117.67L128.75,118.12L128.61,118.48L128.37,118.72L128.04,118.84L127.66,118.82L127.26,118.66"/><path d="M128.22,115.37L129.65,114.54L127.82,113.55L127.67,112.69L127.09,112.93L126.70,113.45L126.52,114.20L126.53,114.30"/><path d="M131.57,115.23L131.58,115.25L131.55,115.28L131.50,115.32L131.45,115.35L130.91,114.32L130.56,113.87L130.21,113.42L129.41,112.74L128.59,112.34L127.93,112.28L127.83,112.27L127.21,112.53"/><path d="M127.67,112.69L128.37,112.76L129.13,113.12L129.87,113.75L130.51,114.58L131.01,115.53L131.09,115.51L131.19,115.47L131.26,115.44L131.37,115.39L131.45,115.35L131.77,116.41L131.83,117.40L131.64,118.21L131.22,118.78L130.59,119.04"/><path d="M128.04,118.84L128.31,119.07L128.61,118.48L129.18,117.72"/><path d="M130.61,116.89L129.65,114.54"/><path d="M130.22,118.93L130.79,118.69L131.19,118.17L131.36,117.42L131.30,116.51L131.01,115.53"/><path d="M134.82,110.53L136.59,109.51"/><path d="M138.40,111.82L138.37,111.38L138.22,110.90L137.98,110.43L137.66,110.03L137.30,109.72"/></g><g style="stroke:#000000;stroke-width:0.353"><path d="M125.63,115.95L125.70,116.46L125.87,116.99L126.12,117.50L126.46,117.98L126.85,118.38L127.26,118.66L128.31,119.07L129.74,118.25"/><path d="M127.82,113.55L126.39,114.38L125.82,115.13L125.53,115.73L125.67,116.27"/><path d="M126.30,117.75L126.49,118.08L126.77,118.29"/><path d="M129.00,118.68L129.62,118.98L129.68,119.00L130.43,119.07L130.51,119.07L130.59,119.04L130.98,118.91L131.22,118.78L131.51,118.49L131.56,118.42L131.87,117.73L131.89,117.65L131.95,116.77L131.76,115.76L131.57,115.23L131.34,114.73L130.75,113.81L130.00,113.01L129.20,112.49L128.34,112.23L127.83,112.27L127.56,112.33L127.21,112.53L127.14,112.58L126.71,113.14L126.67,113.21L126.47,114.08L126.49,114.32"/><path d="M131.51,118.49L131.64,118.21L131.82,117.79"/><path d="M134.78,110.51L136.31,109.62L136.59,109.51L136.93,109.54L137.30,109.72L137.48,109.82L137.78,110.08L138.05,110.42L138.25,110.81L138.37,111.21L138.40,111.59L138.40,111.82L138.31,112.19L138.17,112.37"/></g></g><g id="Actor_.11"><g style="stroke:#000000;stroke-width:0.176"><path d="M268.02,74.12L267.80,75.33L266.94,76.44L266.59,76.67L265.54,77.34L263.72,77.94L261.66,78.19L259.57,78.07L257.65,77.57L256.09,76.76L255.05,75.71L254.90,75.30"/><path d="M256.76,86.93L257.65,87.39L259.57,87.89L261.66,88.02L263.72,87.77L265.54,87.16"/><path d="M257.98,70.79L256.86,71.51L256.19,72.38L256.01,73.34L256.35,74.28L257.18,75.11L258.42,75.75L259.94,76.14L261.59,76.24L263.22,76.05L264.66,75.57L265.77,74.85L266.09,74.44L266.45,73.98L266.63,73.02L266.28,72.08L265.45,71.25"/><path d="M258.51,73.50L258.52,73.43L258.89,72.95L259.50,72.57L260.28,72.30L261.17,72.20L262.07,72.25L262.90,72.46L263.57,72.82L264.02,73.27L264.13,73.55"/><path d="M258.43,73.27L258.52,72.75L258.89,72.27L259.50,71.88L260.28,71.62L261.17,71.51L262.07,71.57L262.90,71.78L263.57,72.13L264.02,72.58L264.21,73.09"/><path d="M259.43,73.92L259.49,73.58L259.74,73.27L260.13,73.02L260.64,72.85L261.22,72.78L261.81,72.81L262.35,72.95L262.79,73.18L262.94,73.33L263.08,73.48L263.20,73.81"/></g><g style="stroke:#000000;stroke-width:0.353"><path d="M254.61,75.54L254.61,77.83L254.79,78.31"/><path d="M254.90,73.23L255.69,72.21L257.10,71.31L257.98,70.79L259.42,70.31L261.05,70.12L262.70,70.22L264.22,70.61L265.45,71.25L266.54,71.89L267.59,72.94L268.02,74.12L268.02,77.44L267.86,78.30"/><path d="M256.68,86.92L257.18,87.22L258.42,87.86L259.94,88.25L261.59,88.35L263.22,88.15L264.66,87.67L265.54,87.16L266.94,86.26L267.04,86.14"/><path d="M264.21,73.09L264.11,73.61L263.74,74.09L263.19,74.44L263.14,74.48L262.35,74.74L261.47,74.85L260.57,74.79L259.74,74.58L259.48,74.44L259.07,74.23L258.61,73.78L258.43,73.27"/><path d="M259.43,73.92L259.55,74.26L259.85,74.55L260.07,74.67"/><path d="M262.58,74.67L262.90,74.46L263.14,74.15L263.20,73.81"/></g></g><g id="Actor_.12"><g style="stroke:#000000;stroke-width:0.176"><path d="M140.10,159.66L140.72,159.40L141.08,158.92"/><path d="M147.06,150.55L147.17,150.65L147.49,151.05L147.73,151.52L147.87,151.99L147.90,152.44"/></g><g style="stroke:#000000;stroke-width:0.353"><path d="M141.14,158.88L141.07,159.04L141.01,159.11L140.72,159.40L140.48,159.53L140.10,159.66L140.02,159.69L139.94,159.69L139.89,159.68"/><path d="M141.01,159.11L141.12,158.90"/><path d="M147.05,150.50L147.28,150.70L147.55,151.04L147.75,151.43L147.88,151.83L147.90,152.21L147.90,152.44L147.81,152.81L147.62,153.06L147.12,153.35"/></g></g><g id="Actor_.13"><g style="stroke:#000000;stroke-width:0.176"><path d="M177.38,72.01L177.45,71.70L177.62,71.49L177.85,71.39L177.94,71.04L177.66,71.16"/><path d="M177.85,71.39L178.14,71.42L178.45,71.57L178.76,71.83L179.02,72.17L179.23,72.56L179.35,72.96L179.37,73.34L179.30,73.65L179.14,73.86L178.90,73.96L178.61,73.93L178.30,73.78"/><path d="M181.80,68.81L177.94,71.04L178.28,71.07L178.65,71.25L179.02,71.56L179.33,71.97L179.58,72.43L179.72,72.91L179.75,73.36L179.66,73.72L179.47,73.98"/><path d="M178.90,73.96L179.19,74.09"/></g><g style="stroke:#000000;stroke-width:0.353"><path d="M183.39,71.71L179.47,73.98L179.19,74.09L178.85,74.06L178.48,73.88L178.30,73.78L178.00,73.52L177.73,73.18L177.53,72.79L177.41,72.39L177.38,72.01L177.38,71.78L177.47,71.41L177.66,71.16L181.71,68.82"/></g></g><g id="Actor_.14"><g style="stroke:#000000;stroke-width:0.176"><path d="M231.37,101.55L231.44,101.24L231.60,101.02L231.84,100.92L231.93,100.57L231.65,100.69"/><path d="M231.84,100.92L232.13,100.95L232.44,101.10L232.74,101.36L233.01,101.70L233.22,102.09L233.34,102.50L233.36,102.87L233.29,103.18L233.13,103.40L232.89,103.49L232.60,103.47L232.29,103.32"/><path d="M235.79,98.35L231.93,100.57L232.27,100.61L232.64,100.79L233.00,101.09L233.32,101.50L233.56,101.97L233.71,102.44L233.74,102.89L233.65,103.26L233.46,103.51"/><path d="M232.89,103.49L233.17,103.63"/></g><g style="stroke:#000000;stroke-width:0.353"><path d="M237.38,101.24L233.46,103.51L233.17,103.63L232.83,103.59L232.46,103.42L232.29,103.32L231.98,103.06L231.72,102.72L231.51,102.32L231.48,102.22L231.39,101.92L231.37,101.55L231.37,101.31L231.45,100.95L231.65,100.69L235.70,98.35"/></g></g><g id="Actor_.15"><g style="stroke:#000000;stroke-width:0.176"><path d="M13.79,156.13L13.84,155.68L13.98,155.32L14.22,155.07L14.54,154.96L14.92,154.98L16.38,155.56L16.72,156.81L17.34,157.90L18.77,157.08L17.90,158.44L18.38,159.11L17.68,159.05L17.22,158.83"/><path d="M14.54,154.96L14.56,154.56L15.33,155.14L15.73,155.42L16.13,155.82L16.46,156.30L16.72,156.81L16.89,157.35L16.96,157.86L16.91,158.31L16.77,158.66L16.55,158.89L16.53,158.91L16.20,159.03L15.83,159.00L15.42,158.85"/><path d="M14.69,154.48L14.69,154.39L14.86,153.63L15.26,153.11L15.83,152.87L16.53,152.94L17.29,153.31L18.03,153.93L18.67,154.76L19.17,155.72L19.25,155.69L19.35,155.66L19.44,155.62L19.53,155.58L19.61,155.54L19.07,154.51L18.37,153.61L17.57,152.92L16.75,152.53L16.37,152.49L15.99,152.46L15.37,152.71"/><path d="M16.20,159.03L16.47,159.26L16.77,158.66L17.34,157.90"/><path d="M16.38,155.56L17.81,154.73L15.98,153.74L15.83,152.87"/><path d="M19.73,155.41L19.74,155.43L19.71,155.46L19.66,155.50L19.61,155.54L19.93,156.60L20.00,157.58L19.81,158.40L19.38,158.96L18.75,159.22"/><path d="M18.38,159.11L18.95,158.87L19.35,158.35L19.48,157.78L19.52,157.60L19.46,156.69L19.17,155.72"/><path d="M18.77,157.08L17.81,154.73"/><path d="M18.72,153.13L19.00,153.01L24.75,149.69"/><path d="M19.70,153.43L20.01,153.69L20.27,154.03L20.48,154.42L20.60,154.83L20.62,155.20"/><path d="M19.53,153.33L19.89,153.64L20.21,154.04L20.45,154.51L20.59,154.99L20.62,155.43"/><path d="M19.00,153.01L19.35,153.04L19.72,153.22L20.08,153.53L20.40,153.94L20.64,154.40L20.65,154.44L20.78,154.88L20.81,155.32L20.72,155.69L20.53,155.95"/><path d="M26.56,152.01L26.53,151.56L26.39,151.11L26.38,151.08L26.14,150.62L25.83,150.21L25.46,149.90"/></g><g style="stroke:#000000;stroke-width:0.353"><path d="M17.90,158.44L16.47,159.26L15.42,158.85L15.01,158.56L14.62,158.17L14.28,157.69L14.03,157.17L13.86,156.65L13.79,156.13"/><path d="M15.98,153.74L14.56,154.56L13.98,155.32L13.69,155.92L13.83,156.46"/><path d="M14.93,158.48L14.65,158.27L14.46,157.94"/><path d="M14.65,154.51L14.63,154.26L14.83,153.40L14.88,153.33L15.30,152.77L15.37,152.71L15.72,152.52L15.99,152.46L16.50,152.42L17.36,152.67L18.16,153.20L18.91,153.99L19.50,154.92L19.73,155.41L19.92,155.95L20.11,156.95L20.05,157.84L20.03,157.91L19.72,158.60L19.67,158.68L19.81,158.40L19.98,157.98"/><path d="M19.67,158.68L19.38,158.96L19.14,159.09L18.75,159.22L18.68,159.25L18.59,159.25L17.85,159.18L17.78,159.16L17.16,158.86"/><path d="M18.31,153.36L18.53,153.24L18.82,153.12L19.16,153.15L19.53,153.33L19.70,153.43"/><path d="M20.38,156.01L20.53,155.95L26.28,152.63L26.47,152.37L26.56,152.01L26.56,151.77L26.53,151.40L26.41,151.00L26.21,150.60L25.94,150.26L25.64,150.00L25.46,149.90L25.09,149.73L24.75,149.69L24.47,149.81L18.72,153.13L18.69,153.17"/><path d="M19.98,156.27L20.34,156.05L20.54,155.80L20.62,155.43L20.62,155.20"/></g></g><g id="Actor_.16"><g style="stroke:#000000;stroke-width:0.176"><path d="M230.57,65.84L230.60,65.50L230.72,65.24L230.93,65.09L231.20,65.07L231.32,64.72L231.00,64.75"/><path d="M231.20,65.07L231.50,65.16L231.81,65.38L232.10,65.69L232.34,66.06L232.49,66.47L232.53,66.67L232.56,66.86L232.53,67.20L232.41,67.46L232.20,67.61L231.93,67.64L231.62,67.54"/><path d="M232.50,67.74L232.75,67.56L232.90,67.25L232.94,66.84L232.90,66.67L232.86,66.38L232.67,65.90L232.39,65.46L232.05,65.09L231.68,64.83L231.32,64.72L235.16,62.50"/><path d="M231.93,67.64L232.18,67.77"/><path d="M242.35,59.16L241.99,58.80L241.49,58.51"/><path d="M242.75,59.56L242.42,59.75"/></g><g style="stroke:#000000;stroke-width:0.353"><path d="M236.58,65.38L232.50,67.74L232.18,67.77L231.82,67.65L231.62,67.54L231.31,67.32L231.03,67.01L230.79,66.64L230.63,66.24L230.57,65.84L230.57,65.64L230.60,65.23L230.75,64.93L231.00,64.75L234.91,62.49"/><path d="M240.12,58.71L239.80,58.48L239.59,58.42"/><path d="M240.10,58.69L240.94,58.20L241.49,58.51L241.58,58.55L241.99,58.80L242.38,59.16L242.51,59.32"/><path d="M242.35,59.16L242.75,59.56L242.96,60.05"/><path d="M242.89,59.87L242.99,60.07"/></g></g><g id="Actor_.17"><g style="stroke:#000000;stroke-width:0.176"><path d="M12.99,120.27L13.03,119.82L13.18,119.46L13.42,119.22L13.74,119.10L14.12,119.12L14.53,119.28L14.93,119.56L15.32,119.96L15.66,120.44L15.92,120.95L16.54,122.05L15.97,122.81L16.11,122.45L16.15,122.00L16.09,121.49L15.92,120.95L15.58,119.70L14.53,119.28L13.75,118.70L13.74,119.10"/><path d="M14.56,116.86L15.19,116.60L15.29,116.61L15.95,116.67L16.77,117.07L17.57,117.75L17.80,118.04L18.27,118.65L18.81,119.68L18.73,119.72L18.64,119.76L18.55,119.80L18.45,119.83L18.37,119.86L17.87,118.91L17.23,118.08L16.49,117.45L15.73,117.08L15.03,117.02L14.45,117.25L14.06,117.77L13.88,118.53L13.89,118.62"/><path d="M15.40,123.17L15.73,123.05L15.97,122.81L15.67,123.40L15.40,123.17L15.02,123.15L14.62,122.99"/><path d="M15.03,117.02L15.18,117.88L17.01,118.87L15.58,119.70"/><path d="M16.42,122.97L16.88,123.19L17.58,123.25L17.10,122.58L17.97,121.22L16.54,122.05"/><path d="M17.58,123.25L18.15,123.02L18.55,122.49L18.72,121.74L18.68,121.11L18.66,120.83L18.37,119.86"/><path d="M17.97,121.22L17.01,118.87"/><path d="M17.95,123.36L18.58,123.10L19.00,122.54L19.19,121.72L19.13,120.74L18.81,119.68L18.86,119.65L18.91,119.61L18.94,119.57L18.93,119.55"/><path d="M18.22,117.14L23.95,113.83"/><path d="M19.73,120.09L19.92,119.83L20.01,119.47L19.98,119.02L19.84,118.54L19.59,118.08L19.28,117.67L18.92,117.36L18.55,117.18L18.22,117.15"/><path d="M18.90,117.57L19.21,117.83L19.47,118.17L19.68,118.56L19.80,118.97L19.82,119.34"/><path d="M18.73,117.47L19.09,117.78L19.41,118.19L19.65,118.65L19.79,119.13L19.82,119.57"/><path d="M25.76,116.15L25.73,115.70L25.58,115.23L25.34,114.76L25.02,114.35L24.66,114.05"/></g><g style="stroke:#000000;stroke-width:0.353"><path d="M12.99,120.27L13.06,120.79L13.23,121.32L13.48,121.83L13.82,122.31L14.21,122.71L14.62,122.99L15.67,123.40L17.10,122.58"/><path d="M15.18,117.88L13.75,118.70L13.18,119.46L12.89,120.06L13.03,120.60"/><path d="M13.66,122.08L13.85,122.41L14.13,122.62"/><path d="M16.36,123.00L16.98,123.30L17.04,123.32L17.79,123.40L17.87,123.39L17.95,123.36L18.34,123.23L18.58,123.10L18.87,122.82L18.92,122.74L19.23,122.06L19.25,121.98L19.31,121.10L19.12,120.09L18.93,119.56L18.70,119.06L18.11,118.13L17.35,117.34L16.56,116.81L15.70,116.56L15.19,116.60L14.92,116.66L14.56,116.86L14.50,116.91L14.07,117.47L14.03,117.54L13.83,118.40L13.85,118.65"/><path d="M17.99,117.27L17.73,117.38L17.51,117.51"/><path d="M18.87,122.82L19.00,122.54L19.18,122.12"/><path d="M17.92,117.27L17.89,117.31"/><path d="M19.58,120.15L19.73,120.09L25.48,116.77L25.67,116.52L25.76,116.15L25.76,115.92L25.73,115.54L25.61,115.14L25.41,114.75L25.14,114.40L24.84,114.15L24.66,114.05L24.29,113.87L23.95,113.83L23.67,113.95L18.22,117.09"/><path d="M18.90,117.57L18.73,117.47L18.36,117.29L18.14,117.27"/><path d="M19.18,120.41L19.54,120.20L19.74,119.94L19.82,119.57L19.82,119.34"/></g></g><g id="Actor_.18"><g style="stroke:#000000;stroke-width:0.176"><path d="M70.38,96.83L70.50,96.82L70.63,96.86L70.77,96.96L70.89,97.10L71.00,97.26L71.06,97.44L71.09,97.64L71.07,97.68L70.04,98.85L70.14,98.80L71.17,99.36"/><path d="M70.04,98.85L71.17,99.47"/><path d="M70.31,96.64L70.27,96.67L70.19,96.82L70.17,97.02L70.07,97.07L70.09,96.87L70.16,96.73L70.29,96.64"/><path d="M70.07,97.07L70.22,97.15"/><path d="M71.82,90.15L88.99,99.54L86.44,104.12L86.35,104.32L86.29,104.52L86.28,104.71L69.11,95.32"/><path d="M69.27,94.73L86.44,104.12"/><path d="M70.14,98.80L71.17,97.63L71.07,97.68"/><path d="M70.17,97.02L70.23,97.05"/><path d="M71.09,97.61L71.19,97.55L71.18,97.61L71.17,97.63"/><path d="M71.19,97.55L71.16,97.38L71.09,97.21L70.99,97.04L70.87,96.90L70.73,96.81L70.60,96.76L70.48,96.77"/><path d="M71.99,89.56L89.15,98.95L89.14,99.14L89.08,99.34L88.99,99.54"/><path d="M73.21,100.85L73.06,100.77L73.16,100.71L73.21,100.74"/><path d="M73.06,100.77L73.02,98.66"/><path d="M73.16,100.71L73.12,98.61"/><path d="M73.39,99.13L73.17,98.74"/><path d="M73.50,99.06L73.26,98.69"/><path d="M72.79,98.56L73.09,98.38L72.69,98.62L72.79,98.56L72.90,98.74"/><path d="M72.69,98.62L72.80,98.80"/><path d="M72.61,81.37L73.15,81.35L73.74,81.57L86.99,88.82L87.61,89.27L88.17,89.90L88.61,90.64L88.90,91.44L89.00,92.18L89.15,98.95"/><path d="M74.50,84.54L74.32,84.84L74.26,85.25L74.32,85.72L74.50,86.22L74.53,86.27L74.77,86.70L75.12,87.10L75.50,87.39L75.88,87.54L76.23,87.53"/><path d="M73.74,81.57L77.70,79.28"/><path d="M75.30,120.40L75.13,120.70L75.07,121.11L75.13,121.58L75.30,122.08L75.58,122.55L75.92,122.96L76.30,123.25L76.69,123.40L77.03,123.39"/><path d="M83.48,89.15L83.20,89.30L83.03,89.60L82.97,90.01L83.03,90.48L83.20,90.98L83.48,91.46L83.82,91.86L84.20,92.15L84.58,92.30L84.93,92.29L85.20,92.14"/><path d="M84.00,125.16L83.83,125.46L83.77,125.87L83.83,126.34L84.00,126.84L84.28,127.32L84.62,127.72L85.00,128.01L85.39,128.16L85.73,128.15"/><path d="M89.08,131.82L89.51,131.55L89.78,131.07L89.86,130.40L89.64,120.88L83.73,117.64"/><path d="M84.32,117.30L86.59,118.55L86.53,116.02"/><path d="M86.59,118.55L86.61,118.71L86.67,118.85L86.76,118.93L84.06,117.45"/><path d="M89.64,120.88L89.62,120.71L89.56,120.58L89.46,120.49L83.99,117.49"/><path d="M86.76,118.93L89.46,120.49"/><path d="M86.36,108.65L86.28,104.71"/><path d="M86.99,88.82L90.95,86.53"/><path d="M89.86,130.40L93.81,128.12"/><path d="M92.96,89.90L89.00,92.18"/></g><g style="stroke:#000000;stroke-width:0.353"><path d="M70.00,99.20L70.08,99.25L69.46,98.89L70.00,99.20"/><path d="M70.08,99.25L71.19,99.89L70.08,99.25"/><path d="M69.46,98.89L69.19,98.73L69.11,95.32L69.13,95.13L69.18,94.92L69.27,94.73L71.82,90.15L71.91,89.95L71.97,89.75L71.99,89.56L71.83,82.79L71.92,82.12L72.18,81.63L72.61,81.37L76.56,79.09L77.11,79.07L77.70,79.28L90.95,86.53L91.57,86.99L92.12,87.61L92.22,87.78L92.56,88.36L92.85,89.15L92.96,89.90L93.05,93.93"/><path d="M71.19,99.89L73.31,101.11L72.30,100.53"/><path d="M70.29,96.64L70.45,96.63L70.63,96.69L70.81,96.82L70.98,97.00L71.11,97.22L71.20,97.46L71.24,97.69L71.24,97.75L71.22,97.81L71.19,97.85L70.32,98.84L71.17,99.30L71.17,99.47"/><path d="M70.22,97.15L70.23,97.00L70.29,96.89L70.48,96.77"/><path d="M93.45,112.03L93.81,128.12L93.73,128.78L93.47,129.27L93.04,129.53L89.08,131.82L88.54,131.84L87.95,131.62L86.85,131.02L86.60,130.93L86.39,130.93L86.34,130.94L86.20,130.96L86.07,130.92L84.13,129.86L83.99,129.76L83.61,129.31L83.38,129.12L78.15,126.26L77.89,126.16L77.68,126.17L77.64,126.18L77.50,126.20L77.36,126.16L75.43,125.10L75.29,125.00L75.15,124.83L75.03,124.68L74.92,124.56L74.02,123.86L73.47,123.22L73.05,122.46L72.78,121.67L72.69,121.01L72.50,112.31"/><path d="M73.31,101.11L86.76,108.88L85.65,108.24"/><path d="M73.21,100.85L73.17,98.74L73.26,98.69"/><path d="M73.39,99.13L73.50,99.06L73.08,98.37"/><path d="M73.12,98.61L72.80,98.80"/><path d="M74.50,84.54L74.77,84.39L75.12,84.38L75.50,84.53L75.88,84.82L76.23,85.22L76.50,85.70L76.68,86.20L76.74,86.67L76.68,87.08L76.50,87.38L76.23,87.53"/><path d="M75.30,120.40L75.58,120.25L75.92,120.24L76.30,120.39L76.69,120.68L77.03,121.08L77.30,121.56L77.48,122.06L77.54,122.53L77.48,122.94L77.30,123.24L77.03,123.39"/><path d="M85.73,128.15L86.01,128.00L86.18,127.70L86.24,127.29L86.18,126.82L86.01,126.32L85.73,125.84L85.39,125.44L85.00,125.15L84.62,125.00L84.28,125.00L84.00,125.16"/><path d="M85.20,92.14L85.38,91.84L85.44,91.43L85.38,90.96L85.20,90.46L84.93,89.98L84.58,89.58L84.20,89.29L83.82,89.14L83.48,89.15"/><path d="M86.76,108.88L87.18,109.12L91.23,106.78"/><path d="M93.07,94.78L93.34,106.74"/></g></g><g id="Actor_.19"><g style="stroke:#000000;stroke-width:0.176"><path d="M221.87,60.89L221.95,60.59L222.12,60.39L222.37,60.30L222.46,59.95L222.17,60.05"/><path d="M222.75,62.67L223.06,62.84L223.35,62.88L223.60,62.79L223.77,62.59L223.85,62.29L223.84,61.92L223.73,61.52L223.53,61.13L223.27,60.78L222.97,60.51L222.66,60.34L222.37,60.30"/><path d="M223.92,62.91L224.13,62.67L224.23,62.32L224.21,61.88L224.08,61.40L223.85,60.93L223.54,60.52L223.18,60.20L222.81,60.00L222.46,59.95L226.32,57.73"/><path d="M223.35,62.88L223.63,63.01"/><path d="M233.83,54.50L233.15,54.90"/><path d="M232.55,53.67L233.06,53.89L233.43,54.18"/><path d="M234.14,55.08L234.42,55.59"/></g><g style="stroke:#000000;stroke-width:0.353"><path d="M227.87,60.63L223.92,62.91L223.63,63.01L223.29,62.96L222.92,62.77L222.75,62.67L222.45,62.40L222.19,62.05L221.99,61.66L221.88,61.26L221.87,60.89L221.87,60.65L221.97,60.29L222.17,60.05L226.19,57.73"/><path d="M230.72,53.57L230.73,53.57L231.53,53.99L231.59,54.04"/><path d="M231.28,53.85L232.00,53.43L232.65,53.71L233.06,53.89L233.46,54.18L233.56,54.29"/><path d="M233.43,54.18L233.83,54.50L234.14,55.08"/><path d="M234.01,54.83L234.18,55.08L234.42,55.59"/></g></g><g id="Actor_.20"><g style="stroke:#000000;stroke-width:0.176"><path d="M222.67,96.79L222.74,96.48L222.90,96.26L223.14,96.16L223.23,95.82L222.95,95.93"/><path d="M227.09,93.59L223.23,95.82L223.57,95.85L223.94,96.03L224.30,96.33L224.62,96.74L224.86,97.21L225.00,97.68L225.03,98.13L224.95,98.50L224.76,98.75"/><path d="M223.59,98.56L223.90,98.71L224.19,98.74L224.43,98.64L224.59,98.42L224.66,98.11L224.64,97.74L224.51,97.34L224.31,96.94L224.04,96.60L223.74,96.34L223.43,96.19L223.14,96.16"/><path d="M224.19,98.74L224.47,98.87"/></g><g style="stroke:#000000;stroke-width:0.353"><path d="M227.00,93.59L222.95,95.93L222.75,96.19L222.67,96.56L222.67,96.79L222.69,97.16L222.81,97.56L223.02,97.96L223.28,98.30L223.59,98.56L223.76,98.66L224.13,98.84L224.47,98.87L224.76,98.75L228.68,96.49"/></g></g><g id="Actor_.21"><g style="stroke:#000000;stroke-width:0.176"><path d="M168.68,67.25L168.75,66.94L168.91,66.73L169.15,66.63L169.24,66.28L168.96,66.40"/><path d="M169.15,66.63L169.44,66.66L169.75,66.81L170.06,67.07L170.32,67.41L170.53,67.80L170.65,68.20L170.67,68.58L170.60,68.89L170.44,69.10L170.20,69.20L169.91,69.17L169.60,69.02"/><path d="M173.10,64.05L169.24,66.28L169.58,66.31L169.95,66.49L170.31,66.80L170.63,67.21L170.87,67.67L171.02,68.15L171.05,68.59L170.96,68.96L170.77,69.22"/><path d="M170.20,69.20L170.49,69.33"/></g><g style="stroke:#000000;stroke-width:0.353"><path d="M174.69,66.95L170.77,69.22L170.49,69.33L170.14,69.30L169.77,69.12L169.60,69.02L169.30,68.76L169.03,68.42L168.82,68.03L168.70,67.63L168.68,67.25L168.68,67.02L168.77,66.65L168.96,66.40L173.01,64.06"/></g></g><g id="Actor_.22"><g style="stroke:#000000;stroke-width:0.176"><path d="M43.79,101.55L43.99,103.52L45.22,105.36L47.36,106.91L50.20,108.01L52.28,108.36L53.48,108.56L56.90,108.51L56.90,113.08"/><path d="M62.50,102.89L61.79,101.62L60.37,100.50L58.42,99.68L56.13,99.25L53.73,99.25L51.44,99.68L49.49,100.50L48.08,101.62L47.36,102.89"/><path d="M47.47,103.09L47.47,103.07L48.20,101.77L49.59,100.67L51.50,99.87L53.75,99.44L56.11,99.44L58.36,99.87L60.27,100.67L61.66,101.77L62.39,103.07L62.39,103.09"/><path d="M47.33,101.46L48.08,100.14L49.49,99.01L51.44,98.19L53.73,97.76L56.13,97.77L58.42,98.19L60.37,99.01L61.79,100.14L62.53,101.46"/><path d="M59.24,103.36L58.82,102.61L58.02,101.97L56.91,101.51L55.62,101.26L54.25,101.26L52.95,101.51L51.84,101.97L51.04,102.61L50.62,103.36L50.62,104.14"/><path d="M51.84,104.71L52.95,104.25L54.25,104.00L55.62,104.00L56.91,104.25L58.02,104.71"/><path d="M56.90,108.51L72.86,107.72L73.10,107.73L73.33,107.78L73.53,107.86L73.53,112.43"/><path d="M72.86,112.29L72.86,107.72"/><path d="M73.53,107.86L82.55,113.07L82.76,113.16L83.01,113.21L83.27,113.21L83.52,113.16L83.73,113.07L94.02,107.13"/><path d="M78.86,114.26L78.81,114.23L78.72,114.28L78.86,114.37"/><path d="M78.81,114.23L78.81,112.15L78.72,112.21L78.72,114.28"/><path d="M78.49,112.10L78.79,111.92L78.39,112.15L78.49,112.33L78.59,112.28L78.49,112.10L78.40,112.15"/><path d="M78.96,112.23L79.19,112.62"/><path d="M78.86,112.29L79.09,112.68"/><path d="M78.59,112.28L78.69,112.22L78.49,112.33"/><path d="M78.72,112.21L78.69,112.22L78.81,112.15"/><path d="M80.97,113.35L81.06,113.34L81.16,113.38L81.26,113.45L81.35,113.56L81.42,113.68L81.47,113.81L81.47,113.89L81.46,113.92L80.64,115.10L81.56,115.63"/><path d="M80.64,115.10L80.74,115.04L81.56,115.52"/><path d="M81.46,113.92L81.56,113.86L80.74,115.04"/><path d="M80.69,113.48L80.72,113.33L80.78,113.22L80.89,113.16L80.81,113.27L80.79,113.43L80.69,113.48L80.84,113.57"/><path d="M80.79,113.43L80.86,113.46"/><path d="M81.07,113.29L81.16,113.29L81.26,113.32L81.36,113.40L81.45,113.50L81.52,113.62L81.57,113.75L81.47,113.81"/><path d="M81.57,113.75L81.57,113.79L81.56,113.86"/><path d="M82.55,117.64L82.55,113.07"/><path d="M83.73,117.64L83.73,113.07"/></g><g style="stroke:#000000;stroke-width:0.353"><path d="M91.23,106.78L92.33,106.15L94.02,107.13L94.02,111.70L83.73,117.64L83.52,117.73L83.27,117.77L83.01,117.77L82.76,117.73L82.55,117.64L73.53,112.43L73.33,112.35L73.10,112.30L72.86,112.29L56.90,113.08L53.48,113.13L50.20,112.57L47.36,111.48L45.22,109.93L43.99,108.09L43.79,106.12L43.79,101.55L44.62,99.64L46.42,97.96L49.02,96.67L52.16,95.89L55.57,95.70L69.13,96.15"/><path d="M62.53,101.46L62.53,102.85L61.79,104.17L60.37,105.29L58.42,106.11L56.13,106.54L53.73,106.54L51.44,106.11L49.49,105.29L48.08,104.17L47.33,102.85L47.33,101.46"/><path d="M59.24,103.39L59.24,103.36L59.24,104.14L58.82,104.89L58.02,105.53L56.91,106.00L55.62,106.24L54.25,106.24L52.95,106.00L51.85,105.53L51.04,104.89L50.62,104.14"/><path d="M51.84,104.71L51.33,105.12"/><path d="M51.76,104.78L52.82,104.33L54.20,104.07L54.51,104.07L55.66,104.07L57.04,104.33L58.10,104.78"/><path d="M58.02,104.71L58.53,105.12"/><path d="M78.86,114.37L78.86,112.29L78.96,112.23"/><path d="M78.79,111.92L79.19,112.62L79.09,112.68"/><path d="M81.56,115.63L81.56,115.46L80.90,115.08L81.59,114.08L81.61,114.01L81.62,113.93L81.61,113.83L81.54,113.64L81.43,113.46L81.30,113.32L81.16,113.21L81.01,113.15L80.88,113.16"/><path d="M80.84,113.57L80.86,113.46L80.90,113.39L81.07,113.29"/></g></g><g id="Actor_.23"><g style="stroke:#000000;stroke-width:0.176"><path d="M167.88,31.39L167.95,31.08L167.97,31.06L168.11,30.87L168.35,30.77L168.44,30.42L168.16,30.54"/><path d="M168.80,33.16L169.11,33.32L169.40,33.34L169.68,33.48"/><path d="M172.30,28.19L168.44,30.42L168.78,30.46L169.15,30.63L169.51,30.94L169.83,31.35L170.07,31.81L170.19,32.22L170.21,32.29L170.25,32.74L170.16,33.10L169.97,33.36"/><path d="M169.40,33.34L169.64,33.24L169.80,33.03L169.87,32.72L169.85,32.35L169.73,31.94L169.52,31.55L169.25,31.21L169.14,31.11L168.95,30.95L168.64,30.80L168.35,30.77"/><path d="M179.79,24.90L179.08,25.31"/><path d="M179.01,24.32L179.02,24.32L179.38,24.60"/><path d="M180.42,26.05L180.41,25.99L180.11,25.47"/></g><g style="stroke:#000000;stroke-width:0.353"><path d="M173.89,31.09L169.97,33.36L169.68,33.48L169.34,33.44L168.97,33.26L168.80,33.16L168.49,32.91L168.23,32.56L168.02,32.17L167.90,31.77L167.88,31.39L167.88,31.16L167.96,30.79L168.16,30.54L172.21,28.20"/><path d="M176.94,24.15L177.45,24.39L177.56,24.48"/><path d="M179.51,24.69L179.42,24.60L179.02,24.32L177.96,23.91L177.27,24.31"/><path d="M180.43,26.05L180.41,25.99L180.15,25.48L179.97,25.23"/><path d="M180.11,25.47L179.79,24.90L179.38,24.60"/></g></g><g id="Actor_.24"><g style="stroke:#000000;stroke-width:0.176"><path d="M122.62,129.58L122.62,129.59"/><path d="M140.60,139.97L139.80,139.50L139.71,135.56L122.54,126.17"/><path d="M122.70,125.58L139.87,134.97L139.78,135.17L139.72,135.37L139.71,135.56"/><path d="M125.25,121.00L142.42,130.39L142.51,130.19L142.57,129.99L142.58,129.80L125.42,120.41"/><path d="M125.44,109.75L125.57,109.74L125.72,109.79L127.28,110.65L127.37,110.70L127.75,111.08L127.98,111.24L139.54,117.56L139.73,117.65L140.08,117.68L140.23,117.73L141.79,118.58L141.93,118.69L142.07,118.84L142.20,119.06L142.31,119.35L142.36,119.69L142.58,129.80"/><path d="M125.72,109.79L129.68,107.51"/><path d="M127.52,110.85L131.47,108.56"/><path d="M127.28,110.65L131.24,108.36"/><path d="M127.98,111.24L131.94,108.96"/><path d="M136.61,136.70L135.92,136.32L135.82,136.38L136.61,136.81"/><path d="M136.14,136.38L136.10,134.83"/><path d="M136.23,136.32L136.20,134.77"/><path d="M135.92,136.32L135.92,136.26"/><path d="M135.82,136.38L135.81,136.20"/><path d="M135.88,134.96L135.78,134.78L135.88,134.73L135.98,134.90"/><path d="M135.78,134.78L136.24,134.49"/><path d="M135.88,134.73L136.24,134.49"/><path d="M137.75,135.64L138.14,135.39L137.75,135.64L137.86,135.81"/><path d="M137.85,135.58L137.95,135.75"/><path d="M138.27,137.86L138.12,137.78L138.07,135.68"/><path d="M138.12,137.78L138.22,137.72L138.27,137.75"/><path d="M138.22,137.72L138.17,135.62"/><path d="M138.22,135.76L138.45,136.14"/><path d="M138.55,136.07L138.32,135.70"/><path d="M139.87,134.97L142.42,130.39"/><path d="M140.00,117.67L143.95,115.39"/><path d="M139.54,117.56L143.50,115.28"/><path d="M140.23,117.73L144.19,115.45"/><path d="M142.36,119.69L146.31,117.40"/><path d="M141.79,118.58L145.75,116.30"/><path d="M142.50,161.02L142.92,160.75L143.18,160.25L143.25,159.61L143.21,157.85"/><path d="M143.25,159.61L147.21,157.32"/><path d="M144.72,137.62L144.74,137.63L144.76,137.65L144.77,137.75"/><path d="M144.76,137.69L144.66,137.63"/></g><g style="stroke:#000000;stroke-width:0.353"><path d="M139.45,139.30L139.80,139.50L122.62,129.58L122.54,126.17L122.56,125.98L122.61,125.78L122.71,125.56L125.25,121.00L125.34,120.80L125.40,120.60L125.42,120.41L125.19,110.30L125.22,110.01L125.32,109.83L125.44,109.75L129.40,107.46L129.53,107.46L129.68,107.51L131.24,108.36L131.32,108.42L131.70,108.79L131.94,108.96L143.50,115.28L143.69,115.36L144.04,115.39L144.19,115.45L145.75,116.30L145.89,116.40L146.03,116.56L146.16,116.78L146.26,117.06L146.31,117.40L146.90,143.73"/><path d="M136.24,134.49L136.28,136.46L136.61,136.64L136.61,136.81"/><path d="M135.81,136.20L136.14,136.38L136.23,136.32"/><path d="M135.88,134.96L136.20,134.77"/><path d="M137.86,135.81L138.17,135.62"/><path d="M138.32,135.70L138.22,135.76L138.27,137.86"/><path d="M138.14,135.38L138.55,136.07L138.45,136.14"/><path d="M139.30,160.04L140.04,160.44L140.17,160.49L140.57,160.46L140.84,160.55L141.34,160.83L141.96,161.05L142.50,161.02L146.45,158.74L146.87,158.46L147.13,157.97L147.21,157.32L146.92,144.58"/><path d="M144.61,137.66L144.69,137.61L144.72,137.62"/></g></g><g id="Actor_.25"><g style="stroke:#000000;stroke-width:0.176"><path d="M116.35,132.45L116.44,132.60L116.59,132.72L116.59,137.29"/><path d="M116.35,137.02L116.35,137.02"/><path d="M125.61,139.95L125.61,137.93L116.59,132.72"/><path d="M119.36,137.69L118.57,137.23L118.57,137.06"/><path d="M118.57,137.23L118.67,137.18L119.36,137.58"/><path d="M118.89,137.25L118.89,135.63"/><path d="M118.99,137.19L118.99,135.57"/><path d="M118.67,137.18L118.67,137.12"/><path d="M118.56,135.57L118.67,135.76"/><path d="M118.66,135.52L118.77,135.70"/><path d="M121.02,138.70L120.87,138.62L120.97,138.56L121.02,138.59"/><path d="M120.97,138.56L120.97,136.48"/><path d="M120.87,138.62L120.87,136.54"/><path d="M121.24,137.01L121.02,136.63"/><path d="M121.34,136.95L121.11,136.57"/><path d="M120.64,136.67L120.54,136.49L120.64,136.43L120.74,136.61"/><path d="M120.64,136.43L120.94,136.26L120.54,136.49"/><path d="M146.67,148.30L146.34,150.26L145.00,152.08L144.79,152.22L142.77,153.58L139.86,154.61L136.55,155.10L133.13,154.98L129.94,154.27L129.03,153.85L127.27,153.04L125.36,151.40L124.41,149.50"/><path d="M125.61,137.93L125.76,138.04L125.84,138.17L125.85,138.31"/><path d="M127.90,147.97L128.65,146.65L128.93,146.42"/><path d="M128.80,148.01L128.65,148.13L127.93,149.41"/><path d="M128.80,148.26L128.77,148.28L128.04,149.58L128.04,149.60"/><path d="M143.07,149.41L142.36,148.13L142.21,148.01"/><path d="M142.96,149.61L142.96,149.58L142.23,148.28L142.21,148.26"/><path d="M143.10,147.97L142.36,146.65L142.09,146.44"/><path d="M145.44,138.14L145.69,138.28L144.60,137.66"/></g><g style="stroke:#000000;stroke-width:0.353"><path d="M125.26,142.30L116.59,137.29L116.44,137.17L116.35,137.02L116.35,132.30L116.44,132.16L116.59,132.04L122.59,128.57"/><path d="M118.99,137.19L118.89,137.25L118.57,137.06"/><path d="M118.67,135.76L118.99,135.57"/><path d="M119.36,137.69L119.36,137.52L119.04,137.33L119.04,135.30L118.56,135.57L118.57,135.57"/><path d="M121.11,136.57L121.02,136.63L121.02,138.70"/><path d="M121.24,137.01L121.34,136.95L120.94,136.26"/><path d="M120.97,136.48L120.65,136.67"/><path d="M125.85,138.31L124.49,147.53L124.41,149.50L124.41,154.07L125.36,155.97L126.81,157.21L127.27,157.61L129.94,158.84L133.13,159.55L136.55,159.67L137.71,159.50L139.86,159.18L142.77,158.14L145.00,156.65L146.34,154.83L146.67,152.87L146.67,148.30L146.31,144.58"/><path d="M127.90,147.97L127.90,149.36L128.65,150.68L130.06,151.80L132.01,152.62L134.30,153.05L136.71,153.05L139.00,152.62L140.94,151.81L142.36,150.68L143.10,149.36L143.10,147.97"/><path d="M144.61,137.66L145.69,138.28L146.22,143.73"/></g></g><g id="Actor_.26"><g style="stroke:#000000;stroke-width:0.176"><path d="M142.21,146.75L141.99,147.96L141.27,148.88L141.13,149.07L139.72,149.97L137.90,150.57L135.84,150.82L133.76,150.69L131.84,150.20L130.28,149.39L129.23,148.34L128.80,147.15"/><path d="M139.72,159.79L137.90,160.39L135.84,160.64L133.76,160.52L131.84,160.02L130.28,159.21"/><path d="M139.64,143.88L140.47,144.71L140.81,145.65L140.63,146.61L140.16,147.22L139.96,147.48L138.84,148.20L137.40,148.67L135.77,148.87L134.12,148.77L132.60,148.38L131.37,147.74L130.54,146.90L130.19,145.97L130.37,145.01L131.05,144.13L132.16,143.42"/><path d="M132.61,145.89L132.71,145.37L133.08,144.90L133.48,144.64L133.68,144.51L134.47,144.25L135.35,144.14L136.25,144.19L137.08,144.41L137.75,144.76L138.21,145.21L138.39,145.72"/><path d="M132.69,146.12L132.71,146.06L133.08,145.58L133.68,145.19L134.47,144.93L135.35,144.82L136.25,144.88L137.08,145.09L137.75,145.44L138.21,145.90L138.31,146.18"/><path d="M137.39,146.44L137.27,146.10L136.97,145.81L136.82,145.73L136.53,145.58L135.99,145.44L135.40,145.41L134.83,145.48L134.31,145.65L133.92,145.90L133.68,146.21L133.62,146.55"/></g><g style="stroke:#000000;stroke-width:0.353"><path d="M142.05,150.93L142.21,150.07L142.21,146.75L141.77,145.57L140.72,144.52L139.64,143.88L138.40,143.24L136.88,142.85L135.23,142.74L133.60,142.94L132.16,143.42L131.28,143.94L129.87,144.84L129.02,145.94L128.80,147.15L128.80,150.46L128.97,150.94"/><path d="M141.30,158.67L141.13,158.89L139.72,159.79L138.84,160.30L137.40,160.78L135.77,160.98L134.12,160.88L132.60,160.49L131.37,159.84L130.28,159.21L129.88,158.81"/><path d="M132.61,145.89L132.80,146.41L133.25,146.86L133.48,146.98L133.92,147.21L134.75,147.42L135.65,147.48L136.54,147.37L137.32,147.11L137.78,146.82L137.93,146.72L138.30,146.24L138.39,145.72"/><path d="M133.62,146.55L133.74,146.88L134.03,147.18L134.26,147.30"/><path d="M137.39,146.44L137.33,146.78L137.08,147.09L136.76,147.29"/></g></g><g><g><path style="stroke:#a0a0a4;stroke-width:0.449;stroke-dasharray:0.4 0.4" d="M79.12,120.19L20.47,154.05"/></g></g><g><g><path style="stroke:#a0a0a4;stroke-width:0.449;stroke-dasharray:0.4 0.4" d="M87.82,124.95L29.17,158.81"/></g></g><g><g><path style="stroke:#a0a0a4;stroke-width:0.449;stroke-dasharray:0.4 0.4" d="M54.93,105.35L54.93,60.61"/></g></g><g><g><path style="stroke:#a0a0a4;stroke-width:0.449;stroke-dasharray:0.4 0.4" d="M78.32,84.33L19.67,118.19"/></g></g><g><g><path style="stroke:#a0a0a4;stroke-width:0.449;stroke-dasharray:0.4 0.4" d="M87.02,89.09L28.37,122.95"/></g></g><g id="PMI3.0"><g><path style="stroke:#0085ca;stroke-width:0.500" d="M142.86,49.43L169.76,49.49"/></g><g><path style="fill:#0085ca" d="M170.76,49.49L170.76,49.39L170.74,49.30L170.72,49.20L170.68,49.11L170.64,49.02L170.59,48.94L170.53,48.86L170.47,48.78L170.39,48.72L170.32,48.66L170.23,48.61L170.14,48.57L170.05,48.53L169.96,48.51L169.86,48.50L169.76,48.49L169.66,48.50L169.56,48.51L169.47,48.53L169.38,48.57L169.29,48.61L169.20,48.66L169.13,48.72L169.05,48.78L168.99,48.86L168.93,48.94L168.88,49.02L168.84,49.11L168.80,49.20L168.78,49.30L168.76,49.39L168.76,49.49L168.76,49.59L168.78,49.69L168.80,49.78L168.84,49.87L168.88,49.96L168.93,50.05L168.99,50.13L169.05,50.20L169.13,50.26L169.20,50.32L169.29,50.37L169.38,50.41L169.47,50.45L169.56,50.47L169.66,50.49L169.76,50.49L169.86,50.49L169.95,50.47L170.05,50.45L170.14,50.41L170.23,50.37L170.32,50.32L170.39,50.26L170.47,50.20L170.53,50.13L170.59,50.05L170.64,49.96L170.68,49.87L170.72,49.78L170.74,49.69L170.76,49.59z"/></g><g><path style="fill:#0085ca" d="M136.09,52.80L142.86,52.80L142.86,46.03L136.09,46.03z"/><text xml:space="preserve" fill="#ffffff" stroke-width="0" x="138.56" y="50.90" font-size="2.75" opacity="1.00" font-family="Rubik Medium">3</text></g></g><g id="PMI5.0"><g><path style="stroke:#0085ca;stroke-width:0.500" d="M17.99,74.67L17.80,117.27"/></g><g><path style="fill:#0085ca" d="M18.80,117.27L18.79,117.17L18.78,117.08L18.75,116.98L18.72,116.89L18.68,116.80L18.63,116.71L18.57,116.64L18.50,116.56L18.43,116.50L18.35,116.44L18.27,116.39L18.18,116.35L18.09,116.31L17.99,116.29L17.89,116.28L17.80,116.27L17.70,116.27L17.60,116.29L17.51,116.31L17.41,116.35L17.33,116.39L17.24,116.44L17.16,116.50L17.09,116.56L17.02,116.64L16.97,116.71L16.91,116.80L16.87,116.89L16.84,116.98L16.82,117.08L16.80,117.17L16.80,117.27L16.80,117.37L16.82,117.47L16.84,117.56L16.87,117.65L16.92,117.74L16.97,117.83L17.02,117.90L17.09,117.98L17.16,118.04L17.24,118.10L17.33,118.15L17.41,118.19L17.51,118.23L17.60,118.25L17.70,118.27L17.80,118.27L17.90,118.27L17.99,118.25L18.09,118.23L18.18,118.19L18.27,118.15L18.35,118.10L18.43,118.04L18.50,117.98L18.57,117.90L18.63,117.83L18.68,117.74L18.72,117.65L18.75,117.56L18.78,117.47L18.79,117.37z"/></g><g><path style="fill:#0085ca" d="M14.62,74.66L21.39,74.66L21.39,67.89L14.62,67.89z"/><text xml:space="preserve" fill="#ffffff" stroke-width="0" x="17.11" y="72.76" font-size="2.75" opacity="1.00" font-family="Rubik Medium">5</text></g></g><g id="PMI1.0"><g><path style="stroke:#0085ca;stroke-width:0.500" d="M254.51,33.81L254.47,75.54"/></g><g><path style="fill:#0085ca" d="M255.47,75.54L255.46,75.44L255.45,75.35L255.43,75.25L255.39,75.16L255.35,75.07L255.30,74.99L255.24,74.91L255.18,74.83L255.10,74.77L255.02,74.71L254.94,74.66L254.85,74.62L254.76,74.58L254.66,74.56L254.57,74.55L254.47,74.54L254.37,74.55L254.27,74.56L254.18,74.58L254.09,74.62L254.00,74.66L253.91,74.71L253.83,74.77L253.76,74.83L253.70,74.91L253.64,74.99L253.59,75.07L253.55,75.16L253.51,75.25L253.49,75.35L253.47,75.44L253.47,75.54L253.47,75.64L253.49,75.74L253.51,75.83L253.55,75.92L253.59,76.01L253.64,76.10L253.70,76.18L253.76,76.25L253.83,76.31L253.91,76.37L254.00,76.42L254.09,76.47L254.18,76.50L254.27,76.52L254.37,76.54L254.47,76.54L254.57,76.54L254.66,76.52L254.76,76.50L254.85,76.47L254.94,76.42L255.02,76.37L255.10,76.31L255.18,76.25L255.24,76.18L255.30,76.10L255.35,76.01L255.39,75.92L255.43,75.83L255.45,75.74L255.46,75.64z"/></g><g><path style="fill:#0085ca" d="M251.13,33.81L257.90,33.81L257.90,27.04L251.13,27.04z"/><text xml:space="preserve" fill="#ffffff" stroke-width="0" x="253.83" y="31.91" font-size="2.75" opacity="1.00" font-family="Rubik Medium">1</text></g></g><g id="PMI4.0"><g><path style="stroke:#0085ca;stroke-width:0.500" d="M115.38,94.45L92.96,94.36"/></g><g><path style="fill:#0085ca" d="M93.96,94.36L93.96,94.26L93.94,94.16L93.92,94.07L93.89,93.98L93.84,93.89L93.79,93.80L93.74,93.72L93.67,93.65L93.60,93.58L93.52,93.53L93.43,93.48L93.35,93.43L93.25,93.40L93.16,93.38L93.06,93.36L92.96,93.36L92.86,93.36L92.77,93.38L92.67,93.40L92.58,93.43L92.49,93.48L92.41,93.53L92.33,93.58L92.26,93.65L92.19,93.72L92.13,93.80L92.08,93.89L92.04,93.98L92.01,94.07L91.98,94.16L91.97,94.26L91.96,94.36L91.97,94.46L91.98,94.55L92.01,94.65L92.04,94.74L92.08,94.83L92.13,94.91L92.19,94.99L92.26,95.07L92.33,95.13L92.41,95.19L92.49,95.24L92.58,95.28L92.67,95.31L92.77,95.34L92.86,95.35L92.96,95.36L93.06,95.35L93.16,95.34L93.25,95.31L93.35,95.28L93.43,95.24L93.52,95.19L93.60,95.13L93.67,95.07L93.74,94.99L93.79,94.91L93.84,94.83L93.89,94.74L93.92,94.65L93.94,94.55L93.96,94.46z"/></g><g><path style="fill:#0085ca" d="M115.37,97.85L122.15,97.85L122.15,91.08L115.38,91.08z"/><text xml:space="preserve" fill="#ffffff" stroke-width="0" x="117.81" y="95.95" font-size="2.75" opacity="1.00" font-family="Rubik Medium">4</text></g></g><g id="PMI2.0"><g><path style="stroke:#0085ca;stroke-width:0.500" d="M168.08,144.15L146.08,144.15"/></g><g><path style="fill:#0085ca" d="M147.08,144.15L147.07,144.06L147.06,143.96L147.03,143.86L147.00,143.77L146.96,143.68L146.91,143.60L146.85,143.52L146.78,143.45L146.71,143.38L146.63,143.32L146.55,143.27L146.46,143.23L146.37,143.20L146.27,143.17L146.18,143.16L146.08,143.15L145.98,143.16L145.88,143.17L145.79,143.20L145.69,143.23L145.61,143.27L145.52,143.32L145.44,143.38L145.37,143.45L145.30,143.52L145.25,143.60L145.20,143.68L145.15,143.77L145.12,143.86L145.10,143.96L145.08,144.06L145.08,144.15L145.08,144.25L145.10,144.35L145.12,144.44L145.15,144.54L145.20,144.63L145.25,144.71L145.30,144.79L145.37,144.86L145.44,144.93L145.52,144.99L145.61,145.04L145.69,145.08L145.79,145.11L145.88,145.14L145.98,145.15L146.08,145.15L146.18,145.15L146.27,145.14L146.37,145.11L146.46,145.08L146.55,145.04L146.63,144.99L146.71,144.93L146.78,144.86L146.85,144.79L146.91,144.71L146.96,144.63L147.00,144.54L147.03,144.44L147.06,144.35L147.07,144.25z"/></g><g><path style="fill:#0085ca" d="M168.08,147.54L174.85,147.54L174.85,140.76L168.08,140.76z"/><text xml:space="preserve" fill="#ffffff" stroke-width="0" x="170.58" y="145.63" font-size="2.75" opacity="1.00" font-family="Rubik Medium">2</text></g></g><g id="PMI6.0"><g><path style="stroke:#0085ca;stroke-width:0.500" d="M54.87,22.77L54.71,51.21"/></g><g><path style="fill:#0085ca" d="M55.71,51.21L55.70,51.11L55.69,51.01L55.66,50.92L55.63,50.83L55.59,50.74L55.54,50.65L55.48,50.57L55.41,50.50L55.34,50.44L55.26,50.38L55.18,50.33L55.09,50.28L55.00,50.25L54.90,50.23L54.81,50.21L54.71,50.21L54.61,50.21L54.51,50.23L54.42,50.25L54.32,50.28L54.24,50.33L54.15,50.38L54.07,50.44L54.00,50.50L53.93,50.57L53.88,50.65L53.83,50.74L53.78,50.83L53.75,50.92L53.73,51.01L53.71,51.11L53.71,51.21L53.71,51.31L53.73,51.40L53.75,51.50L53.78,51.59L53.83,51.68L53.88,51.76L53.93,51.84L54.00,51.92L54.07,51.98L54.15,52.04L54.24,52.09L54.32,52.13L54.42,52.17L54.51,52.19L54.61,52.20L54.71,52.21L54.81,52.20L54.90,52.19L55.00,52.17L55.09,52.13L55.18,52.09L55.26,52.04L55.34,51.98L55.41,51.92L55.48,51.84L55.54,51.76L55.59,51.68L55.63,51.59L55.66,51.50L55.69,51.40L55.70,51.31z"/></g><g><path style="fill:#0085ca" d="M51.50,22.77L58.27,22.77L58.27,16.00L51.50,16.00z"/><text xml:space="preserve" fill="#ffffff" stroke-width="0" x="53.99" y="20.87" font-size="2.75" opacity="1.00" font-family="Rubik Medium">6</text></g></g><g/><g id="paperID" visibility="hidden" opacity="0.00" transform="scale(0.000100)"><path style="stroke:#000000;stroke-width:0.500;fill:#e6e6e6;fill-rule:evenodd" d="M-2000.00,-2000.00L2297.00,-2000.00L2297.00,2210.00L-2000.00,2210.00zM0.00,0.00L297.00,0.00L297.00,210.00L0.00,210.00z"/><path style="fill:#000000;fill-opacity:0.118" d="M3.00,210.00L297.00,210.00L297.00,3.00L300.00,3.00L300.00,213.00L3.00,213.00z"/></g><g><g><path style="stroke:#000000;stroke-width:0.353;fill:#0085ca" d="M183.32,164.22L267.50,164.22L267.50,168.80L183.32,168.80z"/><text xml:space="preserve" fill="#ffffff" stroke-width="0" x="185.09" y="167.74" font-size="2.28" opacity="1.00" font-family="Rubik" font-weight="bold">Pos.</text><text xml:space="preserve" fill="#ffffff" stroke-width="0" x="193.86" y="167.74" font-size="2.32" opacity="1.00" font-family="Rubik" font-weight="bold">Part No</text><text xml:space="preserve" fill="#ffffff" stroke-width="0" x="212.51" y="167.74" font-size="2.25" opacity="1.00" font-family="Rubik" font-weight="bold">Qty.</text><text xml:space="preserve" fill="#ffffff" stroke-width="0" x="221.19" y="167.74" font-size="2.30" opacity="1.00" font-family="Rubik" font-weight="bold">Description</text><path style="stroke:#000000;stroke-width:0.353" d="M192.10,164.22L192.10,168.80"/><path style="stroke:#000000;stroke-width:0.353" d="M210.75,164.22L210.75,168.80"/><path style="stroke:#000000;stroke-width:0.353" d="M219.43,164.22L219.43,168.80"/></g><g id="Line1"><path style="stroke:#000000;stroke-width:0.353;fill:#ffffff" d="M183.32,168.80L267.50,168.80L267.50,173.39L183.32,173.39z"/><text xml:space="preserve" fill="#505050" stroke-width="0" x="185.09" y="172.33" font-size="2.40" opacity="1.00" font-family="Rubik">1</text><text xml:space="preserve" fill="#505050" stroke-width="0" x="193.86" y="172.33" font-size="2.53" opacity="1.00" font-family="Rubik">5A22004701</text><text xml:space="preserve" fill="#505050" stroke-width="0" x="212.51" y="172.33" font-size="2.40" opacity="1.00" font-family="Rubik">1</text><text xml:space="preserve" fill="#505050" stroke-width="0" x="221.19" y="172.33" font-size="2.53" opacity="1.00" font-family="Rubik">Motor Support</text><path style="stroke:#000000;stroke-width:0.353" d="M192.10,168.80L192.10,173.39"/><path style="stroke:#000000;stroke-width:0.353" d="M210.75,168.80L210.75,173.39"/><path style="stroke:#000000;stroke-width:0.353" d="M219.43,168.80L219.43,173.39"/></g><g id="Line2"><path style="stroke:#000000;stroke-width:0.353;fill:#e7f5fd" d="M183.32,173.39L267.50,173.39L267.50,177.97L183.32,177.97z"/><text xml:space="preserve" fill="#505050" stroke-width="0" x="185.09" y="176.91" font-size="2.36" opacity="1.00" font-family="Rubik">2</text><text xml:space="preserve" fill="#505050" stroke-width="0" x="193.86" y="176.91" font-size="2.53" opacity="1.00" font-family="Rubik">5A22005101</text><text xml:space="preserve" fill="#505050" stroke-width="0" x="212.51" y="176.91" font-size="2.40" opacity="1.00" font-family="Rubik">1</text><text xml:space="preserve" fill="#505050" stroke-width="0" x="221.19" y="176.91" font-size="2.53" opacity="1.00" font-family="Rubik">Motor Support</text><path style="stroke:#000000;stroke-width:0.353" d="M192.10,173.39L192.10,177.97"/><path style="stroke:#000000;stroke-width:0.353" d="M210.75,173.39L210.75,177.97"/><path style="stroke:#000000;stroke-width:0.353" d="M219.43,173.39L219.43,177.97"/></g><g id="Line3"><path style="stroke:#000000;stroke-width:0.353;fill:#ffffff" d="M183.32,177.97L267.50,177.97L267.50,182.56L183.32,182.56z"/><text xml:space="preserve" fill="#505050" stroke-width="0" x="185.09" y="181.50" font-size="2.39" opacity="1.00" font-family="Rubik">3</text><text xml:space="preserve" fill="#505050" stroke-width="0" x="193.86" y="181.50" font-size="2.53" opacity="1.00" font-family="Rubik">5A22005501</text><text xml:space="preserve" fill="#505050" stroke-width="0" x="212.51" y="181.50" font-size="2.40" opacity="1.00" font-family="Rubik">1</text><text xml:space="preserve" fill="#505050" stroke-width="0" x="221.19" y="181.50" font-size="2.53" opacity="1.00" font-family="Rubik">Motor Support</text><path style="stroke:#000000;stroke-width:0.353" d="M192.10,177.97L192.10,182.56"/><path style="stroke:#000000;stroke-width:0.353" d="M210.75,177.97L210.75,182.56"/><path style="stroke:#000000;stroke-width:0.353" d="M219.43,177.97L219.43,182.56"/></g><g id="Line4"><path style="stroke:#000000;stroke-width:0.353;fill:#e7f5fd" d="M183.32,182.56L267.50,182.56L267.50,187.14L183.32,187.14z"/><text xml:space="preserve" fill="#505050" stroke-width="0" x="185.09" y="186.09" font-size="2.41" opacity="1.00" font-family="Rubik">4</text><text xml:space="preserve" fill="#505050" stroke-width="0" x="193.86" y="186.09" font-size="2.53" opacity="1.00" font-family="Rubik">5A22005901</text><text xml:space="preserve" fill="#505050" stroke-width="0" x="212.51" y="186.09" font-size="2.40" opacity="1.00" font-family="Rubik">1</text><text xml:space="preserve" fill="#505050" stroke-width="0" x="221.19" y="186.09" font-size="2.53" opacity="1.00" font-family="Rubik">Motor Support</text><path style="stroke:#000000;stroke-width:0.353" d="M192.10,182.56L192.10,187.14"/><path style="stroke:#000000;stroke-width:0.353" d="M210.75,182.56L210.75,187.14"/><path style="stroke:#000000;stroke-width:0.353" d="M219.43,182.56L219.43,187.14"/></g><g id="Line5"><path style="stroke:#000000;stroke-width:0.353;fill:#ffffff" d="M183.32,187.14L267.50,187.14L267.50,191.73L183.32,191.73z"/><text xml:space="preserve" fill="#505050" stroke-width="0" x="185.09" y="190.67" font-size="2.36" opacity="1.00" font-family="Rubik">5</text><text xml:space="preserve" fill="#505050" stroke-width="0" x="193.86" y="190.67" font-size="2.54" opacity="1.00" font-family="Rubik">70037577</text><text xml:space="preserve" fill="#505050" stroke-width="0" x="212.51" y="190.67" font-size="2.51" opacity="1.00" font-family="Rubik">16</text><text xml:space="preserve" fill="#505050" stroke-width="0" x="221.19" y="190.67" font-size="2.54" opacity="1.00" font-family="Rubik">Hex flange bolt DIN 6921 10.9 M12X40</text><path style="stroke:#000000;stroke-width:0.353" d="M192.10,187.14L192.10,191.73"/><path style="stroke:#000000;stroke-width:0.353" d="M210.75,187.14L210.75,191.73"/><path style="stroke:#000000;stroke-width:0.353" d="M219.43,187.14L219.43,191.73"/></g><g id="Line6"><path style="stroke:#000000;stroke-width:0.353;fill:#e7f5fd" d="M183.32,191.73L267.50,191.73L267.50,196.31L183.32,196.31z"/><text xml:space="preserve" fill="#505050" stroke-width="0" x="185.09" y="195.26" font-size="2.38" opacity="1.00" font-family="Rubik">6</text><text xml:space="preserve" fill="#505050" stroke-width="0" x="193.86" y="195.26" font-size="2.53" opacity="1.00" font-family="Rubik">70030457</text><text xml:space="preserve" fill="#505050" stroke-width="0" x="212.51" y="195.26" font-size="2.41" opacity="1.00" font-family="Rubik">4</text><text xml:space="preserve" fill="#505050" stroke-width="0" x="221.19" y="195.26" font-size="2.54" opacity="1.00" font-family="Rubik">Cylindrical mount</text><path style="stroke:#000000;stroke-width:0.353" d="M192.10,191.73L192.10,196.31"/><path style="stroke:#000000;stroke-width:0.353" d="M210.75,191.73L210.75,196.31"/><path style="stroke:#000000;stroke-width:0.353" d="M219.43,191.73L219.43,196.31"/></g></g><g id="hotspot.0" ident="" onmouseover="ShowHotSpot(evt,&apos;0&apos;)" onmouseout="HideHotSpot(evt,&apos;0&apos;)" onmousemove="ShowToolTip(evt,&apos;0&apos;,&quot;Chamfer1&quot;)" opacity="0"><path style="fill:#00ff00;fill-rule:evenodd" d="M183.32,168.80L183.32,173.39L267.50,173.39L267.50,168.80zM251.14,33.72L251.14,27.01L257.63,27.01L257.63,33.72L254.67,33.85L254.74,69.93L262.92,69.64L266.23,70.30L268.89,71.40L270.89,72.93L272.21,74.92L272.21,81.64L271.69,82.67L270.02,84.53L266.62,86.21L263.51,86.86L255.63,86.86L247.16,86.63L247.03,89.15L244.36,93.98L244.38,101.73L244.16,102.18L239.90,104.76L238.84,104.75L237.98,104.29L236.85,104.10L235.08,102.96L235.01,102.55L237.24,101.21L237.32,99.87L236.63,98.80L235.78,98.34L231.71,100.57L231.13,100.57L229.36,99.66L228.04,99.22L226.25,98.10L226.25,97.76L228.62,96.35L228.70,95.47L228.04,94.14L227.38,93.69L226.63,93.69L223.98,95.27L223.62,95.26L223.38,94.60L222.95,76.92L222.75,76.02L222.22,75.66L222.23,70.96L222.76,70.61L222.72,62.78L224.00,62.80L227.74,60.58L227.82,59.24L226.96,58.13L226.29,57.71L223.40,59.32L222.66,59.57L222.42,53.71L226.63,51.28L226.93,51.28L228.93,52.61L239.32,58.35L243.06,60.13L243.50,60.79L243.85,70.38L254.10,69.93L254.10,33.85zM236.01,63.20L236.66,64.56L236.58,65.21L232.61,67.67L231.78,67.67L230.92,66.96L230.67,66.56L230.68,64.85L234.58,62.55L235.33,62.55zM263.81,70.51L265.13,71.18L267.15,72.48L267.79,73.82L267.77,78.31L266.93,79.01L265.57,79.64L263.29,80.23L259.17,80.23L257.83,80.03L255.65,79.12L254.75,78.46L254.69,76.48L255.22,76.13L255.22,74.91L254.69,74.56L254.77,73.25L255.79,72.06L257.99,70.74L259.31,70.29L262.92,70.30z"/></g><g id="hotspot.1" ident="" onmouseover="ShowHotSpot(evt,&apos;1&apos;)" onmouseout="HideHotSpot(evt,&apos;1&apos;)" onmousemove="ShowToolTip(evt,&apos;1&apos;,&quot;Cut-Extrude4&quot;)" opacity="0"><path style="fill:#00ff00;fill-rule:evenodd" d="M183.32,173.39L183.32,177.97L267.50,177.97L267.50,173.39zM131.77,108.92L143.04,115.10L144.34,115.56L145.88,116.46L146.13,116.87L146.77,141.18L146.91,143.91L167.98,143.91L168.11,140.73L174.60,140.73L174.60,147.44L168.11,147.44L167.98,144.48L146.91,144.48L147.01,158.05L146.75,158.46L142.74,160.85L141.24,160.84L139.47,160.15L139.46,159.81L140.87,159.16L141.02,158.82L140.09,159.08L137.42,159.51L132.85,159.51L129.32,158.63L126.47,157.06L125.12,155.76L124.46,154.44L124.47,146.99L125.14,142.29L116.30,137.20L116.30,132.20L122.50,128.47L122.46,126.01L125.14,120.95L125.11,110.10L125.49,109.59L129.03,107.60L129.77,107.60zM129.10,112.48L130.23,113.33L131.32,114.90L131.75,116.23L131.77,117.86L131.02,118.87L127.77,118.90L126.47,118.20L125.78,117.13L125.47,115.56L126.23,114.31L126.79,112.88L127.70,112.23L128.44,112.24zM137.93,117.33L139.26,118.44L140.37,120.64L140.38,122.71L140.15,123.15L139.43,123.75L138.37,123.75L137.42,123.49L137.18,123.72L136.62,123.76L135.08,122.84L134.39,121.54L134.16,120.27L135.07,118.95L135.43,117.77L136.08,117.10L137.28,117.11zM138.16,143.16L140.59,144.49L141.50,145.34L141.92,146.25L141.91,150.96L141.06,151.66L139.71,152.29L137.43,152.88L133.30,152.88L131.53,152.45L129.56,151.54L128.89,150.89L128.87,146.09L129.92,144.71L132.13,143.39L133.44,142.94L135.28,142.71z"/></g><g id="hotspot.2" ident="" onmouseover="ShowHotSpot(evt,&apos;2&apos;)" onmouseout="HideHotSpot(evt,&apos;2&apos;)" onmousemove="ShowToolTip(evt,&apos;2&apos;,&quot;Chamfer1&quot;)" opacity="0"><path style="fill:#00ff00;fill-rule:evenodd" d="M183.32,177.97L183.32,182.56L267.50,182.56L267.50,177.97zM175.69,23.49L177.17,23.48L178.50,23.26L183.20,23.26L186.31,23.91L188.73,25.02L190.74,26.77L191.83,28.77L191.82,34.37L191.07,40.10L192.92,41.15L193.60,42.02L199.77,45.56L199.77,50.71L193.74,54.18L193.59,58.45L190.92,63.07L190.95,72.59L190.73,73.03L186.43,75.59L185.63,75.61L183.86,74.70L183.20,74.74L180.98,73.37L180.98,73.03L183.36,71.62L183.44,70.74L182.80,69.38L182.11,68.95L181.36,68.95L177.84,70.97L177.02,70.97L175.26,70.07L173.93,69.63L172.38,68.73L172.38,68.17L174.62,66.86L174.60,65.65L173.97,64.52L173.27,64.09L172.76,64.09L170.55,65.47L170.12,65.51L169.94,65.01L169.54,50.62L168.87,50.18L168.63,49.77L142.72,49.75L142.58,52.71L136.09,52.71L136.09,46.00L142.58,46.00L142.72,49.18L168.78,49.09L169.51,48.50L169.29,33.42L169.95,33.28L173.86,30.99L173.94,30.11L173.27,28.78L172.61,28.32L171.87,28.32L169.63,29.67L169.23,29.76L169.29,25.54L173.63,23.03L174.83,23.03zM182.98,23.92L185.63,25.25L186.96,26.57L187.40,29.00L187.84,29.22L188.50,29.89L188.98,30.83L177.37,24.42L177.38,24.16L177.93,23.95L179.16,23.70L182.10,23.70zM181.86,33.44L182.56,34.51L182.57,35.72L178.74,38.07L177.67,38.07L176.81,37.38L176.57,36.75L176.58,35.47L180.71,32.95L181.21,32.95z"/></g><g id="hotspot.3" ident="" onmouseover="ShowHotSpot(evt,&apos;3&apos;)" onmouseout="HideHotSpot(evt,&apos;3&apos;)" onmousemove="ShowToolTip(evt,&apos;3&apos;,&quot;Chamfer1&quot;)" opacity="0"><path style="fill:#00ff00;fill-rule:evenodd" d="M183.32,182.56L183.32,187.14L267.50,187.14L267.50,182.56zM77.66,79.35L91.60,87.04L92.68,88.83L93.05,93.33L93.78,93.92L103.27,94.14L115.20,94.22L115.33,91.04L122.05,91.04L122.05,97.76L115.33,97.76L115.20,94.80L93.90,94.56L93.02,95.45L93.27,106.80L93.80,107.15L93.78,111.67L93.57,111.90L93.57,128.90L93.32,129.31L89.28,131.67L88.02,131.69L86.71,131.01L85.39,130.58L83.85,129.68L82.73,128.81L77.87,126.15L77.21,126.19L75.02,124.82L73.92,123.94L73.01,122.64L72.78,121.98L72.57,119.32L72.36,112.46L68.31,112.47L59.48,112.91L52.26,112.91L49.82,112.49L46.76,111.12L44.99,109.81L44.10,108.48L43.86,107.62L43.86,101.05L44.76,99.30L46.89,97.68L49.32,96.57L51.97,95.91L56.01,95.69L62.86,95.91L69.06,95.98L69.01,95.10L71.70,90.25L71.92,81.85L73.90,80.52L76.47,79.11L77.22,79.11zM56.91,104.29L58.27,104.95L58.16,105.39L56.40,106.08L53.36,106.07L52.04,105.63L51.59,105.39L51.59,104.83L52.85,104.30L53.96,104.08L55.79,104.08z"/></g><g id="hotspot.4" ident="" onmouseover="ShowHotSpot(evt,&apos;4&apos;)" onmouseout="HideHotSpot(evt,&apos;4&apos;)" onmousemove="ShowToolTip(evt,&apos;4&apos;,&quot;din6921_m12x40_10_9&quot;)" opacity="0"><path style="fill:#00ff00;fill-rule:evenodd" d="M183.32,187.14L183.32,191.73L267.50,191.73L267.50,187.14zM179.26,24.56L180.12,25.70L179.68,25.71L177.37,24.42L177.38,24.16L177.93,23.93zM173.27,28.78L173.94,30.11L173.86,30.99L169.67,33.44L168.64,33.18L167.95,32.33L167.97,30.62L171.87,28.32L172.61,28.32zM187.85,29.22L188.50,29.89L188.98,30.83L186.06,29.20L186.01,29.00L186.44,28.76L186.96,28.76zM181.86,33.44L182.56,34.51L182.57,35.72L178.74,38.07L177.67,38.07L176.81,37.38L176.57,36.75L176.58,35.47L180.71,32.95L181.21,32.95zM233.12,53.95L234.22,55.29L233.79,55.30L231.48,54.01L231.55,53.58L232.00,53.49zM226.96,58.13L227.82,59.24L227.74,60.58L224.00,62.80L222.74,62.78L222.08,62.11L221.84,61.48L221.83,60.41L222.21,59.91L226.29,57.71zM241.95,58.81L242.64,59.50L242.62,59.77L242.17,59.73L240.16,58.79L240.11,58.59L240.54,58.35L241.06,58.35zM236.01,63.20L236.66,64.56L236.58,65.21L232.61,67.67L231.78,67.67L230.92,66.96L230.67,66.56L230.68,64.85L234.58,62.55L235.33,62.55zM173.97,64.52L174.60,65.65L174.62,66.86L170.76,69.18L169.72,69.21L169.09,68.74L168.61,67.65L168.61,66.82L169.00,66.32L172.76,64.09L173.27,64.09zM182.80,69.38L183.44,70.74L183.36,71.62L179.61,73.84L178.33,73.84L177.70,73.37L177.45,72.96L177.46,71.25L181.36,68.95L182.11,68.95zM14.64,74.57L14.64,67.86L21.13,67.86L21.13,74.57L18.17,74.70L17.97,116.29L18.50,116.66L18.84,116.69L23.47,114.01L24.45,114.01L24.89,114.23L25.55,115.11L25.47,116.67L19.09,120.41L19.15,122.05L18.71,122.94L17.97,123.31L16.92,123.30L16.49,123.05L15.75,123.31L14.71,123.08L13.60,122.20L13.16,121.54L12.87,119.76L13.61,118.72L14.29,116.98L14.86,116.66L16.06,116.65L16.71,116.94L17.08,116.45L17.36,116.29L17.59,97.75L17.60,74.70zM228.04,94.14L228.70,95.47L228.62,96.35L224.66,98.80L223.83,98.80L222.97,98.10L222.72,97.69L222.74,95.99L226.63,93.69L227.38,93.69zM236.63,98.80L237.32,99.87L237.24,101.21L233.49,103.43L232.43,103.43L231.80,102.97L231.33,102.10L231.33,101.04L231.70,100.54L235.78,98.34zM138.17,110.91L138.18,112.32L135.04,110.71L134.76,110.46L136.31,109.59L137.06,109.58zM129.10,112.48L130.23,113.33L131.32,114.90L131.75,116.23L131.77,117.86L131.02,118.87L127.77,118.90L126.47,118.20L125.78,117.13L125.47,115.56L126.23,114.31L126.79,112.88L127.70,112.23L128.44,112.24zM145.89,114.46L146.58,115.09L147.00,116.01L146.94,116.91L146.34,117.42L145.88,116.46L144.35,115.56L143.65,115.33L143.61,115.12L145.24,114.25zM137.93,117.33L139.26,118.44L140.37,120.64L140.38,122.71L140.15,123.15L139.43,123.75L138.37,123.75L137.42,123.49L137.18,123.72L136.62,123.76L135.08,122.84L134.39,121.54L134.16,120.27L135.07,118.95L135.43,117.77L136.08,117.10L137.28,117.11zM33.97,119.50L34.38,120.65L34.16,121.39L27.90,125.06L27.75,126.90L27.54,127.57L27.03,127.95L23.77,127.95L22.46,127.25L21.78,125.95L21.55,124.69L22.46,123.38L22.65,122.24L23.25,121.52L24.23,121.33L25.10,121.52L26.01,122.19L26.32,122.19L32.31,118.64L33.05,118.64zM25.80,150.20L26.43,151.32L26.35,152.44L19.93,156.21L20.02,156.86L19.75,158.42L19.08,159.08L15.82,159.08L14.52,158.17L14.05,157.53L13.82,156.87L13.82,155.37L14.52,154.52L14.73,153.41L15.30,152.65L16.48,152.42L17.83,153.10L18.63,153.12L24.36,149.77L25.11,149.77zM147.66,151.55L147.65,152.96L147.22,153.20L146.92,150.65L147.18,150.65zM34.38,154.86L35.05,155.74L34.96,157.30L28.59,161.04L28.64,162.68L28.21,163.57L27.47,163.94L26.41,163.93L25.99,163.68L25.25,163.94L24.20,163.71L23.13,162.80L22.44,161.29L22.46,160.25L23.27,158.85L23.79,157.61L24.35,157.29L25.55,157.29L26.67,157.96L27.24,157.99L32.97,154.64L33.94,154.64z"/></g><g id="hotspot.5" ident="" onmouseover="ShowHotSpot(evt,&apos;5&apos;)" onmouseout="HideHotSpot(evt,&apos;5&apos;)" onmousemove="ShowToolTip(evt,&apos;5&apos;,&quot;Chamfer1&quot;)" opacity="0"><path style="fill:#00ff00;fill-rule:evenodd" d="M183.32,191.73L183.32,196.31L267.50,196.31L267.50,191.73zM51.52,22.68L51.52,15.96L58.01,15.96L58.01,22.68L55.05,22.81L54.84,50.27L55.39,50.60L55.72,51.60L57.78,51.96L59.77,53.07L60.90,54.15L61.54,55.50L61.53,58.88L61.32,60.00L61.03,60.33L61.55,61.67L61.53,65.51L61.00,66.96L59.33,68.38L57.55,69.25L55.72,69.63L54.03,69.63L51.81,69.20L49.18,67.63L48.50,66.77L48.27,66.11L48.27,61.30L48.52,60.36L48.27,59.71L48.27,55.12L49.18,53.60L51.97,51.97L53.59,51.61L53.81,50.50L54.24,50.27L54.47,41.44L54.48,22.81zM182.98,23.92L184.97,24.81L186.77,26.32L187.18,27.23L187.21,28.84L186.45,28.75L186.01,29.02L185.63,29.03L180.54,26.14L179.02,24.36L178.28,23.92L179.16,23.70L182.10,23.70zM263.81,70.51L265.13,71.18L267.15,72.48L267.79,73.82L267.77,78.31L266.93,79.01L265.57,79.64L263.29,80.23L259.17,80.23L257.83,80.03L255.65,79.12L254.75,78.46L254.76,73.25L255.79,72.06L257.99,70.74L259.31,70.29L262.92,70.30zM256.88,87.07L263.51,86.86L266.45,86.40L264.40,87.74L262.63,88.18L259.60,88.19L257.63,87.52zM138.16,143.16L140.59,144.49L141.50,145.34L141.92,146.25L141.91,150.96L141.06,151.66L139.71,152.29L137.43,152.88L133.30,152.88L131.53,152.45L129.56,151.54L128.89,150.89L128.87,146.09L129.92,144.71L132.13,143.39L133.44,142.94L135.28,142.71zM132.85,159.51L137.42,159.51L140.58,159.04L140.61,159.14L138.53,160.39L136.76,160.83L133.96,160.84L132.21,160.38L130.18,159.26L130.13,159.05z"/></g></g></svg>