<?xml version="1.0" encoding="UTF-8" standalone="yes"?><svg xmlns="http://www.w3.org/2000/svg" xmlns:xlink="http://www.w3.org/1999/xlink" width="297.000mm" height="210.000mm" viewBox="0.000000 0.000000 297.000000 210.000000" stroke-linejoin="round" stroke-linecap="round" fill="none" fill-rule="evenodd"><desc>Composer Export</desc><script type="text/ecmascript"><![CDATA[
if(typeof(top) != "undefined")
{
	top.ShowPaper = ShowPaper;
}
function ShowHotSpot(evt,hotspotid)
{
	var svgDocument = evt.target.ownerDocument;
	var strId = "hotspot."+hotspotid;
	var hotspot = svgDocument.getElementById(strId);
	if(hotspot)
		hotspot.setAttribute("opacity",".5");
}
function HideHotSpot(evt,hotspotid)
{
	var svgDocument = evt.target.ownerDocument;
	var strId = "hotspot."+hotspotid;
	var hotspot = svgDocument.getElementById(strId);
	if(hotspot)
		hotspot.setAttribute("opacity","0");

	var toolTip = svgDocument.getElementById('ToolTip');
	if(toolTip)
		toolTip.setAttribute("visibility","hidden");
}
function ShowToolTip(evt,hotspotid,strTooltip)
{
	if(strTooltip=="")
	return;

	// change text
	var svgDocument = evt.target.ownerDocument;
	var tiptext = svgDocument.getElementById('ToolTipText');
	if( !tiptext )
	return;
	tiptext.firstChild.nodeValue = " " + strTooltip + "  " ;

	// show tooltip before, else some refresh issue

	var toolTip = svgDocument.getElementById('ToolTip');
	if(!toolTip)
	return;

	toolTip.setAttribute("visibility","visible");
	toolTip.setAttribute("opacity",".95");

	// move tooltip
	// get viewbox

	var root = svgDocument.documentElement;
	var vbox = (root.getAttribute("viewBox")).split(' ');
	var x0 = parseFloat(vbox[0]);
	var y0 = parseFloat(vbox[1]);
	var vboxW = parseFloat(vbox[2]);
	var vboxH = parseFloat(vbox[3]);

	// get default width of svg

	var strW = root.getAttribute("width");
	var svgW = parseFloat(strW);
	if(strW.indexOf('mm') != -1)
	svgW *= 3.779;

	var strH = root.getAttribute("height");
	var svgH = parseFloat(strH);
	if(strH.indexOf('mm') != -1)
	svgH *= 3.779;  	// 96 dpi  -> 96/25.4 = 3.779

	// update the viewbox / width / height if svg is embedded in html with zoom fit all
	var realx0 = x0;
	var realy0 = y0;
	var realvboxW = vboxW;
	var realvboxH = vboxH;
	var realsvgW = svgW;
	var realsvgH = svgH;

	if ((typeof(top) == "undefined") || (typeof(top.svgctl1) != "undefined")) // embedded in html
	{
		// get window size in pxl

		svgW = window.innerWidth;
		svgH = window.innerHeight;

		// calculate real viewbox

		realsvgW = svgW;
		realsvgH = svgH;
		if((svgW / svgH) > (vboxW / vboxH))
		{
			realvboxW = (vboxH * svgW) / svgH;
			realvboxH = vboxH;
			realx0 = x0 - (realvboxW - vboxW)/2 ;
		}
		else
		{
			realvboxH = (vboxW * svgH) / svgW;
			realvboxW = vboxW;
			realy0 = y0 - (realvboxH - vboxH)/2 ;
		}
	}

	// get user zoom/pan

	var newScale = root.currentScale;
	var translation = root.currentTranslate;

	// transform pxl to user unit

	var xPos = (((evt.clientX+10- translation.x)/newScale) * realvboxW)/realsvgW  + realx0 ;
	var yPos = (((evt.clientY+5- translation.y)/newScale) * realvboxH)/ realsvgH  + realy0 ;
	var scaleForWidth = ( (1 / newScale) * realvboxH) / realsvgH;

	// move tooltip

	toolTip.setAttribute("transform", "translate(" + xPos + "," + yPos + ")" );

	// resize tooltip

	var fontsize = 12;
	tiptext.setAttribute("font-size",fontsize*scaleForWidth);
	tiptext.setAttribute("y", fontsize*scaleForWidth);
	var tipBG = svgDocument.getElementById('ToolTipBG');
	var outline = tiptext.getBBox();
	if(tipBG)
	{
		tipBG.setAttribute("stroke-width", 1*scaleForWidth);
		tipBG.setAttribute("width", Number(outline.width) );
		tipBG.setAttribute("height", Number(outline.height) + fontsize*.5*scaleForWidth );
	}
	var ToolTipShadow = svgDocument.getElementById('ToolTipShadow');
	if(ToolTipShadow)
	{
		ToolTipShadow.setAttribute("width", Number(outline.width) );
		ToolTipShadow.setAttribute("height", Number(outline.height) + fontsize*.5*scaleForWidth );
		ToolTipShadow.setAttribute("x", 3*scaleForWidth);
		ToolTipShadow.setAttribute("y", 3*scaleForWidth);
	}
}
function ShowPaper()
{
  var svgDocument = getDocument();
  var paper = svgDocument.getElementById("paperID");
  if(paper)
  {
    paper.setAttribute("transform","scale(1)");
    paper.setAttribute("opacity","1");
    paper.setAttribute("visibility","visible");
  }
  var svg = svgDocument.getRootElement();
  if(svg)
  {
    svg.setAttribute("width","307.000mm");
    svg.setAttribute("height","220.000mm");
    svg.setAttribute("viewBox","-5.000000 -5.000000 307.000000 220.000000");
  }
}
]]></script><defs/><g><g id="Actor_.0"><g style="stroke:#000000;stroke-width:0.071"><path d="M35.36,42.83L35.08,42.64L34.86,42.29L34.77,41.80L35.44,42.24L35.24,43.76L35.43,46.67L35.45,46.93L35.82,48.06L35.16,47.62L35.17,47.06L35.33,46.44L35.41,46.28"/><path d="M45.07,36.94L40.41,40.14L40.40,40.05L40.28,40.26L40.04,40.57L39.76,40.80L39.48,40.95L39.22,40.99L39.01,40.92L38.86,40.75L38.80,40.50L38.82,40.18L38.94,39.84L39.12,39.50L39.36,39.20L39.64,38.96L39.92,38.81L40.18,38.77L40.32,38.80L40.16,36.47L39.53,37.62L37.95,41.44L37.24,45.09L37.45,48.26L38.56,50.66L40.48,52.08L37.82,50.31L35.90,48.89L35.16,47.62"/><path d="M34.77,41.80L35.29,39.66L36.87,35.85L39.16,32.21L42.41,34.38L42.22,34.47L41.10,35.27L40.16,36.47"/><path d="M40.48,52.08L41.21,52.30L41.05,49.97L40.93,50.18L40.69,50.48L40.41,50.71L40.13,50.86L39.87,50.90L39.66,50.83L39.52,50.67L39.45,50.41L39.48,50.10L39.59,49.75L39.77,49.41L40.02,49.11L40.29,48.87L40.57,48.73L40.83,48.69L40.97,48.72L40.97,48.63L52.41,40.80"/><path d="M39.16,32.21L42.23,30.11L42.58,30.29L42.93,30.53"/><path d="M40.97,48.63L42.01,49.01L43.21,49.52L44.45,50.12L45.05,50.44L45.62,50.75L46.13,51.06L46.58,51.35L46.72,53.47L45.77,53.01L44.63,52.79L43.63,52.79L43.42,52.75L42.24,52.51L41.21,52.30"/><path d="M40.97,48.72L41.05,48.76L41.20,48.93L41.26,49.18L41.23,49.50L41.12,49.84L41.05,49.97"/><path d="M40.41,40.14L41.33,38.76L42.43,37.70L43.59,37.04L44.16,36.89L44.70,36.87L45.20,36.96L45.65,37.18L49.64,39.85L49.50,37.72L50.93,38.41L52.64,38.74L54.44,38.70L56.16,38.29L57.64,37.54L58.73,36.53L59.32,35.36L59.36,34.14L59.50,36.27L59.46,37.48L58.87,38.66L57.78,39.67L56.30,40.41L54.58,40.83L54.30,40.84L52.78,40.87L51.07,40.53L49.64,39.85"/><path d="M40.40,40.05L40.46,39.92L40.58,39.58L40.61,39.27L40.54,39.01L40.39,38.84L40.32,38.80"/><path d="M45.65,37.18L45.51,35.06L44.55,34.60L43.42,34.38L42.41,34.38"/><path d="M42.23,30.11L42.89,30.56L47.12,27.66L46.46,27.21L46.16,27.84L46.00,28.43"/><path d="M45.51,35.06L49.50,37.72"/><path d="M46.46,27.21L49.52,25.11L52.77,27.28L52.78,27.96L53.13,28.73L53.81,29.37L57.80,32.03L58.83,32.99L59.36,34.14"/><path d="M50.71,56.13L52.15,56.82L53.85,57.16L55.41,57.12L55.65,57.12L57.38,56.70L58.85,55.95L59.94,54.94L60.53,53.77L60.57,52.55L60.43,50.43L60.39,51.65L59.80,52.82L58.71,53.83L57.24,54.58L55.51,54.99L55.41,54.99L53.71,55.03L52.01,54.69L50.57,54.01L50.71,56.13L46.72,53.47"/><path d="M50.57,54.01L46.58,51.35L54.89,45.65L54.50,45.32L54.19,44.87L53.96,44.33L53.82,43.71L53.80,42.27L54.11,40.84"/><path d="M49.57,36.67L50.19,37.25L51.39,37.82L52.80,38.10L54.31,38.07L55.74,37.72L56.98,37.10L57.88,36.26L58.37,35.28L58.40,34.26L57.97,33.31L57.11,32.51L55.92,31.94L54.50,31.65L53.00,31.69L51.56,32.03L50.33,32.66L49.42,33.50L48.93,34.48L48.90,35.49L49.33,36.45L49.57,36.67"/><path d="M58.20,35.63L58.11,35.43L57.25,34.63L56.06,34.06L54.64,33.78L53.14,33.81L51.70,34.16L50.47,34.78L49.56,35.62L49.24,36.25"/><path d="M49.52,25.11L52.08,25.43L54.74,27.20L54.01,26.98L53.24,26.95L52.81,27.22L52.77,27.28"/><path d="M50.41,52.73L49.97,51.78L50.00,50.76L50.49,49.79L51.40,48.94L52.63,48.32L54.07,47.97L55.41,47.94L55.57,47.94L56.99,48.22L58.19,48.79L59.04,49.59L59.48,50.55L59.45,51.57L58.96,52.54L58.05,53.38L56.82,54.01L56.52,54.08L55.38,54.35L53.88,54.39L52.46,54.10L51.26,53.53L50.41,52.73"/><path d="M50.32,52.54L50.63,51.91L51.54,51.07L52.77,50.44L54.21,50.10L55.71,50.07L57.13,50.35L58.33,50.92L59.18,51.72L59.27,51.91"/><path d="M54.92,40.75L55.05,42.82L54.37,44.19L54.19,44.86"/><path d="M55.12,30.24L55.20,30.18L55.44,29.87L55.63,29.53L55.74,29.19L55.76,28.88L55.70,28.62L55.56,28.45L55.34,28.38L55.09,28.43L54.80,28.57L54.53,28.81L54.29,29.11L54.16,29.32L54.01,26.98"/><path d="M54.07,29.54L54.10,29.45L54.16,29.32"/><path d="M54.89,45.65L58.88,48.32L59.91,49.28L60.43,50.43"/><path d="M55.05,42.82L55.69,41.66L56.20,40.44"/><path d="M54.74,27.20L56.66,28.62L57.77,31.02L57.84,32.07"/><path d="M57.51,36.60L57.80,35.14"/></g></g><g id="Actor_.1"><g style="stroke:#000000;stroke-width:0.071"><path d="M155.30,103.20L153.96,102.34L152.95,101.83L151.68,101.87L150.27,102.46L148.85,103.53L147.57,104.99L146.55,106.69L145.89,108.46L145.66,110.14L145.87,111.55L146.51,112.55L197.97,145.94"/><path d="M204.82,135.33L156.49,103.98"/><path d="M201.52,151.67L199.13,150.11L198.19,148.64L197.88,146.59L198.22,144.16L198.37,143.76L199.18,141.58L200.66,139.11L202.53,136.99L204.59,135.42L206.65,134.57L208.50,134.51L209.96,135.25L211.95,136.52"/><path d="M204.26,157.43L203.23,155.96L202.89,155.35L202.45,154.32L201.92,153.20L201.63,152.21L201.35,150.77L201.22,149.35L201.46,146.90L201.44,149.18L201.52,149.60L202.47,151.67L202.69,151.97L203.43,152.76L203.35,152.83L204.22,155.28L204.22,155.49L204.26,155.83L204.37,156.22L204.66,156.87L205.00,157.48L205.88,159.94L212.52,164.25L213.69,164.88L214.62,165.09L215.23,164.88L215.44,164.25L215.25,163.28L214.66,162.05L213.88,160.91L213.74,160.70L212.58,159.34L211.29,158.11L210.00,157.14L203.35,152.83"/><path d="M201.22,149.35L201.24,148.49L201.54,146.32L201.65,145.93L202.66,143.42L204.06,141.16L205.85,139.14L207.74,137.68L209.72,136.79L211.56,136.62L207.73,140.22L210.25,147.34L212.03,145.98L212.63,145.67"/><path d="M201.24,148.49L201.20,148.75L201.23,149.23"/><path d="M201.24,149.47L201.24,149.59L201.24,149.51"/><path d="M201.46,146.90L201.65,145.93L205.48,142.33L208.01,149.45L206.61,151.06L206.33,151.61"/><path d="M205.48,142.33L204.09,143.95L203.25,145.56L203.17,145.72L202.77,147.54L203.70,149.45L205.34,150.96L211.98,155.27L213.28,156.25L214.57,157.47L215.73,158.83L216.65,160.19L217.21,161.37L217.23,161.42L217.42,162.39L217.21,163.01L215.23,164.88"/><path d="M205.78,159.68L204.89,158.65L203.97,157.01"/><path d="M208.10,158.89L208.42,159.56L209.19,160.69L210.16,161.82L211.23,162.85L212.31,163.66L213.29,164.18L214.06,164.36L214.56,164.18L214.74,163.66L214.58,162.85L214.09,161.83L213.33,160.70L212.36,159.56L211.29,158.54L210.21,157.73L209.26,157.22L208.46,157.03L207.95,157.21L207.77,157.73L207.94,158.54L208.10,158.89"/><path d="M207.36,152.27L207.99,151.99L209.89,150.53L211.67,148.51L212.80,146.70"/><path d="M207.73,140.22L209.51,138.86L211.57,137.83L213.80,137.19L215.44,141.82"/><path d="M210.00,157.14L211.98,155.27"/><path d="M211.56,136.62L212.74,136.31L215.42,135.87L215.94,135.86L218.75,136.15L220.48,136.74L220.55,136.67L227.20,140.98L228.49,141.96L229.78,143.18L230.94,144.54L231.86,145.90L232.45,147.13L232.64,148.10L232.43,148.72L230.44,150.59L230.66,149.96L230.46,148.99L229.88,147.76L228.96,146.40L227.80,145.05L226.51,143.82L225.21,142.85L227.20,140.98"/><path d="M213.80,137.19L216.37,137.56L218.57,138.54L225.21,142.85"/><path d="M219.61,141.47L218.57,138.54"/><path d="M223.70,142.74L223.67,142.74L223.44,142.82"/><path d="M224.49,142.94L224.45,142.92L223.99,142.81"/><path d="M225.45,143.46L224.97,143.19"/><path d="M225.99,143.86L226.20,144.02"/><path d="M226.71,144.44L227.30,145.00"/><path d="M226.46,144.22L226.52,144.27"/><path d="M228.57,146.44L227.82,145.56"/><path d="M227.54,145.23L227.59,145.29"/><path d="M229.01,150.61L229.84,150.80L230.44,150.59"/><path d="M228.72,146.67L229.32,147.57"/><path d="M229.77,149.90L229.78,149.89L229.89,149.56"/><path d="M229.85,148.82L229.96,149.38"/><path d="M229.80,148.58L229.40,147.72"/></g></g><g id="Actor_.2"><g style="stroke:#000000;stroke-width:0.071"><path d="M68.61,70.70L63.57,67.33L63.47,67.14L63.44,66.88L63.48,66.67L63.50,66.57L63.63,66.25L63.83,65.95L64.07,65.69L64.33,65.51L64.58,65.41L64.80,65.42L64.98,65.52L69.88,68.79"/><path d="M69.86,72.73L69.76,72.77L69.72,72.78L69.22,72.77L69.19,72.76L68.80,72.53L68.77,72.51L68.75,72.47L68.52,72.05L68.51,72.01L68.46,71.44L68.58,70.76L68.88,70.05L69.30,69.40L69.82,68.84L69.83,68.83L70.40,68.42L70.96,68.21L71.00,68.21L71.50,68.21L71.54,68.22L71.95,68.47L71.98,68.50L72.21,68.93L72.22,68.97L72.23,69.16"/><path d="M72.21,69.15L72.20,69.02L71.98,68.61L71.61,68.39L71.13,68.38L70.58,68.59L70.02,68.98L69.51,69.54L69.09,70.19L68.80,70.88L68.68,71.53L68.73,72.10L68.95,72.51L69.32,72.73L69.80,72.74L69.84,72.72"/><path d="M69.12,72.38L69.13,71.08L69.06,70.67L70.20,69.31L70.45,68.88L70.47,68.94L70.50,68.98L70.53,69.02L70.56,69.04L69.92,69.90L69.20,70.72L69.29,71.57L69.33,72.11L69.30,72.36L69.29,72.36L69.26,72.35L69.21,72.35L69.17,72.36L69.12,72.38L69.35,72.39"/><path d="M69.30,72.36L70.19,72.95"/><path d="M69.26,71.57L69.15,70.70L69.21,70.72L69.24,70.74L69.29,71.57"/><path d="M69.06,70.67L69.10,70.68L69.49,70.30L69.88,69.87L69.15,70.70L69.10,70.68L69.15,71.12"/><path d="M70.41,72.24L70.38,71.51L69.24,70.74L69.49,70.48L69.92,69.90"/><path d="M69.13,70.69L69.49,70.30"/><path d="M71.39,72.91L71.44,72.91L71.80,72.78L72.16,72.52L72.49,72.16L72.76,71.74L72.95,71.29L73.03,70.87L73.00,70.50L72.85,70.24L72.61,70.09L72.30,70.09L71.95,70.22L71.58,70.48L71.25,70.83L70.98,71.26L70.79,71.70L70.71,72.13L70.72,72.24"/><path d="M70.38,71.51L71.71,69.81L70.56,69.04L70.83,69.05L71.94,68.96L71.92,68.94L71.91,68.80L71.64,68.86L70.45,68.88"/><path d="M71.94,68.96L73.09,69.73L73.15,71.35L71.83,73.05L71.39,73.08"/><path d="M71.92,68.94L71.90,68.91L71.90,68.90L71.90,68.91"/><path d="M71.90,68.90L71.90,68.86L71.90,68.85L71.60,68.89L71.90,68.83L71.91,68.80"/><path d="M71.71,69.81L73.09,69.73"/><path d="M71.92,68.94L71.90,68.83L71.90,68.85L71.91,68.92"/><path d="M71.90,68.83L71.90,68.84"/></g></g><g id="Actor_.3"><g style="stroke:#000000;stroke-width:0.071"><path d="M207.85,158.13L207.92,158.49L208.17,159.03"/><path d="M208.18,159.05L208.39,159.50L208.79,160.10"/><path d="M207.85,158.12L207.78,157.69L207.97,157.19L208.49,157.03L208.86,157.12"/><path d="M209.64,161.22L209.14,160.63L208.81,160.13"/><path d="M209.75,157.48L209.28,157.23L208.87,157.12"/><path d="M210.68,162.32L210.10,161.77L209.68,161.26"/><path d="M210.77,158.15L210.26,157.77L209.77,157.49"/><path d="M212.78,163.91L212.25,163.62L211.17,162.80L210.71,162.35"/><path d="M211.85,159.07L211.35,158.59L210.80,158.18"/><path d="M210.82,154.52L214.32,151.22"/><path d="M212.86,160.15L212.42,159.62L211.88,159.11"/><path d="M212.78,146.64L212.64,146.22L212.63,145.05L213.08,143.87L213.93,142.80L215.12,141.95L216.52,141.39L217.99,141.20L219.39,141.37L220.58,141.90L221.45,142.73L221.91,143.79L223.44,148.24L223.69,149.03L223.92,150.85L223.80,152.22L223.75,152.85L223.20,154.82L221.71,154.77L220.03,154.51L218.34,154.06L217.54,153.78L216.80,153.47L216.10,153.12L215.56,152.80L215.09,152.45L214.74,152.11L214.51,151.77L212.78,146.64"/><path d="M212.64,146.22L213.10,147.28L213.97,148.11L215.16,148.64L216.56,148.81L218.03,148.62L219.43,148.06L220.61,147.21L221.47,146.14L221.92,144.96L221.91,143.79"/><path d="M213.66,164.27L213.24,164.16L212.80,163.92"/><path d="M213.67,164.27L214.03,164.36L214.55,164.20L214.74,163.70L214.60,162.90L214.37,162.40"/><path d="M212.89,160.18L213.38,160.76L213.72,161.27"/><path d="M213.74,161.30L214.13,161.89L214.35,162.37"/><path d="M217.73,161.21L217.81,161.44L218.27,162.50L219.14,163.33L220.33,163.86L221.73,164.04L223.20,163.84L224.60,163.28L225.78,162.43L226.64,161.36L227.09,160.19L227.08,159.01L225.40,154.01"/><path d="M229.76,149.91L225.09,154.30L224.37,154.66L223.20,154.82L222.32,156.58L221.20,157.95L217.27,161.64"/><path d="M223.19,142.90L221.99,144.02"/></g></g><g id="Actor_.4"><g style="stroke:#000000;stroke-width:0.071"><path d="M243.85,156.73L242.93,156.11L243.04,154.39L244.33,152.93"/><path d="M244.23,155.10L244.19,155.15L243.04,154.39"/><path d="M246.19,157.14L245.77,157.45L245.26,157.65L244.80,157.67L244.44,157.51L244.20,157.19L244.10,156.72L244.14,156.14L244.34,155.51L244.67,154.87L245.08,154.33L245.24,154.16L245.74,153.74L246.25,153.47L246.74,153.38L247.14,153.48L247.44,153.77L247.58,154.19L247.58,154.74L247.46,155.23"/><path d="M247.49,155.24L247.62,154.75L247.63,154.13L247.62,154.10L247.46,153.61L247.43,153.58L247.10,153.27L247.07,153.25L247.03,153.24L246.57,153.15L246.53,153.16L245.99,153.29L245.41,153.63L245.40,153.64L244.85,154.15L244.39,154.78L244.05,155.47L243.86,156.18L243.85,156.80L243.86,156.83L244.02,157.32L244.05,157.35L244.38,157.65L244.41,157.67L244.92,157.77L244.95,157.76L245.49,157.63L246.07,157.29L246.21,157.16"/><path d="M244.18,155.21L244.19,155.15L244.20,155.16"/><path d="M244.65,152.94L245.56,153.54"/><path d="M246.20,153.24L245.74,152.94L244.69,152.82"/><path d="M246.08,157.28L245.81,157.44L245.52,157.61L245.52,157.61"/><path d="M250.46,157.72L250.46,157.44L250.39,157.22L250.24,157.08L250.03,157.04L249.78,157.10L249.52,157.26L249.27,157.49L249.06,157.78L248.90,158.10L248.82,158.41L248.81,158.69L248.89,158.91L249.04,159.05L245.33,156.57L245.18,156.43L245.10,156.21L245.11,155.93L245.19,155.62L245.35,155.30L245.56,155.01L245.81,154.78L246.07,154.63L246.32,154.56L246.53,154.60L246.51,154.59"/><path d="M245.45,156.65L245.24,156.63L245.06,156.52L244.96,156.33L244.93,156.07L244.98,155.76L245.10,155.42L245.29,155.10L245.53,154.81L245.72,154.65L245.78,154.60L246.05,154.46L246.30,154.41L246.52,154.46L246.66,154.59L246.72,154.73"/><path d="M245.33,156.57L245.31,156.56"/><path d="M246.53,154.60L250.24,157.08"/><path d="M249.73,158.92L249.92,158.80L250.11,158.63L250.27,158.41L250.39,158.17L250.45,157.94L250.45,157.73L250.40,157.56L250.29,157.46L250.13,157.43L249.95,157.48L249.75,157.59L249.56,157.77L249.40,157.98L249.29,158.22L249.22,158.46L249.22,158.67L249.27,158.83L249.39,158.93L249.54,158.96L249.73,158.92L249.49,159.03L249.24,159.09L249.04,159.05"/><path d="M250.45,157.94L250.46,157.72"/></g></g><g id="Actor_.5"><g style="stroke:#000000;stroke-width:0.071"><path d="M87.78,81.27L87.36,80.60L86.82,79.29L86.59,78.09L86.63,77.65"/><path d="M86.63,77.64L86.68,77.11L87.09,76.43L87.77,76.14L88.18,76.20"/><path d="M88.66,82.47L88.15,81.87L87.79,81.28"/><path d="M89.14,76.50L88.66,76.26L88.19,76.20"/><path d="M90.69,84.12L90.15,83.85L89.11,82.99L88.67,82.48"/><path d="M90.16,77.17L89.68,76.77L89.15,76.50"/><path d="M90.69,84.13L91.17,84.36L92.06,84.48L92.74,84.19L93.15,83.51L93.20,82.99"/><path d="M91.17,78.15L90.72,77.63L90.17,77.17"/><path d="M90.55,74.06L93.95,71.72"/><path d="M92.05,79.35L91.68,78.75L91.18,78.16"/><path d="M93.12,81.88L93.01,81.33L92.73,80.65"/><path d="M92.06,79.36L92.47,80.02L92.72,80.64"/><path d="M93.12,81.89L93.24,82.53L93.20,82.99"/><path d="M93.55,65.56L93.96,71.89L94.11,72.09L94.37,72.35L94.74,72.64L95.22,72.97L95.78,73.33L96.42,73.72L97.13,74.11L97.88,74.50L99.43,75.25L100.93,75.89L102.23,76.36L103.07,74.42L103.49,72.46L103.47,70.66L103.05,64.32L102.62,63.36L101.76,62.56L100.56,61.99L99.14,61.71L97.64,61.75L96.20,62.09L94.97,62.72L94.07,63.56L93.58,64.54L93.55,65.55L93.98,66.51L94.84,67.31L96.04,67.88L97.46,68.16L98.63,68.13L98.96,68.12L100.40,67.78L101.63,67.15L102.53,66.31L103.02,65.34L103.05,64.32"/><path d="M108.65,73.27L103.77,76.62L103.21,76.61L102.23,76.36L101.07,78.08L99.70,79.41L99.54,79.52"/><path d="M104.12,80.53L103.86,76.56"/></g></g><g id="Actor_.6"><g style="stroke:#000000;stroke-width:0.071"><path d="M86.44,79.67L86.23,79.18L85.93,77.72L86.02,76.52L86.48,75.69L87.29,75.32L88.35,75.43L89.56,76.02L91.64,74.59L98.29,78.90L100.12,79.81L102.26,80.38L104.58,80.57L106.59,80.17L107.06,80.00L106.39,81.12L104.44,81.46L101.58,81.61L101.05,81.58L98.24,81.08L96.25,80.30L96.21,80.33L96.41,82.80L96.71,83.67L96.88,84.30L96.97,84.89L96.97,85.43L96.89,85.90L96.71,86.45L96.91,88.92L90.27,84.61L89.02,83.60L87.86,82.26L86.89,80.74L86.44,79.67"/><path d="M87.11,80.00L87.40,80.67L88.20,81.94L89.17,83.05L90.21,83.89L91.22,84.38L92.10,84.47L92.77,84.16L93.16,83.47L93.24,82.47L92.98,81.25L92.43,79.95L91.63,78.68L90.66,77.57L89.62,76.73L88.61,76.24L87.75,76.15L87.73,76.15L87.06,76.46L86.66,77.15L86.59,78.15L86.84,79.37L87.11,80.00"/><path d="M86.48,75.69L88.56,74.27L89.36,73.89L90.42,74.00L91.64,74.59"/><path d="M89.56,76.02L96.21,80.33"/><path d="M96.25,80.30L96.41,82.80"/><path d="M96.91,88.92L96.96,88.89L96.73,86.67"/><path d="M96.96,88.89L98.94,89.67L99.34,89.78L102.18,90.20L102.72,90.22L105.58,89.98L107.09,89.71L105.98,88.86L105.83,88.64L105.24,87.16L105.19,86.85L105.19,86.48L103.70,86.55L104.01,87.93L104.61,89.00L105.58,89.98"/><path d="M103.06,64.46L103.20,64.40L104.26,64.51L105.47,65.10L112.12,69.41L112.57,74.93"/><path d="M105.47,65.10L107.55,63.68L106.33,63.09L105.28,62.98L104.47,63.35L103.05,64.32"/><path d="M103.70,86.55L103.77,85.00L104.15,83.44L104.88,81.39"/><path d="M104.09,65.28L104.52,65.33L104.57,65.35"/><path d="M103.13,65.47L103.63,65.23L103.67,65.24"/><path d="M106.39,81.12L106.00,81.97L105.85,82.37L105.25,84.54L105.20,84.92L105.19,86.48L133.06,104.61L133.53,106.39L134.56,107.58L136.05,108.06L140.13,107.76"/><path d="M105.59,65.86L105.53,65.82L104.95,65.54"/><path d="M106.07,66.25L106.43,66.54"/><path d="M107.09,89.71L134.56,107.58"/><path d="M133.06,104.61L133.20,102.41L133.94,100.01L135.20,97.64L136.86,95.53L138.76,93.90L140.71,92.89L142.52,92.62L144.01,93.10L116.11,74.99L115.67,74.75L114.76,74.52L113.07,74.70L111.21,75.56L109.38,77.00L107.72,78.91L107.06,80.00"/><path d="M110.23,76.32L107.13,74.31"/><path d="M106.63,66.72L106.53,66.62"/><path d="M107.42,67.63L107.08,67.24"/><path d="M108.90,70.37L108.37,69.11"/><path d="M107.59,67.84L108.36,69.07"/><path d="M107.56,67.79L107.50,67.72"/><path d="M107.55,63.68L114.19,67.99L114.20,68.07"/><path d="M108.66,73.25L108.68,73.24L108.93,72.81"/><path d="M109.06,72.57L109.07,72.55L109.14,71.62"/><path d="M108.91,70.42L109.14,71.58"/><path d="M114.39,74.56L114.79,73.56L114.44,72.02L113.53,70.61L112.12,69.41"/><path d="M115.67,74.75L116.03,73.74L116.30,71.83L116.26,71.46L115.54,69.57L115.36,69.31L114.15,68.02L114.19,67.99"/><path d="M116.03,73.74L116.88,74.62L117.37,75.62L117.41,75.84"/><path d="M117.50,75.90L117.31,74.52L117.01,73.55L116.25,71.23L115.54,69.57"/><path d="M145.86,111.48L139.59,107.41L138.90,106.61L138.59,105.43L138.68,103.96L139.17,102.36L140.01,100.78L141.12,99.37L142.39,98.28L143.69,97.61L144.89,97.43L145.89,97.75L152.21,101.85"/><path d="M144.01,93.10L145.04,94.29L146.41,98.09"/></g></g><g id="Actor_.7"><g style="stroke:#000000;stroke-width:0.071"><path d="M261.63,182.49L261.54,182.38L261.15,182.04L257.16,179.38L256.12,178.37L255.58,177.10L254.98,175.34L255.53,176.61L256.56,177.62L260.55,180.28L261.25,180.95L261.61,181.80L261.63,182.58L264.89,184.75L263.11,188.56L262.17,192.28L262.04,194.26L261.38,193.81L261.48,195.16L261.54,195.34L262.37,197.78L263.01,198.63L263.67,199.07L263.58,198.59L263.63,198.01L263.82,197.39L264.14,196.76L264.56,196.18L265.05,195.71L265.56,195.37L266.06,195.19L266.51,195.19L267.64,196.00L269.10,196.25L270.78,195.92L272.58,195.03L271.92,194.59L272.27,194.77L272.93,195.21L273.16,195.56L273.25,196.04L273.20,196.61L273.00,197.24L270.06,199.98L267.17,200.51L264.76,199.91L263.67,199.07"/><path d="M255.91,174.44L255.91,175.10L256.36,176.16L257.23,177.00L258.42,177.53L259.82,177.71L261.29,177.52L262.69,176.97L263.88,176.12L264.74,175.06L265.20,173.88L265.20,172.70L264.74,171.65L263.88,170.81L262.69,170.27L261.54,170.13L261.29,170.09L259.82,170.29L258.42,170.84L257.23,171.68L256.36,172.75L255.91,173.93L255.91,174.44"/><path d="M254.98,175.34L254.98,173.93L255.53,172.52L256.56,171.24L257.99,170.22L258.21,170.14L259.67,169.56L261.43,169.33L263.11,169.55L264.54,170.19L268.53,172.85L269.48,173.28L270.60,173.42L271.58,173.31L274.84,175.49L271.89,178.23L271.23,177.78L267.16,181.57L267.59,181.61L268.25,182.05L267.83,182.01L267.16,181.57"/><path d="M257.16,179.38L256.56,177.62"/><path d="M256.51,176.30L256.51,175.68L256.96,174.51L257.82,173.44L259.01,172.59L260.41,172.04L261.88,171.85L263.28,172.03L264.47,172.56L265.20,173.26"/><path d="M264.76,199.91L262.10,198.14L260.37,196.45L259.48,193.83L259.51,190.51L260.45,186.78L260.92,185.60L261.41,184.17L261.63,182.80L261.63,182.58"/><path d="M259.78,189.46L259.56,188.81L259.80,189.37"/><path d="M259.56,188.81L259.55,187.40L260.10,185.98L261.14,184.71L261.25,184.62"/><path d="M261.38,193.81L261.57,194.20L261.90,194.43L262.56,194.87L262.98,194.93L263.47,194.80L263.99,194.50L264.49,194.06L264.93,193.51L265.28,192.89L265.51,192.26L265.68,190.24L266.31,188.05L267.36,185.83L268.75,183.75L268.84,183.16L268.78,182.65L268.58,182.27L268.25,182.05"/><path d="M261.15,182.04L260.55,180.28"/><path d="M262.04,194.26L262.24,194.65L262.56,194.87"/><path d="M266.51,195.19L265.84,194.75L265.40,194.75L264.90,194.92L264.38,195.26L263.89,195.74L263.47,196.32L263.15,196.94L262.96,197.57L262.91,198.15L263.01,198.63"/><path d="M263.75,191.39L263.47,191.51L263.23,191.51L263.03,191.42L262.91,191.22L262.87,190.95L262.92,190.62L263.06,190.27L263.22,190.00L263.26,189.94L263.51,189.65L263.79,189.44L264.07,189.33L264.32,189.32L264.51,189.42L264.64,189.61L264.67,189.89L264.62,190.21L264.49,190.56L264.29,190.89L264.03,191.18L263.75,191.39"/><path d="M265.69,198.89L265.66,199.14L265.69,199.42L265.82,199.61L266.01,199.71L266.26,199.70L266.54,199.59L266.82,199.37L267.07,199.09L267.27,198.76L267.41,198.41L267.46,198.08L267.42,197.81L267.30,197.61L267.10,197.51L266.86,197.52L266.58,197.64L266.30,197.85L266.04,198.14L265.84,198.47L265.71,198.82L265.69,198.89"/><path d="M264.89,184.75L267.83,182.01"/><path d="M271.92,194.59L270.12,195.48L268.43,195.81L267.04,195.57"/><path d="M271.23,177.78L271.03,178.41L270.97,178.98L271.06,179.46L271.29,179.81L271.96,180.25L272.31,180.43L274.11,179.54L275.79,179.21L277.25,179.46L278.38,180.27L277.72,179.83L277.19,179.45"/><path d="M272.58,195.03L272.93,195.21"/><path d="M271.96,180.25L271.73,179.91L271.64,179.43L271.69,178.85L271.89,178.23"/><path d="M271.58,173.31L271.80,173.32L273.06,173.31L274.21,173.22L275.06,173.17L277.47,173.77L280.13,175.55L281.22,176.39L281.31,176.87L281.27,177.45L281.07,178.07L280.75,178.70L280.38,179.22L280.33,179.28L279.85,179.75L279.33,180.10L278.83,180.27L278.38,180.27"/><path d="M273.24,195.95L276.25,193.15"/><path d="M274.84,175.49L277.72,174.95L280.13,175.55"/><path d="M282.33,180.59L282.66,180.82L282.85,181.20L282.72,183.18L281.78,186.91L280.01,190.71L277.06,193.45L276.64,193.41L275.65,192.74L275.45,192.37L275.39,191.86L275.48,191.27L276.87,189.18L277.92,186.97L278.55,184.78L278.71,182.76L278.94,182.12L279.30,181.51L279.74,180.95L280.24,180.51L280.75,180.22L281.24,180.09L281.67,180.14L282.33,180.59L281.91,180.53L281.42,180.66L280.90,180.96L280.40,181.40L279.96,181.95L279.61,182.57L279.38,183.20L278.71,182.76"/><path d="M275.48,191.27L276.14,191.71L276.05,192.30L276.11,192.81L276.31,193.19L276.53,193.33"/><path d="M276.14,191.71L277.53,189.63L278.58,187.42L279.21,185.22L279.38,183.20"/><path d="M278.16,177.89L278.04,177.94L277.79,177.95L277.59,177.85L277.47,177.65L277.43,177.38L277.48,177.05L277.62,176.71L277.82,176.37L278.08,176.09L278.36,175.88L278.63,175.76L278.88,175.75L279.08,175.85L279.20,176.04L279.24,176.32L279.19,176.64L279.05,176.99L278.85,177.32L278.59,177.61L278.31,177.82L278.16,177.89"/><path d="M280.22,185.58L280.25,185.85L280.38,186.05L280.57,186.14L280.82,186.13L281.10,186.02L281.38,185.81L281.63,185.52L281.84,185.19L281.97,184.84L282.02,184.51L281.98,184.24L281.86,184.04L281.67,183.95L281.42,183.96L281.14,184.07L280.86,184.28L280.61,184.57L280.40,184.90L280.27,185.25L280.22,185.58"/><path d="M281.30,177.09L282.08,179.41L282.17,180.48"/></g></g><g id="Actor_.8"><g style="stroke:#000000;stroke-width:0.071"><path d="M17.39,26.31L17.09,26.29L16.84,26.14L16.69,25.88L16.63,25.62L16.65,25.22L16.77,24.77L16.98,24.33L16.47,24.91L16.43,25.05L15.29,24.28L15.30,24.73L15.36,24.99L15.55,25.57L16.70,26.33L16.78,26.38L17.39,26.31L17.66,26.24L18.09,26.05L18.21,25.96L18.39,25.75L18.02,26.05L17.66,26.24"/><path d="M16.47,24.91L15.32,24.14L15.41,23.95L15.44,23.89L15.65,23.44L15.41,23.95"/><path d="M15.29,24.28L15.32,24.14"/><path d="M16.63,25.62L16.43,25.05"/><path d="M15.65,23.44L15.86,23.11L16.37,22.53L16.48,22.44L17.63,23.20L17.52,23.30L16.37,22.53"/><path d="M16.23,22.69L16.19,22.73L15.86,23.11"/><path d="M16.48,22.44L16.91,22.24L17.00,22.22L17.18,22.18L17.80,22.11L18.94,22.87L18.51,23.07L18.82,23.09L19.06,23.24L19.22,23.49L19.27,23.75L19.25,24.15L19.13,24.60L18.93,25.05L18.71,25.38L18.39,25.75"/><path d="M16.69,25.88L16.70,26.33"/><path d="M17.73,25.69L17.59,25.74L17.37,25.72L17.20,25.59L17.11,25.38L17.10,25.10L17.17,24.78L17.32,24.45L17.33,24.44L17.53,24.15L17.79,23.89L18.05,23.72L18.31,23.64L18.54,23.66L18.70,23.78L18.79,23.99L18.80,24.27L18.73,24.59L18.58,24.92L18.37,25.23L18.12,25.48L17.85,25.66L17.73,25.69"/><path d="M17.48,25.02L17.71,24.78L17.92,24.48L18.06,24.17L18.10,23.98"/><path d="M17.93,23.80L17.93,23.87L17.87,24.13L17.75,24.40L17.57,24.65L17.37,24.86L17.15,25.00L17.12,25.01"/><path d="M17.14,24.93L17.31,24.82L17.52,24.61L17.69,24.36L17.81,24.09L17.87,23.84"/><path d="M17.11,25.18L17.11,25.18L17.32,25.12L17.54,24.97L17.75,24.77L17.92,24.52L18.04,24.25L18.10,23.99L18.10,23.76L18.08,23.73"/><path d="M18.12,23.71L18.15,23.80L18.16,24.03L18.10,24.29L17.98,24.56L17.81,24.81L17.60,25.01L17.38,25.16L17.17,25.22L17.11,25.21"/><path d="M17.87,23.84L17.83,24.01L17.68,24.33L17.48,24.63L17.24,24.86"/><path d="M17.71,25.17L17.94,24.94L18.15,24.64L18.29,24.32L18.34,24.14"/><path d="M17.58,24.10L17.51,24.24L17.34,24.49L17.27,24.57"/><path d="M17.17,25.32L17.35,25.34L17.56,25.27L17.78,25.13L17.98,24.92L18.15,24.67L18.28,24.40L18.34,24.14L18.33,23.91L18.25,23.74L18.21,23.71"/><path d="M17.15,25.30L17.22,25.36L17.40,25.38L17.61,25.31L17.83,25.17L18.04,24.96L18.21,24.71L18.33,24.44L18.39,24.18L18.39,23.95L18.31,23.78L18.21,23.71"/><path d="M17.72,25.47L17.93,25.34L18.18,25.09L18.38,24.80L18.53,24.48L18.59,24.21"/><path d="M17.11,25.07L17.11,25.22L17.19,25.41L17.34,25.51L17.53,25.53L17.76,25.46L17.99,25.31L18.21,25.09L18.40,24.82L18.53,24.54L18.59,24.26L18.58,24.01L18.50,23.83L18.36,23.72L18.16,23.70L18.00,23.75"/><path d="M16.98,24.33L17.19,24.00L17.52,23.30"/><path d="M17.19,24.00L17.52,23.62L17.59,23.56L17.88,23.32L18.24,23.13L17.63,23.20"/><path d="M18.24,23.13L18.51,23.07"/><path d="M18.94,22.87L19.02,22.92L17.87,22.15L17.80,22.11"/><path d="M19.13,24.60L19.25,24.35L19.29,24.21L19.27,23.75"/><path d="M19.22,23.49L19.02,22.92"/></g></g><g id="Actor_.9"><g style="stroke:#000000;stroke-width:0.071"><path d="M67.96,60.79L62.94,57.44L62.82,57.26L62.79,57.01L62.83,56.71L62.85,56.67L62.95,56.39L63.14,56.08L63.37,55.81L63.63,55.62L63.89,55.51L64.12,55.50L64.30,55.58L69.24,58.88"/><path d="M71.59,59.48L71.52,59.04L71.28,58.65L70.89,58.46L70.39,58.49L69.84,58.72L69.29,59.15L68.78,59.72L68.38,60.38L68.12,61.07L68.02,61.71L68.10,62.26L68.35,62.64L68.74,62.83L69.23,62.81L69.41,62.73"/><path d="M68.22,61.84L68.29,61.83L68.34,61.83L68.38,61.84L68.41,61.85L68.88,62.27L69.28,62.65L69.26,62.65L69.17,62.69L68.48,62.06L68.22,61.84L68.82,60.30L68.92,59.83L70.25,58.95L70.56,58.66L71.12,59.17"/><path d="M69.21,58.91L69.23,58.89L69.10,58.99L69.08,59.00L68.82,59.29L68.58,59.58L68.17,60.25L67.90,60.96L67.80,61.62L67.88,62.17L67.89,62.21L68.17,62.64L68.20,62.66L68.60,62.86L68.64,62.87L69.15,62.85L69.19,62.84L69.43,62.74"/><path d="M70.56,58.66L70.56,58.73L70.58,58.78L70.60,58.82L70.62,58.84L69.37,59.78L69.07,59.94L68.56,61.56L68.41,61.85L69.56,62.62L70.46,63.43L72.01,62.33L72.67,60.41L71.77,59.60L70.22,60.71L69.07,59.94L68.95,59.85L68.82,60.36L68.93,59.84L68.92,59.83"/><path d="M69.56,62.62L70.22,60.71"/><path d="M68.88,62.27L69.19,62.55L69.31,62.66L69.28,62.65L69.28,62.65"/><path d="M69.26,62.65L69.25,62.65L69.21,62.66L69.20,62.67L69.22,62.65"/><path d="M69.24,62.65L68.83,62.29"/><path d="M69.17,62.69L69.17,62.69L69.20,62.67L69.03,62.50"/><path d="M70.46,63.43L69.31,62.66"/><path d="M69.24,62.65L69.18,62.68"/><path d="M69.34,59.55L68.93,59.84L68.95,59.85L69.39,59.62"/><path d="M71.61,59.50L71.54,58.98L71.53,58.94L71.27,58.54L71.25,58.51L71.22,58.49L70.81,58.29L70.77,58.28L70.26,58.31L70.23,58.32L69.66,58.56L69.23,58.89L69.35,58.79L69.51,58.67"/><path d="M70.84,62.98L70.52,63.00L70.27,62.88L70.11,62.63L70.06,62.28L70.12,61.86L70.29,61.41L70.55,60.98L70.88,60.61L71.24,60.34L71.59,60.19L71.92,60.17L72.17,60.29L72.33,60.54L72.38,60.89L72.32,61.31L72.15,61.76L71.89,62.19L71.56,62.56L71.20,62.83L70.84,62.98"/><path d="M71.77,59.60L70.62,58.84"/><path d="M70.60,58.82L70.63,58.84"/><path d="M70.60,58.82L70.63,58.84"/></g></g><g id="Actor_.10"><g style="stroke:#000000;stroke-width:0.071"><path d="M17.32,35.72L17.31,35.68L17.28,35.39L17.34,34.97L17.49,34.52L17.73,34.08L17.19,34.63L16.04,33.87L15.99,34.01L15.95,34.50L15.98,34.79L16.12,35.40L16.74,35.82"/><path d="M16.74,35.84L16.18,35.46L16.12,35.40"/><path d="M16.14,33.68L16.40,33.19L16.16,33.63L16.14,33.68L16.04,33.87"/><path d="M15.99,34.01L17.14,34.78L17.19,34.63"/><path d="M16.40,33.19L16.63,32.88L16.97,32.53"/><path d="M17.31,35.68L17.30,35.72"/><path d="M17.28,35.39L17.14,34.78"/><path d="M17.73,34.08L17.96,33.76L18.32,33.09L18.44,33.00L17.29,32.24L17.17,32.32L18.32,33.09"/><path d="M16.63,32.88L17.17,32.32"/><path d="M16.97,32.53L17.02,32.47"/><path d="M17.29,32.24L17.70,32.12L17.96,32.09L18.55,32.08L19.70,32.85L19.29,32.97L19.57,33.04L19.78,33.23L19.91,33.53L19.76,32.91L19.70,32.85"/><path d="M18.91,35.79L18.71,35.99L18.59,36.08L18.18,36.20L18.54,36.05L18.91,35.79L19.25,35.44L19.48,35.12L19.72,34.68L19.84,34.45L19.89,34.30L19.93,33.81L19.91,33.53"/><path d="M18.42,35.61L18.17,35.66L17.96,35.60L17.82,35.45L17.75,35.21L17.75,35.21L17.77,34.91L17.87,34.59L18.04,34.26L18.27,33.97L18.53,33.74L18.80,33.59L19.04,33.55L19.25,33.60L19.39,33.76L19.46,33.99L19.44,34.29L19.34,34.62L19.17,34.94L18.94,35.23L18.68,35.46L18.42,35.61"/><path d="M18.18,36.20L17.95,36.23"/><path d="M18.08,34.97L18.29,34.78L18.51,34.50L18.67,34.18L18.75,33.95"/><path d="M17.77,34.92L17.95,34.83L18.16,34.64L18.35,34.40L18.49,34.13L18.57,33.87L18.58,33.71"/><path d="M18.52,33.75L18.51,33.83L18.43,34.09L18.29,34.36L18.10,34.60L17.89,34.79L17.79,34.84"/><path d="M18.73,33.64L18.76,33.74L18.74,33.98L18.66,34.25L18.52,34.52L18.34,34.75L18.12,34.94L17.91,35.06L17.76,35.09"/><path d="M18.78,33.63L18.82,33.78L18.80,34.02L18.72,34.29L18.58,34.55L18.40,34.79L18.18,34.98L17.96,35.10L17.77,35.14"/><path d="M18.51,33.79L18.44,34.03L18.28,34.34L18.05,34.63L17.85,34.81"/><path d="M18.98,34.10L18.91,34.34L18.74,34.66L18.52,34.94L18.31,35.12"/><path d="M18.25,33.99L18.12,34.24L17.93,34.48L17.92,34.49"/><path d="M18.86,33.62L18.94,33.70L18.99,33.90L18.98,34.14L18.90,34.41L18.76,34.67L18.57,34.91L18.36,35.10L18.14,35.22L17.94,35.25L17.80,35.22"/><path d="M17.80,35.22L17.82,35.25L17.99,35.29L18.20,35.25L18.42,35.14L18.63,34.95L18.81,34.71L18.95,34.44L19.04,34.18L19.05,33.94L19.00,33.74L18.88,33.62L18.87,33.61"/><path d="M19.23,34.18L19.14,34.50L18.97,34.81L18.75,35.09L18.50,35.32L18.33,35.41"/><path d="M17.76,35.07L17.81,35.27L17.94,35.40L18.12,35.45L18.33,35.41L18.57,35.28L18.80,35.08L18.99,34.83L19.14,34.54L19.23,34.26L19.25,34.00L19.19,33.79L19.06,33.66L18.88,33.61L18.70,33.65"/><path d="M17.96,33.76L18.30,33.41L18.67,33.15L19.03,33.00L18.44,33.00"/><path d="M19.72,34.68L19.88,34.23L19.93,33.81"/><path d="M19.29,32.97L19.03,33.00"/></g></g><g id="Actor_.11"><g style="stroke:#000000;stroke-width:0.071"><path d="M83.78,60.31L78.86,57.03L78.71,56.90L78.62,56.70L78.61,56.42L78.69,56.11L78.84,55.79L79.04,55.50L79.29,55.25L79.55,55.09L79.80,55.01L80.01,55.04L85.05,58.41"/><path d="M87.41,58.76L87.41,58.69L87.40,58.66L87.21,58.20L87.19,58.16L86.83,57.89L86.80,57.87L86.76,57.86L86.28,57.80L86.25,57.81L85.70,57.97L85.13,58.33L84.58,58.87L84.13,59.51L83.81,60.20L83.80,60.22L83.64,60.90L83.65,61.51L83.66,61.54L83.85,62.01L83.87,62.04L84.22,62.32L84.26,62.34L84.29,62.35L84.77,62.41L84.81,62.40L84.99,62.35"/><path d="M87.39,58.75L87.21,58.30L86.87,58.03L86.41,57.97L85.87,58.13L85.31,58.49L84.78,59.01L84.34,59.65L84.02,60.33L83.86,61.00L83.87,61.59L84.05,62.04L84.39,62.31L84.85,62.37L84.97,62.33"/><path d="M84.60,62.09L84.43,62.11L84.25,60.93L84.13,60.56L85.17,59.11L85.39,58.66L86.65,58.42L86.94,58.30L86.98,58.47"/><path d="M84.13,60.56L84.19,60.57L84.24,60.58L84.29,60.60L84.32,60.61L85.46,61.38L85.74,62.85L87.21,62.51L88.41,60.70L88.13,59.23L86.66,59.58L85.46,61.38"/><path d="M86.26,58.65L86.95,58.44L86.95,58.45L86.98,58.47L85.79,58.78L85.51,58.81L84.55,60.34L84.32,60.61L84.58,61.86L84.59,62.08L85.74,62.85"/><path d="M84.43,62.11L84.48,62.07L84.53,62.06L84.57,62.07L84.59,62.08"/><path d="M86.24,62.49L86.02,62.32L85.90,62.03L85.89,61.65L85.99,61.21L86.20,60.77L86.49,60.36L86.83,60.02L87.19,59.79L87.54,59.69L87.84,59.72L88.06,59.90L88.18,60.19L88.19,60.57L88.08,61.00L87.88,61.45L87.59,61.86L87.25,62.20L86.88,62.43L86.53,62.53L86.24,62.49"/><path d="M86.66,59.58L85.50,58.80L85.47,58.78L85.44,58.74L85.41,58.70L85.39,58.66"/><path d="M86.26,58.62L86.93,58.40L86.94,58.42"/><path d="M86.94,58.30L86.93,58.35L86.61,58.45"/><path d="M86.95,58.44L86.94,58.41L86.93,58.36L86.93,58.35L86.93,58.36L86.93,58.35"/><path d="M86.96,58.45L86.93,58.36L86.94,58.38"/><path d="M88.13,59.23L86.98,58.47"/><path d="M86.93,58.38L86.94,58.43"/><path d="M86.94,58.34L86.93,58.33L86.97,58.46"/></g></g><g id="Actor_.12"><g style="stroke:#000000;stroke-width:0.071"><path d="M32.14,25.18L31.05,24.45L31.17,23.72L31.27,23.38L31.57,22.76L31.66,22.63L32.81,23.40L33.45,23.04L33.11,23.39L32.82,23.82L32.60,24.26L32.51,24.56L32.50,24.61L32.45,25.02L32.50,25.38L32.65,25.65L32.21,25.33L32.20,25.22L32.14,25.18"/><path d="M31.05,24.45L31.07,24.56L32.21,25.33"/><path d="M33.07,25.97L32.82,25.78L33.11,25.84L33.45,25.78L33.81,25.60L33.18,25.95L33.07,25.97L31.92,25.21L31.49,24.89L31.32,24.76L31.07,24.56"/><path d="M31.29,23.33L31.49,22.93L31.57,22.76L32.72,23.53L32.81,23.40"/><path d="M31.66,22.63L32.05,22.22L31.78,22.51L31.78,22.51"/><path d="M32.05,22.22L32.12,22.15L32.40,21.94L33.04,21.58L33.15,21.56L34.29,22.33L34.19,22.35L33.04,21.58"/><path d="M32.65,25.65L32.82,25.78"/><path d="M33.17,24.62L33.33,24.52L33.57,24.26L33.76,23.96L33.89,23.65"/><path d="M33.75,23.32L33.75,23.36L33.70,23.61L33.59,23.88L33.42,24.14L33.22,24.35L33.00,24.51L32.94,24.53"/><path d="M33.68,23.37L33.64,23.57L33.53,23.84L33.37,24.10L33.16,24.31L32.96,24.46"/><path d="M33.90,23.25L33.91,23.25L33.93,23.47L33.88,23.73L33.76,24.00L33.60,24.25L33.40,24.47L33.18,24.62L32.96,24.70L32.93,24.70"/><path d="M32.94,24.74L33.02,24.74L33.24,24.66L33.45,24.51L33.66,24.29L33.82,24.04L33.94,23.77L33.98,23.51L33.97,23.29L33.94,23.23"/><path d="M33.66,23.50L33.53,23.80L33.33,24.11L33.09,24.36L32.96,24.46"/><path d="M32.96,24.82L33.01,24.85L33.20,24.86L33.41,24.78L33.63,24.62L33.83,24.41L34.00,24.15L34.11,23.89L34.16,23.63L34.14,23.41L34.06,23.25"/><path d="M34.03,23.23L34.11,23.28L34.20,23.45L34.22,23.67L34.17,23.92L34.05,24.19L33.89,24.44L33.89,24.45L33.69,24.66L33.47,24.82L33.25,24.90L33.07,24.89L32.96,24.83"/><path d="M33.80,23.28L33.95,23.23L34.15,23.24L34.30,23.33L34.39,23.50L34.41,23.74L34.36,24.02L34.24,24.30L34.06,24.57L33.85,24.80L33.61,24.97L33.38,25.05L33.18,25.05L33.03,24.95L32.94,24.78L32.93,24.62"/><path d="M32.50,24.61L32.20,25.22"/><path d="M33.22,25.25L33.04,25.14L32.94,24.94L32.91,24.67L32.98,24.36L33.11,24.03L33.32,23.72L33.56,23.45L33.73,23.33L33.83,23.26L34.09,23.17L34.32,23.17L34.50,23.28L34.60,23.48L34.63,23.75L34.57,24.07L34.43,24.40L34.23,24.71L33.98,24.97L33.71,25.16L33.45,25.26L33.22,25.25"/><path d="M33.40,23.63L33.36,23.73L33.19,23.98L33.09,24.09"/><path d="M32.60,24.26L32.72,23.53"/><path d="M33.81,25.60L34.09,25.38L34.43,25.03L34.73,24.61L34.94,24.16L35.05,23.82L35.10,23.40L35.05,23.04L34.90,22.78L35.15,22.97L35.16,23.09L35.05,23.82"/><path d="M34.12,23.81L34.00,24.12L33.80,24.42L33.56,24.67L33.41,24.78"/><path d="M34.41,23.70L34.36,23.95L34.23,24.27L34.03,24.57L33.79,24.83L33.57,24.99"/><path d="M33.45,23.04L33.73,22.83L34.19,22.35"/><path d="M34.29,22.33L34.72,22.65L34.44,22.58L34.09,22.65L33.73,22.83"/><path d="M34.72,24.62L34.64,24.77L34.55,24.91L34.43,25.03"/><path d="M34.90,22.78L34.72,22.65"/></g></g><g id="Actor_.13"><g style="stroke:#000000;stroke-width:0.071"><path d="M231.00,167.11L229.88,166.37L228.48,167.95L228.37,169.68L229.29,170.29"/><path d="M232.92,168.81L233.06,168.32L233.07,167.70L233.06,167.67L232.89,167.18L232.87,167.15L232.54,166.84L232.51,166.82L232.47,166.81L232.01,166.72L231.97,166.73L231.43,166.86L230.85,167.20L230.83,167.21L230.29,167.72L229.83,168.35L229.49,169.04L229.30,169.75L229.29,170.37L229.29,170.40L229.46,170.89L229.49,170.92L229.82,171.22L229.85,171.24L230.36,171.34L230.39,171.33L230.93,171.20L231.51,170.86L231.65,170.73"/><path d="M229.67,168.67L229.63,168.72L228.48,167.95"/><path d="M231.63,170.71L231.21,171.01L230.70,171.22L230.24,171.24L229.87,171.08L229.64,170.76L229.54,170.29L229.58,169.71L229.78,169.08L230.11,168.44L230.52,167.89L230.68,167.73L231.18,167.31L231.69,167.04L232.18,166.95L232.58,167.05L232.88,167.34L233.02,167.75L233.02,168.30L232.90,168.80"/><path d="M230.89,170.22L230.68,170.20L230.50,170.09L230.40,169.90L230.37,169.64L230.42,169.32L230.54,168.99L230.73,168.67L230.97,168.38L231.16,168.22L231.22,168.17L231.49,168.03L231.74,167.98L231.95,168.03L232.10,168.16L232.16,168.30"/><path d="M229.61,168.78L229.63,168.72L229.64,168.73"/><path d="M231.63,166.81L231.18,166.50L229.88,166.37"/><path d="M231.52,170.84L231.25,171.01L230.96,171.18L230.96,171.18"/><path d="M230.75,170.13L230.77,170.14L230.62,170.00L230.54,169.78L230.55,169.50L230.63,169.19L230.79,168.87L231.00,168.58L231.25,168.35L231.51,168.19L231.76,168.13L231.97,168.17L231.95,168.16"/><path d="M230.77,170.14L234.48,172.61L234.33,172.48L234.25,172.26L234.26,171.98L234.34,171.67L234.50,171.35L234.71,171.06L234.94,170.84L234.96,170.83L235.22,170.67L235.47,170.61L235.68,170.65L235.82,170.79L235.90,171.00L235.90,171.29L235.89,171.29"/><path d="M235.68,170.65L231.97,168.17"/><path d="M235.17,172.49L235.36,172.37L235.55,172.20L235.71,171.98L235.83,171.74L235.89,171.50L235.89,171.29L235.84,171.13L235.72,171.03L235.57,171.00L235.38,171.04L235.19,171.16L235.00,171.34L234.94,171.42L234.84,171.55L234.72,171.79L234.66,172.03L234.66,172.24L234.71,172.40L234.83,172.50L234.98,172.53L235.17,172.49L234.93,172.59L234.68,172.65L234.48,172.61"/><path d="M235.90,171.29L235.89,171.50"/></g></g><g id="Actor_.14"><g style="stroke:#000000;stroke-width:0.071"><path d="M232.07,178.49L231.15,177.88L231.26,176.15L232.67,174.56L233.78,175.31"/><path d="M232.45,176.87L232.41,176.92L231.26,176.15"/><path d="M235.68,176.99L235.80,176.50L235.80,175.95L235.66,175.54L235.37,175.25L234.96,175.14L234.48,175.23L233.96,175.50L233.46,175.92L233.30,176.09L232.89,176.64L232.56,177.27L232.36,177.91L232.32,178.48L232.42,178.95L232.66,179.27L233.02,179.44L233.48,179.42L233.99,179.21L234.41,178.91"/><path d="M234.43,178.92L234.29,179.05L233.72,179.39L233.17,179.53L233.14,179.53L232.64,179.44L232.60,179.42L232.27,179.11L232.25,179.08L232.08,178.59L232.07,178.56L232.08,177.94L232.27,177.24L232.61,176.55L233.08,175.92L233.62,175.40L233.63,175.40L234.21,175.06L234.75,174.92L234.79,174.92L235.25,175.01L235.29,175.02L235.32,175.04L235.66,175.34L235.68,175.37L235.85,175.86L235.85,175.89L235.84,176.51L235.71,177.01"/><path d="M232.42,176.93L232.41,176.92L232.40,176.98"/><path d="M234.42,175.00L233.96,174.70L232.67,174.56"/><path d="M234.31,179.04L234.03,179.20L233.74,179.38L233.74,179.37"/><path d="M234.94,176.50L234.89,176.36L234.74,176.22L234.53,176.17L234.27,176.22L234.00,176.37L233.94,176.42L233.75,176.58L233.51,176.86L233.32,177.19L233.20,177.52L233.15,177.83L233.18,178.09L233.28,178.28L233.46,178.40L233.67,178.42"/><path d="M233.53,178.32L233.55,178.33L233.40,178.20L233.32,177.98L233.33,177.70L233.41,177.38L233.57,177.07L233.78,176.78L234.03,176.54L234.29,176.39L234.54,176.33L234.75,176.37L234.73,176.36"/><path d="M233.55,178.33L237.26,180.81L237.11,180.68L237.03,180.46L237.04,180.18L237.12,179.86L237.28,179.54L237.49,179.25L237.74,179.02L238.00,178.87L238.25,178.81L238.46,178.85L234.75,176.37"/><path d="M237.44,180.22L237.44,180.43L237.50,180.60L237.61,180.70L237.76,180.73L237.95,180.68L238.14,180.57L238.33,180.39L238.49,180.17L238.61,179.94L238.67,179.70L238.68,179.49L238.62,179.33L238.51,179.23L238.35,179.20L238.17,179.24L237.97,179.36L237.78,179.53L237.62,179.75L237.51,179.99L237.44,180.22"/><path d="M237.26,180.81L237.47,180.85L237.71,180.79L237.95,180.68"/><path d="M238.67,179.70L238.68,179.48L238.68,179.48"/><path d="M238.68,179.48L238.68,179.20L238.61,178.98L238.46,178.85"/></g></g><g id="Actor_.15"><g style="stroke:#000000;stroke-width:0.071"><path d="M30.79,14.44L30.40,14.18L30.39,14.31L31.54,15.08L31.55,14.95L30.79,14.44"/><path d="M30.39,14.31L30.53,14.64L30.65,14.84L30.98,15.29L32.13,16.05L32.22,16.07L32.87,15.84L33.15,15.69L33.51,15.41L33.84,15.03L34.12,14.61L34.28,14.27L34.41,13.82L34.44,13.41L34.37,13.07L34.52,13.40L34.51,13.53"/><path d="M30.40,14.18L30.63,13.44L30.63,13.45"/><path d="M30.63,13.44L30.79,13.10L31.19,12.48L31.06,12.67L30.79,13.10"/><path d="M32.13,16.05L31.98,15.73L32.21,15.89L32.52,15.92L32.87,15.84"/><path d="M31.98,15.73L31.86,15.53L31.79,15.19L31.83,14.78L31.96,14.33L32.12,13.99L32.34,13.25L32.45,13.13L33.09,12.91L32.73,13.19L32.39,13.56L32.12,13.99"/><path d="M31.86,15.53L31.54,15.08"/><path d="M31.55,14.95L31.96,14.33"/><path d="M32.45,13.13L31.30,12.37L31.76,12.02L32.04,11.87L32.68,11.64L32.78,11.66L33.93,12.42L33.83,12.41L32.68,11.64"/><path d="M31.30,12.37L31.19,12.48L32.34,13.25"/><path d="M31.76,12.02L31.76,12.02"/><path d="M33.82,15.06L33.71,15.23L33.61,15.34L33.15,15.69"/><path d="M33.25,13.68L33.15,13.96L32.97,14.27L32.74,14.54L32.56,14.69"/><path d="M33.10,13.40L33.07,13.62L32.97,13.89L32.82,14.15L32.63,14.38L32.41,14.56L32.29,14.62"/><path d="M33.03,13.45L33.01,13.59L32.92,13.85L32.76,14.12L32.57,14.34L32.35,14.52L32.30,14.55"/><path d="M32.28,14.78L32.37,14.77L32.59,14.67L32.80,14.50L33.00,14.27L33.15,14.01L33.24,13.74L33.27,13.49L33.24,13.33"/><path d="M33.29,13.33L33.33,13.53L33.30,13.78L33.21,14.05L33.05,14.31L32.86,14.54L32.65,14.71L32.43,14.81L32.29,14.83"/><path d="M33.02,13.53L32.92,13.80L32.74,14.11L32.51,14.38L32.33,14.53"/><path d="M33.48,13.84L33.39,14.11L33.21,14.42L32.98,14.69L32.79,14.84"/><path d="M32.30,14.91L32.41,14.95L32.60,14.93L32.82,14.83L33.04,14.65L33.23,14.43L33.38,14.16L33.48,13.90L33.51,13.65L33.47,13.44L33.38,13.32"/><path d="M32.30,14.92L32.46,14.99L32.66,14.97L32.88,14.87L32.97,14.79L33.09,14.69L33.29,14.47L33.44,14.20L33.54,13.93L33.57,13.69L33.53,13.48L33.42,13.34L33.38,13.32"/><path d="M33.76,13.74L33.73,13.95L33.62,14.27L33.44,14.58L33.21,14.85L32.96,15.05"/><path d="M32.27,14.74L32.30,14.92L32.42,15.08L32.58,15.14L32.79,15.12L33.03,15.02L33.26,14.83L33.46,14.59L33.63,14.31L33.73,14.02L33.76,13.75L33.72,13.53L33.61,13.38L33.44,13.31L33.24,13.33"/><path d="M33.13,15.20L32.87,15.33L32.63,15.35L32.43,15.27L32.31,15.10L32.26,14.84L32.30,14.54L32.41,14.21L32.60,13.89L32.84,13.61L33.10,13.40L33.23,13.33L33.37,13.27L33.61,13.25L33.80,13.33L33.93,13.50L33.98,13.75L33.94,14.06L33.82,14.39L33.64,14.71L33.40,14.99L33.13,15.20"/><path d="M32.42,14.20L32.59,14.00L32.74,13.74L32.75,13.71"/><path d="M33.09,12.91L33.37,12.76L33.83,12.41"/><path d="M34.28,14.26L34.50,13.53"/><path d="M33.93,12.42L34.25,12.87L34.02,12.71L33.72,12.67L33.37,12.76"/><path d="M34.25,12.87L34.37,13.07"/></g></g><g id="Actor_.16"><g style="stroke:#000000;stroke-width:0.071"><path d="M83.13,50.40L78.10,47.05L77.99,46.87L77.95,46.62L78.00,46.32L78.12,46.00L78.31,45.69L78.54,45.42L78.80,45.23L79.05,45.12L79.28,45.11L79.47,45.19L84.41,48.49"/><path d="M84.59,52.35L84.35,52.45L84.32,52.46L83.81,52.48L83.77,52.47L83.36,52.28L83.33,52.25L83.05,51.82L83.05,51.79L82.97,51.23L83.07,50.57L83.34,49.86L83.74,49.19L83.99,48.90L84.25,48.61L84.26,48.60L84.83,48.17L85.39,47.93L85.43,47.92L85.94,47.90L85.98,47.90L86.38,48.10L86.42,48.12L86.44,48.15L86.70,48.55L86.71,48.59L86.78,49.11"/><path d="M86.76,49.09L86.69,48.65L86.44,48.26L86.05,48.07L85.56,48.10L85.01,48.33L84.45,48.76L83.95,49.33L83.55,49.99L83.28,50.68L83.19,51.33L83.26,51.87L83.51,52.25L83.90,52.44L84.40,52.42L84.58,52.34"/><path d="M83.39,51.45L83.45,51.44L83.50,51.44L83.55,51.45L83.58,51.46L84.04,51.88L84.44,52.26L84.42,52.26L84.33,52.31L83.65,51.67L83.39,51.45L83.99,49.91L84.08,49.44L85.42,48.57L85.72,48.28L86.29,48.78"/><path d="M84.08,49.44L84.10,49.45L83.99,49.97L84.12,49.47L84.23,49.55L83.72,51.17L83.58,51.46L84.72,52.23L85.62,53.04L84.47,52.27L84.45,52.26L84.44,52.26"/><path d="M84.04,51.88L84.36,52.16L84.47,52.27"/><path d="M84.20,52.11L84.37,52.28L84.38,52.27L84.40,52.26L84.00,51.90"/><path d="M84.50,49.16L84.10,49.45L84.12,49.47L84.56,49.23"/><path d="M84.33,52.31L84.38,52.27L84.39,52.27"/><path d="M84.72,52.23L85.38,50.32L84.23,49.55L84.53,49.39L85.79,48.45L85.77,48.43L85.74,48.39L85.73,48.34L85.72,48.28"/><path d="M84.42,52.26L84.41,52.26L84.40,52.26"/><path d="M85.33,52.33L85.27,52.24L85.22,51.89L85.29,51.47L85.46,51.02L85.72,50.59L86.04,50.22L86.34,50.00L86.40,49.95L86.76,49.80L87.08,49.78L87.33,49.90L87.49,50.15L87.54,50.50L87.48,50.92L87.31,51.37L87.05,51.80L86.73,52.17L86.37,52.44L86.01,52.60L85.69,52.61L85.43,52.49L85.33,52.33"/><path d="M84.35,52.29L84.41,52.26"/><path d="M84.37,48.52L84.52,48.40L84.68,48.29"/><path d="M85.62,53.04L87.18,51.94L87.84,50.03L86.94,49.22L85.38,50.32"/><path d="M86.94,49.22L85.79,48.45"/><path d="M85.77,48.43L85.80,48.45"/><path d="M85.77,48.43L85.79,48.45"/></g></g><g id="Actor_.17"><g style="stroke:#000000;stroke-width:0.071"><path d="M246.63,164.92L245.71,164.31L245.82,162.58L246.97,163.35L247.02,163.30"/><path d="M245.82,162.58L247.23,160.99L248.35,161.74"/><path d="M248.97,165.34L248.55,165.64L248.04,165.85L247.58,165.87L247.22,165.70L246.99,165.39L246.88,164.92L246.93,164.34L247.12,163.71L247.45,163.07L247.86,162.52L248.02,162.36L248.52,161.94L249.04,161.67L249.52,161.58L249.93,161.68L250.22,161.97L250.36,162.38L250.37,162.93L250.25,163.43"/><path d="M250.27,163.44L250.40,162.94L250.42,162.33L250.41,162.29L250.24,161.81L250.22,161.77L249.88,161.47L249.85,161.45L249.81,161.44L249.35,161.35L249.31,161.36L248.77,161.49L248.20,161.83L248.18,161.84L247.64,162.35L247.17,162.98L246.83,163.67L246.64,164.38L246.63,164.99L246.64,165.03L246.81,165.51L246.83,165.55L247.17,165.85L247.20,165.87L247.70,165.97L247.74,165.96L248.28,165.83L248.85,165.49L248.87,165.47L248.60,165.64L248.30,165.81L248.31,165.81"/><path d="M246.96,163.41L246.97,163.35L246.99,163.36"/><path d="M248.24,164.85L248.02,164.83L247.85,164.72L247.75,164.53L247.72,164.27L247.76,163.95L247.83,163.78L247.89,163.62L248.08,163.30L248.31,163.01L248.56,162.80L248.84,162.66L249.09,162.61L249.30,162.65L249.45,162.79L249.50,162.93"/><path d="M248.09,164.76L248.11,164.77L247.96,164.63L247.89,164.41L247.89,164.13L247.98,163.82L248.13,163.50L248.35,163.21L248.60,162.98L248.86,162.82L249.10,162.76L249.31,162.80L249.30,162.79"/><path d="M253.24,165.92L253.25,165.63L253.17,165.41L253.02,165.28L252.81,165.24L252.57,165.30L252.31,165.45L252.06,165.69L251.84,165.98L251.69,166.29L251.60,166.61L251.60,166.89L251.67,167.11L251.82,167.24L248.11,164.77"/><path d="M247.23,160.99L248.52,161.13L248.98,161.44"/><path d="M248.99,165.36L248.87,165.47"/><path d="M249.31,162.80L253.02,165.28"/><path d="M252.00,166.87L252.06,167.03L252.17,167.13L252.33,167.16L252.51,167.12L252.71,167.00L252.89,166.82L253.05,166.61L253.17,166.37L253.24,166.13L253.24,165.92L253.18,165.76L253.07,165.66L252.91,165.63L252.73,165.67L252.53,165.79L252.35,165.96L252.19,166.18L252.07,166.42L252.01,166.66L252.00,166.87"/><path d="M252.51,167.12L252.28,167.22L252.03,167.28L251.82,167.24"/><path d="M253.24,165.91L253.24,166.13"/></g></g><g><g><path style="stroke:#a0a0a4;stroke-width:0.200;stroke-dasharray:0.6 0.6" d="M42.22,30.11L33.36,23.94"/><path style="stroke:#a0a0a4;stroke-width:0.200;stroke-dasharray:0.6 0.6" d="M56.71,40.21L78.92,55.67"/></g></g><g><g><path style="stroke:#a0a0a4;stroke-width:0.200;stroke-dasharray:0.6 0.6" d="M32.70,14.02L49.07,25.42"/><path style="stroke:#a0a0a4;stroke-width:0.200;stroke-dasharray:0.6 0.6" d="M78.26,45.76L54.31,29.08"/></g></g><g><g><path style="stroke:#a0a0a4;stroke-width:0.200;stroke-dasharray:0.6 0.6" d="M35.39,46.31L18.06,34.24"/><path style="stroke:#a0a0a4;stroke-width:0.200;stroke-dasharray:0.6 0.6" d="M39.80,49.38L63.75,66.06"/></g></g><g><g><path style="stroke:#a0a0a4;stroke-width:0.200;stroke-dasharray:0.6 0.6" d="M36.22,37.42L17.47,24.36"/><path style="stroke:#a0a0a4;stroke-width:0.200;stroke-dasharray:0.6 0.6" d="M63.10,56.15L39.15,39.47"/></g></g><g><g><path style="stroke:#a0a0a4;stroke-width:0.200;stroke-dasharray:0.6 0.6" d="M54.87,53.29L56.17,54.16"/><path style="stroke:#a0a0a4;stroke-width:0.200;stroke-dasharray:0.6 0.6" d="M67.86,62.04L58.84,55.96"/><path style="stroke:#a0a0a4;stroke-width:0.200;stroke-dasharray:0.6 0.6" d="M87.31,75.13L69.07,62.85"/></g></g><g><g><path style="stroke:#a0a0a4;stroke-width:0.200;stroke-dasharray:0.6 0.6" d="M53.65,34.88L56.96,37.10"/><path style="stroke:#a0a0a4;stroke-width:0.200;stroke-dasharray:0.6 0.6" d="M98.30,64.94L57.64,37.56"/></g></g><g><g><path style="stroke:#a0a0a4;stroke-width:0.200;stroke-dasharray:0.6 0.6" d="M225.77,162.45L232.24,166.77"/><path style="stroke:#a0a0a4;stroke-width:0.200;stroke-dasharray:0.6 0.6" d="M260.42,185.59L232.91,167.21"/></g></g><g><g><path style="stroke:#a0a0a4;stroke-width:0.200;stroke-dasharray:0.6 0.6" d="M252.62,166.39L258.29,170.10"/><path style="stroke:#a0a0a4;stroke-width:0.200;stroke-dasharray:0.6 0.6" d="M264.97,174.47L261.11,171.95"/><path style="stroke:#a0a0a4;stroke-width:0.200;stroke-dasharray:0.6 0.6" d="M281.12,185.05L280.55,184.67"/></g></g><g><g><path style="stroke:#a0a0a4;stroke-width:0.200;stroke-dasharray:0.6 0.6" d="M260.55,173.90L217.27,145.01"/></g></g><g><g><path style="stroke:#a0a0a4;stroke-width:0.200;stroke-dasharray:0.6 0.6" d="M238.06,179.96L259.55,194.03"/><path style="stroke:#a0a0a4;stroke-width:0.200;stroke-dasharray:0.6 0.6" d="M266.56,198.61L265.98,198.24"/></g></g><g><g><path style="stroke:#a0a0a4;stroke-width:0.200;stroke-dasharray:0.6 0.6" d="M272.93,173.31L249.84,158.20"/><path style="stroke:#a0a0a4;stroke-width:0.200;stroke-dasharray:0.6 0.6" d="M278.33,176.85L277.76,176.47"/></g></g><g><g><path style="stroke:#a0a0a4;stroke-width:0.200;stroke-dasharray:0.6 0.6" d="M235.27,171.77L260.14,188.04"/><path style="stroke:#a0a0a4;stroke-width:0.200;stroke-dasharray:0.6 0.6" d="M263.20,190.04L263.77,190.42"/></g></g><g id="PMI3.0"><g><path style="stroke:#0085ca;stroke-width:0.200" d="M17.46,58.62L17.34,35.72"/></g><g><path style="fill:#0085ca" d="M18.34,35.72L18.34,35.62L18.33,35.52L18.30,35.43L18.27,35.34L18.23,35.25L18.18,35.16L18.12,35.08L18.05,35.01L17.98,34.95L17.90,34.89L17.82,34.84L17.73,34.80L17.63,34.76L17.54,34.74L17.44,34.72L17.34,34.72L17.25,34.72L17.15,34.74L17.05,34.76L16.96,34.80L16.87,34.84L16.79,34.89L16.71,34.95L16.64,35.01L16.57,35.08L16.51,35.16L16.46,35.25L16.42,35.34L16.39,35.43L16.36,35.52L16.35,35.62L16.34,35.72L16.35,35.82L16.36,35.91L16.39,36.01L16.42,36.10L16.46,36.19L16.51,36.27L16.57,36.35L16.64,36.43L16.71,36.49L16.79,36.55L16.87,36.60L16.96,36.64L17.05,36.68L17.15,36.70L17.25,36.71L17.34,36.72L17.44,36.71L17.54,36.70L17.63,36.68L17.73,36.64L17.82,36.60L17.90,36.55L17.98,36.49L18.05,36.43L18.12,36.35L18.18,36.27L18.23,36.19L18.27,36.10L18.30,36.01L18.33,35.91L18.34,35.82z"/></g><g><path style="fill:#0085ca" d="M14.10,65.40L20.87,65.40L20.87,58.62L14.10,58.62z"/><text xml:space="preserve" fill="#ffffff" stroke-width="0" x="16.57" y="63.49" font-size="2.75" opacity="1.00" font-family="Rubik Medium">3</text></g></g><g id="PMI4.0"><g><path style="stroke:#0085ca;stroke-width:0.200" d="M70.92,92.41L70.79,72.24"/></g><g><path style="fill:#0085ca" d="M71.79,72.24L71.78,72.14L71.77,72.04L71.74,71.95L71.71,71.85L71.67,71.76L71.62,71.68L71.56,71.60L71.49,71.53L71.42,71.46L71.34,71.40L71.26,71.35L71.17,71.31L71.08,71.28L70.98,71.25L70.88,71.24L70.79,71.24L70.69,71.24L70.59,71.25L70.50,71.28L70.40,71.31L70.32,71.35L70.23,71.40L70.15,71.46L70.08,71.53L70.01,71.60L69.95,71.68L69.90,71.76L69.86,71.85L69.83,71.95L69.81,72.04L69.79,72.14L69.79,72.24L69.79,72.33L69.81,72.43L69.83,72.53L69.86,72.62L69.90,72.71L69.95,72.79L70.01,72.87L70.08,72.94L70.15,73.01L70.23,73.07L70.32,73.12L70.40,73.16L70.50,73.19L70.59,73.22L70.69,73.23L70.79,73.24L70.88,73.23L70.98,73.22L71.08,73.19L71.17,73.16L71.26,73.12L71.34,73.07L71.42,73.01L71.49,72.94L71.56,72.87L71.62,72.79L71.67,72.71L71.71,72.62L71.74,72.53L71.77,72.43L71.78,72.33z"/></g><g><path style="fill:#0085ca" d="M67.56,99.18L74.33,99.18L74.33,92.41L67.56,92.41z"/><text xml:space="preserve" fill="#ffffff" stroke-width="0" x="69.99" y="97.28" font-size="2.75" opacity="1.00" font-family="Rubik Medium">4</text></g></g><g id="PMI2.0"><g><path style="stroke:#0085ca;stroke-width:0.200" d="M156.41,67.33L155.79,110.61"/></g><g><path style="fill:#0085ca" d="M156.79,110.61L156.79,110.51L156.77,110.41L156.75,110.32L156.72,110.23L156.68,110.14L156.62,110.05L156.57,109.98L156.50,109.90L156.43,109.84L156.35,109.78L156.26,109.73L156.18,109.69L156.08,109.65L155.99,109.63L155.89,109.61L155.79,109.61L155.70,109.61L155.60,109.63L155.50,109.65L155.41,109.69L155.32,109.73L155.24,109.78L155.16,109.84L155.09,109.90L155.02,109.98L154.96,110.05L154.91,110.14L154.87,110.23L154.84,110.32L154.81,110.41L154.80,110.51L154.79,110.61L154.80,110.71L154.81,110.81L154.84,110.90L154.87,110.99L154.91,111.08L154.96,111.17L155.02,111.24L155.09,111.32L155.16,111.38L155.24,111.44L155.32,111.49L155.41,111.53L155.50,111.57L155.60,111.59L155.70,111.61L155.79,111.61L155.89,111.61L155.99,111.59L156.08,111.57L156.18,111.53L156.26,111.49L156.35,111.44L156.43,111.38L156.50,111.32L156.57,111.24L156.62,111.17L156.68,111.08L156.72,110.99L156.75,110.90L156.77,110.81L156.79,110.71z"/></g><g><path style="fill:#0085ca" d="M153.07,67.33L159.85,67.33L159.85,60.55L153.07,60.55z"/><text xml:space="preserve" fill="#ffffff" stroke-width="0" x="155.58" y="65.42" font-size="2.75" opacity="1.00" font-family="Rubik Medium">2</text></g></g><g id="PMI1.0"><g><path style="stroke:#0085ca;stroke-width:0.200" d="M244.38,132.32L244.08,152.93"/></g><g><path style="fill:#0085ca" d="M245.08,152.93L245.08,152.83L245.07,152.73L245.04,152.64L245.01,152.54L244.97,152.46L244.92,152.37L244.86,152.29L244.79,152.22L244.72,152.15L244.64,152.10L244.56,152.05L244.47,152.00L244.38,151.97L244.28,151.95L244.18,151.93L244.08,151.93L243.99,151.93L243.89,151.95L243.79,151.97L243.70,152.00L243.61,152.05L243.53,152.10L243.45,152.15L243.38,152.22L243.31,152.29L243.25,152.37L243.20,152.46L243.16,152.55L243.13,152.64L243.10,152.73L243.09,152.83L243.08,152.93L243.09,153.03L243.10,153.12L243.13,153.22L243.16,153.31L243.20,153.40L243.25,153.48L243.31,153.56L243.38,153.63L243.45,153.70L243.53,153.76L243.61,153.81L243.70,153.85L243.79,153.88L243.89,153.91L243.99,153.92L244.08,153.93L244.18,153.92L244.28,153.91L244.38,153.88L244.47,153.85L244.56,153.81L244.64,153.76L244.72,153.70L244.79,153.63L244.86,153.56L244.92,153.48L244.97,153.40L245.01,153.31L245.04,153.22L245.07,153.12L245.08,153.03z"/></g><g><path style="fill:#0085ca" d="M241.04,132.32L247.81,132.32L247.81,125.55L241.04,125.55z"/><text xml:space="preserve" fill="#ffffff" stroke-width="0" x="243.75" y="130.42" font-size="2.75" opacity="1.00" font-family="Rubik Medium">1</text></g></g><g/><g id="paperID" visibility="hidden" opacity="0.00" transform="scale(0.000100)"><path style="stroke:#000000;stroke-width:0.500;fill:#e6e6e6;fill-rule:evenodd" d="M-2000.00,-2000.00L2297.00,-2000.00L2297.00,2210.00L-2000.00,2210.00zM0.00,0.00L297.00,0.00L297.00,210.00L0.00,210.00z"/><path style="fill:#000000;fill-opacity:0.118" d="M3.00,210.00L297.00,210.00L297.00,3.00L300.00,3.00L300.00,213.00L3.00,213.00z"/></g><g><g><path style="stroke:#000000;stroke-width:0.353;fill:#0085ca" d="M24.34,158.13L96.65,158.13L96.65,162.72L24.34,162.72z"/><text xml:space="preserve" fill="#ffffff" stroke-width="0" x="26.11" y="161.66" font-size="2.28" opacity="1.00" font-family="Rubik" font-weight="bold">Pos.</text><text xml:space="preserve" fill="#ffffff" stroke-width="0" x="34.88" y="161.66" font-size="2.32" opacity="1.00" font-family="Rubik" font-weight="bold">Part No</text><text xml:space="preserve" fill="#ffffff" stroke-width="0" x="50.74" y="161.66" font-size="2.25" opacity="1.00" font-family="Rubik" font-weight="bold">Qty.</text><text xml:space="preserve" fill="#ffffff" stroke-width="0" x="59.41" y="161.66" font-size="2.30" opacity="1.00" font-family="Rubik" font-weight="bold">Description</text><path style="stroke:#000000;stroke-width:0.353" d="M33.12,158.13L33.12,162.72"/><path style="stroke:#000000;stroke-width:0.353" d="M48.97,158.13L48.97,162.72"/><path style="stroke:#000000;stroke-width:0.353" d="M57.65,158.13L57.65,162.72"/></g><g id="Line1"><path style="stroke:#000000;stroke-width:0.353;fill:#ffffff" d="M24.34,162.72L96.65,162.72L96.65,167.30L24.34,167.30z"/><text xml:space="preserve" fill="#505050" stroke-width="0" x="26.11" y="166.25" font-size="2.40" opacity="1.00" font-family="Rubik">1</text><text xml:space="preserve" fill="#505050" stroke-width="0" x="34.88" y="166.25" font-size="2.54" opacity="1.00" font-family="Rubik">70028428</text><text xml:space="preserve" fill="#505050" stroke-width="0" x="50.74" y="166.25" font-size="2.41" opacity="1.00" font-family="Rubik">4</text><text xml:space="preserve" fill="#505050" stroke-width="0" x="59.41" y="166.25" font-size="2.54" opacity="1.00" font-family="Rubik">Hex flange screw M12X30</text><path style="stroke:#000000;stroke-width:0.353" d="M33.12,162.72L33.12,167.30"/><path style="stroke:#000000;stroke-width:0.353" d="M48.97,162.72L48.97,167.30"/><path style="stroke:#000000;stroke-width:0.353" d="M57.65,162.72L57.65,167.30"/></g><g id="Line2"><path style="stroke:#000000;stroke-width:0.353;fill:#e7f5fd" d="M24.34,167.30L96.65,167.30L96.65,171.89L24.34,171.89z"/><text xml:space="preserve" fill="#505050" stroke-width="0" x="26.11" y="170.83" font-size="2.36" opacity="1.00" font-family="Rubik">2</text><text xml:space="preserve" fill="#505050" stroke-width="0" x="34.88" y="170.83" font-size="2.53" opacity="1.00" font-family="Rubik">70040773</text><text xml:space="preserve" fill="#505050" stroke-width="0" x="50.74" y="170.83" font-size="2.40" opacity="1.00" font-family="Rubik">1</text><text xml:space="preserve" fill="#505050" stroke-width="0" x="59.41" y="170.83" font-size="2.51" opacity="1.00" font-family="Rubik">Drive shaft</text><path style="stroke:#000000;stroke-width:0.353" d="M33.12,167.30L33.12,171.89"/><path style="stroke:#000000;stroke-width:0.353" d="M48.97,167.30L48.97,171.89"/><path style="stroke:#000000;stroke-width:0.353" d="M57.65,167.30L57.65,171.89"/></g><g id="Line3"><path style="stroke:#000000;stroke-width:0.353;fill:#ffffff" d="M24.34,171.89L96.65,171.89L96.65,176.47L24.34,176.47z"/><text xml:space="preserve" fill="#505050" stroke-width="0" x="26.11" y="175.42" font-size="2.39" opacity="1.00" font-family="Rubik">3</text><text xml:space="preserve" fill="#505050" stroke-width="0" x="34.88" y="175.42" font-size="2.53" opacity="1.00" font-family="Rubik">TBA</text><text xml:space="preserve" fill="#505050" stroke-width="0" x="50.74" y="175.42" font-size="2.41" opacity="1.00" font-family="Rubik">4</text><text xml:space="preserve" fill="#505050" stroke-width="0" x="59.41" y="175.42" font-size="2.53" opacity="1.00" font-family="Rubik">Hex nut M12x1,25</text><path style="stroke:#000000;stroke-width:0.353" d="M33.12,171.89L33.12,176.47"/><path style="stroke:#000000;stroke-width:0.353" d="M48.97,171.89L48.97,176.47"/><path style="stroke:#000000;stroke-width:0.353" d="M57.65,171.89L57.65,176.47"/></g><g id="Line4"><path style="stroke:#000000;stroke-width:0.353;fill:#e7f5fd" d="M24.34,176.47L96.65,176.47L96.65,181.06L24.34,181.06z"/><text xml:space="preserve" fill="#505050" stroke-width="0" x="26.11" y="180.00" font-size="2.41" opacity="1.00" font-family="Rubik">4</text><text xml:space="preserve" fill="#505050" stroke-width="0" x="34.88" y="180.00" font-size="2.53" opacity="1.00" font-family="Rubik">TBA</text><text xml:space="preserve" fill="#505050" stroke-width="0" x="50.74" y="180.00" font-size="2.41" opacity="1.00" font-family="Rubik">4</text><text xml:space="preserve" fill="#505050" stroke-width="0" x="59.41" y="180.00" font-size="2.54" opacity="1.00" font-family="Rubik">Hex flange screw M12 1,25x42</text><path style="stroke:#000000;stroke-width:0.353" d="M33.12,176.47L33.12,181.06"/><path style="stroke:#000000;stroke-width:0.353" d="M48.97,176.47L48.97,181.06"/><path style="stroke:#000000;stroke-width:0.353" d="M57.65,176.47L57.65,181.06"/></g></g><g id="hotspot.0" ident="" onmouseover="ShowHotSpot(evt,&apos;0&apos;)" onmouseout="HideHotSpot(evt,&apos;0&apos;)" onmousemove="ShowToolTip(evt,&apos;0&apos;,&quot;Fillet2&quot;)" opacity="0"><path style="fill:#00ff00;fill-rule:evenodd" d="M24.34,162.72L24.34,167.30L96.65,167.30L96.65,162.72zM241.11,132.15L241.11,125.59L247.67,125.59L247.67,132.16L244.65,132.35L244.76,152.31L245.71,152.98L247.04,153.25L247.69,154.24L247.64,155.50L250.22,157.14L250.26,158.56L249.93,158.88L248.94,159.10L246.69,157.42L244.12,157.45L243.47,156.50L243.06,156.27L243.20,154.35L243.49,153.89L243.04,152.91L243.78,152.07L243.81,132.35zM249.94,161.61L250.28,161.92L250.46,163.67L253.17,165.48L253.16,166.59L252.70,167.12L251.50,167.14L248.97,165.49L248.51,165.78L247.02,165.82L246.06,164.53L246.06,162.40L246.92,161.33L248.63,161.32zM232.86,167.11L233.18,169.04L235.78,170.96L235.79,172.07L235.01,172.62L234.17,172.59L231.90,170.94L230.82,171.33L229.94,171.36L229.28,170.36L228.69,169.99L228.69,167.88L229.86,166.42L230.58,166.45zM235.46,175.12L235.80,175.43L236.08,177.40L238.66,179.04L238.69,179.75L238.22,180.62L236.74,180.61L234.49,179.01L234.04,179.29L232.53,179.34L231.87,178.40L231.24,178.02L231.22,177.20L231.74,175.75L232.40,174.80z"/></g><g id="hotspot.1" ident="" onmouseover="ShowHotSpot(evt,&apos;1&apos;)" onmouseout="HideHotSpot(evt,&apos;1&apos;)" onmousemove="ShowToolTip(evt,&apos;1&apos;,&quot;Cut-Extrude1&quot;)" opacity="0"><path style="fill:#00ff00;fill-rule:evenodd" d="M24.34,167.30L24.34,171.89L96.65,171.89L96.65,167.30zM52.04,25.51L54.95,27.42L56.85,29.06L58.05,32.37L58.80,32.91L59.43,34.53L59.44,37.56L58.66,39.03L56.12,40.67L54.58,43.64L54.27,45.14L58.82,48.33L60.40,50.29L60.40,54.29L59.78,55.28L58.02,56.42L56.11,57.07L53.30,57.07L50.45,56.06L45.90,53.21L40.74,52.25L35.95,49.00L35.30,48.03L35.30,42.89L34.99,42.56L34.96,41.07L35.93,38.19L37.54,34.96L39.33,32.26L41.95,30.32L43.24,30.40L45.92,28.55L46.89,26.94L49.66,25.17zM101.58,62.53L103.20,64.26L104.99,63.16L106.42,63.16L113.15,67.37L115.08,68.97L116.05,70.91L117.66,76.05L144.02,93.13L145.02,94.38L146.32,97.91L152.07,101.81L153.39,102.10L154.98,103.12L155.53,103.11L155.97,67.35L153.26,67.16L153.26,60.59L159.83,60.59L159.83,67.16L156.80,67.35L156.16,103.80L204.57,135.25L205.83,135.04L206.67,134.59L208.74,134.60L211.32,136.20L213.45,136.22L216.10,135.88L218.71,136.21L220.63,136.86L227.71,141.37L230.65,144.22L232.56,147.47L232.57,148.57L230.18,150.75L228.89,150.66L225.79,153.71L225.76,155.23L227.07,159.06L227.08,160.47L226.75,161.10L225.50,162.75L223.12,163.91L220.29,163.91L218.40,162.58L217.73,161.32L217.41,161.39L217.35,162.61L215.37,164.85L213.53,164.87L206.45,160.37L204.54,158.10L202.60,154.89L201.34,151.65L198.78,149.71L198.10,147.81L197.78,145.88L146.32,112.39L145.34,111.11L140.21,107.89L135.34,107.93L130.89,105.29L107.37,89.86L102.24,90.23L98.66,89.58L94.81,87.64L88.71,83.44L86.76,80.57L86.11,78.64L86.11,76.45L86.99,75.40L88.90,74.10L91.15,73.78L93.87,71.67L93.86,63.93L95.76,62.29L97.29,61.89L99.97,61.88zM263.45,169.67L269.20,173.24L274.99,173.21L277.59,173.86L280.86,176.06L282.44,180.60L282.75,180.93L282.73,183.30L282.09,185.88L280.38,189.96L277.47,193.18L276.31,193.19L273.41,195.86L273.09,197.15L270.70,199.58L268.80,200.26L265.99,200.26L264.69,199.96L261.53,197.65L260.19,196.09L259.55,194.16L259.56,190.38L259.86,186.50L261.51,183.97L261.52,182.53L256.69,178.99L255.70,177.41L255.04,175.50L255.04,173.95L256.37,171.42L257.85,170.32L259.44,169.66L261.52,169.39zM58.19,35.95L57.66,36.24L57.72,35.49L58.13,35.46zM58.83,51.55L59.14,52.34L58.17,53.34L56.44,54.19L52.64,54.19L51.08,53.50L50.30,52.53L50.94,51.58L53.52,50.30L56.86,50.29zM109.95,76.34L109.00,77.47L107.25,79.90L104.47,80.65L104.12,80.29L104.15,76.47L106.95,74.40L107.35,74.40zM214.23,150.70L214.23,151.45L211.17,154.25L210.33,154.28L207.74,152.60L207.74,152.12L210.33,150.16L212.15,147.81L212.52,147.12L212.87,147.13zM263.76,172.25L265.07,173.21L265.05,174.29L264.72,175.26L263.79,176.27L261.73,177.43L257.93,177.43L256.67,176.43L256.65,175.25L257.98,173.36L260.11,172.26L262.45,171.93z"/></g><g id="hotspot.2" ident="" onmouseover="ShowHotSpot(evt,&apos;2&apos;)" onmouseout="HideHotSpot(evt,&apos;2&apos;)" onmousemove="ShowToolTip(evt,&apos;2&apos;,&quot;Imported1&quot;)" opacity="0"><path style="fill:#00ff00;fill-rule:evenodd" d="M24.34,171.89L24.34,176.47L96.65,176.47L96.65,171.89zM34.34,12.96L34.33,14.39L33.68,15.34L32.95,15.91L31.73,15.91L30.80,15.21L30.37,14.24L31.35,12.36L32.74,11.70zM35.01,22.93L34.99,24.04L33.55,25.86L32.75,25.85L31.43,24.89L31.40,23.03L31.96,22.31L33.06,21.66zM18.57,22.62L19.22,23.59L19.22,24.68L18.88,25.32L17.83,26.19L16.32,26.15L15.57,25.62L15.66,23.39L16.83,22.28L17.92,22.29zM19.86,33.23L19.85,34.66L19.21,35.62L17.91,36.57L17.79,58.47L20.82,58.66L20.82,65.23L14.25,65.23L14.25,58.66L16.96,58.47L16.96,36.78L16.28,35.85L16.31,33.36L17.46,32.27L18.90,32.27z"/></g><g id="hotspot.3" ident="" onmouseover="ShowHotSpot(evt,&apos;3&apos;)" onmouseout="HideHotSpot(evt,&apos;3&apos;)" onmousemove="ShowToolTip(evt,&apos;3&apos;,&quot;Fillet2&quot;)" opacity="0"><path style="fill:#00ff00;fill-rule:evenodd" d="M24.34,176.47L24.34,181.06L96.65,181.06L96.65,176.47zM84.19,48.41L84.74,48.41L85.38,48.02L86.13,48.01L87.77,49.98L87.11,52.04L85.98,52.88L85.21,52.87L84.85,52.54L83.21,52.26L82.90,50.31L78.06,47.07L78.04,46.22L78.95,45.11L79.36,45.12zM84.88,58.36L85.33,58.35L85.69,58.01L86.79,58.00L87.79,58.94L88.36,60.59L87.31,62.53L85.15,62.54L83.86,62.23L83.59,60.25L78.71,57.04L78.69,56.20L79.58,55.10L80.01,55.09zM68.79,58.67L69.61,58.71L70.69,58.31L71.30,58.69L71.66,59.62L72.61,60.56L71.98,62.33L70.90,63.22L70.03,63.20L69.43,62.87L68.45,62.88L68.10,62.54L67.81,60.90L62.85,57.46L62.93,56.51L63.47,55.74L64.58,55.76zM69.43,68.65L70.25,68.69L70.90,68.29L71.66,68.27L72.32,69.26L72.92,69.62L72.95,71.66L72.31,72.63L71.23,73.16L71.21,92.25L74.24,92.45L74.24,99.01L67.67,99.01L67.67,92.45L70.37,92.25L70.36,73.15L68.74,72.52L68.42,70.59L63.58,67.34L63.56,66.50L64.12,65.71L65.22,65.73z"/></g></g></svg>