<?xml version="1.0" encoding="UTF-8" standalone="yes"?><svg xmlns="http://www.w3.org/2000/svg" xmlns:xlink="http://www.w3.org/1999/xlink" width="297.000mm" height="210.000mm" viewBox="0.000000 0.000000 297.000000 210.000000" stroke-linejoin="round" stroke-linecap="round" fill="none" fill-rule="evenodd"><desc>Composer Export</desc><script type="text/ecmascript"><![CDATA[
if(typeof(top) != "undefined")
{
	top.ShowPaper = ShowPaper;
}
function ShowHotSpot(evt,hotspotid)
{
	var svgDocument = evt.target.ownerDocument;
	var strId = "hotspot."+hotspotid;
	var hotspot = svgDocument.getElementById(strId);
	if(hotspot)
		hotspot.setAttribute("opacity",".5");
}
function HideHotSpot(evt,hotspotid)
{
	var svgDocument = evt.target.ownerDocument;
	var strId = "hotspot."+hotspotid;
	var hotspot = svgDocument.getElementById(strId);
	if(hotspot)
		hotspot.setAttribute("opacity","0");

	var toolTip = svgDocument.getElementById('ToolTip');
	if(toolTip)
		toolTip.setAttribute("visibility","hidden");
}
function ShowToolTip(evt,hotspotid,strTooltip)
{
	if(strTooltip=="")
	return;

	// change text
	var svgDocument = evt.target.ownerDocument;
	var tiptext = svgDocument.getElementById('ToolTipText');
	if( !tiptext )
	return;
	tiptext.firstChild.nodeValue = " " + strTooltip + "  " ;

	// show tooltip before, else some refresh issue

	var toolTip = svgDocument.getElementById('ToolTip');
	if(!toolTip)
	return;

	toolTip.setAttribute("visibility","visible");
	toolTip.setAttribute("opacity",".95");

	// move tooltip
	// get viewbox

	var root = svgDocument.documentElement;
	var vbox = (root.getAttribute("viewBox")).split(' ');
	var x0 = parseFloat(vbox[0]);
	var y0 = parseFloat(vbox[1]);
	var vboxW = parseFloat(vbox[2]);
	var vboxH = parseFloat(vbox[3]);

	// get default width of svg

	var strW = root.getAttribute("width");
	var svgW = parseFloat(strW);
	if(strW.indexOf('mm') != -1)
	svgW *= 3.779;

	var strH = root.getAttribute("height");
	var svgH = parseFloat(strH);
	if(strH.indexOf('mm') != -1)
	svgH *= 3.779;  	// 96 dpi  -> 96/25.4 = 3.779

	// update the viewbox / width / height if svg is embedded in html with zoom fit all
	var realx0 = x0;
	var realy0 = y0;
	var realvboxW = vboxW;
	var realvboxH = vboxH;
	var realsvgW = svgW;
	var realsvgH = svgH;

	if ((typeof(top) == "undefined") || (typeof(top.svgctl1) != "undefined")) // embedded in html
	{
		// get window size in pxl

		svgW = window.innerWidth;
		svgH = window.innerHeight;

		// calculate real viewbox

		realsvgW = svgW;
		realsvgH = svgH;
		if((svgW / svgH) > (vboxW / vboxH))
		{
			realvboxW = (vboxH * svgW) / svgH;
			realvboxH = vboxH;
			realx0 = x0 - (realvboxW - vboxW)/2 ;
		}
		else
		{
			realvboxH = (vboxW * svgH) / svgW;
			realvboxW = vboxW;
			realy0 = y0 - (realvboxH - vboxH)/2 ;
		}
	}

	// get user zoom/pan

	var newScale = root.currentScale;
	var translation = root.currentTranslate;

	// transform pxl to user unit

	var xPos = (((evt.clientX+10- translation.x)/newScale) * realvboxW)/realsvgW  + realx0 ;
	var yPos = (((evt.clientY+5- translation.y)/newScale) * realvboxH)/ realsvgH  + realy0 ;
	var scaleForWidth = ( (1 / newScale) * realvboxH) / realsvgH;

	// move tooltip

	toolTip.setAttribute("transform", "translate(" + xPos + "," + yPos + ")" );

	// resize tooltip

	var fontsize = 12;
	tiptext.setAttribute("font-size",fontsize*scaleForWidth);
	tiptext.setAttribute("y", fontsize*scaleForWidth);
	var tipBG = svgDocument.getElementById('ToolTipBG');
	var outline = tiptext.getBBox();
	if(tipBG)
	{
		tipBG.setAttribute("stroke-width", 1*scaleForWidth);
		tipBG.setAttribute("width", Number(outline.width) );
		tipBG.setAttribute("height", Number(outline.height) + fontsize*.5*scaleForWidth );
	}
	var ToolTipShadow = svgDocument.getElementById('ToolTipShadow');
	if(ToolTipShadow)
	{
		ToolTipShadow.setAttribute("width", Number(outline.width) );
		ToolTipShadow.setAttribute("height", Number(outline.height) + fontsize*.5*scaleForWidth );
		ToolTipShadow.setAttribute("x", 3*scaleForWidth);
		ToolTipShadow.setAttribute("y", 3*scaleForWidth);
	}
}
function ShowPaper()
{
  var svgDocument = getDocument();
  var paper = svgDocument.getElementById("paperID");
  if(paper)
  {
    paper.setAttribute("transform","scale(1)");
    paper.setAttribute("opacity","1");
    paper.setAttribute("visibility","visible");
  }
  var svg = svgDocument.getRootElement();
  if(svg)
  {
    svg.setAttribute("width","307.000mm");
    svg.setAttribute("height","220.000mm");
    svg.setAttribute("viewBox","-5.000000 -5.000000 307.000000 220.000000");
  }
}
]]></script><defs/><g><g id="Actor_.0"><g style="stroke:#000000;stroke-width:0.176"><path d="M71.13,47.17L70.57,47.67L70.04,48.82L70.15,50.02L70.89,51.13L72.20,52.06L73.94,52.71L75.94,53.02L78.01,52.96L79.95,52.53L81.56,51.77L82.69,50.77L83.22,49.61L83.11,48.42L82.36,47.30L82.12,47.13"/><path d="M82.12,49.25L82.42,50.14L80.15,51.06L77.90,52.50L75.01,51.70L72.11,51.41L71.49,49.45L70.84,47.98L71.11,47.80"/><path d="M72.11,51.41L72.20,51.31L72.28,51.19L72.32,51.08L72.34,50.97L71.74,49.12L71.13,47.70"/><path d="M70.96,47.94L70.84,47.98"/><path d="M82.13,46.14L77.84,48.37L75.10,47.86L72.34,47.35L71.13,44.09"/><path d="M77.84,48.37L77.84,51.99L75.09,51.26L72.34,50.97L72.34,47.35"/><path d="M72.50,45.41L72.43,45.31L72.36,44.53L72.71,43.78L73.44,43.13L74.48,42.64L75.73,42.36L77.07,42.32L78.37,42.52L79.50,42.94L80.34,43.55L80.83,44.27L80.90,45.04L80.55,45.79L79.82,46.44L78.78,46.93L77.53,47.21L76.19,47.25L74.89,47.05L73.76,46.63L72.91,46.03L72.50,45.41"/><path d="M74.57,66.28L75.38,66.58L76.31,66.73L77.27,66.70L77.38,66.67L78.17,66.50L78.92,66.15"/><path d="M77.90,52.50L77.88,52.37L77.85,52.23L77.84,52.11L77.84,51.99L79.98,50.66L82.13,49.76"/><path d="M82.42,50.14L82.30,50.06L82.20,49.97L82.15,49.86"/></g><g style="stroke:#000000;stroke-width:0.353"><path d="M82.12,47.08L82.54,47.37L83.31,48.52L83.36,48.61L83.38,48.71L83.49,49.96L83.47,50.06L82.92,51.26L82.86,51.34L81.70,52.37L81.63,52.41L80.00,53.17L78.04,53.61L75.93,53.68L73.90,53.36L72.13,52.70L72.07,52.67L70.73,51.71L69.90,50.48L69.88,50.38L69.77,49.13L69.78,49.03L70.34,47.83L70.39,47.75L71.13,47.08"/><path d="M82.15,49.86L82.13,49.78L82.13,49.76L82.13,46.14L80.92,42.88L75.42,41.85L74.07,42.41L71.13,44.09L71.13,47.70L71.12,47.79L71.11,47.80L71.05,47.88L70.96,47.94"/><path d="M79.69,53.24L79.69,65.14L79.44,65.68L78.92,66.15L78.35,66.48L77.79,66.74L77.11,66.89L76.39,66.91L75.69,66.81L75.09,66.58L74.57,66.28L73.96,65.85L73.62,65.33L73.57,64.77L73.57,53.24"/></g></g><g id="Actor_.1"><g style="stroke:#000000;stroke-width:0.176"><path d="M182.87,157.76L183.31,155.40L184.29,152.99L185.72,150.77L187.45,148.95L189.32,147.71"/><path d="M189.98,169.41L189.66,169.14L189.36,168.83L186.57,167.22"/><path d="M193.07,148.18L195.85,149.78L199.60,149.59L197.71,150.09L195.70,151.24L193.75,152.96L192.05,155.07L190.65,157.48L189.64,160.07L189.11,162.62L189.11,164.89L188.39,160.67L185.60,159.06"/><path d="M188.39,160.67L188.57,160.01L188.78,159.35L186.00,157.74"/><path d="M188.78,159.35L192.05,155.07L194.83,150.52L192.05,148.91"/><path d="M189.36,168.83L189.11,164.89L189.61,166.79L190.61,168.23L192.03,169.06L193.73,169.21L195.63,168.72L197.64,167.56L199.58,165.84L201.29,163.73L202.68,161.33L203.70,158.73L204.22,156.19L204.22,153.92L203.72,152.01L202.73,150.57L201.30,149.74L199.60,149.59L202.88,149.12"/><path d="M194.54,163.49L195.41,163.61L196.40,163.31L197.42,162.63L198.37,161.64L199.14,160.43L199.68,159.11L199.72,158.92L199.92,157.83L199.85,156.70L199.46,155.83L198.80,155.31"/><path d="M194.83,150.52L195.34,150.14L195.85,149.78"/></g><g style="stroke:#000000;stroke-width:0.353"><path d="M185.84,162.90L184.93,162.37L183.72,161.42L183.01,159.83L182.87,157.76L182.86,157.41L183.28,155.18L184.21,152.91L185.56,150.80L187.20,149.08L188.97,147.91L189.32,147.71L191.14,147.17L192.73,147.38L193.90,148.06"/><path d="M186.34,165.88L186.57,167.22L186.87,167.53L187.20,167.80L189.98,169.41L193.73,169.21L197.00,168.74L197.51,168.39L198.02,168.00L201.29,163.73L204.07,159.18L204.29,158.52L204.47,157.86L204.22,153.92L203.50,149.70L203.20,149.39L202.88,149.12L200.09,147.51L196.34,147.70L193.07,148.18L192.56,148.53L192.05,148.91L188.78,153.19L186.00,157.74L185.79,158.40L185.60,159.06L185.85,163.00L186.19,164.99"/><path d="M194.54,163.49L193.88,162.97L193.49,162.10L193.45,161.47L193.41,160.97L193.66,159.69L194.19,158.37L194.97,157.16L195.92,156.17L196.93,155.49L197.93,155.20L198.80,155.31"/><path d="M195.26,156.86L194.82,157.93L194.04,159.14L193.75,159.44"/></g></g><g id="Actor_.2"><g style="stroke:#000000;stroke-width:0.176"><path d="M103.98,34.67L104.58,35.28L105.01,36.45L104.80,37.64L103.95,38.74L102.56,39.62L100.77,40.22L98.74,40.47L96.68,40.34L95.59,40.06L94.78,39.86L93.24,39.06L92.21,38.02L91.78,36.85L92.00,35.66L92.82,34.59"/><path d="M92.74,35.48L92.64,35.54L92.52,35.58L93.32,37.03L94.09,38.97L94.18,38.87L94.25,38.75L94.29,38.63L94.31,38.52L97.10,38.74L99.89,39.39L99.89,35.77L103.98,33.41"/><path d="M92.52,35.58L92.80,35.38"/><path d="M92.82,35.30L93.56,36.69L94.31,38.52L94.31,34.90L93.29,32.55L92.82,31.68"/><path d="M94.09,38.97L97.04,39.17L99.97,39.89L99.94,39.76L99.91,39.62L99.89,39.50L99.89,39.39L101.93,37.99L103.98,37.03"/><path d="M94.31,34.90L99.89,35.77"/><path d="M101.66,30.62L101.73,30.66L102.41,31.33L102.68,32.09L102.54,32.86L102.00,33.57L101.10,34.15L99.93,34.53L99.00,34.65L98.62,34.69L97.28,34.61L96.06,34.30L95.06,33.78L94.39,33.11L94.11,32.35L94.25,31.58L94.80,30.87L95.70,30.29L96.86,29.91L98.17,29.75L99.51,29.83L100.74,30.14L100.76,30.16"/><path d="M96.00,53.51L96.72,53.88L97.60,54.11L98.56,54.17L99.50,54.05L100.33,53.77"/><path d="M99.97,39.89L102.11,38.39L104.28,37.40L103.98,36.67"/><path d="M104.28,37.40L104.15,37.33L104.06,37.23L104.00,37.13"/></g><g style="stroke:#000000;stroke-width:0.353"><path d="M103.98,34.57L104.77,35.37L104.82,35.45L105.27,36.67L105.29,36.77L105.04,38.11L104.98,38.19L104.11,39.32L102.68,40.23L102.63,40.27L100.80,40.87L98.74,41.12L96.65,41.00L94.73,40.50L93.10,39.65L92.03,38.58L91.97,38.50L91.53,37.29L91.51,37.18L91.75,35.84L91.80,35.75L92.67,34.63L92.82,34.53"/><path d="M101.09,29.97L96.91,29.32L92.82,31.68L92.82,35.30L92.80,35.38L92.80,35.40L92.74,35.48"/><path d="M101.47,40.65L101.47,52.30L101.37,52.85L100.98,53.36L100.33,53.77L99.85,54.06L99.22,54.26L98.52,54.35L97.80,54.31L97.14,54.14L96.60,53.86L96.00,53.51L95.52,53.03L95.32,52.48L95.32,40.65"/><path d="M102.43,30.18L102.48,30.19L103.98,33.41L103.98,37.03L103.98,37.05L104.00,37.13"/></g></g><g id="Actor_.3"><g style="stroke:#000000;stroke-width:0.176"><path d="M83.46,178.13L82.85,179.33L81.63,180.35L79.93,181.11L77.90,181.53L77.38,181.54L75.74,181.56L73.67,181.21L71.90,180.51L70.58,179.52L69.86,178.35"/><path d="M69.80,176.99L69.86,178.24L70.58,179.41L71.69,180.24L71.90,180.40L73.67,181.10L75.74,181.45L77.90,181.42L79.93,181.00L81.08,180.49L81.63,180.24L82.85,179.21L83.46,178.02"/><path d="M70.31,177.81L70.26,176.65L70.82,175.54L71.69,174.81L71.96,174.58L73.55,173.87L75.45,173.48L77.46,173.45L79.39,173.78L81.04,174.43L82.27,175.35L82.95,176.45L83.00,177.61L82.43,178.72L81.69,179.35L81.30,179.68L79.71,180.39L77.81,180.78L75.80,180.81L73.97,180.50L73.87,180.48L72.21,179.83L70.99,178.91L70.31,177.81"/><path d="M71.96,184.08L72.24,184.11L73.73,185.27L74.33,185.57L74.97,185.76L75.61,185.83L76.22,185.77L77.69,185.22L78.88,185.48L79.37,185.42L79.88,185.23"/><path d="M72.24,184.11L72.24,183.47"/><path d="M72.24,182.49L72.24,180.82"/><path d="M79.68,177.36L79.65,176.80L79.33,176.28L78.89,175.95L78.74,175.84L77.95,175.52L77.03,175.37L76.06,175.38L75.16,175.57L75.10,175.59L74.39,175.91L73.85,176.37L73.58,176.90"/><path d="M77.69,185.22L77.69,181.73"/><path d="M82.08,183.05L80.89,184.49L80.40,184.91"/></g><g style="stroke:#000000;stroke-width:0.353"><path d="M70.43,179.35L69.88,178.46L69.86,178.35L69.80,177.11L69.80,176.99L69.82,176.88L70.43,175.69L70.49,175.60L71.69,174.59L71.76,174.54L73.42,173.81L75.40,173.40L77.38,173.37L77.49,173.37L79.50,173.71L81.23,174.39L81.30,174.43L82.60,175.41L82.66,175.49L83.38,176.66L83.40,176.78L83.46,178.02L83.46,178.13L83.44,178.24L82.83,179.43L82.78,179.52L81.57,180.54L81.50,180.58L79.83,181.32L77.86,181.73L75.77,181.76L73.75,181.42L72.02,180.73L71.95,180.69L70.66,179.72L70.43,179.35"/><path d="M71.54,182.89L71.47,182.57L71.18,180.83L71.18,180.11"/><path d="M71.78,183.74L71.84,183.89L71.96,184.08L72.12,184.29L72.84,184.92L73.82,185.43L74.97,185.76L76.23,185.92L77.55,185.88L78.81,185.64L79.88,185.23L80.40,184.91L80.75,184.68L81.35,184.00L82.08,183.05L82.08,180.11"/><path d="M79.68,177.36L79.41,177.89L78.87,178.35L78.52,178.51L78.10,178.69L77.20,178.88L76.23,178.89L75.31,178.73L74.51,178.42L73.93,177.98L73.60,177.46L73.58,176.90"/></g></g><g id="Actor_.4"><g style="stroke:#000000;stroke-width:0.176"><path d="M105.23,165.45L104.62,166.65L104.36,166.86L103.40,167.67L101.69,168.43L99.66,168.85L97.51,168.88L95.44,168.53L93.66,167.83L92.35,166.84L91.63,165.67L91.57,164.43"/><path d="M91.63,165.78L92.35,166.96L93.66,167.94L95.44,168.64L97.51,169.00L97.86,168.99L99.66,168.96L101.69,168.54L103.40,167.78L104.62,166.76L105.23,165.56"/><path d="M92.08,165.24L92.02,164.08L92.59,162.97L93.73,162.01L95.32,161.30L97.21,160.92L99.22,160.88L101.15,161.21L101.28,161.26L102.81,161.87L104.04,162.79L104.71,163.88L104.77,165.04L104.20,166.15L103.55,166.70L103.07,167.11L101.47,167.82L99.58,168.21L97.57,168.24L95.64,167.91L94.45,167.44L93.98,167.26L92.75,166.34L92.08,165.24"/><path d="M93.73,171.51L94.01,171.54L95.49,172.70L96.10,173.00L96.74,173.19L97.37,173.26L97.98,173.20L99.46,172.65L99.46,169.16"/><path d="M94.01,171.54L94.01,168.25"/><path d="M101.45,164.79L101.42,164.24L101.10,163.71L100.51,163.27L99.72,162.96L98.79,162.80L97.83,162.82L96.92,163.00L96.72,163.09L96.16,163.34L95.62,163.80L95.34,164.33"/><path d="M99.46,172.65L100.65,172.92L101.14,172.85L101.65,172.66"/><path d="M103.84,170.48L102.66,171.92L102.17,172.34"/></g><g style="stroke:#000000;stroke-width:0.353"><path d="M91.65,165.89L91.63,165.78L91.57,164.54L91.57,164.43L91.59,164.31L92.19,163.12L92.25,163.03L93.46,162.02L93.53,161.98L95.19,161.24L97.16,160.83L99.26,160.80L101.27,161.14L103.00,161.82L103.07,161.87L104.37,162.84L104.42,162.93L105.14,164.09L105.17,164.21L105.23,165.45L105.23,165.56L105.21,165.68L104.60,166.87L104.54,166.95L103.34,167.97L103.27,168.01L101.61,168.75L99.63,169.16L97.53,169.19L95.52,168.85L93.79,168.17L93.72,168.12L92.42,167.15L91.65,165.89"/><path d="M103.85,167.54L103.84,170.48L103.11,171.43L102.52,172.11L102.17,172.34L101.65,172.66L100.57,173.07L99.32,173.31L98.00,173.35L96.74,173.19L95.59,172.86L94.61,172.36L93.89,171.72L93.73,171.51L93.61,171.33L93.48,171.00L93.36,170.55L93.24,170.01L92.95,168.27L92.95,167.54"/><path d="M101.45,164.79L101.18,165.32L100.63,165.78L100.14,166.00L99.87,166.12L98.96,166.31L98.00,166.32L97.08,166.17L96.28,165.85L96.12,165.73L95.69,165.41L95.37,164.89L95.34,164.33"/></g></g><g id="Actor_.5"><g style="stroke:#000000;stroke-width:0.176"><path d="M50.50,64.03L53.29,65.63L56.69,66.39L58.17,67.02L59.29,68.31L59.94,70.14L60.07,72.33L59.69,74.77L58.80,77.37L57.47,79.88L55.83,82.09L53.97,83.89L51.97,85.21L49.99,85.89L48.23,85.90L46.75,85.26L45.65,84.00L45.63,83.98L44.99,82.15L44.86,79.96L44.37,84.35L41.59,82.74"/><path d="M42.08,73.68L44.87,75.29L45.14,74.63L45.44,73.98L42.65,72.37"/><path d="M44.37,84.35L44.59,84.77L44.83,85.15"/><path d="M44.87,75.29L44.86,79.96L45.24,77.51L46.13,74.92L47.46,72.40L49.09,70.20L45.44,73.98"/><path d="M48.49,82.90L49.88,83.30L51.53,82.99L53.26,82.02L54.62,80.75L54.92,80.47L56.33,78.49L57.37,76.29L57.93,74.07L57.95,72.06L57.43,70.44L56.43,69.38"/><path d="M59.62,66.86L56.69,66.39L54.93,66.40L52.96,67.08L50.95,68.39L49.09,70.20L52.26,66.15L49.48,64.54"/><path d="M52.26,66.15L52.78,65.87L53.29,65.63"/></g><g style="stroke:#000000;stroke-width:0.353"><path d="M41.59,79.37L41.60,78.08L42.08,73.68L42.36,73.03L42.65,72.37L45.83,68.32L49.48,64.54L49.99,64.26L50.50,64.03L53.43,64.50L56.83,65.25L59.62,66.86L59.86,67.24L60.07,67.66L60.07,72.33L59.58,76.72L59.30,77.38L59.01,78.03L55.83,82.09L52.18,85.86L51.67,86.14L51.16,86.38L48.23,85.90L44.83,85.15L42.04,83.54L41.80,83.16L41.59,82.74L41.59,80.34"/><path d="M48.49,82.90L47.49,81.85L46.98,80.23L46.98,79.46L47.00,78.22L47.56,76.00L48.59,73.79L50.01,71.82L50.07,71.76L51.67,70.27L53.40,69.29L55.04,68.99L56.43,69.38"/><path d="M47.31,81.29L48.26,81.11L50.00,80.13L51.65,78.58L53.07,76.61L54.11,74.40L54.66,72.19L54.68,70.17L54.35,69.12"/></g></g><g id="Actor_.6"><g style="stroke:#000000;stroke-width:0.176"><path d="M14.79,61.43L14.79,61.43"/><path d="M17.48,65.86L19.83,67.22L20.01,67.60L20.21,67.96"/><path d="M24.79,51.32L27.15,52.69L29.72,53.37L28.36,53.32L26.82,53.80L25.24,54.78L23.76,56.16L20.91,59.00L20.64,59.58L20.39,60.16L18.03,58.80"/><path d="M20.91,59.00L18.56,57.64"/><path d="M27.15,52.69L26.70,52.88L26.25,53.11L23.76,56.16L22.45,57.86L21.37,59.82L20.64,61.86L20.29,63.79L19.83,67.22"/><path d="M26.10,67.96L25.68,68.22L24.14,68.70L22.78,68.65L21.65,68.09L20.81,67.03L20.35,65.55L20.29,63.79L20.39,60.16"/><path d="M29.75,56.00L28.78,55.46L27.56,55.46L26.21,56.01L24.87,57.04L23.66,58.47L22.70,60.14L22.10,61.90L22.03,62.43L21.90,63.57L22.12,64.99L22.75,66.02"/><path d="M23.89,51.75L26.25,53.11"/><path d="M27.33,68.66L26.70,67.63L26.47,66.21L26.67,64.54L27.28,62.78L28.23,61.11L29.44,59.68L30.78,58.65L32.13,58.10L33.35,58.10L34.32,58.64"/><path d="M31.19,68.47L29.94,68.97L28.81,68.97L27.91,68.48L27.33,67.52L27.12,66.21L27.31,64.66L27.87,63.04L28.45,62.02L28.75,61.49L29.87,60.17L31.11,59.21L32.36,58.70L33.48,58.70L34.38,59.20L34.97,60.15L35.18,61.47"/><path d="M31.12,60.24L32.09,59.85L32.96,59.85L33.66,60.23L34.12,60.98L34.28,62.00L34.13,63.20L33.70,64.46L33.01,65.66L32.14,66.69L31.18,67.43L30.21,67.83L29.33,67.83L28.64,67.44L28.18,66.70L28.02,65.68"/><path d="M28.13,64.75L28.71,64.31L29.42,63.46L29.99,62.47L30.35,61.42L30.43,60.78"/><path d="M28.53,66.50L29.11,66.82L29.83,66.82L30.63,66.49L31.43,65.88L32.14,65.03L32.71,64.04L33.07,62.99L33.14,62.43L33.19,62.00L33.06,61.16L32.68,60.55"/><path d="M29.87,53.45L29.72,53.37L29.84,53.40"/><path d="M32.19,57.40L32.16,56.47L31.70,54.99L30.85,53.93L30.23,53.62"/><path d="M31.93,53.85L30.40,53.52"/></g><g style="stroke:#000000;stroke-width:0.353"><path d="M17.55,63.02L14.79,61.43L14.16,60.39L13.93,58.97L14.13,57.30L14.74,55.54L15.69,53.87L16.90,52.45L18.24,51.41L19.59,50.86L20.81,50.86L21.78,51.40L23.34,52.30"/><path d="M30.03,52.76L29.57,52.49L27.00,51.80L24.79,51.32L24.35,51.52L23.90,51.74L21.04,54.59L18.56,57.64L18.28,58.22L18.03,58.80L17.57,62.22L17.48,65.84L17.48,65.86L17.65,66.24L17.85,66.60L20.21,67.96L22.78,68.65L24.99,69.12L25.44,68.93L25.89,68.70L26.44,68.15"/><path d="M29.75,56.00L34.32,58.64L34.95,59.67L35.18,61.09L35.18,61.47L34.99,63.01L34.43,64.64L33.55,66.19L32.43,67.51L31.19,68.47L30.86,68.65L29.52,69.20L28.30,69.20L27.33,68.66L22.75,66.02"/><path d="M28.06,65.32L28.15,65.89L28.53,66.50"/><path d="M28.02,65.68L28.16,64.48L28.60,63.21L29.29,62.01L30.15,60.99L31.12,60.24"/><path d="M30.87,60.44L31.38,60.23L32.10,60.23L32.68,60.55"/><path d="M32.23,57.43L32.31,54.59L32.13,54.21L31.93,53.85L30.88,53.25"/></g></g><g id="Actor_.7"><g style="stroke:#000000;stroke-width:0.176"><path d="M58.94,129.53L61.66,131.10L61.82,132.36L62.29,133.67L63.01,134.93L63.92,135.99L64.93,136.75L92.14,121.04"/><path d="M58.94,86.69L61.66,88.26L61.66,131.10L88.87,115.39"/><path d="M61.34,82.01L64.07,83.58L61.98,87.19L59.26,85.62"/><path d="M62.21,141.10L62.25,141.30"/><path d="M61.98,87.19L61.81,87.55L61.70,87.91L61.66,88.26"/><path d="M62.11,81.20L64.84,82.77L85.70,70.72L82.98,69.15"/><path d="M62.66,144.87L62.66,142.05"/><path d="M80.26,155.03L80.26,151.89L62.95,141.89"/><path d="M64.07,83.58L64.29,83.25L64.55,82.97L64.84,82.77"/><path d="M71.27,97.97L73.17,97.99L75.27,97.16L77.37,95.57L79.27,93.36L79.65,92.68L80.77,90.75L81.74,88.00L82.07,85.38L81.74,83.15L80.77,81.52"/><path d="M79.35,141.94L79.35,138.80L78.38,138.39L77.23,138.17L76.03,138.17L74.88,138.39L73.91,138.80L73.20,139.36L72.83,140.02L72.83,140.71"/><path d="M79.35,138.80L87.51,143.51L87.51,146.65"/><path d="M80.26,151.89L80.58,152.03L80.91,152.11L81.35,152.15L81.35,155.29"/><path d="M81.35,152.15L85.51,152.15L85.51,155.29"/><path d="M85.51,152.15L85.91,152.12L86.28,152.03L86.60,151.89L86.60,155.03"/><path d="M85.70,70.72L85.98,70.60L86.24,70.57L86.47,70.64"/><path d="M86.60,151.89L118.34,133.56L118.35,136.70"/><path d="M87.51,143.51L88.22,144.07L88.27,144.16L88.59,144.73L88.59,145.43"/><path d="M94.60,127.45L94.97,126.79L95.68,126.23L96.65,125.82L97.79,125.60L99.00,125.60L100.14,125.82L101.12,126.23L101.12,129.37"/><path d="M101.12,126.23L109.28,130.94L109.28,134.08"/><path d="M109.28,130.94L109.99,131.50L110.36,132.16"/><path d="M118.34,133.56L118.60,133.37L118.75,133.16L118.80,132.93"/></g><g style="stroke:#000000;stroke-width:0.353"><path d="M62.70,138.04L61.41,136.54L60.09,134.25L59.24,131.83L58.94,129.53L58.94,86.69L58.98,86.34L59.09,85.98L59.26,85.62L61.34,82.01L61.57,81.68L61.83,81.40L62.11,81.20L82.98,69.15L83.26,69.03L83.52,69.00L83.75,69.07L86.48,70.65L85.34,69.99"/><path d="M62.21,142.28L62.21,144.24L62.26,144.47L62.41,144.68L62.66,144.87L80.26,155.03L80.58,155.17L80.79,155.22L80.95,155.26L81.35,155.29L85.51,155.29L85.91,155.26L86.28,155.17L86.60,155.03L118.34,136.70L118.60,136.52L118.75,136.30L118.80,136.07L118.80,135.08L118.80,136.05"/><path d="M62.21,144.24L62.21,144.23"/><path d="M62.21,141.32L62.21,138.69L62.26,138.46L62.41,138.25L62.66,138.06L64.93,136.75"/><path d="M62.21,138.69L62.21,138.71"/><path d="M71.27,97.97L69.77,97.10L69.40,96.49L68.80,95.47L68.47,93.24L68.80,90.62L69.76,87.87L71.27,85.26L72.83,83.45L73.17,83.05L75.27,81.46L77.38,80.63L79.27,80.65L80.77,81.52L80.73,81.49"/><path d="M78.46,80.64L79.02,81.58L79.35,83.81L79.02,86.43L78.05,89.18L76.55,91.79L74.65,94.00L72.55,95.59L70.44,96.42L69.35,96.41"/><path d="M87.51,146.65L86.54,147.06L85.39,147.27L84.19,147.27L83.04,147.06L82.07,146.65L73.91,141.94L74.88,141.53L76.03,141.31L77.23,141.31L78.38,141.53L79.35,141.94L87.51,146.65L88.22,146.09L88.59,145.43"/><path d="M73.91,141.94L73.20,141.37L72.83,140.71"/><path d="M80.77,81.52L80.74,81.50"/><path d="M83.76,69.08L84.04,69.24L83.78,69.09"/><path d="M86.48,70.65L88.55,71.85L88.73,72.01L88.84,72.25L88.87,72.55L88.87,94.43"/><path d="M118.80,135.08L118.80,130.52L118.75,130.29L118.60,130.08L118.35,129.89L100.75,119.73L100.43,119.59L100.06,119.50L99.66,119.47L95.50,119.47L95.10,119.50L94.73,119.59L94.41,119.73L92.14,121.04L91.13,120.28L90.22,119.22L89.50,117.96L89.03,116.65L88.87,115.39L88.87,106.91"/><path d="M94.60,127.45L94.60,128.15L94.97,128.81L95.68,129.37L103.84,134.08L104.81,134.49L105.96,134.71L107.16,134.71L108.31,134.49L109.28,134.08L101.12,129.37L100.14,128.96L99.00,128.75L97.79,128.75L96.65,128.96L95.68,129.37"/><path d="M109.28,134.08L109.99,133.52L110.36,132.86L110.36,132.17"/><path d="M118.80,133.95L118.80,132.93L118.80,133.66"/><path d="M118.80,132.81L118.80,132.93"/></g></g><g id="Actor_.8"><g style="stroke:#000000;stroke-width:0.176"><path d="M122.48,122.51L127.33,125.31L127.80,130.03L127.33,134.22L122.48,131.42"/><path d="M123.49,132.86L123.50,132.86"/><path d="M127.33,125.31L128.34,122.70L123.49,119.90"/><path d="M125.60,116.47L128.31,113.57"/><path d="M127.33,134.22L128.34,135.66"/><path d="M128.34,122.70L131.33,119.78L135.02,114.38L130.17,111.58"/><path d="M143.61,117.17L142.88,116.27L141.12,115.57L139.00,115.76L136.71,116.83L134.46,118.67L132.46,121.13L130.87,123.97L130.57,124.86L129.86,126.94L129.52,129.77L129.86,132.19L130.87,134.00L132.46,135.01L133.32,135.07"/><path d="M133.09,134.94L131.57,133.96L130.60,132.22L130.26,129.88L130.60,127.16L131.57,124.29L132.51,122.59L133.09,121.55L135.03,119.18L137.20,117.41L137.61,117.16L139.41,116.38L141.45,116.19L143.15,116.87"/><path d="M143.73,113.81L141.63,113.84L137.05,113.21L132.20,110.41"/><path d="M141.92,137.30L141.92,136.54L137.84,134.19L137.90,133.40L133.75,132.21"/><path d="M134.02,132.05L138.17,133.24L137.90,133.40"/><path d="M135.02,114.38L136.04,113.74L137.05,113.21"/><path d="M137.61,117.16L162.32,131.43"/><path d="M137.90,135.66L137.84,134.94"/><path d="M138.17,135.50L138.14,135.11"/><path d="M137.84,134.19L138.11,134.03L138.17,133.24"/><path d="M138.11,134.03L142.19,136.39L141.92,136.54"/><path d="M142.19,137.14L142.19,136.77L142.19,136.39"/><path d="M143.61,136.88L144.24,137.24L144.38,138.62"/><path d="M144.24,137.24L144.51,137.08L143.89,136.72"/><path d="M144.51,137.08L144.58,137.76"/><path d="M144.88,139.56L145.05,138.45"/><path d="M145.73,139.45L145.54,137.99L145.81,137.83L145.91,138.57"/><path d="M145.15,139.40L145.18,139.24"/><path d="M144.92,137.32L145.81,137.83"/><path d="M144.65,137.48L145.54,137.99"/><path d="M146.26,140.36L146.60,138.60L145.97,138.24"/><path d="M146.54,140.20L146.87,138.44L146.60,138.60"/><path d="M146.25,138.08L146.87,138.44"/><path d="M147.17,140.88L147.22,140.60"/><path d="M147.01,138.84L147.97,139.40L148.48,141.64"/><path d="M147.28,138.68L148.25,139.24L148.73,141.39"/><path d="M148.73,139.83L150.16,140.66L150.43,140.50L149.01,139.68"/><path d="M147.97,139.40L148.25,139.24"/><path d="M150.09,141.59L150.18,141.67L150.25,141.76L150.31,141.88L150.35,141.99L150.38,142.26L150.37,142.50L150.35,142.56L150.31,142.60"/><path d="M150.16,140.66L150.22,140.70L150.28,140.77L150.32,140.84L150.35,140.92L150.37,141.01L150.39,141.29L150.35,141.53L150.32,141.59L150.28,141.62"/><path d="M150.35,141.99L150.62,141.83L150.59,141.72L150.53,141.61L150.46,141.52"/><path d="M151.63,143.06L151.58,143.07L151.40,142.96L151.32,142.89L151.30,142.82L151.25,142.31L151.30,141.84L151.32,141.79"/><path d="M150.65,142.22L150.65,142.34L150.37,142.50"/><path d="M150.65,142.34L150.62,142.40L150.58,142.44"/><path d="M151.30,142.82L151.57,142.66L151.52,142.16L151.55,141.89L151.56,141.88"/><path d="M150.37,141.01L150.65,140.85L150.62,140.76L150.55,140.61L150.49,140.54L150.43,140.50"/><path d="M151.08,141.02L151.16,141.00L151.24,141.02L150.97,141.17L150.88,141.16L150.81,141.17"/><path d="M150.97,141.17L152.09,141.83L152.16,141.90L152.22,141.99L152.27,142.09L152.29,142.19L152.31,142.67"/><path d="M151.24,141.02L152.36,141.67L152.09,141.83"/><path d="M151.30,141.84L151.38,141.79"/><path d="M150.35,141.53L150.62,141.37L150.66,141.13L150.65,140.85"/><path d="M150.62,141.37L150.59,141.43L150.55,141.47"/><path d="M150.62,141.83L150.63,141.87"/><path d="M150.53,121.21L151.05,121.43L151.76,121.81L154.97,119.96"/><path d="M152.24,143.68L152.29,143.64L152.31,143.58L152.31,143.20L151.64,142.81"/><path d="M152.32,143.50L152.59,143.34L152.58,143.04L152.31,143.20"/><path d="M151.64,143.00L151.55,143.06"/><path d="M152.30,142.30L152.58,142.14L152.58,142.51"/><path d="M152.58,143.04L151.91,142.65"/><path d="M151.57,142.66L151.60,142.73L151.66,142.80"/><path d="M151.40,142.96L151.64,142.83"/><path d="M152.36,141.67L152.43,141.74L152.49,141.83L152.54,141.93L152.57,142.04L152.58,142.14"/><path d="M161.42,127.52L161.55,127.47L151.76,121.81L151.65,121.86"/><path d="M152.59,143.34L152.59,143.42L152.56,143.49L152.51,143.52"/><path d="M154.28,144.86L154.32,144.81L154.35,144.75L154.40,144.13L154.35,143.41L154.32,143.30L154.28,143.19L154.21,143.10L154.14,143.02L153.54,142.61L152.93,142.32L152.85,142.31L152.78,142.33"/><path d="M152.93,142.32L153.21,142.17L153.82,142.45L154.41,142.86L154.14,143.02"/><path d="M153.05,142.17L153.13,142.15L153.21,142.17"/><path d="M154.55,144.70L154.60,144.66L154.62,144.59L154.35,144.75"/><path d="M154.62,144.59L154.67,143.98L154.62,143.26L154.60,143.14L154.55,143.03L154.49,142.94L154.41,142.86"/><path d="M154.62,143.26L154.35,143.41"/><path d="M155.41,150.43L160.26,153.23L161.27,154.67"/><path d="M155.41,141.52L160.26,144.32L160.73,149.05L160.26,153.23"/><path d="M156.49,138.79L156.60,138.49L158.23,135.67L160.28,133.28L161.36,132.46"/><path d="M156.42,138.91L161.27,141.71L160.26,144.32"/><path d="M161.59,150.48L161.36,148.95L161.76,145.75L162.94,142.39L164.78,139.21L167.10,136.51L169.67,134.56L172.23,133.54L174.55,133.57L176.39,134.63L177.57,136.62L177.68,137.35L177.98,139.35L177.57,142.55L176.39,145.91L174.78,148.70L174.55,149.09L172.23,151.79L169.67,153.75L167.10,154.76L164.78,154.73L162.94,153.67L161.76,151.68L161.59,150.48"/><path d="M161.27,141.71L164.26,138.79L167.95,133.40L163.10,130.60"/><path d="M164.77,125.61L161.55,127.47L162.56,128.08L163.50,128.73"/><path d="M167.95,133.40L168.97,132.75L169.98,132.23L165.13,129.43"/><path d="M168.97,154.74L169.67,153.75"/><path d="M169.67,134.56L168.97,132.75"/><path d="M169.98,132.23L174.56,132.85L176.66,132.82"/></g><g style="stroke:#000000;stroke-width:0.353"><path d="M135.21,136.16L135.02,136.25L131.33,136.14L128.34,135.66L123.48,132.85L122.48,131.42L122.01,126.69L122.48,122.51L123.49,119.90L125.60,116.47L127.92,113.89L128.31,113.57L130.17,111.58L131.19,110.94L132.20,110.41L135.89,110.53L138.88,111.01L143.73,113.81L144.74,115.25L145.08,118.06"/><path d="M132.94,134.88L133.14,134.97L155.13,147.61"/><path d="M138.17,135.50L137.90,135.66L133.75,132.21L134.02,132.05"/><path d="M137.84,134.94L141.92,137.30L142.19,137.14"/><path d="M164.90,129.54L142.76,116.72"/><path d="M143.96,117.41L143.15,116.87L143.02,116.77"/><path d="M144.92,137.32L144.65,137.48L144.38,138.62"/><path d="M145.15,139.40L144.88,139.56L143.95,139.02L143.61,136.88L143.89,136.72"/><path d="M146.54,140.20L146.26,140.36L145.26,139.78L145.05,138.45"/><path d="M147.28,138.68L147.01,138.84L146.50,140.50L147.17,140.88L147.43,140.73"/><path d="M146.25,138.08L145.97,138.24L145.73,139.45"/><path d="M148.73,141.49L148.48,141.64L147.82,141.25L147.71,140.89L147.22,140.60"/><path d="M149.01,139.68L148.73,139.83L148.73,141.78L150.11,142.58L150.19,142.61L150.26,142.62L150.31,142.60L150.58,142.44"/><path d="M150.09,141.59L150.16,141.62L150.22,141.64L150.28,141.62L150.55,141.47"/><path d="M150.09,120.96L152.28,119.69L153.24,119.44L154.38,119.67L154.97,119.96L158.70,122.11"/><path d="M152.51,143.52L152.24,143.68L152.18,143.69L152.10,143.67L151.54,143.40L150.97,143.03L150.88,142.96L150.81,142.87L150.75,142.76L150.71,142.66L150.61,141.95L150.71,141.30L150.75,141.22L150.81,141.17L151.08,141.02"/><path d="M151.32,141.79L151.37,141.78L151.40,141.80L151.55,141.89L151.61,141.94L151.63,141.98L151.64,142.06L151.64,142.28L152.31,142.67L152.58,142.51"/><path d="M151.91,142.65L151.64,142.81L151.64,143.00L151.63,143.05"/><path d="M153.05,142.17L152.78,142.32L152.72,142.38L152.68,142.45L152.59,143.09L152.68,143.78L152.72,143.89L152.78,143.99L152.85,144.08L152.93,144.16L153.54,144.56L154.14,144.85L154.21,144.87L154.28,144.86L154.55,144.70"/><path d="M155.35,149.84L155.41,150.43L156.42,151.87L161.27,154.67L164.26,155.15L167.95,155.27L168.97,154.74L169.98,154.10L171.84,152.11L172.23,151.79L174.56,149.21L176.66,145.78L177.67,143.17L178.14,138.99L177.67,134.26L176.67,132.83L171.81,130.02L168.82,129.54L165.13,129.43L164.12,129.95L163.10,130.60L158.53,135.48L156.41,138.93L155.41,141.52L154.94,145.70L155.35,149.84"/><path d="M167.95,129.51L167.46,128.46L166.50,127.09L165.37,126.01L164.77,125.61L159.56,122.60"/></g></g><g id="Actor_.9"><g style="stroke:#000000;stroke-width:0.176"><path d="M225.44,168.35L224.13,168.33L222.68,168.90L221.24,170.00L219.93,171.52L219.62,172.06L218.90,173.32L218.23,175.21L218.00,177.01L218.23,178.55L218.90,179.68"/><path d="M220.54,178.96L219.73,178.50L219.21,177.62L219.13,177.08L219.03,176.42L219.21,175.01L219.73,173.54L220.54,172.14L220.76,171.88L221.55,170.95L222.68,170.09L223.81,169.64L224.83,169.66L225.64,170.12"/><path d="M228.17,184.06L227.59,183.08L227.39,181.74L227.59,180.17L228.17,178.52L228.35,178.22L229.07,176.96L230.21,175.63L231.47,174.67L232.74,174.17L233.87,174.18"/><path d="M229.29,183.39L228.83,182.61L228.67,181.54L228.83,180.28L229.29,178.96L229.72,178.22L230.02,177.71L230.93,176.65L231.94,175.88L232.95,175.48L233.86,175.49"/><path d="M230.84,184.28L230.37,183.50L230.21,182.43L230.37,181.17L230.84,179.85L231.56,178.60L232.47,177.54L233.48,176.77L234.49,176.37L235.40,176.38"/><path d="M234.58,178.98L234.77,179.31L234.84,179.76L234.77,180.28L234.58,180.83L234.41,181.12L234.28,181.35L233.90,181.79L233.48,182.11L233.06,182.28L232.68,182.27"/></g><g style="stroke:#000000;stroke-width:0.353"><path d="M210.52,172.55L211.65,173.21L210.28,172.41L209.82,171.63L209.66,170.56L209.82,169.30L210.28,167.98L211.00,166.73L211.91,165.67L212.92,164.90L213.93,164.51L214.84,164.52L220.10,167.55L218.76,168.57L217.45,170.09L216.42,171.89L215.75,173.78L215.52,175.58L215.68,176.65"/><path d="M211.65,173.21L215.54,175.45"/><path d="M214.98,164.59L215.06,164.64"/><path d="M215.96,177.46L216.42,178.24L219.62,180.09L218.48,179.44"/><path d="M216.21,165.30L216.46,165.45"/><path d="M218.33,179.35L217.34,178.78"/><path d="M219.85,180.22L219.62,180.09L219.93,180.27L221.24,180.29L222.33,179.86"/><path d="M220.54,178.96L226.77,182.07"/><path d="M225.75,168.53L226.45,168.93L222.96,166.92L221.65,166.90L220.20,167.47L220.10,167.55"/><path d="M223.04,166.96L223.03,166.96L223.74,167.37"/><path d="M231.45,173.97L225.64,170.12"/><path d="M227.31,171.23L227.14,170.07L226.47,168.94L226.04,168.69"/><path d="M235.47,176.42L235.36,175.68L234.78,174.70L233.15,173.76L232.01,173.75L230.75,174.25L229.48,175.21L228.35,176.54L227.59,177.85L227.44,178.10L226.86,179.75L226.66,181.32L226.86,182.67L227.44,183.64L228.35,184.17L228.21,184.09"/><path d="M227.87,183.89L228.72,184.38L228.35,184.17"/><path d="M228.72,184.38L229.07,184.59L230.21,184.60L230.91,184.32"/><path d="M229.67,183.61L229.86,183.72L229.29,183.39"/><path d="M229.86,183.72L231.00,184.38L229.86,183.72"/><path d="M231.00,184.38L231.56,184.70L232.47,184.71L233.48,184.31L234.49,183.55L235.40,182.48L236.12,181.23L236.58,179.91L236.74,178.66L236.58,177.58L236.12,176.80L235.91,176.68"/><path d="M232.68,182.27L232.38,182.10L232.18,181.77L232.12,181.33L232.18,180.80L232.38,180.25L232.68,179.73L233.01,179.35L233.06,179.29L233.48,178.97L233.90,178.81L234.28,178.81L234.31,178.83"/><path d="M234.58,178.98L234.28,178.81L234.31,178.83"/><path d="M235.65,176.53L236.12,176.80L233.86,175.49L234.13,175.65"/><path d="M234.64,175.95L235.08,176.20"/></g></g><g id="Actor_.10"><g style="stroke:#000000;stroke-width:0.176"><path d="M85.76,102.35L86.05,100.05L86.10,99.89L86.90,97.63L88.22,95.33L89.90,93.39L91.74,91.98"/><path d="M98.67,113.20L101.57,114.87L101.79,115.21L102.03,115.51"/><path d="M98.67,106.42L101.57,108.10L101.76,111.59L101.96,109.70L102.56,107.67L103.52,105.66L104.75,103.87L102.03,106.93L101.79,107.51L101.57,108.10"/><path d="M102.03,106.93L99.13,105.25"/><path d="M101.57,114.87L101.76,111.59L101.96,113.24L102.56,114.58L103.52,115.47"/><path d="M105.11,98.41L108.01,100.09L110.74,100.42L109.31,100.56L107.74,101.22L106.18,102.37L104.75,103.87L107.11,100.61L104.21,98.93"/><path d="M117.16,103.91L115.83,103.15L114.16,103.13L112.31,103.86L110.46,105.27L108.80,107.21L108.43,107.84L107.47,109.50L106.62,111.92L106.33,114.23L106.62,116.19L107.05,116.92L107.47,117.63L108.80,118.39"/><path d="M118.30,107.69L118.02,105.83L117.22,104.47L115.97,103.75L114.39,103.73L112.64,104.42L110.89,105.75L109.31,107.59L108.10,109.69L108.06,109.76L107.26,112.05L106.98,114.23L107.26,116.09L108.06,117.44L109.31,118.17L110.89,118.18L112.64,117.49"/><path d="M112.64,105.30L114.15,104.71L115.52,104.72L116.60,105.35L117.30,106.52L117.54,108.13L117.30,110.02L116.60,112.00L115.73,113.51L115.52,113.87L114.15,115.46L112.64,116.61L111.13,117.21L109.76,117.20L108.68,116.57L107.98,115.40L107.74,113.79"/><path d="M108.01,100.09L107.56,100.33L107.11,100.61"/><path d="M109.54,116.19L110.75,116.20L112.10,115.67L113.44,114.65L114.66,113.23L115.62,111.57L116.24,109.81L116.45,108.13L116.24,106.70L115.62,105.66"/><path d="M113.09,100.54L110.74,100.42L111.96,100.79"/></g><g style="stroke:#000000;stroke-width:0.353"><path d="M98.64,112.64L86.90,105.75L86.05,104.32L85.76,102.35L85.76,101.97L86.03,99.79L86.84,97.51L88.08,95.35L89.67,93.50L91.42,92.17L91.74,91.98L93.59,91.25L95.26,91.27L103.30,95.84"/><path d="M104.04,115.76L102.03,115.51L99.13,113.84L98.89,113.53L98.67,113.20L98.49,109.70L98.67,106.42L98.89,105.84L99.13,105.25L101.48,101.99L104.21,98.93L104.66,98.65L105.11,98.41L107.47,98.53L110.19,98.86L113.09,100.54L113.33,100.84L113.55,101.18L113.58,101.76"/><path d="M103.52,115.47L108.80,118.39L110.46,118.41L112.31,117.68L112.64,117.49L114.39,116.17L115.97,114.33L117.21,112.18L117.22,112.16L118.02,109.87L118.30,107.69L118.30,107.32L118.01,105.35L117.16,103.91L111.96,100.79"/><path d="M108.19,98.62L104.16,96.33"/><path d="M107.74,113.79L107.98,111.90L108.68,109.92L109.76,108.05L109.94,107.84L111.13,106.45L112.64,105.30"/><path d="M107.79,113.45L107.96,114.59L108.57,115.63L109.54,116.19"/><path d="M112.37,105.51L113.44,105.09L114.66,105.10L115.62,105.66"/></g></g><g><g><path style="stroke:#a0a0a4;stroke-width:0.449;stroke-dasharray:0.4 0.4" d="M98.40,148.22L98.40,166.32"/></g></g><g><g><path style="stroke:#a0a0a4;stroke-width:0.449;stroke-dasharray:0.4 0.4" d="M76.63,152.93L76.63,178.89"/></g></g><g><g><path style="stroke:#a0a0a4;stroke-width:0.449;stroke-dasharray:0.4 0.4" d="M98.40,112.49L98.40,130.94"/><path style="stroke:#a0a0a4;stroke-width:0.449;stroke-dasharray:0.4 0.4" d="M98.40,54.34L98.40,93.05"/></g></g><g><g><path style="stroke:#a0a0a4;stroke-width:0.449;stroke-dasharray:0.4 0.4" d="M76.63,66.91L76.63,143.51"/></g></g><g><g><path style="stroke:#a0a0a4;stroke-width:0.500;stroke-dasharray:0.4 0.4" d="M31.15,63.84L43.68,71.06"/><path style="stroke:#a0a0a4;stroke-width:0.500;stroke-dasharray:0.4 0.4" d="M48.55,73.88L61.75,81.49"/><path style="stroke:#a0a0a4;stroke-width:0.500;stroke-dasharray:0.4 0.4" d="M70.53,86.55L87.51,96.34"/><path style="stroke:#a0a0a4;stroke-width:0.500;stroke-dasharray:0.4 0.4" d="M124.76,117.83L109.27,108.89"/><path style="stroke:#a0a0a4;stroke-width:0.500;stroke-dasharray:0.4 0.4" d="M184.58,152.33L170.07,143.96"/><path style="stroke:#a0a0a4;stroke-width:0.500;stroke-dasharray:0.4 0.4" d="M210.64,167.36L194.43,158.01"/></g></g><g id="PMI6.0"><g><path style="stroke:#0085ca;stroke-width:0.500" d="M54.37,39.42L29.82,53.36"/></g><g><path style="fill:#0085ca" d="M30.82,53.36L30.82,53.27L30.80,53.17L30.78,53.07L30.74,52.98L30.70,52.89L30.65,52.81L30.59,52.73L30.53,52.66L30.46,52.59L30.38,52.53L30.29,52.48L30.20,52.44L30.11,52.41L30.02,52.38L29.92,52.37L29.82,52.36L29.72,52.37L29.63,52.38L29.53,52.41L29.44,52.44L29.35,52.48L29.27,52.53L29.19,52.59L29.11,52.66L29.05,52.73L28.99,52.81L28.94,52.89L28.90,52.98L28.86,53.07L28.84,53.17L28.83,53.26L28.82,53.36L28.83,53.46L28.84,53.56L28.86,53.65L28.90,53.75L28.94,53.83L28.99,53.92L29.05,54.00L29.11,54.07L29.19,54.14L29.27,54.19L29.35,54.25L29.44,54.29L29.53,54.32L29.63,54.34L29.72,54.36L29.82,54.36L29.92,54.36L30.02,54.34L30.11,54.32L30.20,54.29L30.29,54.25L30.38,54.19L30.46,54.14L30.53,54.07L30.59,54.00L30.65,53.92L30.70,53.83L30.74,53.75L30.78,53.65L30.80,53.56L30.82,53.46z"/></g><g><path style="fill:#0085ca" d="M54.37,40.88L61.14,40.88L61.14,34.11L54.37,34.11z"/><text xml:space="preserve" fill="#ffffff" stroke-width="0" x="56.86" y="38.97" font-size="2.75" opacity="1.00" font-family="Rubik Medium">6</text></g></g><g id="PMI8.0"><g><path style="stroke:#0085ca;stroke-width:0.500" d="M54.33,193.22L72.56,182.80"/></g><g><path style="fill:#0085ca" d="M73.56,182.80L73.56,182.70L73.54,182.61L73.52,182.51L73.48,182.42L73.44,182.33L73.39,182.25L73.33,182.17L73.27,182.09L73.19,182.03L73.12,181.97L73.03,181.92L72.94,181.88L72.85,181.84L72.76,181.82L72.66,181.81L72.56,181.80L72.46,181.81L72.37,181.82L72.27,181.84L72.18,181.88L72.09,181.92L72.00,181.97L71.93,182.03L71.85,182.09L71.79,182.17L71.73,182.25L71.68,182.33L71.64,182.42L71.60,182.51L71.58,182.61L71.56,182.70L71.56,182.80L71.57,182.90L71.58,183.00L71.60,183.09L71.64,183.18L71.68,183.27L71.73,183.36L71.79,183.44L71.85,183.51L71.93,183.57L72.00,183.63L72.09,183.68L72.18,183.72L72.27,183.76L72.37,183.78L72.46,183.80L72.56,183.80L72.66,183.80L72.76,183.78L72.85,183.76L72.94,183.72L73.03,183.68L73.12,183.63L73.19,183.57L73.27,183.51L73.33,183.44L73.39,183.36L73.44,183.27L73.48,183.18L73.52,183.09L73.54,183.00L73.56,182.90z"/></g><g><path style="fill:#0085ca" d="M47.56,198.54L54.33,198.54L54.33,191.77L47.56,191.77z"/><text xml:space="preserve" fill="#ffffff" stroke-width="0" x="50.01" y="196.64" font-size="2.75" opacity="1.00" font-family="Rubik Medium">8</text></g></g><g id="PMI4.0"><g><path style="stroke:#0085ca;stroke-width:0.500" d="M23.00,90.16L42.27,79.48"/></g><g><path style="fill:#0085ca" d="M43.27,79.48L43.26,79.38L43.25,79.28L43.23,79.19L43.19,79.10L43.15,79.01L43.10,78.92L43.04,78.84L42.98,78.77L42.90,78.71L42.82,78.65L42.74,78.60L42.65,78.56L42.56,78.52L42.46,78.50L42.37,78.48L42.27,78.48L42.17,78.48L42.07,78.50L41.98,78.52L41.89,78.56L41.80,78.60L41.71,78.65L41.63,78.71L41.56,78.77L41.49,78.84L41.44,78.92L41.39,79.01L41.34,79.10L41.31,79.19L41.29,79.28L41.27,79.38L41.27,79.48L41.27,79.58L41.29,79.67L41.31,79.77L41.34,79.86L41.39,79.95L41.44,80.03L41.49,80.11L41.56,80.19L41.63,80.25L41.71,80.31L41.80,80.36L41.89,80.40L41.98,80.44L42.07,80.46L42.17,80.47L42.27,80.48L42.37,80.47L42.46,80.46L42.56,80.44L42.65,80.40L42.74,80.36L42.82,80.31L42.90,80.25L42.98,80.19L43.04,80.11L43.10,80.03L43.15,79.95L43.19,79.86L43.23,79.77L43.25,79.67L43.26,79.58z"/></g><g><path style="fill:#0085ca" d="M16.23,95.42L23.00,95.42L23.00,88.65L16.23,88.65z"/><text xml:space="preserve" fill="#ffffff" stroke-width="0" x="18.66" y="93.52" font-size="2.75" opacity="1.00" font-family="Rubik Medium">4</text></g></g><g id="PMI2.0"><g><path style="stroke:#0085ca;stroke-width:0.500" d="M43.46,151.65L65.92,139.85"/></g><g><path style="fill:#0085ca" d="M66.92,139.85L66.92,139.76L66.90,139.66L66.88,139.56L66.84,139.47L66.80,139.38L66.75,139.30L66.69,139.22L66.63,139.15L66.56,139.08L66.48,139.02L66.39,138.97L66.30,138.93L66.21,138.90L66.12,138.87L66.02,138.86L65.92,138.85L65.82,138.86L65.73,138.87L65.63,138.90L65.54,138.93L65.45,138.97L65.37,139.02L65.29,139.08L65.21,139.15L65.15,139.22L65.09,139.30L65.04,139.38L65.00,139.47L64.96,139.56L64.94,139.66L64.93,139.76L64.92,139.85L64.93,139.95L64.94,140.05L64.96,140.14L65.00,140.24L65.04,140.32L65.09,140.41L65.15,140.49L65.21,140.56L65.29,140.63L65.37,140.69L65.45,140.74L65.54,140.78L65.63,140.81L65.73,140.83L65.82,140.85L65.92,140.85L66.02,140.85L66.12,140.83L66.21,140.81L66.30,140.78L66.39,140.74L66.48,140.69L66.56,140.63L66.63,140.56L66.69,140.49L66.75,140.41L66.80,140.33L66.84,140.24L66.88,140.14L66.90,140.05L66.92,139.95z"/></g><g><path style="fill:#0085ca" d="M36.69,156.81L43.46,156.81L43.46,150.04L36.69,150.04z"/><text xml:space="preserve" fill="#ffffff" stroke-width="0" x="39.19" y="154.90" font-size="2.75" opacity="1.00" font-family="Rubik Medium">2</text></g></g><g id="PMI5.0"><g><path style="stroke:#0085ca;stroke-width:0.500" d="M127.02,82.91L102.65,96.70"/></g><g><path style="fill:#0085ca" d="M103.65,96.70L103.64,96.60L103.63,96.50L103.60,96.41L103.57,96.32L103.53,96.23L103.48,96.14L103.42,96.07L103.35,95.99L103.28,95.93L103.20,95.87L103.12,95.82L103.03,95.78L102.94,95.74L102.84,95.72L102.74,95.70L102.65,95.70L102.55,95.70L102.45,95.72L102.35,95.74L102.26,95.78L102.17,95.82L102.09,95.87L102.01,95.93L101.94,95.99L101.87,96.07L101.81,96.14L101.76,96.23L101.72,96.32L101.69,96.41L101.66,96.50L101.65,96.60L101.65,96.70L101.65,96.80L101.66,96.89L101.69,96.99L101.72,97.08L101.76,97.17L101.81,97.26L101.87,97.33L101.94,97.41L102.01,97.47L102.09,97.53L102.17,97.58L102.26,97.62L102.36,97.66L102.45,97.68L102.55,97.69L102.65,97.70L102.74,97.69L102.84,97.68L102.94,97.66L103.03,97.62L103.12,97.58L103.20,97.53L103.28,97.47L103.35,97.41L103.42,97.33L103.48,97.26L103.53,97.17L103.57,97.08L103.60,96.99L103.63,96.89L103.64,96.80z"/></g><g><path style="fill:#0085ca" d="M127.02,84.38L133.79,84.38L133.79,77.61L127.02,77.61z"/><text xml:space="preserve" fill="#ffffff" stroke-width="0" x="129.51" y="82.48" font-size="2.75" opacity="1.00" font-family="Rubik Medium">5</text></g></g><g id="PMI7.0"><g><path style="stroke:#0085ca;stroke-width:0.500" d="M122.27,18.25L98.90,31.73"/></g><g><path style="fill:#0085ca" d="M99.90,31.73L99.89,31.63L99.88,31.53L99.85,31.44L99.82,31.34L99.78,31.26L99.73,31.17L99.67,31.09L99.60,31.02L99.53,30.95L99.45,30.90L99.37,30.84L99.28,30.80L99.19,30.77L99.09,30.75L98.99,30.73L98.90,30.73L98.80,30.73L98.70,30.75L98.60,30.77L98.51,30.80L98.42,30.84L98.34,30.90L98.26,30.95L98.19,31.02L98.12,31.09L98.06,31.17L98.01,31.26L97.97,31.34L97.94,31.44L97.91,31.53L97.90,31.63L97.90,31.73L97.90,31.82L97.91,31.92L97.94,32.02L97.97,32.11L98.01,32.20L98.06,32.28L98.12,32.36L98.19,32.43L98.26,32.50L98.34,32.56L98.42,32.61L98.51,32.65L98.60,32.68L98.70,32.71L98.80,32.72L98.89,32.73L98.99,32.72L99.09,32.71L99.19,32.68L99.28,32.65L99.37,32.61L99.45,32.56L99.53,32.50L99.60,32.43L99.67,32.36L99.73,32.28L99.78,32.20L99.82,32.11L99.85,32.02L99.88,31.92L99.89,31.82z"/></g><g><path style="fill:#0085ca" d="M122.27,19.68L129.05,19.68L129.05,12.91L122.27,12.91z"/><text xml:space="preserve" fill="#ffffff" stroke-width="0" x="124.87" y="17.78" font-size="2.75" opacity="1.00" font-family="Rubik Medium">7</text></g></g><g id="PMI3.0"><g><path style="stroke:#0085ca;stroke-width:0.500" d="M185.77,107.01L157.21,123.46"/></g><g><path style="fill:#0085ca" d="M158.21,123.46L158.21,123.37L158.19,123.27L158.17,123.17L158.14,123.08L158.09,122.99L158.04,122.91L157.98,122.83L157.92,122.76L157.85,122.69L157.77,122.63L157.68,122.58L157.59,122.54L157.50,122.51L157.41,122.48L157.31,122.47L157.21,122.46L157.11,122.47L157.02,122.48L156.92,122.51L156.83,122.54L156.74,122.58L156.66,122.63L156.58,122.69L156.50,122.76L156.44,122.83L156.38,122.91L156.33,122.99L156.29,123.08L156.25,123.17L156.23,123.27L156.22,123.37L156.21,123.46L156.22,123.56L156.23,123.66L156.25,123.75L156.29,123.85L156.33,123.94L156.38,124.02L156.44,124.10L156.50,124.17L156.58,124.24L156.66,124.30L156.74,124.35L156.83,124.39L156.92,124.42L157.02,124.44L157.11,124.46L157.21,124.46L157.31,124.46L157.41,124.44L157.50,124.42L157.59,124.39L157.68,124.35L157.77,124.30L157.85,124.24L157.92,124.17L157.98,124.10L158.04,124.02L158.09,123.94L158.14,123.85L158.17,123.75L158.19,123.66L158.21,123.56z"/></g><g><path style="fill:#0085ca" d="M185.77,108.45L192.54,108.45L192.54,101.68L185.77,101.68z"/><text xml:space="preserve" fill="#ffffff" stroke-width="0" x="188.25" y="106.54" font-size="2.75" opacity="1.00" font-family="Rubik Medium">3</text></g></g><g id="PMI1.0"><g><path style="stroke:#0085ca;stroke-width:0.500" d="M170.68,173.89L187.92,164.54"/></g><g><path style="fill:#0085ca" d="M188.92,164.54L188.91,164.45L188.90,164.35L188.87,164.25L188.84,164.16L188.80,164.07L188.75,163.99L188.69,163.91L188.62,163.84L188.55,163.77L188.47,163.71L188.39,163.66L188.30,163.62L188.21,163.59L188.11,163.56L188.01,163.55L187.92,163.54L187.82,163.55L187.72,163.56L187.63,163.59L187.53,163.62L187.44,163.66L187.36,163.71L187.28,163.77L187.21,163.84L187.14,163.91L187.08,163.99L187.03,164.07L186.99,164.16L186.96,164.25L186.93,164.35L186.92,164.45L186.92,164.54L186.92,164.64L186.93,164.74L186.96,164.83L186.99,164.93L187.03,165.02L187.08,165.10L187.14,165.18L187.21,165.25L187.28,165.32L187.36,165.38L187.44,165.43L187.53,165.47L187.63,165.50L187.72,165.52L187.82,165.54L187.92,165.54L188.01,165.54L188.11,165.52L188.21,165.50L188.30,165.47L188.39,165.43L188.47,165.38L188.55,165.32L188.62,165.25L188.69,165.18L188.75,165.10L188.80,165.02L188.84,164.93L188.87,164.83L188.90,164.74L188.91,164.64z"/></g><g><path style="fill:#0085ca" d="M163.90,179.11L170.68,179.11L170.68,172.34L163.90,172.34z"/><text xml:space="preserve" fill="#ffffff" stroke-width="0" x="166.61" y="177.21" font-size="2.75" opacity="1.00" font-family="Rubik Medium">1</text></g></g><g id="PMI9.0"><g><path style="stroke:#0085ca;stroke-width:0.500" d="M193.19,188.77L216.34,176.78"/></g><g><path style="fill:#0085ca" d="M217.34,176.78L217.34,176.69L217.32,176.59L217.30,176.49L217.26,176.40L217.22,176.31L217.17,176.23L217.11,176.15L217.05,176.08L216.98,176.01L216.90,175.95L216.81,175.90L216.72,175.86L216.63,175.83L216.54,175.80L216.44,175.79L216.34,175.78L216.24,175.79L216.15,175.80L216.05,175.83L215.96,175.86L215.87,175.90L215.79,175.95L215.71,176.01L215.63,176.08L215.57,176.15L215.51,176.23L215.46,176.31L215.42,176.40L215.38,176.49L215.36,176.59L215.35,176.69L215.34,176.78L215.35,176.88L215.36,176.98L215.38,177.07L215.42,177.17L215.46,177.26L215.51,177.34L215.57,177.42L215.63,177.49L215.71,177.56L215.79,177.62L215.87,177.67L215.96,177.71L216.05,177.74L216.15,177.77L216.24,177.78L216.34,177.78L216.44,177.78L216.54,177.77L216.63,177.74L216.72,177.71L216.81,177.67L216.90,177.62L216.98,177.56L217.05,177.49L217.11,177.42L217.17,177.34L217.22,177.26L217.26,177.17L217.30,177.07L217.32,176.98L217.34,176.88z"/></g><g><path style="fill:#0085ca" d="M186.42,193.91L193.19,193.91L193.19,187.14L186.42,187.14z"/><text xml:space="preserve" fill="#ffffff" stroke-width="0" x="188.91" y="192.00" font-size="2.75" opacity="1.00" font-family="Rubik Medium">9</text></g></g><g/><g/><g id="paperID" visibility="hidden" opacity="0.00" transform="scale(0.000100)"><path style="stroke:#000000;stroke-width:0.500;fill:#e6e6e6;fill-rule:evenodd" d="M-2000.00,-2000.00L2297.00,-2000.00L2297.00,2210.00L-2000.00,2210.00zM0.00,0.00L297.00,0.00L297.00,210.00L0.00,210.00z"/><path style="fill:#000000;fill-opacity:0.118" d="M3.00,210.00L297.00,210.00L297.00,3.00L300.00,3.00L300.00,213.00L3.00,213.00z"/></g><g><g><path style="stroke:#000000;stroke-width:0.353;fill:#0085ca" d="M202.02,25.42L282.77,25.42L282.77,30.00L202.02,30.00z"/><text xml:space="preserve" fill="#ffffff" stroke-width="0" x="203.79" y="28.94" font-size="2.28" opacity="1.00" font-family="Rubik" font-weight="bold">Pos.</text><text xml:space="preserve" fill="#ffffff" stroke-width="0" x="212.56" y="28.94" font-size="2.32" opacity="1.00" font-family="Rubik" font-weight="bold">Part No</text><text xml:space="preserve" fill="#ffffff" stroke-width="0" x="231.09" y="28.94" font-size="2.25" opacity="1.00" font-family="Rubik" font-weight="bold">Qty.</text><text xml:space="preserve" fill="#ffffff" stroke-width="0" x="239.77" y="28.94" font-size="2.30" opacity="1.00" font-family="Rubik" font-weight="bold">Description</text><path style="stroke:#000000;stroke-width:0.353" d="M210.80,25.42L210.80,30.00"/><path style="stroke:#000000;stroke-width:0.353" d="M229.33,25.42L229.33,30.00"/><path style="stroke:#000000;stroke-width:0.353" d="M238.01,25.42L238.01,30.00"/></g><g id="Line1"><path style="stroke:#000000;stroke-width:0.353;fill:#ffffff" d="M202.02,30.00L282.77,30.00L282.77,34.59L202.02,34.59z"/><text xml:space="preserve" fill="#505050" stroke-width="0" x="203.79" y="33.53" font-size="2.40" opacity="1.00" font-family="Rubik">1</text><text xml:space="preserve" fill="#505050" stroke-width="0" x="212.56" y="33.53" font-size="2.53" opacity="1.00" font-family="Rubik">5A420135</text><text xml:space="preserve" fill="#505050" stroke-width="0" x="231.09" y="33.53" font-size="2.40" opacity="1.00" font-family="Rubik">1</text><text xml:space="preserve" fill="#505050" stroke-width="0" x="239.77" y="33.53" font-size="2.54" opacity="1.00" font-family="Rubik">M221/4 reduction nut</text><path style="stroke:#000000;stroke-width:0.353" d="M210.80,30.00L210.80,34.59"/><path style="stroke:#000000;stroke-width:0.353" d="M229.33,30.00L229.33,34.59"/><path style="stroke:#000000;stroke-width:0.353" d="M238.01,30.00L238.01,34.59"/></g><g id="Line2"><path style="stroke:#000000;stroke-width:0.353;fill:#e7f5fd" d="M202.02,34.59L282.77,34.59L282.77,39.17L202.02,39.17z"/><text xml:space="preserve" fill="#505050" stroke-width="0" x="203.79" y="38.11" font-size="2.36" opacity="1.00" font-family="Rubik">2</text><text xml:space="preserve" fill="#505050" stroke-width="0" x="212.56" y="38.11" font-size="2.53" opacity="1.00" font-family="Rubik">5A42050701</text><text xml:space="preserve" fill="#505050" stroke-width="0" x="231.09" y="38.11" font-size="2.40" opacity="1.00" font-family="Rubik">1</text><text xml:space="preserve" fill="#505050" stroke-width="0" x="239.77" y="38.11" font-size="2.50" opacity="1.00" font-family="Rubik">L bracket</text><path style="stroke:#000000;stroke-width:0.353" d="M210.80,34.59L210.80,39.17"/><path style="stroke:#000000;stroke-width:0.353" d="M229.33,34.59L229.33,39.17"/><path style="stroke:#000000;stroke-width:0.353" d="M238.01,34.59L238.01,39.17"/></g><g id="Line3"><path style="stroke:#000000;stroke-width:0.353;fill:#ffffff" d="M202.02,39.17L282.77,39.17L282.77,43.76L202.02,43.76z"/><text xml:space="preserve" fill="#505050" stroke-width="0" x="203.79" y="42.70" font-size="2.39" opacity="1.00" font-family="Rubik">3</text><text xml:space="preserve" fill="#505050" stroke-width="0" x="212.56" y="42.70" font-size="2.54" opacity="1.00" font-family="Rubik">70023295</text><text xml:space="preserve" fill="#505050" stroke-width="0" x="231.09" y="42.70" font-size="2.40" opacity="1.00" font-family="Rubik">1</text><text xml:space="preserve" fill="#505050" stroke-width="0" x="239.77" y="42.70" font-size="2.53" opacity="1.00" font-family="Rubik">Check valve</text><path style="stroke:#000000;stroke-width:0.353" d="M210.80,39.17L210.80,43.76"/><path style="stroke:#000000;stroke-width:0.353" d="M229.33,39.17L229.33,43.76"/><path style="stroke:#000000;stroke-width:0.353" d="M238.01,39.17L238.01,43.76"/></g><g id="Line4"><path style="stroke:#000000;stroke-width:0.353;fill:#e7f5fd" d="M202.02,43.76L282.77,43.76L282.77,48.34L202.02,48.34z"/><text xml:space="preserve" fill="#505050" stroke-width="0" x="203.79" y="47.28" font-size="2.41" opacity="1.00" font-family="Rubik">4</text><text xml:space="preserve" fill="#505050" stroke-width="0" x="212.56" y="47.28" font-size="2.54" opacity="1.00" font-family="Rubik">70023313</text><text xml:space="preserve" fill="#505050" stroke-width="0" x="231.09" y="47.28" font-size="2.40" opacity="1.00" font-family="Rubik">1</text><text xml:space="preserve" fill="#505050" stroke-width="0" x="239.77" y="47.28" font-size="2.52" opacity="1.00" font-family="Rubik">Nut  M22X1,5</text><path style="stroke:#000000;stroke-width:0.353" d="M210.80,43.76L210.80,48.34"/><path style="stroke:#000000;stroke-width:0.353" d="M229.33,43.76L229.33,48.34"/><path style="stroke:#000000;stroke-width:0.353" d="M238.01,43.76L238.01,48.34"/></g><g id="Line5"><path style="stroke:#000000;stroke-width:0.353;fill:#ffffff" d="M202.02,48.34L282.77,48.34L282.77,52.93L202.02,52.93z"/><text xml:space="preserve" fill="#505050" stroke-width="0" x="203.79" y="51.87" font-size="2.36" opacity="1.00" font-family="Rubik">5</text><text xml:space="preserve" fill="#505050" stroke-width="0" x="212.56" y="51.87" font-size="2.54" opacity="1.00" font-family="Rubik">70023324</text><text xml:space="preserve" fill="#505050" stroke-width="0" x="231.09" y="51.87" font-size="2.40" opacity="1.00" font-family="Rubik">1</text><text xml:space="preserve" fill="#505050" stroke-width="0" x="239.77" y="51.87" font-size="2.55" opacity="1.00" font-family="Rubik">MFM reducer M22/M16/M22</text><path style="stroke:#000000;stroke-width:0.353" d="M210.80,48.34L210.80,52.93"/><path style="stroke:#000000;stroke-width:0.353" d="M229.33,48.34L229.33,52.93"/><path style="stroke:#000000;stroke-width:0.353" d="M238.01,48.34L238.01,52.93"/></g><g id="Line6"><path style="stroke:#000000;stroke-width:0.353;fill:#e7f5fd" d="M202.02,52.93L282.77,52.93L282.77,57.51L202.02,57.51z"/><text xml:space="preserve" fill="#505050" stroke-width="0" x="203.79" y="56.45" font-size="2.38" opacity="1.00" font-family="Rubik">6</text><text xml:space="preserve" fill="#505050" stroke-width="0" x="212.56" y="56.45" font-size="2.54" opacity="1.00" font-family="Rubik">70023346</text><text xml:space="preserve" fill="#505050" stroke-width="0" x="231.09" y="56.45" font-size="2.40" opacity="1.00" font-family="Rubik">1</text><text xml:space="preserve" fill="#505050" stroke-width="0" x="239.77" y="56.45" font-size="2.54" opacity="1.00" font-family="Rubik">Malefemale adapter M16x1 R8x1.0</text><path style="stroke:#000000;stroke-width:0.353" d="M210.80,52.93L210.80,57.51"/><path style="stroke:#000000;stroke-width:0.353" d="M229.33,52.93L229.33,57.51"/><path style="stroke:#000000;stroke-width:0.353" d="M238.01,52.93L238.01,57.51"/></g><g id="Line7"><path style="stroke:#000000;stroke-width:0.353;fill:#ffffff" d="M202.02,57.51L282.77,57.51L282.77,62.10L202.02,62.10z"/><text xml:space="preserve" fill="#505050" stroke-width="0" x="203.79" y="61.04" font-size="2.41" opacity="1.00" font-family="Rubik">7</text><text xml:space="preserve" fill="#505050" stroke-width="0" x="212.56" y="61.04" font-size="2.54" opacity="1.00" font-family="Rubik">70023872</text><text xml:space="preserve" fill="#505050" stroke-width="0" x="231.09" y="61.04" font-size="2.36" opacity="1.00" font-family="Rubik">2</text><text xml:space="preserve" fill="#505050" stroke-width="0" x="239.77" y="61.04" font-size="2.54" opacity="1.00" font-family="Rubik">Hex flange screw M8X25</text><path style="stroke:#000000;stroke-width:0.353" d="M210.80,57.51L210.80,62.10"/><path style="stroke:#000000;stroke-width:0.353" d="M229.33,57.51L229.33,62.10"/><path style="stroke:#000000;stroke-width:0.353" d="M238.01,57.51L238.01,62.10"/></g><g id="Line8"><path style="stroke:#000000;stroke-width:0.353;fill:#e7f5fd" d="M202.02,62.10L282.77,62.10L282.77,66.68L202.02,66.68z"/><text xml:space="preserve" fill="#505050" stroke-width="0" x="203.79" y="65.62" font-size="2.32" opacity="1.00" font-family="Rubik">8</text><text xml:space="preserve" fill="#505050" stroke-width="0" x="212.56" y="65.62" font-size="2.53" opacity="1.00" font-family="Rubik">70024157</text><text xml:space="preserve" fill="#505050" stroke-width="0" x="231.09" y="65.62" font-size="2.36" opacity="1.00" font-family="Rubik">2</text><text xml:space="preserve" fill="#505050" stroke-width="0" x="239.77" y="65.62" font-size="2.54" opacity="1.00" font-family="Rubik">Self lock nut M8</text><path style="stroke:#000000;stroke-width:0.353" d="M210.80,62.10L210.80,66.68"/><path style="stroke:#000000;stroke-width:0.353" d="M229.33,62.10L229.33,66.68"/><path style="stroke:#000000;stroke-width:0.353" d="M238.01,62.10L238.01,66.68"/></g><g id="Line9"><path style="stroke:#000000;stroke-width:0.353;fill:#ffffff" d="M202.02,66.68L282.77,66.68L282.77,71.27L202.02,71.27z"/><text xml:space="preserve" fill="#505050" stroke-width="0" x="203.79" y="70.21" font-size="2.38" opacity="1.00" font-family="Rubik">9</text><text xml:space="preserve" fill="#505050" stroke-width="0" x="212.56" y="70.21" font-size="2.53" opacity="1.00" font-family="Rubik">70024401</text><text xml:space="preserve" fill="#505050" stroke-width="0" x="231.09" y="70.21" font-size="2.40" opacity="1.00" font-family="Rubik">1</text><text xml:space="preserve" fill="#505050" stroke-width="0" x="239.77" y="70.21" font-size="2.54" opacity="1.00" font-family="Rubik">Quick coupling</text><path style="stroke:#000000;stroke-width:0.353" d="M210.80,66.68L210.80,71.27"/><path style="stroke:#000000;stroke-width:0.353" d="M229.33,66.68L229.33,71.27"/><path style="stroke:#000000;stroke-width:0.353" d="M238.01,66.68L238.01,71.27"/></g></g><g id="hotspot.0" ident="" onmouseover="ShowHotSpot(evt,&apos;0&apos;)" onmouseout="HideHotSpot(evt,&apos;0&apos;)" onmousemove="ShowToolTip(evt,&apos;0&apos;,&quot;Cut-Extrude1&quot;)" opacity="0"><path style="fill:#00ff00;fill-rule:evenodd" d="M202.02,30.00L202.02,34.59L282.77,34.59L282.77,30.00zM193.35,147.81L195.28,147.80L200.22,147.57L202.42,148.90L203.30,149.57L204.18,154.43L204.19,158.48L203.96,159.14L201.53,163.11L198.57,167.22L197.13,168.64L192.85,169.22L189.60,169.23L186.98,167.66L186.52,167.23L186.08,165.70L170.55,174.08L170.41,179.02L163.91,179.02L163.91,172.31L170.41,172.30L170.55,173.51L171.28,173.27L186.02,165.23L185.86,163.48L185.62,162.83L183.66,161.48L182.97,159.96L182.98,156.27L183.42,154.50L184.69,152.01L185.76,150.43L187.62,148.75L189.53,147.58L190.42,147.36L192.49,147.35z"/></g><g id="hotspot.1" ident="" onmouseover="ShowHotSpot(evt,&apos;1&apos;)" onmouseout="HideHotSpot(evt,&apos;1&apos;)" onmousemove="ShowToolTip(evt,&apos;1&apos;,&quot;Break-Corner2&quot;)" opacity="0"><path style="fill:#00ff00;fill-rule:evenodd" d="M202.02,34.59L202.02,39.17L282.77,39.17L282.77,34.59zM88.72,72.04L88.70,94.45L88.06,95.34L86.95,97.11L86.20,99.01L85.83,100.84L85.82,103.42L86.03,104.54L86.72,105.61L88.72,106.93L88.91,116.45L89.13,117.34L90.48,119.74L91.81,120.86L92.38,120.89L94.79,119.53L100.19,119.53L118.30,129.91L118.74,130.57L118.74,135.96L118.42,136.53L86.43,155.11L80.29,155.10L62.66,144.91L62.20,144.49L61.97,142.26L61.70,142.24L43.43,151.85L43.22,156.72L36.72,156.72L36.72,150.00L43.22,150.00L43.43,151.43L61.97,141.69L62.22,138.39L62.45,137.87L61.34,136.52L59.76,133.68L59.10,131.47L58.88,129.70L58.87,86.47L60.58,83.10L61.77,81.42L74.05,74.27L82.87,69.18L83.85,69.18zM78.76,81.34L79.20,83.33L78.98,86.04L78.03,88.85L76.54,91.56L74.79,93.78L72.71,95.45L70.53,96.36L69.26,96.35L68.81,95.71L68.59,94.81L68.60,91.57L68.98,89.74L70.17,86.95L71.27,85.18L73.70,82.53L75.38,81.34L77.13,80.67L78.34,80.65zM100.84,129.26L109.04,134.09L107.85,134.57L105.25,134.56L103.73,134.09L95.90,129.52L95.89,129.28L97.24,128.81L99.29,128.81zM78.54,141.61L87.17,146.50L87.17,146.75L85.98,147.15L83.39,147.15L82.07,146.70L74.03,142.11L74.03,141.86L75.37,141.40L77.65,141.40z"/></g><g id="hotspot.2" ident="" onmouseover="ShowHotSpot(evt,&apos;2&apos;)" onmouseout="HideHotSpot(evt,&apos;2&apos;)" onmousemove="ShowToolTip(evt,&apos;2&apos;,&quot;Imported1&quot;)" opacity="0"><path style="fill:#00ff00;fill-rule:evenodd" d="M202.02,39.17L202.02,43.76L282.77,43.76L282.77,39.17zM192.27,108.36L185.77,108.36L185.63,107.37L185.36,107.35L159.29,122.41L159.54,122.63L164.88,125.72L166.67,127.46L167.90,129.55L169.74,129.70L171.94,130.14L176.56,132.80L177.47,134.10L177.91,137.43L177.91,140.37L177.47,143.46L176.80,145.22L175.25,147.87L173.71,150.08L171.41,152.42L170.19,153.84L168.13,155.10L163.99,155.09L161.11,154.67L156.28,151.77L155.39,150.67L154.93,147.59L135.30,136.31L131.09,136.10L128.43,135.67L123.37,132.78L122.49,131.68L122.04,127.71L122.04,125.79L122.47,122.25L123.96,118.88L125.92,115.98L129.68,112.01L131.31,110.77L131.89,110.47L135.51,110.49L139.04,111.15L143.24,113.57L144.57,115.11L144.93,118.06L149.87,120.89L150.32,120.76L152.66,119.54L153.84,119.53L154.50,119.76L158.27,121.96L159.30,121.98L185.63,106.80L185.78,101.64L192.27,101.64z"/></g><g id="hotspot.3" ident="" onmouseover="ShowHotSpot(evt,&apos;3&apos;)" onmouseout="HideHotSpot(evt,&apos;3&apos;)" onmousemove="ShowToolTip(evt,&apos;3&apos;,&quot;Chamfer14&quot;)" opacity="0"><path style="fill:#00ff00;fill-rule:evenodd" d="M202.02,43.76L202.02,48.34L282.77,48.34L282.77,43.76zM56.69,65.20L59.33,66.76L60.00,67.63L59.99,72.35L59.55,76.33L59.10,77.65L55.79,82.07L51.54,86.21L50.05,86.19L44.54,85.08L41.90,83.53L41.64,83.12L41.44,80.21L41.16,80.19L23.11,90.24L22.90,95.33L16.19,95.33L16.19,88.61L22.90,88.61L23.11,89.82L40.98,79.84L41.45,78.77L42.09,73.44L43.00,71.71L46.21,67.85L49.31,64.55L50.19,64.10L51.15,64.11zM54.47,69.85L54.47,72.57L54.03,74.35L53.14,76.33L51.60,78.54L49.96,80.00L48.00,81.13L47.18,81.13L46.95,80.47L46.95,78.09L47.77,75.37L48.72,73.45L50.29,71.49L51.82,70.14L53.75,69.17L54.23,69.18z"/></g><g id="hotspot.4" ident="" onmouseover="ShowHotSpot(evt,&apos;4&apos;)" onmouseout="HideHotSpot(evt,&apos;4&apos;)" onmousemove="ShowToolTip(evt,&apos;4&apos;,&quot;Chamfer16&quot;)" opacity="0"><path style="fill:#00ff00;fill-rule:evenodd" d="M202.02,48.34L202.02,52.93L282.77,52.93L282.77,48.34zM133.53,84.29L127.04,84.29L126.90,83.30L126.62,83.28L103.86,96.13L107.92,98.55L110.33,99.00L112.99,100.54L113.66,101.86L116.97,103.85L117.85,105.18L118.06,106.29L118.06,109.01L117.85,110.12L116.52,113.21L114.88,115.55L112.98,117.18L110.94,118.22L108.34,118.22L103.94,115.77L101.51,115.33L99.28,114.03L98.65,113.34L98.23,112.43L86.94,105.83L86.03,104.54L85.82,103.42L85.83,100.84L86.20,99.01L86.95,97.11L88.06,95.34L89.49,93.68L91.27,92.15L93.48,91.27L95.11,91.26L103.27,95.94L103.73,95.80L126.90,82.73L127.04,77.57L133.53,77.57z"/></g><g id="hotspot.5" ident="" onmouseover="ShowHotSpot(evt,&apos;5&apos;)" onmouseout="HideHotSpot(evt,&apos;5&apos;)" onmousemove="ShowToolTip(evt,&apos;5&apos;,&quot;Cut-Extrude1&quot;)" opacity="0"><path style="fill:#00ff00;fill-rule:evenodd" d="M202.02,52.93L202.02,57.51L282.77,57.51L282.77,52.93zM60.88,40.79L54.39,40.79L54.25,39.80L53.97,39.78L30.83,52.94L30.83,53.27L31.28,53.51L32.18,54.60L32.16,57.48L34.16,58.58L34.83,59.68L35.03,61.98L34.58,63.95L33.64,65.88L32.63,67.08L31.50,68.16L29.90,68.98L27.74,68.98L26.64,68.29L26.13,68.28L25.26,68.99L24.21,68.98L20.01,67.87L18.02,66.77L17.57,66.34L17.36,63.02L14.51,61.23L14.05,60.37L14.04,57.32L14.97,54.93L15.96,53.50L17.08,52.19L18.85,51.09L19.50,50.86L20.70,50.85L23.12,52.21L23.47,52.19L24.13,51.51L25.76,51.53L27.52,51.97L29.96,52.41L31.00,52.42L54.25,39.23L54.39,34.07L60.88,34.07z"/></g><g id="hotspot.6" ident="" onmouseover="ShowHotSpot(evt,&apos;6&apos;)" onmouseout="HideHotSpot(evt,&apos;6&apos;)" onmousemove="ShowToolTip(evt,&apos;6&apos;,&quot;Fillet2&quot;)" opacity="0"><path style="fill:#00ff00;fill-rule:evenodd" d="M202.02,57.51L202.02,62.10L282.77,62.10L282.77,57.51zM128.89,19.59L122.18,19.59L122.06,18.62L102.08,30.08L102.34,30.34L103.72,32.97L103.94,34.74L104.63,35.37L105.04,36.28L105.04,37.69L104.82,38.35L103.20,39.83L101.43,40.71L101.29,52.71L101.07,53.16L99.45,54.19L97.29,54.19L95.56,53.28L95.30,52.87L95.10,40.71L92.68,39.37L91.78,38.29L91.55,37.63L91.55,36.35L92.13,35.16L92.68,34.61L92.83,31.66L96.56,29.43L97.75,29.45L100.62,29.89L101.67,29.90L122.06,18.05L122.18,12.87L128.89,12.87zM80.74,42.92L81.86,45.55L82.07,47.11L83.19,48.42L83.42,50.05L82.75,51.39L81.66,52.29L79.57,53.29L79.43,65.52L79.23,65.76L77.59,66.77L75.43,66.77L73.91,65.87L73.68,65.65L73.46,53.29L71.49,52.39L70.60,51.73L69.91,50.66L69.68,48.95L70.60,47.42L71.04,46.97L71.19,44.02L74.27,42.25L74.93,42.03L76.33,42.03z"/></g><g id="hotspot.7" ident="" onmouseover="ShowHotSpot(evt,&apos;7&apos;)" onmouseout="HideHotSpot(evt,&apos;7&apos;)" onmousemove="ShowToolTip(evt,&apos;7&apos;,&quot;Fase1&quot;)" opacity="0"><path style="fill:#00ff00;fill-rule:evenodd" d="M202.02,62.10L202.02,66.68L282.77,66.68L282.77,62.10zM100.85,161.05L102.16,161.50L103.96,162.57L105.05,164.13L105.05,165.77L104.75,166.35L103.94,167.31L103.72,170.41L102.52,172.08L100.78,172.99L99.67,173.20L96.86,173.20L94.87,172.54L93.56,171.42L93.11,169.67L92.68,167.45L91.55,165.93L91.55,164.20L92.46,162.68L93.92,161.72L95.91,161.05L97.02,160.83L99.51,160.83zM79.21,173.63L80.96,174.30L82.49,175.43L83.19,176.50L83.19,178.58L82.74,179.46L82.00,180.05L81.87,183.22L80.66,184.66L78.92,185.57L77.80,185.79L75.22,185.79L73.45,185.35L72.15,184.44L71.50,183.56L54.40,193.29L54.26,198.45L47.54,198.45L47.54,191.74L54.26,191.73L54.40,192.72L55.28,192.41L71.41,183.12L71.02,180.05L70.61,179.80L69.91,178.74L69.91,176.34L71.62,174.52L74.05,173.64L75.16,173.42L77.87,173.42z"/></g><g id="hotspot.8" ident="" onmouseover="ShowHotSpot(evt,&apos;8&apos;)" onmouseout="HideHotSpot(evt,&apos;8&apos;)" onmousemove="ShowToolTip(evt,&apos;8&apos;,&quot;Cut-Extrude1&quot;)" opacity="0"><path style="fill:#00ff00;fill-rule:evenodd" d="M202.02,66.68L202.02,71.27L282.77,71.27L282.77,66.68zM219.86,167.48L220.23,167.48L221.33,167.01L222.97,167.00L225.38,168.34L226.71,169.44L227.13,170.79L227.57,171.45L231.15,173.86L233.12,173.85L234.69,174.71L235.31,176.08L236.21,177.16L236.65,178.78L236.14,180.93L234.79,183.12L233.06,184.48L228.68,184.48L227.58,183.81L227.14,183.37L226.50,182.01L222.52,180.03L219.41,180.05L216.35,178.26L215.67,177.58L215.15,177.59L193.14,188.95L192.93,193.81L186.44,193.81L186.44,187.10L192.93,187.10L193.14,188.53L215.24,177.04L215.45,175.41L210.39,172.52L209.94,172.08L209.69,171.44L209.70,169.51L210.39,167.55L211.82,165.67L212.95,164.81L213.60,164.58L214.80,164.58z"/></g></g></svg>