<?xml version="1.0" encoding="UTF-8" standalone="yes"?><svg xmlns="http://www.w3.org/2000/svg" xmlns:xlink="http://www.w3.org/1999/xlink" width="297.000mm" height="210.000mm" viewBox="0.000000 0.000000 297.000000 210.000000" stroke-linejoin="round" stroke-linecap="round" fill="none" fill-rule="evenodd"><desc>Composer Export</desc><script type="text/ecmascript"><![CDATA[
if(typeof(top) != "undefined")
{
	top.ShowPaper = ShowPaper;
}
function ShowHotSpot(evt,hotspotid)
{
	var svgDocument = evt.target.ownerDocument;
	var strId = "hotspot."+hotspotid;
	var hotspot = svgDocument.getElementById(strId);
	if(hotspot)
		hotspot.setAttribute("opacity",".5");
}
function HideHotSpot(evt,hotspotid)
{
	var svgDocument = evt.target.ownerDocument;
	var strId = "hotspot."+hotspotid;
	var hotspot = svgDocument.getElementById(strId);
	if(hotspot)
		hotspot.setAttribute("opacity","0");

	var toolTip = svgDocument.getElementById('ToolTip');
	if(toolTip)
		toolTip.setAttribute("visibility","hidden");
}
function ShowToolTip(evt,hotspotid,strTooltip)
{
	if(strTooltip=="")
	return;

	// change text
	var svgDocument = evt.target.ownerDocument;
	var tiptext = svgDocument.getElementById('ToolTipText');
	if( !tiptext )
	return;
	tiptext.firstChild.nodeValue = " " + strTooltip + "  " ;

	// show tooltip before, else some refresh issue

	var toolTip = svgDocument.getElementById('ToolTip');
	if(!toolTip)
	return;

	toolTip.setAttribute("visibility","visible");
	toolTip.setAttribute("opacity",".95");

	// move tooltip
	// get viewbox

	var root = svgDocument.documentElement;
	var vbox = (root.getAttribute("viewBox")).split(' ');
	var x0 = parseFloat(vbox[0]);
	var y0 = parseFloat(vbox[1]);
	var vboxW = parseFloat(vbox[2]);
	var vboxH = parseFloat(vbox[3]);

	// get default width of svg

	var strW = root.getAttribute("width");
	var svgW = parseFloat(strW);
	if(strW.indexOf('mm') != -1)
	svgW *= 3.779;

	var strH = root.getAttribute("height");
	var svgH = parseFloat(strH);
	if(strH.indexOf('mm') != -1)
	svgH *= 3.779;  	// 96 dpi  -> 96/25.4 = 3.779

	// update the viewbox / width / height if svg is embedded in html with zoom fit all
	var realx0 = x0;
	var realy0 = y0;
	var realvboxW = vboxW;
	var realvboxH = vboxH;
	var realsvgW = svgW;
	var realsvgH = svgH;

	if ((typeof(top) == "undefined") || (typeof(top.svgctl1) != "undefined")) // embedded in html
	{
		// get window size in pxl

		svgW = window.innerWidth;
		svgH = window.innerHeight;

		// calculate real viewbox

		realsvgW = svgW;
		realsvgH = svgH;
		if((svgW / svgH) > (vboxW / vboxH))
		{
			realvboxW = (vboxH * svgW) / svgH;
			realvboxH = vboxH;
			realx0 = x0 - (realvboxW - vboxW)/2 ;
		}
		else
		{
			realvboxH = (vboxW * svgH) / svgW;
			realvboxW = vboxW;
			realy0 = y0 - (realvboxH - vboxH)/2 ;
		}
	}

	// get user zoom/pan

	var newScale = root.currentScale;
	var translation = root.currentTranslate;

	// transform pxl to user unit

	var xPos = (((evt.clientX+10- translation.x)/newScale) * realvboxW)/realsvgW  + realx0 ;
	var yPos = (((evt.clientY+5- translation.y)/newScale) * realvboxH)/ realsvgH  + realy0 ;
	var scaleForWidth = ( (1 / newScale) * realvboxH) / realsvgH;

	// move tooltip

	toolTip.setAttribute("transform", "translate(" + xPos + "," + yPos + ")" );

	// resize tooltip

	var fontsize = 12;
	tiptext.setAttribute("font-size",fontsize*scaleForWidth);
	tiptext.setAttribute("y", fontsize*scaleForWidth);
	var tipBG = svgDocument.getElementById('ToolTipBG');
	var outline = tiptext.getBBox();
	if(tipBG)
	{
		tipBG.setAttribute("stroke-width", 1*scaleForWidth);
		tipBG.setAttribute("width", Number(outline.width) );
		tipBG.setAttribute("height", Number(outline.height) + fontsize*.5*scaleForWidth );
	}
	var ToolTipShadow = svgDocument.getElementById('ToolTipShadow');
	if(ToolTipShadow)
	{
		ToolTipShadow.setAttribute("width", Number(outline.width) );
		ToolTipShadow.setAttribute("height", Number(outline.height) + fontsize*.5*scaleForWidth );
		ToolTipShadow.setAttribute("x", 3*scaleForWidth);
		ToolTipShadow.setAttribute("y", 3*scaleForWidth);
	}
}
function ShowPaper()
{
  var svgDocument = getDocument();
  var paper = svgDocument.getElementById("paperID");
  if(paper)
  {
    paper.setAttribute("transform","scale(1)");
    paper.setAttribute("opacity","1");
    paper.setAttribute("visibility","visible");
  }
  var svg = svgDocument.getRootElement();
  if(svg)
  {
    svg.setAttribute("width","307.000mm");
    svg.setAttribute("height","220.000mm");
    svg.setAttribute("viewBox","-5.000000 -5.000000 307.000000 220.000000");
  }
}
]]></script><defs/><g><g id="Actor_.0"><g style="stroke:#000000;stroke-width:0.071"><path d="M23.34,52.30L21.78,51.40L20.81,50.86L19.59,50.86L18.25,51.41L16.90,52.45L15.69,53.87L14.74,55.54L14.13,57.30L13.93,58.97L14.16,60.39L14.79,61.43L17.55,63.02"/><path d="M20.21,67.96L17.85,66.60L17.65,66.24L17.48,65.86L19.83,67.22L20.01,67.60L20.21,67.96L22.78,68.65L24.14,68.70L25.68,68.22L26.11,67.96"/><path d="M17.48,65.86L17.57,62.22L18.03,58.80L18.28,58.22L18.56,57.64L20.91,59.00L23.76,56.16L26.25,53.11L26.70,52.88L27.15,52.69L24.79,51.32L24.35,51.52L23.90,51.74L21.04,54.59L18.56,57.64"/><path d="M18.03,58.80L20.39,60.16L20.64,59.58L20.91,59.00"/><path d="M19.83,67.22L20.29,63.80L20.35,65.55L20.81,67.03L21.65,68.09L22.78,68.65L24.99,69.13L25.44,68.93L25.89,68.70L26.44,68.15"/><path d="M20.39,60.16L20.29,63.80L20.64,61.86L21.38,59.82L22.45,57.86L22.76,57.46L23.76,56.16L25.24,54.78L26.82,53.80L28.36,53.32L29.72,53.38L30.86,53.93L31.70,54.99L32.16,56.47L32.19,57.40"/><path d="M27.33,68.66L26.70,67.63L26.47,66.21L26.67,64.54L27.28,62.78L28.23,61.11L29.44,59.68L30.78,58.65L31.86,58.21L32.13,58.10L33.35,58.10L34.32,58.64L29.75,56.00L28.78,55.46L27.56,55.46L26.21,56.01L24.87,57.04L23.66,58.47L22.71,60.14L22.10,61.90L21.90,63.57L22.12,64.99L22.76,66.02L27.33,68.66L28.30,69.20L29.52,69.20L30.87,68.65L31.19,68.47L29.94,68.97L28.81,68.97L27.92,68.48L27.33,67.52L27.24,66.97L27.12,66.21L27.31,64.66L27.87,63.04L28.45,62.02L28.75,61.49L29.87,60.17L31.11,59.21L32.36,58.71L33.48,58.70L34.38,59.20L34.97,60.15L35.18,61.47L34.99,63.01L34.43,64.64L33.55,66.19L32.43,67.51L31.19,68.47"/><path d="M24.79,51.32L27.00,51.80L29.57,52.49L31.93,53.85L29.72,53.38L27.15,52.69"/><path d="M26.25,53.11L23.90,51.75"/><path d="M28.35,66.97L28.18,66.70L28.02,65.68L28.16,64.48L28.60,63.21L29.29,62.01L30.15,60.99L31.12,60.24L31.32,60.16L32.09,59.85L32.96,59.85L33.66,60.23L34.12,60.98L34.28,62.00L34.13,63.20L33.70,64.46L33.01,65.66L32.15,66.69L31.78,66.97L31.18,67.43L30.21,67.83L29.34,67.83L28.64,67.44L28.35,66.97"/><path d="M30.87,60.44L31.38,60.23L32.10,60.23L32.68,60.55L33.06,61.16L33.19,62.00L33.07,63.00L32.71,64.04L32.15,65.03L31.43,65.88L30.72,66.42L30.63,66.49L29.83,66.82L29.11,66.82L28.53,66.50L28.16,65.89L28.06,65.32"/><path d="M28.13,64.75L28.71,64.31L29.42,63.46L29.99,62.47L30.35,61.42L30.43,60.78"/><path d="M31.93,53.85L32.13,54.21L32.31,54.59L32.23,57.43"/><path d="M34.32,58.64L34.95,59.67L35.18,61.09L35.18,61.47"/></g></g><g id="Actor_.1"><g style="stroke:#000000;stroke-width:0.071"><path d="M41.80,82.87L41.59,82.74L41.60,78.08L42.08,73.69L44.87,75.29L44.86,79.96L44.37,84.35L41.80,82.87"/><path d="M41.59,82.74L41.80,83.16L42.04,83.54L44.83,85.15L44.59,84.77L44.37,84.35"/><path d="M42.08,73.69L42.36,73.03L42.65,72.37L45.44,73.98L45.14,74.63L44.87,75.29"/><path d="M42.65,72.37L45.83,68.32L49.48,64.54L49.99,64.26L50.50,64.03L53.29,65.63L52.78,65.87L52.26,66.15L49.48,64.54"/><path d="M44.83,85.15L48.23,85.90L46.75,85.26L45.63,83.98L44.99,82.15L44.86,79.96L45.24,77.51L46.13,74.92L47.46,72.40L49.09,70.20L45.44,73.98"/><path d="M47.49,81.85L48.49,82.90L49.88,83.30L51.53,83.00L53.26,82.02L54.62,80.75L54.92,80.47L56.33,78.49L57.37,76.29L57.93,74.07L57.95,72.06L57.44,70.44L56.43,69.38L55.04,68.99L53.40,69.29L51.67,70.27L50.01,71.82L48.60,73.78L47.56,76.00L47.00,78.22L46.98,80.23L47.49,81.85"/><path d="M47.31,81.29L48.26,81.11L50.00,80.13L51.65,78.58L53.07,76.61L54.11,74.40L54.66,72.19L54.69,70.17L54.35,69.12"/><path d="M48.23,85.90L49.99,85.89L51.97,85.21L53.98,83.89L55.84,82.09L52.18,85.86L51.67,86.14L51.16,86.38L48.23,85.90"/><path d="M53.29,65.63L56.69,66.39L54.93,66.40L52.96,67.08L50.95,68.39L49.09,70.20L52.26,66.15"/><path d="M50.50,64.03L53.43,64.50L56.84,65.25L59.62,66.86L56.69,66.39L58.17,67.02L59.30,68.31L59.94,70.14L60.07,72.33L59.69,74.77L58.80,77.37L57.47,79.88L55.84,82.09L59.01,78.03L59.31,77.38L59.58,76.72L60.07,72.33L60.07,67.66L59.86,67.24L59.62,66.86"/></g></g><g id="Actor_.2"><g style="stroke:#000000;stroke-width:0.071"><path d="M185.84,162.90L184.93,162.37L183.72,161.42L183.01,159.83L182.87,157.76L183.31,155.40L184.29,152.99L185.72,150.77L186.61,149.84L187.45,148.95L189.32,147.71L191.14,147.17L192.73,147.38L193.90,148.06"/><path d="M189.32,147.71L188.97,147.91L187.20,149.08L185.56,150.80L185.48,150.93L184.21,152.91L183.28,155.18L182.87,157.41L182.87,157.76"/><path d="M189.98,169.41L187.20,167.80L186.87,167.53L186.57,167.22L185.85,163.00L185.60,159.06L188.39,160.67L189.11,164.89L189.61,166.79L190.61,168.23L192.03,169.06L193.73,169.21L189.98,169.41L189.66,169.14L189.36,168.83L189.11,164.89L189.12,162.62L189.64,160.07L190.65,157.48L192.05,155.07L188.78,159.35L188.57,160.01L188.39,160.67"/><path d="M186.57,167.22L189.36,168.83"/><path d="M185.60,159.06L185.79,158.40L186.00,157.74L188.78,159.35"/><path d="M186.00,157.74L188.78,153.19L192.05,148.91L194.84,150.52L195.34,150.14L195.85,149.78L193.07,148.18L192.56,148.53L192.05,148.91"/><path d="M195.85,149.78L199.61,149.59L197.71,150.09L195.70,151.24L193.75,152.96L192.05,155.07L194.84,150.52"/><path d="M193.43,161.19L193.41,160.97L193.66,159.69L194.19,158.37L194.97,157.16L195.92,156.17L196.93,155.49L197.93,155.20L198.80,155.31L199.46,155.83L199.85,156.70L199.92,157.83L199.68,159.11L199.15,160.43L198.37,161.64L197.42,162.64L196.40,163.31L195.41,163.61L194.54,163.49L193.88,162.97L193.49,162.10L193.43,161.19"/><path d="M193.07,148.18L196.34,147.70L200.09,147.51L202.88,149.12L199.61,149.59L201.31,149.74L202.73,150.57L203.73,152.01L204.23,153.92L204.22,156.19L203.70,158.73L202.68,161.33L201.29,163.73L199.59,165.84L197.64,167.57L195.63,168.72L193.73,169.21L197.00,168.74L197.52,168.39L198.02,168.00L201.29,163.73L204.08,159.18L204.29,158.52L204.47,157.86L204.23,153.92L203.50,149.70L203.20,149.39L202.88,149.12"/><path d="M193.76,159.44L194.04,159.14L194.82,157.93L195.26,156.86"/></g></g><g id="Actor_.3"><g style="stroke:#000000;stroke-width:0.071"><path d="M91.66,165.73L92.35,166.84L93.66,167.83L95.44,168.53L97.51,168.88L99.66,168.85L101.69,168.43L103.40,167.67L104.36,166.87L104.62,166.65L105.23,165.45L105.17,164.21L105.15,164.09L104.43,162.93L104.37,162.84L103.07,161.87L103.00,161.82L101.27,161.14L99.26,160.80L97.17,160.83L95.19,161.24L93.53,161.98L93.46,162.02L92.26,163.03L92.20,163.12L91.59,164.31L91.57,164.43L91.63,165.67L91.66,165.73"/><path d="M105.23,165.56L105.21,165.68L104.60,166.87L104.54,166.95L103.34,167.97L103.27,168.01L101.61,168.75L99.63,169.16L99.00,169.17L97.53,169.19L95.52,168.85L93.79,168.17L93.72,168.12L92.42,167.15L91.65,165.90L91.63,165.78L92.35,166.96L93.67,167.94L95.44,168.64L96.72,168.86L97.51,169.00L99.66,168.96L101.69,168.54L103.40,167.78L104.62,166.76L105.23,165.56L105.23,165.45"/><path d="M91.63,165.78L91.57,164.54L91.57,164.43"/><path d="M92.08,165.24L92.02,164.08L92.59,162.97L93.73,162.01L95.32,161.30L97.22,160.92L99.22,160.88L101.15,161.21L101.28,161.26L102.81,161.87L104.04,162.79L104.71,163.88L104.77,165.04L104.20,166.15L103.55,166.70L103.07,167.11L101.47,167.82L99.58,168.21L97.57,168.24L95.64,167.91L93.98,167.26L93.46,166.86L92.76,166.34L92.08,165.24"/><path d="M92.95,167.54L92.95,168.27L93.24,170.01L93.36,170.55L93.48,171.00L93.61,171.33L93.73,171.51L94.01,171.54L95.50,172.70L96.10,173.00L96.72,173.19L95.59,172.86L94.61,172.36L93.89,171.72L93.73,171.51"/><path d="M94.01,171.54L94.01,168.25"/><path d="M95.37,164.89L95.34,164.33L95.62,163.80L96.16,163.34L96.72,163.09L96.92,163.00L97.83,162.82L98.79,162.80L99.00,162.84L99.72,162.96L100.51,163.27L101.10,163.71L101.42,164.24L101.45,164.79L101.18,165.32L100.70,165.73L100.63,165.78L99.87,166.12L98.96,166.31L98.00,166.32L97.08,166.17L96.72,166.03L96.28,165.85L95.69,165.41L95.37,164.89"/><path d="M99.46,169.16L99.46,172.65L97.98,173.20L97.38,173.26L96.74,173.19L96.72,173.19"/><path d="M99.46,172.65L100.65,172.92L101.14,172.85L101.65,172.66L100.57,173.07L99.32,173.31L98.00,173.35L96.74,173.19"/><path d="M101.65,172.66L102.17,172.34L102.52,172.11L103.12,171.43L103.85,170.48L102.66,171.92L102.17,172.34"/><path d="M103.85,170.48L103.85,167.54"/></g></g><g id="Actor_.4"><g style="stroke:#000000;stroke-width:0.071"><path d="M62.70,138.04L61.41,136.54L60.09,134.25L59.24,131.83L58.94,129.53L58.94,86.69L58.98,86.34L59.09,85.98L59.26,85.62L61.98,87.19L61.81,87.55L61.70,87.91L61.66,88.26L58.94,86.69"/><path d="M58.94,129.53L61.66,131.10L61.82,132.36L62.29,133.67L63.01,134.93L63.92,135.99L64.93,136.75L62.66,138.06L62.41,138.25L62.26,138.46L62.21,138.69L62.21,141.10L62.26,141.33L62.41,141.54L62.66,141.73L80.26,151.89L80.26,155.03L80.58,155.17L80.79,155.22L80.95,155.26L81.35,155.29L81.35,152.15L80.91,152.11L80.58,152.03L80.26,151.89"/><path d="M59.26,85.62L61.35,82.01L61.57,81.68L61.83,81.40L62.12,81.20L82.98,69.15L85.70,70.72L64.84,82.77L62.12,81.20"/><path d="M61.35,82.01L64.07,83.58L64.29,83.25L64.55,82.97L64.84,82.77"/><path d="M62.21,144.23L62.26,144.47L62.41,144.68L62.66,144.87L62.66,141.73"/><path d="M62.21,144.24L62.21,141.10"/><path d="M62.21,138.69L62.21,138.71"/><path d="M88.87,106.91L88.87,115.39L61.66,131.10L61.66,88.26"/><path d="M61.98,87.19L64.07,83.58"/><path d="M80.26,155.03L62.66,144.87"/><path d="M64.93,136.75L92.14,121.04L91.13,120.28L90.22,119.22L89.50,117.96L89.03,116.65L88.87,115.39"/><path d="M69.36,96.41L70.45,96.42L72.55,95.59L74.65,94.00L76.55,91.79L77.76,89.68L78.05,89.18L79.02,86.43L79.35,83.81L79.02,81.58L78.46,80.64"/><path d="M80.74,81.50L80.77,81.52L81.74,83.15L82.07,85.38L81.74,88.00L80.77,90.75L79.27,93.36L77.37,95.57L75.27,97.16L73.17,97.99L71.27,97.97L69.77,97.11L68.80,95.47L68.47,93.24L68.49,93.08L68.80,90.62L69.77,87.87L71.27,85.26L73.17,83.05L75.27,81.46L77.38,80.63L79.27,80.65L80.77,81.52L80.73,81.49"/><path d="M79.35,141.94L79.35,138.80L78.38,138.39L77.23,138.17L76.03,138.17L74.88,138.39L73.91,138.80L73.20,139.36L72.83,140.02L72.83,140.71L73.20,141.37L73.91,141.94L82.07,146.65L83.05,147.06L84.19,147.27L85.39,147.27L86.54,147.06L87.51,146.65L79.35,141.94L78.38,141.53L77.23,141.31L76.03,141.31L74.88,141.53L73.91,141.94"/><path d="M79.35,138.80L87.51,143.51L88.22,144.07L88.59,144.73L88.59,145.43L88.22,146.09L87.51,146.65L87.51,143.51"/><path d="M81.35,155.29L85.52,155.29L85.52,152.15L85.91,152.12L86.28,152.03L86.60,151.89L118.34,133.56L118.60,133.37L118.75,133.16L118.80,132.93L118.80,132.81L118.80,136.05"/><path d="M81.35,152.15L85.52,152.15"/><path d="M82.98,69.15L83.26,69.03L83.52,69.00L83.75,69.07L86.48,70.65L86.25,70.57L85.98,70.60L85.70,70.72"/><path d="M83.76,69.08L84.05,69.24L83.78,69.09"/><path d="M85.52,155.29L85.91,155.26L86.28,155.17L86.60,155.03L118.34,136.70L118.34,133.56"/><path d="M86.47,70.64L85.35,69.99"/><path d="M86.48,70.65L88.55,71.85L88.73,72.01L88.84,72.25L88.87,72.55L88.87,94.43"/><path d="M86.60,155.03L86.60,151.89"/><path d="M92.14,121.04L94.41,119.73L94.73,119.59L95.10,119.50L95.50,119.47L99.66,119.47L100.06,119.50L100.43,119.59L100.75,119.73L118.35,129.89L118.60,130.08L118.75,130.29L118.80,130.52L118.80,132.81"/><path d="M101.12,129.37L101.12,126.23L100.14,125.82L99.00,125.60L97.79,125.60L96.65,125.82L95.68,126.23L94.97,126.79L94.60,127.45L94.60,128.15L94.97,128.81L95.68,129.37L96.65,128.96L97.79,128.75L99.00,128.75L100.14,128.96L101.12,129.37L109.28,134.08L108.31,134.49L107.16,134.71L105.96,134.71L104.81,134.49L103.84,134.08L95.68,129.37"/><path d="M101.12,126.23L109.28,130.94L109.28,134.08L109.99,133.52L110.36,132.86L110.36,132.17L109.99,131.50L109.28,130.94"/><path d="M118.34,136.70L118.60,136.52L118.75,136.30L118.80,136.07L118.80,135.08"/><path d="M118.80,133.95L118.80,132.93L118.80,133.66"/></g></g><g id="Actor_.5"><g style="stroke:#000000;stroke-width:0.071"><path d="M92.82,34.53L92.67,34.63L91.80,35.76L91.75,35.84L91.51,37.18L91.53,37.29L91.97,38.50L92.03,38.58L93.10,39.65L94.73,40.50L96.65,41.00L98.75,41.12L100.80,40.87L102.63,40.27L102.68,40.23L104.11,39.32L104.98,38.19L105.04,38.11L105.29,36.77L105.27,36.67L104.82,35.45L104.77,35.37L103.98,34.57"/><path d="M103.98,34.67L104.58,35.28L105.01,36.45L104.80,37.64L103.95,38.74L102.56,39.62L100.77,40.22L98.74,40.47L96.68,40.35L95.59,40.06L94.78,39.86L93.25,39.06L92.21,38.02L91.78,36.85L92.00,35.66L92.82,34.59"/><path d="M92.82,35.30L92.80,35.38L92.80,35.40L92.74,35.48L92.64,35.54L92.52,35.58L93.32,37.03L94.09,38.97L97.04,39.17L99.97,39.89L99.94,39.76L99.91,39.62L99.89,39.50L99.89,39.39L99.89,35.77L94.31,34.90L93.29,32.55L92.82,31.68L92.82,35.30L93.56,36.69L94.31,38.52L94.29,38.63L94.25,38.75L94.18,38.87L94.09,38.97"/><path d="M92.52,35.58L92.80,35.38"/><path d="M92.82,31.68L96.91,29.32L102.48,30.19L103.98,33.41L99.89,35.77"/><path d="M94.31,34.90L94.31,38.52L97.10,38.74L99.89,39.39L101.93,37.99L103.98,37.03L103.98,33.41"/><path d="M94.39,33.11L94.11,32.35L94.25,31.58L94.80,30.87L95.70,30.29L96.86,29.91L98.18,29.75L99.51,29.83L100.14,29.99L100.74,30.14L101.74,30.66L102.41,31.33L102.68,32.09L102.54,32.86L102.00,33.57L101.10,34.15L99.93,34.53L99.00,34.65L98.62,34.70L97.28,34.61L96.06,34.30L95.06,33.78L94.39,33.11"/><path d="M95.32,40.65L95.32,52.48L95.52,53.03L96.00,53.51L96.72,53.88L97.60,54.11L98.56,54.17L99.00,54.11L99.50,54.05L100.33,53.77L99.85,54.06L99.22,54.26L98.52,54.35L97.80,54.31L97.14,54.14L96.60,53.86L96.00,53.51"/><path d="M99.97,39.89L102.11,38.39L104.28,37.40L103.98,36.67"/><path d="M100.33,53.77L100.98,53.36L100.98,53.35L101.37,52.85L101.47,52.30L101.47,40.65"/><path d="M104.28,37.40L104.15,37.33L104.06,37.23L104.00,37.13L103.98,37.05L103.98,37.03"/></g></g><g id="Actor_.6"><g style="stroke:#000000;stroke-width:0.071"><path d="M69.86,178.35L69.80,177.11L69.80,176.99L69.86,178.24L70.58,179.41L71.90,180.40L73.68,181.10L73.97,181.15L75.74,181.45L77.90,181.42L79.93,181.00L81.63,180.24L82.85,179.21L83.46,178.02L83.46,178.13L82.85,179.33L81.63,180.35L79.93,181.11L77.90,181.53L75.74,181.56L73.68,181.21L71.90,180.51L70.58,179.52L69.86,178.35L69.88,178.46L70.66,179.72L71.95,180.69L72.02,180.73L73.75,181.42L75.77,181.76L77.86,181.73L79.84,181.32L81.50,180.58L81.57,180.54L82.78,179.52L82.83,179.43L83.44,178.24L83.46,178.13"/><path d="M70.55,178.20L70.31,177.81L70.26,176.65L70.82,175.54L71.96,174.58L72.83,174.19L73.55,173.87L75.45,173.48L77.46,173.45L79.39,173.78L81.05,174.43L82.27,175.35L82.95,176.45L83.00,177.61L82.43,178.72L81.69,179.35L81.30,179.68L79.71,180.39L77.81,180.78L75.80,180.81L73.87,180.48L72.21,179.83L70.99,178.91L70.55,178.20"/><path d="M69.80,176.99L69.82,176.88L70.43,175.69L70.49,175.60L71.69,174.59L71.76,174.55L73.42,173.81L73.97,173.70L75.40,173.40L77.49,173.37L79.50,173.71L81.23,174.39L81.30,174.43L82.60,175.41L82.66,175.49L83.38,176.66L83.40,176.78L83.46,178.02"/><path d="M71.96,184.08L72.12,184.29L72.84,184.92L73.82,185.43L74.97,185.76L74.34,185.57L73.73,185.27L72.24,184.11L71.96,184.08L71.84,183.89L71.71,183.57L71.59,183.12L71.47,182.57L71.18,180.83L71.18,180.11"/><path d="M72.24,184.11L72.24,180.82"/><path d="M73.60,177.46L73.93,177.98L74.51,178.42L75.31,178.74L76.23,178.89L77.20,178.88L78.10,178.69L78.87,178.35L79.03,178.22L79.41,177.89L79.68,177.36L79.66,176.80L79.33,176.28L78.74,175.84L77.95,175.52L77.03,175.37L76.06,175.38L75.16,175.57L75.10,175.59L74.39,175.91L73.85,176.37L73.58,176.90L73.60,177.46"/><path d="M74.97,185.76L75.61,185.83L76.22,185.77L77.69,185.22L78.88,185.48L79.37,185.42L79.66,185.32L78.81,185.64L77.55,185.88L76.23,185.92L74.97,185.76"/><path d="M77.69,185.22L77.69,181.73"/><path d="M82.08,180.11L82.08,183.05L80.89,184.49L80.40,184.91L79.89,185.23L79.66,185.32"/><path d="M82.08,183.05L81.35,184.00L80.75,184.68L80.40,184.91"/></g></g><g id="Actor_.7"><g style="stroke:#000000;stroke-width:0.071"><path d="M82.13,47.08L82.54,47.37L83.31,48.52L83.36,48.61L83.38,48.71L83.49,49.96L83.47,50.06L82.92,51.26L82.86,51.34L81.70,52.37L81.63,52.41L80.00,53.18L78.04,53.61L75.93,53.68L73.90,53.36L72.13,52.70L72.07,52.67L70.73,51.71L69.90,50.48L69.88,50.38L69.77,49.13L69.78,49.03L70.34,47.83L70.39,47.75L71.13,47.08"/><path d="M71.13,47.17L70.57,47.67L70.04,48.82L70.15,50.02L70.89,51.13L72.20,52.06L73.94,52.71L75.94,53.02L78.02,52.96L79.95,52.53L81.56,51.77L82.69,50.77L83.22,49.61L83.11,48.42L82.36,47.30L82.13,47.13"/><path d="M82.13,49.76L82.13,46.14L77.84,48.37L72.34,47.35L72.34,50.97L71.74,49.12L71.13,47.70L71.12,47.79L71.11,47.80L70.84,47.98L71.49,49.45L72.11,51.41L75.01,51.70L77.90,52.50L80.15,51.06L82.42,50.14L82.30,50.06L82.21,49.97L82.15,49.86L82.13,49.78L82.13,49.76L82.12,49.76L79.98,50.66L77.84,51.99L75.09,51.26L72.34,50.97L72.33,51.08L72.28,51.19L72.20,51.31L72.11,51.41"/><path d="M71.11,47.80L71.05,47.88L70.96,47.94L70.84,47.98"/><path d="M71.13,47.70L71.13,44.09L72.34,47.35"/><path d="M82.13,46.14L80.92,42.88L78.52,42.43L75.42,41.85L74.07,42.41L71.13,44.09"/><path d="M72.48,44.27L72.36,44.53L72.43,45.31L72.92,46.03L73.76,46.63L74.89,47.05L76.19,47.25L77.53,47.21L78.52,46.99L78.78,46.93L79.82,46.44L80.55,45.79L80.90,45.04L80.83,44.27L80.35,43.55L79.77,43.14L79.50,42.94L78.37,42.52L77.07,42.32L75.73,42.36L74.48,42.64L73.44,43.13L72.71,43.78L72.48,44.27"/><path d="M79.69,53.24L79.69,65.14L79.44,65.68L78.92,66.15L78.17,66.50L77.38,66.67L77.27,66.70L76.31,66.73L75.38,66.58L74.57,66.28L73.97,65.85L73.62,65.33L73.57,64.77L73.57,53.24"/><path d="M78.92,66.15L78.35,66.48L77.79,66.74L77.11,66.89L76.39,66.91L75.69,66.81L75.09,66.58L74.57,66.28"/><path d="M77.90,52.50L77.88,52.37L77.85,52.23L77.84,52.01L77.84,48.37"/><path d="M82.42,50.14L82.13,49.25"/></g></g><g id="Actor_.8"><g style="stroke:#000000;stroke-width:0.071"><path d="M210.52,172.55L211.66,173.21L210.28,172.42L209.82,171.63L209.66,170.56L209.69,170.27L209.82,169.30L210.28,167.98L211.00,166.73L211.86,165.73L211.91,165.67L212.92,164.90L213.93,164.51L214.84,164.52L215.06,164.64"/><path d="M215.54,175.45L215.75,173.78L216.42,171.89L217.45,170.09L218.76,168.57L220.21,167.47L221.65,166.90L222.96,166.92L225.44,168.35L224.13,168.33L222.68,168.90L221.24,170.00L219.93,171.52L219.62,172.06L218.90,173.32L218.23,175.21L218.00,177.01L218.23,178.55L218.90,179.68L216.42,178.24L215.75,177.12L215.52,175.58L215.54,175.45L211.66,173.21"/><path d="M220.10,167.55L214.98,164.59"/><path d="M216.21,165.30L216.46,165.45"/><path d="M217.35,178.78L218.34,179.35"/><path d="M218.48,179.44L219.62,180.09L218.90,179.68"/><path d="M231.45,173.97L225.64,170.12L224.83,169.66L223.81,169.64L222.68,170.09L221.56,170.95L220.54,172.14L220.30,172.54L219.73,173.54L219.21,175.01L219.03,176.42L219.21,177.62L219.73,178.50L220.54,178.96L226.78,182.07"/><path d="M219.85,180.22L219.62,180.09L219.93,180.27L221.24,180.29L222.33,179.86"/><path d="M223.74,167.37L223.03,166.96L223.04,166.96"/><path d="M225.44,168.35L226.45,168.93L225.75,168.53"/><path d="M227.31,171.23L227.14,170.07L226.47,168.94L226.04,168.69"/><path d="M228.35,184.17L227.44,183.65L226.86,182.67L226.75,181.89L226.66,181.32L226.86,179.75L227.44,178.10L228.35,176.54L229.49,175.21L229.86,174.92L230.75,174.25L232.01,173.75L233.15,173.76L233.88,174.18L232.74,174.17L231.47,174.67L230.21,175.63L229.07,176.96L228.17,178.52L227.59,180.17L227.39,181.74L227.59,183.09L228.17,184.06L228.72,184.38L228.21,184.09"/><path d="M228.72,184.38L229.07,184.59L230.21,184.60L230.91,184.32"/><path d="M228.17,184.06L227.87,183.89"/><path d="M229.67,183.61L229.86,183.72L229.30,183.39L228.83,182.61L228.67,181.54L228.83,180.28L229.30,178.96L230.02,177.71L230.93,176.65L231.94,175.88L232.95,175.48L233.86,175.49L234.13,175.65"/><path d="M231.00,184.38L230.16,183.89L231.56,184.70L232.47,184.71L233.48,184.31L234.49,183.55L235.40,182.48L236.12,181.23L236.58,179.91L236.66,179.35L236.74,178.66L236.58,177.58L236.12,176.80L235.40,176.38L234.49,176.37L233.48,176.77L232.47,177.54L231.56,178.60L230.84,179.85L230.37,181.17L230.21,182.43L230.37,183.50L230.84,184.28"/><path d="M230.16,183.89L229.86,183.72L230.16,183.89"/><path d="M232.14,181.46L232.12,181.33L232.19,180.80L232.38,180.25L232.68,179.73L233.06,179.29L233.48,178.97L233.90,178.81L234.28,178.81L234.58,178.98L234.77,179.31L234.84,179.76L234.77,180.28L234.58,180.83L234.41,181.12L234.28,181.35L233.90,181.79L233.48,182.11L233.06,182.28L232.68,182.27L232.38,182.10L232.19,181.77L232.14,181.46"/><path d="M234.31,178.83L234.28,178.81L234.31,178.83"/><path d="M235.40,176.38L233.86,175.49"/><path d="M233.88,174.18L234.78,174.71L235.36,175.68L235.47,176.43"/><path d="M235.08,176.20L234.64,175.95"/><path d="M235.91,176.68L236.12,176.80L235.65,176.53"/></g></g><g id="Actor_.9"><g style="stroke:#000000;stroke-width:0.071"><path d="M85.76,102.35L85.76,101.97L86.04,99.79L86.84,97.51L88.09,95.34L89.67,93.50L91.42,92.17L91.74,91.98L89.89,93.39L88.76,94.71L88.22,95.34L86.90,97.63L86.05,100.05L85.78,102.16L85.76,102.35L86.05,104.32L86.90,105.75L98.65,112.64"/><path d="M91.74,91.98L93.59,91.25L95.26,91.27L108.19,98.62"/><path d="M98.87,113.51L99.13,113.84L102.03,115.51L101.79,115.21L101.58,114.87L101.76,111.59L101.96,109.71L102.56,107.67L103.52,105.67L104.75,103.87L102.03,106.93L99.13,105.25L98.89,105.84L98.67,106.42L98.49,109.70L98.67,113.20L98.87,113.51"/><path d="M98.67,113.20L101.58,114.87"/><path d="M98.67,106.42L101.58,108.10L101.76,111.59L101.96,113.24L102.56,114.58L103.52,115.47L108.80,118.39L107.47,117.63L106.62,116.19L106.33,114.23L106.62,111.92L107.47,109.50L108.43,107.84L108.80,107.21L110.46,105.27L112.31,103.86L114.16,103.13L115.83,103.15L117.16,103.91L111.96,100.79L110.74,100.42L108.01,100.09L107.56,100.33L107.11,100.61L104.75,103.87L106.18,102.37L107.74,101.22L109.31,100.56L110.74,100.42L113.09,100.54L110.19,98.87L107.47,98.53L105.11,98.41L108.01,100.09"/><path d="M99.13,105.25L101.49,101.99L104.21,98.93L104.66,98.65L105.11,98.41"/><path d="M102.03,115.51L104.04,115.76"/><path d="M101.58,108.10L101.79,107.51L102.03,106.93"/><path d="M104.21,98.93L107.11,100.61"/><path d="M108.06,117.44L107.26,116.09L106.98,114.23L107.26,112.05L107.94,110.11L108.06,109.76L109.31,107.59L110.89,105.75L112.64,104.42L113.79,103.97L114.39,103.73L115.97,103.75L117.22,104.48L118.02,105.83L118.30,107.69L118.28,107.84L118.02,109.87L117.22,112.16L115.97,114.33L114.39,116.17L112.64,117.49L111.22,118.05L110.89,118.18L109.31,118.17L108.06,117.44"/><path d="M108.10,115.60L107.98,115.40L107.74,113.79L107.98,111.90L108.68,109.92L109.76,108.05L111.13,106.45L112.66,105.30L114.15,104.71L115.52,104.72L116.60,105.35L117.30,106.52L117.54,108.13L117.43,108.97L117.30,110.02L116.60,112.00L115.52,113.87L114.15,115.46L112.66,116.60L112.64,116.62L111.13,117.21L109.76,117.20L108.68,116.57L108.10,115.60"/><path d="M112.37,105.51L113.44,105.09L114.66,105.10L115.62,105.66L116.24,106.70L116.45,108.13L116.24,109.81L115.62,111.57L114.66,113.24L113.44,114.65L112.10,115.67L110.75,116.20L109.54,116.19L108.58,115.63L107.96,114.59L107.79,113.45"/><path d="M108.80,118.39L110.47,118.41L112.31,117.68L112.64,117.49"/><path d="M113.58,101.76L113.55,101.18L113.33,100.84L113.09,100.54"/><path d="M117.16,103.91L118.01,105.35L118.30,107.32L118.30,107.69"/></g></g><g id="Actor_.10"><g style="stroke:#000000;stroke-width:0.071"><path d="M127.33,134.22L128.34,135.66L123.48,132.85L122.48,131.42L122.01,126.69L122.48,122.51L127.33,125.31L127.80,130.03L127.33,134.22L122.48,131.42"/><path d="M122.48,122.51L123.49,119.90L125.60,116.47L128.31,113.57L127.92,113.89L125.60,116.47"/><path d="M123.49,119.90L128.34,122.70L127.33,125.31"/><path d="M128.34,135.66L131.33,136.14L135.02,136.25L135.21,136.16"/><path d="M128.34,122.70L131.33,119.78L135.02,114.38L130.17,111.58L128.31,113.57"/><path d="M143.61,117.18L142.88,116.27L141.12,115.57L139.01,115.76L136.72,116.83L134.46,118.67L132.46,121.13L130.88,123.97L130.57,124.86L129.86,126.94L129.52,129.77L129.86,132.19L130.88,134.00L132.46,135.01L133.32,135.07"/><path d="M132.94,134.88L133.10,134.94L131.57,133.96L130.60,132.22L130.26,129.88L130.60,127.16L130.63,127.05L131.57,124.29L133.10,121.55L135.03,119.19L137.20,117.41L137.61,117.16L139.41,116.38L141.45,116.19L143.15,116.87L143.96,117.41"/><path d="M145.08,118.06L144.74,115.25L143.74,113.82L138.88,111.01L135.89,110.53L132.20,110.42L131.19,110.94L130.17,111.58"/><path d="M133.10,134.94L155.13,147.61"/><path d="M132.20,110.42L137.05,113.22L136.04,113.74L135.02,114.38"/><path d="M133.75,132.21L134.02,132.06L138.17,133.24L137.90,133.40L133.75,132.21L137.90,135.66L137.84,134.94L141.92,137.30L141.92,136.54L137.84,134.19L138.11,134.03L138.17,133.24"/><path d="M137.61,117.16L162.33,131.43"/><path d="M137.05,113.22L141.63,113.84L143.73,113.81"/><path d="M137.90,135.66L138.17,135.50L138.14,135.11"/><path d="M137.84,134.19L137.90,133.40"/><path d="M138.11,134.03L142.19,136.39L141.92,136.54"/><path d="M141.92,137.30L142.19,137.14L142.19,136.77L142.19,136.39"/><path d="M164.90,129.54L142.76,116.72"/><path d="M143.15,116.87L143.02,116.77"/><path d="M144.52,139.35L143.95,139.02L143.61,136.88L144.24,137.24L144.38,138.62L144.65,137.48L145.54,137.99L145.73,139.45L145.98,138.24L146.60,138.60L146.26,140.36L145.26,139.78L145.05,138.45L144.88,139.56L144.52,139.35"/><path d="M143.61,136.88L143.89,136.72L144.51,137.08L144.24,137.24"/><path d="M144.51,137.08L144.58,137.76"/><path d="M144.88,139.56L145.15,139.40L145.18,139.24"/><path d="M145.54,137.99L145.81,137.83L144.92,137.32L144.65,137.48"/><path d="M146.26,140.36L146.54,140.20L146.88,138.44L146.60,138.60"/><path d="M146.51,140.50L147.01,138.84L147.98,139.40L148.48,141.64L147.82,141.25L147.71,140.89L147.48,140.76L147.22,140.60L147.17,140.88L146.51,140.50"/><path d="M145.81,137.83L145.91,138.57"/><path d="M145.98,138.24L146.25,138.08L146.88,138.44"/><path d="M147.43,140.73L147.17,140.88"/><path d="M147.01,138.84L147.28,138.68L148.25,139.24L148.73,141.39"/><path d="M150.16,140.66L150.22,140.70L150.28,140.77L150.32,140.84L150.36,140.92L150.37,141.01L150.39,141.29L150.35,141.53L150.32,141.59L150.28,141.62L150.22,141.64L150.16,141.62L150.09,141.59L150.18,141.67L150.26,141.76L150.31,141.88L150.35,141.99L150.39,142.26L150.37,142.50L150.35,142.56L150.31,142.60L150.26,142.62L150.19,142.61L150.11,142.58L148.73,141.78L148.73,139.83L149.01,139.68L150.43,140.50L150.16,140.66L148.73,139.83"/><path d="M148.48,141.64L148.73,141.49"/><path d="M147.98,139.40L148.25,139.24"/><path d="M151.65,121.86L151.76,121.81L154.98,119.96L154.38,119.67L153.25,119.44L152.28,119.69L150.09,120.96"/><path d="M151.64,143.00L151.55,143.06L151.61,143.07L151.64,143.03L151.64,142.81L152.31,143.20L152.32,143.50L152.31,143.58L152.29,143.64L152.24,143.68L152.18,143.69L152.10,143.67L151.54,143.40L150.97,143.03L150.89,142.96L150.81,142.87L150.75,142.76L150.71,142.66L150.62,141.95L150.71,141.30L150.75,141.22L150.81,141.17L150.89,141.16L150.97,141.17L152.09,141.83L152.16,141.90L152.22,141.99L152.27,142.09L152.30,142.20L152.31,142.67L152.57,142.52L152.57,142.14L152.30,142.30"/><path d="M150.35,141.99L150.62,141.83L150.59,141.72L150.53,141.61L150.46,141.52"/><path d="M150.31,142.60L150.59,142.44L150.62,142.40L150.65,142.34L150.65,142.22"/><path d="M151.30,142.82L151.57,142.67L151.52,142.16L151.55,141.89L151.37,141.79L151.32,141.79L151.30,141.84L151.25,142.31L151.30,142.82L151.32,142.89L151.37,142.95L151.55,143.06"/><path d="M150.37,142.50L150.65,142.34"/><path d="M150.81,141.17L151.08,141.02L151.16,141.00L151.24,141.02L150.97,141.17"/><path d="M151.24,141.02L152.36,141.67L152.09,141.83"/><path d="M150.43,140.50L150.49,140.54L150.55,140.61L150.63,140.76L150.65,140.85L150.37,141.01"/><path d="M150.65,140.85L150.66,141.13L150.62,141.37L150.35,141.53"/><path d="M150.62,141.37L150.59,141.43L150.55,141.47L150.28,141.62"/><path d="M150.62,141.83L150.63,141.87"/><path d="M151.30,141.84L151.38,141.79"/><path d="M150.53,121.21L151.05,121.43L151.76,121.81L161.56,127.47L161.42,127.52"/><path d="M152.31,143.20L152.58,143.04L151.91,142.66L151.64,142.81"/><path d="M152.32,143.50L152.59,143.35L152.58,143.04"/><path d="M152.24,143.68L152.51,143.52L152.56,143.49L152.59,143.42L152.59,143.35"/><path d="M152.31,142.67L151.64,142.28L151.64,142.02L151.61,141.94L151.58,141.91L151.55,141.89L151.56,141.89"/><path d="M151.57,142.67L151.62,142.76L151.66,142.80"/><path d="M151.40,142.96L151.64,142.83"/><path d="M152.57,142.14L152.57,142.04L152.54,141.93L152.49,141.83L152.43,141.74L152.36,141.67"/><path d="M153.54,144.56L152.94,144.16L152.85,144.08L152.78,143.99L152.72,143.89L152.68,143.78L152.59,143.09L152.68,142.45L152.72,142.38L152.78,142.33L152.85,142.31L152.94,142.32L153.54,142.61L154.14,143.02L154.21,143.10L154.28,143.19L154.33,143.30L154.35,143.41L154.40,144.13L154.35,144.75L154.33,144.81L154.28,144.86L154.21,144.87L154.14,144.85L153.54,144.56"/><path d="M152.78,142.33L153.05,142.17L153.13,142.15L153.21,142.17L152.94,142.32"/><path d="M153.21,142.17L153.82,142.45L154.41,142.86L154.14,143.02"/><path d="M154.35,144.75L154.62,144.59L154.60,144.66L154.55,144.70L154.28,144.86"/><path d="M154.62,144.59L154.67,143.98L154.62,143.26L154.60,143.14L154.55,143.03L154.49,142.94L154.41,142.86"/><path d="M154.35,143.41L154.62,143.26"/><path d="M155.41,141.52L154.94,145.70L155.41,150.43L156.42,151.87L161.27,154.67L160.26,153.23L160.73,149.05L160.26,144.32L161.27,141.71L164.26,138.80L167.95,133.40L163.10,130.60L158.53,135.48L156.42,138.91L155.41,141.52L160.26,144.32"/><path d="M155.41,150.43L160.26,153.23"/><path d="M163.51,128.74L162.56,128.08L161.56,127.47L164.77,125.61L154.98,119.96"/><path d="M161.36,132.46L160.28,133.28L158.23,135.67L156.60,138.49L156.49,138.79"/><path d="M156.42,138.91L161.27,141.71"/><path d="M161.27,154.67L164.26,155.15L167.95,155.27L168.97,154.74L169.98,154.10L171.84,152.11L172.24,151.79L169.67,153.75L167.10,154.76L164.78,154.73L162.95,153.67L161.77,151.68L161.36,148.95L161.77,145.75L162.95,142.39L164.78,139.21L167.10,136.51L169.67,134.56L172.24,133.54L174.55,133.57L176.39,134.63L177.57,136.62L177.98,139.35L177.57,142.55L176.39,145.91L175.43,147.57L174.55,149.09L172.24,151.79L174.56,149.21L176.66,145.78L177.67,143.17L178.15,138.99L177.67,134.26L176.66,132.82L174.56,132.85L169.98,132.23L165.13,129.43L164.12,129.95L163.10,130.60"/><path d="M164.77,125.61L165.37,126.01L166.50,127.09L167.46,128.46L167.95,129.51"/><path d="M165.13,129.43L168.82,129.54L171.81,130.02L176.66,132.82"/><path d="M167.95,133.40L168.97,132.75L169.67,134.56"/><path d="M169.67,153.75L168.97,154.74"/><path d="M168.97,132.75L169.98,132.23"/></g></g><g/><g/><g id="paperID" visibility="hidden" opacity="0.00" transform="scale(0.000100)"><path style="stroke:#000000;stroke-width:0.500;fill:#e6e6e6;fill-rule:evenodd" d="M-2000.00,-2000.00L2297.00,-2000.00L2297.00,2210.00L-2000.00,2210.00zM0.00,0.00L297.00,0.00L297.00,210.00L0.00,210.00z"/><path style="fill:#000000;fill-opacity:0.118" d="M3.00,210.00L297.00,210.00L297.00,3.00L300.00,3.00L300.00,213.00L3.00,213.00z"/></g><g><g><path style="stroke:#000000;stroke-width:0.353;fill:#0085ca" d="M202.02,25.42L282.77,25.42L282.77,30.00L202.02,30.00z"/><text xml:space="preserve" fill="#ffffff" stroke-width="0" x="203.79" y="28.94" font-size="2.28" opacity="1.00" font-family="Rubik" font-weight="bold">Pos.</text><text xml:space="preserve" fill="#ffffff" stroke-width="0" x="212.56" y="28.94" font-size="2.32" opacity="1.00" font-family="Rubik" font-weight="bold">Part No</text><text xml:space="preserve" fill="#ffffff" stroke-width="0" x="231.09" y="28.94" font-size="2.25" opacity="1.00" font-family="Rubik" font-weight="bold">Qty.</text><text xml:space="preserve" fill="#ffffff" stroke-width="0" x="239.77" y="28.94" font-size="2.30" opacity="1.00" font-family="Rubik" font-weight="bold">Description</text><path style="stroke:#000000;stroke-width:0.353" d="M210.80,25.42L210.80,30.00"/><path style="stroke:#000000;stroke-width:0.353" d="M229.33,25.42L229.33,30.00"/><path style="stroke:#000000;stroke-width:0.353" d="M238.01,25.42L238.01,30.00"/></g><g id="Line1"><path style="stroke:#000000;stroke-width:0.353;fill:#ffffff" d="M202.02,30.00L282.77,30.00L282.77,34.59L202.02,34.59z"/><text xml:space="preserve" fill="#505050" stroke-width="0" x="203.79" y="33.53" font-size="2.40" opacity="1.00" font-family="Rubik">1</text><text xml:space="preserve" fill="#505050" stroke-width="0" x="212.56" y="33.53" font-size="2.53" opacity="1.00" font-family="Rubik">5A420135</text><text xml:space="preserve" fill="#505050" stroke-width="0" x="231.09" y="33.53" font-size="2.40" opacity="1.00" font-family="Rubik">1</text><text xml:space="preserve" fill="#505050" stroke-width="0" x="239.77" y="33.53" font-size="2.54" opacity="1.00" font-family="Rubik">M22–1/4 reduction nut</text><path style="stroke:#000000;stroke-width:0.353" d="M210.80,30.00L210.80,34.59"/><path style="stroke:#000000;stroke-width:0.353" d="M229.33,30.00L229.33,34.59"/><path style="stroke:#000000;stroke-width:0.353" d="M238.01,30.00L238.01,34.59"/></g><g id="Line2"><path style="stroke:#000000;stroke-width:0.353;fill:#e7f5fd" d="M202.02,34.59L282.77,34.59L282.77,39.17L202.02,39.17z"/><text xml:space="preserve" fill="#505050" stroke-width="0" x="203.79" y="38.11" font-size="2.36" opacity="1.00" font-family="Rubik">2</text><text xml:space="preserve" fill="#505050" stroke-width="0" x="212.56" y="38.11" font-size="2.53" opacity="1.00" font-family="Rubik">5A42050701</text><text xml:space="preserve" fill="#505050" stroke-width="0" x="231.09" y="38.11" font-size="2.40" opacity="1.00" font-family="Rubik">1</text><text xml:space="preserve" fill="#505050" stroke-width="0" x="239.77" y="38.11" font-size="2.50" opacity="1.00" font-family="Rubik">L bracket</text><path style="stroke:#000000;stroke-width:0.353" d="M210.80,34.59L210.80,39.17"/><path style="stroke:#000000;stroke-width:0.353" d="M229.33,34.59L229.33,39.17"/><path style="stroke:#000000;stroke-width:0.353" d="M238.01,34.59L238.01,39.17"/></g><g id="Line3"><path style="stroke:#000000;stroke-width:0.353;fill:#ffffff" d="M202.02,39.17L282.77,39.17L282.77,43.76L202.02,43.76z"/><text xml:space="preserve" fill="#505050" stroke-width="0" x="203.79" y="42.70" font-size="2.39" opacity="1.00" font-family="Rubik">3</text><text xml:space="preserve" fill="#505050" stroke-width="0" x="212.56" y="42.70" font-size="2.54" opacity="1.00" font-family="Rubik">70023295</text><text xml:space="preserve" fill="#505050" stroke-width="0" x="231.09" y="42.70" font-size="2.40" opacity="1.00" font-family="Rubik">1</text><text xml:space="preserve" fill="#505050" stroke-width="0" x="239.77" y="42.70" font-size="2.53" opacity="1.00" font-family="Rubik">Check valve</text><path style="stroke:#000000;stroke-width:0.353" d="M210.80,39.17L210.80,43.76"/><path style="stroke:#000000;stroke-width:0.353" d="M229.33,39.17L229.33,43.76"/><path style="stroke:#000000;stroke-width:0.353" d="M238.01,39.17L238.01,43.76"/></g><g id="Line4"><path style="stroke:#000000;stroke-width:0.353;fill:#e7f5fd" d="M202.02,43.76L282.77,43.76L282.77,48.34L202.02,48.34z"/><text xml:space="preserve" fill="#505050" stroke-width="0" x="203.79" y="47.28" font-size="2.41" opacity="1.00" font-family="Rubik">4</text><text xml:space="preserve" fill="#505050" stroke-width="0" x="212.56" y="47.28" font-size="2.54" opacity="1.00" font-family="Rubik">70023313</text><text xml:space="preserve" fill="#505050" stroke-width="0" x="231.09" y="47.28" font-size="2.40" opacity="1.00" font-family="Rubik">1</text><text xml:space="preserve" fill="#505050" stroke-width="0" x="239.77" y="47.28" font-size="2.52" opacity="1.00" font-family="Rubik">Nut  M22X1,5</text><path style="stroke:#000000;stroke-width:0.353" d="M210.80,43.76L210.80,48.34"/><path style="stroke:#000000;stroke-width:0.353" d="M229.33,43.76L229.33,48.34"/><path style="stroke:#000000;stroke-width:0.353" d="M238.01,43.76L238.01,48.34"/></g><g id="Line5"><path style="stroke:#000000;stroke-width:0.353;fill:#ffffff" d="M202.02,48.34L282.77,48.34L282.77,52.93L202.02,52.93z"/><text xml:space="preserve" fill="#505050" stroke-width="0" x="203.79" y="51.87" font-size="2.36" opacity="1.00" font-family="Rubik">5</text><text xml:space="preserve" fill="#505050" stroke-width="0" x="212.56" y="51.87" font-size="2.54" opacity="1.00" font-family="Rubik">70023324</text><text xml:space="preserve" fill="#505050" stroke-width="0" x="231.09" y="51.87" font-size="2.40" opacity="1.00" font-family="Rubik">1</text><text xml:space="preserve" fill="#505050" stroke-width="0" x="239.77" y="51.87" font-size="2.55" opacity="1.00" font-family="Rubik">MFM reducer M22/M16/M22</text><path style="stroke:#000000;stroke-width:0.353" d="M210.80,48.34L210.80,52.93"/><path style="stroke:#000000;stroke-width:0.353" d="M229.33,48.34L229.33,52.93"/><path style="stroke:#000000;stroke-width:0.353" d="M238.01,48.34L238.01,52.93"/></g><g id="Line6"><path style="stroke:#000000;stroke-width:0.353;fill:#e7f5fd" d="M202.02,52.93L282.77,52.93L282.77,57.51L202.02,57.51z"/><text xml:space="preserve" fill="#505050" stroke-width="0" x="203.79" y="56.45" font-size="2.38" opacity="1.00" font-family="Rubik">6</text><text xml:space="preserve" fill="#505050" stroke-width="0" x="212.56" y="56.45" font-size="2.54" opacity="1.00" font-family="Rubik">70023346</text><text xml:space="preserve" fill="#505050" stroke-width="0" x="231.09" y="56.45" font-size="2.40" opacity="1.00" font-family="Rubik">1</text><text xml:space="preserve" fill="#505050" stroke-width="0" x="239.77" y="56.45" font-size="2.54" opacity="1.00" font-family="Rubik">Male–female adapter M16x1 R8x1.0</text><path style="stroke:#000000;stroke-width:0.353" d="M210.80,52.93L210.80,57.51"/><path style="stroke:#000000;stroke-width:0.353" d="M229.33,52.93L229.33,57.51"/><path style="stroke:#000000;stroke-width:0.353" d="M238.01,52.93L238.01,57.51"/></g><g id="Line7"><path style="stroke:#000000;stroke-width:0.353;fill:#ffffff" d="M202.02,57.51L282.77,57.51L282.77,62.10L202.02,62.10z"/><text xml:space="preserve" fill="#505050" stroke-width="0" x="203.79" y="61.04" font-size="2.41" opacity="1.00" font-family="Rubik">7</text><text xml:space="preserve" fill="#505050" stroke-width="0" x="212.56" y="61.04" font-size="2.54" opacity="1.00" font-family="Rubik">70023872</text><text xml:space="preserve" fill="#505050" stroke-width="0" x="231.09" y="61.04" font-size="2.36" opacity="1.00" font-family="Rubik">2</text><text xml:space="preserve" fill="#505050" stroke-width="0" x="239.77" y="61.04" font-size="2.54" opacity="1.00" font-family="Rubik">Hex flange screw M8X25</text><path style="stroke:#000000;stroke-width:0.353" d="M210.80,57.51L210.80,62.10"/><path style="stroke:#000000;stroke-width:0.353" d="M229.33,57.51L229.33,62.10"/><path style="stroke:#000000;stroke-width:0.353" d="M238.01,57.51L238.01,62.10"/></g><g id="Line8"><path style="stroke:#000000;stroke-width:0.353;fill:#e7f5fd" d="M202.02,62.10L282.77,62.10L282.77,66.68L202.02,66.68z"/><text xml:space="preserve" fill="#505050" stroke-width="0" x="203.79" y="65.62" font-size="2.32" opacity="1.00" font-family="Rubik">8</text><text xml:space="preserve" fill="#505050" stroke-width="0" x="212.56" y="65.62" font-size="2.53" opacity="1.00" font-family="Rubik">70024157</text><text xml:space="preserve" fill="#505050" stroke-width="0" x="231.09" y="65.62" font-size="2.36" opacity="1.00" font-family="Rubik">2</text><text xml:space="preserve" fill="#505050" stroke-width="0" x="239.77" y="65.62" font-size="2.54" opacity="1.00" font-family="Rubik">Self lock nut M8</text><path style="stroke:#000000;stroke-width:0.353" d="M210.80,62.10L210.80,66.68"/><path style="stroke:#000000;stroke-width:0.353" d="M229.33,62.10L229.33,66.68"/><path style="stroke:#000000;stroke-width:0.353" d="M238.01,62.10L238.01,66.68"/></g><g id="Line9"><path style="stroke:#000000;stroke-width:0.353;fill:#ffffff" d="M202.02,66.68L282.77,66.68L282.77,71.27L202.02,71.27z"/><text xml:space="preserve" fill="#505050" stroke-width="0" x="203.79" y="70.21" font-size="2.38" opacity="1.00" font-family="Rubik">9</text><text xml:space="preserve" fill="#505050" stroke-width="0" x="212.56" y="70.21" font-size="2.53" opacity="1.00" font-family="Rubik">70024401</text><text xml:space="preserve" fill="#505050" stroke-width="0" x="231.09" y="70.21" font-size="2.40" opacity="1.00" font-family="Rubik">1</text><text xml:space="preserve" fill="#505050" stroke-width="0" x="239.77" y="70.21" font-size="2.54" opacity="1.00" font-family="Rubik">Quick coupling</text><path style="stroke:#000000;stroke-width:0.353" d="M210.80,66.68L210.80,71.27"/><path style="stroke:#000000;stroke-width:0.353" d="M229.33,66.68L229.33,71.27"/><path style="stroke:#000000;stroke-width:0.353" d="M238.01,66.68L238.01,71.27"/></g></g><g id="hotspot.0" ident="" onmouseover="ShowHotSpot(evt,&apos;0&apos;)" onmouseout="HideHotSpot(evt,&apos;0&apos;)" onmousemove="ShowToolTip(evt,&apos;0&apos;,&quot;Cut-Extrude1&quot;)" opacity="0"><path style="fill:#00ff00;fill-rule:evenodd" d="M202.02,30.00L202.02,34.59L282.77,34.59L282.77,30.00zM193.82,147.84L196.29,147.49L200.26,147.47L203.49,149.38L203.78,151.02L204.42,157.87L202.49,161.72L198.32,167.50L197.27,168.38L193.72,169.00L189.63,169.01L186.76,167.39L185.81,162.88L183.57,160.95L183.21,160.03L183.22,155.61L184.22,152.75L185.67,150.67L187.30,148.77L190.50,147.16L192.56,147.15z"/></g><g id="hotspot.1" ident="" onmouseover="ShowHotSpot(evt,&apos;1&apos;)" onmouseout="HideHotSpot(evt,&apos;1&apos;)" onmousemove="ShowToolTip(evt,&apos;1&apos;,&quot;Break-Corner2&quot;)" opacity="0"><path style="fill:#00ff00;fill-rule:evenodd" d="M202.02,34.59L202.02,39.17L282.77,39.17L282.77,34.59zM87.55,71.06L88.85,72.01L88.85,94.31L88.55,94.65L86.89,97.16L85.94,100.71L85.93,103.18L86.25,104.47L87.21,105.76L88.83,106.71L89.13,116.68L90.78,119.85L91.71,120.54L92.88,120.50L94.49,119.53L100.73,119.53L117.41,129.18L118.71,130.12L118.71,136.05L118.43,136.41L86.50,154.89L80.18,154.85L62.51,144.59L62.49,137.81L60.26,134.32L59.27,131.77L59.31,85.32L61.88,81.14L83.41,68.82zM79.21,82.30L79.20,84.97L78.23,88.51L76.21,91.95L73.93,94.48L70.77,96.13L69.25,96.11L68.90,95.49L68.49,92.59L69.15,89.38L70.71,86.12L72.00,84.20L74.70,81.76L76.84,80.70L78.56,80.70zM100.40,128.85L108.80,133.68L108.76,134.08L108.36,134.36L104.87,134.34L101.07,132.36L95.79,129.18L97.72,128.54zM85.95,145.55L87.25,146.51L86.51,146.86L83.03,146.86L79.23,144.88L73.97,141.71L74.92,141.38L78.57,141.37z"/></g><g id="hotspot.2" ident="" onmouseover="ShowHotSpot(evt,&apos;2&apos;)" onmouseout="HideHotSpot(evt,&apos;2&apos;)" onmousemove="ShowToolTip(evt,&apos;2&apos;,&quot;Imported1&quot;)" opacity="0"><path style="fill:#00ff00;fill-rule:evenodd" d="M202.02,39.17L202.02,43.76L282.77,43.76L282.77,39.17zM138.94,110.86L143.42,113.44L144.71,115.04L145.25,118.04L149.50,120.55L150.67,120.50L152.28,119.53L154.35,119.53L165.57,125.98L167.22,127.86L167.81,129.19L171.69,129.81L174.56,131.43L177.18,133.31L177.78,134.64L178.09,137.85L177.77,142.45L176.81,145.34L173.92,149.84L170.09,153.72L168.37,154.89L163.64,154.87L160.74,154.24L156.28,151.64L155.63,150.68L155.00,147.46L135.73,136.23L131.53,135.93L127.99,135.30L123.20,132.38L122.56,131.41L122.22,128.22L122.22,125.11L122.53,122.20L123.87,119.05L125.94,115.99L129.95,111.65L132.06,110.23z"/></g><g id="hotspot.3" ident="" onmouseover="ShowHotSpot(evt,&apos;3&apos;)" onmouseout="HideHotSpot(evt,&apos;3&apos;)" onmousemove="ShowToolTip(evt,&apos;3&apos;,&quot;Chamfer14&quot;)" opacity="0"><path style="fill:#00ff00;fill-rule:evenodd" d="M202.02,43.76L202.02,48.34L282.77,48.34L282.77,43.76zM56.41,64.96L58.33,65.93L59.95,67.19L59.93,73.74L59.63,76.65L59.29,77.27L55.76,82.09L51.83,85.86L49.02,85.84L44.54,84.86L41.95,83.27L41.95,75.03L42.26,73.08L44.07,70.40L47.28,66.54L49.95,64.09L51.58,64.01zM47.08,77.90L47.95,74.92L50.23,71.42L52.76,69.46L53.40,69.12L54.48,69.12L54.47,72.78L53.19,76.30L51.60,78.57L50.02,79.88L47.41,81.14L47.07,80.41z"/></g><g id="hotspot.4" ident="" onmouseover="ShowHotSpot(evt,&apos;4&apos;)" onmouseout="HideHotSpot(evt,&apos;4&apos;)" onmousemove="ShowToolTip(evt,&apos;4&apos;,&quot;Chamfer16&quot;)" opacity="0"><path style="fill:#00ff00;fill-rule:evenodd" d="M202.02,48.34L202.02,52.93L282.77,52.93L282.77,48.34zM108.08,98.38L110.04,98.66L113.30,100.54L113.80,101.65L117.14,103.77L118.07,105.41L118.06,109.71L117.40,111.63L115.48,114.84L112.94,117.12L111.22,117.96L108.40,117.96L104.26,115.68L101.37,115.04L98.77,113.15L98.16,112.15L87.21,105.76L86.25,104.47L85.93,103.18L85.94,100.71L86.89,97.16L88.70,94.48L91.39,92.04L92.88,91.28L95.59,91.28z"/></g><g id="hotspot.5" ident="" onmouseover="ShowHotSpot(evt,&apos;5&apos;)" onmouseout="HideHotSpot(evt,&apos;5&apos;)" onmousemove="ShowToolTip(evt,&apos;5&apos;,&quot;Cut-Extrude1&quot;)" opacity="0"><path style="fill:#00ff00;fill-rule:evenodd" d="M202.02,52.93L202.02,57.51L282.77,57.51L282.77,52.93zM22.67,51.83L23.84,51.80L24.95,51.18L29.75,52.44L31.98,53.75L32.35,54.35L32.32,57.26L34.58,58.86L35.22,60.81L34.90,63.15L33.83,65.61L32.04,67.68L29.99,68.84L27.80,68.85L26.85,68.14L25.16,68.86L20.42,67.87L18.17,66.59L17.51,65.96L17.58,63.01L14.68,61.09L13.99,59.18L14.23,56.93L15.29,54.46L17.09,52.08L19.13,50.92L21.10,50.82z"/></g><g id="hotspot.6" ident="" onmouseover="ShowHotSpot(evt,&apos;6&apos;)" onmouseout="HideHotSpot(evt,&apos;6&apos;)" onmousemove="ShowToolTip(evt,&apos;6&apos;,&quot;Fillet2&quot;)" opacity="0"><path style="fill:#00ff00;fill-rule:evenodd" d="M202.02,57.51L202.02,62.10L282.77,62.10L282.77,57.51zM102.35,29.94L103.60,32.54L104.25,34.78L104.89,35.42L105.23,37.12L104.21,39.03L101.57,40.57L101.38,52.57L101.01,53.16L99.35,54.07L97.48,54.07L95.58,53.08L95.25,40.57L92.38,38.94L91.71,37.69L91.70,35.83L92.70,34.27L93.01,31.36L96.74,29.31zM79.85,42.49L81.15,43.11L81.76,45.07L82.42,47.30L83.39,48.57L83.38,49.99L83.05,50.94L82.13,51.94L79.74,53.09L79.54,65.41L77.83,66.59L75.64,66.59L74.36,65.95L73.70,65.32L73.42,53.09L71.83,52.43L70.23,50.81L69.86,49.89L69.86,48.69L71.19,46.79L71.39,43.78L74.90,41.83L76.63,41.85z"/></g><g id="hotspot.7" ident="" onmouseover="ShowHotSpot(evt,&apos;7&apos;)" onmouseout="HideHotSpot(evt,&apos;7&apos;)" onmousemove="ShowToolTip(evt,&apos;7&apos;,&quot;Fase1&quot;)" opacity="0"><path style="fill:#00ff00;fill-rule:evenodd" d="M202.02,62.10L202.02,66.68L282.77,66.68L282.77,62.10zM101.37,160.95L102.95,161.62L104.29,162.52L105.22,164.16L105.22,165.59L104.80,166.44L103.93,167.18L103.62,170.73L102.36,172.03L100.63,172.87L96.20,172.87L94.64,172.18L93.65,171.24L92.68,167.40L91.71,165.80L91.71,163.95L92.70,162.38L95.45,160.95L97.08,160.65L99.42,160.65zM79.54,173.47L82.09,174.78L83.38,176.37L83.39,178.11L82.43,179.71L82.11,182.93L81.13,184.20L79.11,185.39L76.51,185.71L74.36,185.39L72.80,184.70L71.82,183.76L71.48,182.49L71.15,179.93L70.22,178.93L69.75,176.71L70.45,175.44L72.77,173.91L73.95,173.48L77.59,173.17z"/></g><g id="hotspot.8" ident="" onmouseover="ShowHotSpot(evt,&apos;8&apos;)" onmouseout="HideHotSpot(evt,&apos;8&apos;)" onmousemove="ShowToolTip(evt,&apos;8&apos;,&quot;Cut-Extrude1&quot;)" opacity="0"><path style="fill:#00ff00;fill-rule:evenodd" d="M202.02,66.68L202.02,71.27L282.77,71.27L282.77,66.68zM219.50,167.10L220.70,167.10L221.65,166.74L223.06,166.74L226.26,168.67L227.55,171.23L231.05,173.52L233.65,173.80L234.61,174.45L235.58,176.36L236.18,176.73L236.55,177.32L236.45,180.26L234.80,183.10L232.91,184.42L231.39,184.41L228.49,184.10L227.84,183.78L227.20,183.14L226.56,181.86L222.73,179.89L219.49,179.94L216.32,177.96L215.32,175.12L210.22,172.18L209.85,171.59L209.86,169.08L211.34,166.07L212.98,164.82L213.61,164.49L215.03,164.49z"/></g></g></svg>