<?xml version="1.0" encoding="UTF-8" standalone="yes"?><svg xmlns="http://www.w3.org/2000/svg" xmlns:xlink="http://www.w3.org/1999/xlink" width="297.000mm" height="210.000mm" viewBox="0.000000 0.000000 297.000000 210.000000" stroke-linejoin="round" stroke-linecap="round" fill="none" fill-rule="evenodd"><desc>Composer Export</desc><script type="text/ecmascript"><![CDATA[
if(typeof(top) != "undefined")
{
	top.ShowPaper = ShowPaper;
}
function ShowHotSpot(evt,hotspotid)
{
	var svgDocument = evt.target.ownerDocument;
	var strId = "hotspot."+hotspotid;
	var hotspot = svgDocument.getElementById(strId);
	if(hotspot)
		hotspot.setAttribute("opacity",".5");
}
function HideHotSpot(evt,hotspotid)
{
	var svgDocument = evt.target.ownerDocument;
	var strId = "hotspot."+hotspotid;
	var hotspot = svgDocument.getElementById(strId);
	if(hotspot)
		hotspot.setAttribute("opacity","0");

	var toolTip = svgDocument.getElementById('ToolTip');
	if(toolTip)
		toolTip.setAttribute("visibility","hidden");
}
function ShowToolTip(evt,hotspotid,strTooltip)
{
	if(strTooltip=="")
	return;

	// change text
	var svgDocument = evt.target.ownerDocument;
	var tiptext = svgDocument.getElementById('ToolTipText');
	if( !tiptext )
	return;
	tiptext.firstChild.nodeValue = " " + strTooltip + "  " ;

	// show tooltip before, else some refresh issue

	var toolTip = svgDocument.getElementById('ToolTip');
	if(!toolTip)
	return;

	toolTip.setAttribute("visibility","visible");
	toolTip.setAttribute("opacity",".95");

	// move tooltip
	// get viewbox

	var root = svgDocument.documentElement;
	var vbox = (root.getAttribute("viewBox")).split(' ');
	var x0 = parseFloat(vbox[0]);
	var y0 = parseFloat(vbox[1]);
	var vboxW = parseFloat(vbox[2]);
	var vboxH = parseFloat(vbox[3]);

	// get default width of svg

	var strW = root.getAttribute("width");
	var svgW = parseFloat(strW);
	if(strW.indexOf('mm') != -1)
	svgW *= 3.779;

	var strH = root.getAttribute("height");
	var svgH = parseFloat(strH);
	if(strH.indexOf('mm') != -1)
	svgH *= 3.779;  	// 96 dpi  -> 96/25.4 = 3.779

	// update the viewbox / width / height if svg is embedded in html with zoom fit all
	var realx0 = x0;
	var realy0 = y0;
	var realvboxW = vboxW;
	var realvboxH = vboxH;
	var realsvgW = svgW;
	var realsvgH = svgH;

	if ((typeof(top) == "undefined") || (typeof(top.svgctl1) != "undefined")) // embedded in html
	{
		// get window size in pxl

		svgW = window.innerWidth;
		svgH = window.innerHeight;

		// calculate real viewbox

		realsvgW = svgW;
		realsvgH = svgH;
		if((svgW / svgH) > (vboxW / vboxH))
		{
			realvboxW = (vboxH * svgW) / svgH;
			realvboxH = vboxH;
			realx0 = x0 - (realvboxW - vboxW)/2 ;
		}
		else
		{
			realvboxH = (vboxW * svgH) / svgW;
			realvboxW = vboxW;
			realy0 = y0 - (realvboxH - vboxH)/2 ;
		}
	}

	// get user zoom/pan

	var newScale = root.currentScale;
	var translation = root.currentTranslate;

	// transform pxl to user unit

	var xPos = (((evt.clientX+10- translation.x)/newScale) * realvboxW)/realsvgW  + realx0 ;
	var yPos = (((evt.clientY+5- translation.y)/newScale) * realvboxH)/ realsvgH  + realy0 ;
	var scaleForWidth = ( (1 / newScale) * realvboxH) / realsvgH;

	// move tooltip

	toolTip.setAttribute("transform", "translate(" + xPos + "," + yPos + ")" );

	// resize tooltip

	var fontsize = 12;
	tiptext.setAttribute("font-size",fontsize*scaleForWidth);
	tiptext.setAttribute("y", fontsize*scaleForWidth);
	var tipBG = svgDocument.getElementById('ToolTipBG');
	var outline = tiptext.getBBox();
	if(tipBG)
	{
		tipBG.setAttribute("stroke-width", 1*scaleForWidth);
		tipBG.setAttribute("width", Number(outline.width) );
		tipBG.setAttribute("height", Number(outline.height) + fontsize*.5*scaleForWidth );
	}
	var ToolTipShadow = svgDocument.getElementById('ToolTipShadow');
	if(ToolTipShadow)
	{
		ToolTipShadow.setAttribute("width", Number(outline.width) );
		ToolTipShadow.setAttribute("height", Number(outline.height) + fontsize*.5*scaleForWidth );
		ToolTipShadow.setAttribute("x", 3*scaleForWidth);
		ToolTipShadow.setAttribute("y", 3*scaleForWidth);
	}
}
function ShowPaper()
{
  var svgDocument = getDocument();
  var paper = svgDocument.getElementById("paperID");
  if(paper)
  {
    paper.setAttribute("transform","scale(1)");
    paper.setAttribute("opacity","1");
    paper.setAttribute("visibility","visible");
  }
  var svg = svgDocument.getRootElement();
  if(svg)
  {
    svg.setAttribute("width","307.000mm");
    svg.setAttribute("height","220.000mm");
    svg.setAttribute("viewBox","-5.000000 -5.000000 307.000000 220.000000");
  }
}
]]></script><defs/><g><g id="Actor_.0"><g style="stroke:#000000;stroke-width:0.071"><path d="M184.07,65.69L183.79,65.36L183.52,64.90L183.35,64.41L183.29,63.94L183.81,64.24L183.84,64.51L183.94,64.79L184.10,65.05L184.29,65.27L184.50,65.44L197.07,72.69L197.29,72.78L197.48,72.78L197.63,72.69L197.73,72.52L197.76,72.30L197.07,72.69L197.07,73.29L184.50,66.03L184.13,65.75L184.07,65.69"/><path d="M184.50,66.03L184.50,65.44L191.39,61.46L191.18,61.30L190.98,61.07L190.83,60.81L190.73,60.53L190.70,60.26L183.81,64.24L183.81,37.79"/><path d="M183.29,63.94L183.29,38.09"/><path d="M183.29,34.89L183.29,33.40"/><path d="M183.81,34.59L183.81,33.10"/><path d="M183.29,30.20L183.29,24.56L184.16,23.07L184.67,23.37L183.81,24.86L183.81,29.90"/><path d="M183.81,24.86L183.29,24.56"/><path d="M184.16,23.07L189.32,20.09L189.46,20.17"/><path d="M184.67,23.37L189.84,20.39L190.70,20.89L190.39,20.71"/><path d="M186.35,36.32L186.35,39.29L185.55,41.36L186.35,42.51L186.35,54.62L186.37,54.73L186.42,54.82L186.49,54.86L186.59,54.86L186.70,54.82L187.82,54.17L187.92,54.09L188.02,53.98L188.09,53.85L188.14,53.71L188.16,53.58L187.64,53.28L187.63,53.41L187.58,53.55L187.50,53.68L187.41,53.80L187.30,53.88L186.35,54.42"/><path d="M186.70,54.82L186.35,54.62"/><path d="M186.49,54.86L186.48,54.85"/><path d="M187.30,53.88L187.82,54.17"/><path d="M186.35,33.12L186.35,31.63"/><path d="M186.35,28.43L186.35,27.18L186.37,27.04L186.42,26.90L186.49,26.77L186.59,26.66L186.70,26.58L187.82,25.93L188.16,26.13L188.16,27.39"/><path d="M188.16,53.58L188.16,41.47L187.64,41.17L187.64,53.28"/><path d="M188.16,41.47L188.97,39.39L188.16,38.24L188.16,35.28"/><path d="M187.64,41.17L188.45,39.09L187.64,37.94L188.16,38.24"/><path d="M188.45,39.09L188.97,39.39"/><path d="M187.64,37.94L187.64,35.58"/><path d="M188.16,32.08L188.16,30.59"/><path d="M187.64,32.38L187.64,30.89"/><path d="M187.64,27.69L187.64,26.03"/><path d="M188.16,26.13L188.14,26.02L188.09,25.93L188.02,25.89L187.92,25.89L187.82,25.93"/><path d="M191.65,64.39L192.51,64.89L192.78,65.10L192.92,65.35L192.92,65.62L192.78,65.87L192.51,66.08L192.14,66.24L191.70,66.32L191.25,66.32L190.81,66.24L190.44,66.08L189.58,65.58L189.31,65.37L189.17,65.12L189.17,64.86L189.31,64.61L189.58,64.39L189.67,64.35L189.95,64.24L190.39,64.15L190.85,64.16L191.28,64.24L191.65,64.39L191.65,64.99L191.28,64.83L190.85,64.75L190.39,64.75L189.95,64.83L189.58,64.99L189.31,65.20L189.26,65.29"/><path d="M189.17,64.86L189.17,64.99"/><path d="M189.32,20.09L189.84,20.39"/><path d="M190.70,60.26L190.70,33.81"/><path d="M190.70,30.61L190.70,29.12"/><path d="M190.70,20.89L190.70,25.92"/><path d="M191.65,64.99L192.51,65.49L192.78,65.70L192.83,65.78"/><path d="M191.39,61.46L197.76,65.14"/><path d="M192.51,65.49L192.51,64.89"/><path d="M197.76,69.00L197.68,69.06L197.31,69.22L196.87,69.30L196.41,69.30L195.98,69.22L195.61,69.06L194.75,68.57L194.48,68.35L194.34,68.10L194.34,67.84L194.48,67.59L194.75,67.37L195.12,67.22L195.55,67.14L196.01,67.14L196.44,67.22L196.81,67.37L197.68,67.87L197.76,67.94"/><path d="M196.81,67.37L196.81,67.97L196.44,67.82L196.01,67.73L195.55,67.73L195.12,67.82L194.75,67.97L194.48,68.18L194.43,68.27"/><path d="M196.21,30.63L196.21,31.32L196.25,31.70L196.37,32.11L196.82,32.07L198.12,35.41L197.67,35.45L196.37,32.11"/><path d="M197.07,73.29L197.45,73.44L197.62,73.44L197.78,73.43L198.05,73.28L198.22,72.99L198.28,72.59L198.28,36.20L198.24,35.81L198.12,35.41L205.01,31.43L203.71,28.09L196.82,32.07L196.75,31.84L196.73,31.62L196.21,31.32"/><path d="M196.38,28.31L196.49,28.37L196.21,28.21L196.21,26.22L196.64,25.48L196.73,25.43L196.73,23.24L196.74,23.17L196.76,23.10L196.80,23.04L196.85,22.98L196.90,22.94L196.38,22.64L196.33,22.68L196.26,22.77"/><path d="M196.38,22.64L197.76,21.85L198.28,22.15L196.90,22.94"/><path d="M196.81,67.97L197.68,68.47L197.68,67.87"/><path d="M196.49,28.37L196.64,28.46L196.73,28.41L196.73,31.62L203.62,27.64L203.64,27.86L203.71,28.09"/><path d="M197.76,72.30L198.28,72.59L205.17,68.62L205.17,32.22L198.28,36.20L197.76,35.90L197.76,72.30"/><path d="M204.90,69.33L204.94,69.30L198.05,73.28"/><path d="M197.68,68.47L197.76,68.54"/><path d="M197.76,35.90L197.74,35.68L197.67,35.45"/><path d="M198.28,22.15L199.14,22.64L199.14,26.35L199.19,26.69L199.34,26.94L199.57,27.07L199.85,27.08L200.17,26.95L200.49,26.71L200.78,26.37L201.01,25.98L201.16,25.56L201.21,25.16L200.69,24.86L200.64,25.26L200.49,25.68L200.26,26.07L199.98,26.41L199.66,26.65L199.34,26.78L199.24,26.78"/><path d="M201.16,63.17L202.28,62.53L202.39,62.45L202.49,62.33L202.56,62.20L202.61,62.06L202.63,61.93L202.63,49.82L202.11,49.52L202.92,47.44L202.11,46.30L202.63,46.59L202.63,34.48L202.61,34.37L202.56,34.29L202.49,34.24L202.39,34.24L202.28,34.28L201.16,34.93L201.06,35.01L200.96,35.12L200.88,35.26L200.84,35.40L200.82,35.53L200.82,47.64L200.01,49.72L200.82,50.86L200.82,62.97L201.16,63.17L201.06,63.21L200.96,63.21L200.88,63.17L200.84,63.09L200.82,62.97"/><path d="M202.28,62.53L201.77,62.23L200.82,62.77"/><path d="M200.69,24.86L200.69,21.15L201.55,19.66L202.07,19.96L201.21,21.45L201.21,25.16"/><path d="M200.69,21.15L201.21,21.45"/><path d="M202.63,61.93L202.11,61.63L202.09,61.76L202.05,61.90L201.97,62.04L201.87,62.15L201.77,62.23"/><path d="M202.11,61.63L202.11,49.52"/><path d="M202.11,46.30L202.11,34.38"/><path d="M201.55,19.66L202.93,18.86L202.98,18.84L203.03,18.84"/><path d="M202.07,19.96L203.45,19.16L203.50,19.14L203.55,19.14L203.59,19.16L203.61,19.21L203.62,19.26L203.62,21.45L203.70,21.40L204.13,21.65L204.13,23.64L203.70,24.38L203.62,24.43L203.62,27.64"/><path d="M202.63,49.82L203.43,47.74L202.63,46.59"/><path d="M202.92,47.44L203.43,47.74"/><path d="M202.63,34.48L202.28,34.28"/><path d="M203.57,19.16L203.04,18.85"/><path d="M202.93,18.86L203.45,19.16"/><path d="M203.62,21.35L203.70,21.40L203.64,21.36"/><path d="M204.94,69.30L205.11,69.01L205.17,68.62"/><path d="M205.17,32.22L205.13,31.84L205.01,31.43"/></g></g><g id="Actor_.1"><g style="stroke:#000000;stroke-width:0.071"><path d="M235.33,49.03L235.29,48.99L235.26,48.94L235.04,48.45L235.00,47.81L235.00,47.77L235.13,47.06L235.43,46.33L235.86,45.66L236.38,45.11L236.95,44.74L236.99,44.71L237.55,44.55L237.61,44.54L238.10,44.61L238.16,44.63L237.66,44.56L237.09,44.73L236.51,45.12L235.96,45.69L235.51,46.39L235.21,47.14L235.07,47.88L235.11,48.53L235.33,49.03L235.71,49.33L235.74,49.35L235.36,49.05L235.14,48.55L235.10,47.90L235.24,47.16L235.55,46.40L235.99,45.71L236.54,45.14L237.12,44.75L237.69,44.58L238.19,44.65L238.57,44.95L238.57,44.95"/><path d="M237.47,49.38L237.39,49.49L237.27,49.56L237.07,49.61L236.03,49.01L235.97,48.42L235.92,48.16L235.67,47.46L236.24,46.72L236.43,46.41L236.81,45.56L237.53,45.47L237.78,45.42L238.31,45.22L239.35,45.82L239.41,46.13L239.36,46.24L238.88,46.35L238.57,46.53L238.26,46.79L237.98,47.11L237.62,47.72L237.46,48.12L237.37,48.52L237.35,48.88L237.37,48.98L237.47,49.38L237.62,49.60L237.84,49.74L238.10,49.79L238.58,49.68L238.89,49.50L239.19,49.24L239.47,48.92L239.84,48.31L239.99,47.91L240.08,47.51L240.10,47.14L239.99,46.65L239.83,46.43L239.62,46.29L239.62,46.29L239.36,46.24"/><path d="M238.82,45.51L238.61,45.05L238.24,44.76L237.75,44.69L237.20,44.85L236.63,45.23L236.10,45.79L235.66,46.47L235.36,47.20L235.32,47.44L235.22,47.92L235.27,48.55L235.48,49.04L235.85,49.33L236.34,49.40L236.58,49.33"/><path d="M235.74,49.35L235.77,49.36L236.27,49.43L236.29,49.43L236.60,49.34"/><path d="M235.67,47.46L236.71,48.06L237.10,47.96L237.36,47.86L237.62,47.72"/><path d="M235.97,48.42L235.94,48.29L235.92,48.16"/><path d="M237.07,49.61L237.80,49.76L238.10,49.79"/><path d="M237.35,48.88L237.19,48.64L236.71,48.06"/><path d="M236.43,46.41L236.33,46.56L236.24,46.72"/><path d="M236.81,45.56L237.85,46.17L238.28,46.26L238.44,46.29L238.58,46.32L238.88,46.35"/><path d="M238.28,49.11L238.17,49.09L237.99,48.96L237.89,48.73L237.87,48.43L237.93,48.09L238.08,47.74L238.28,47.42L238.53,47.16L238.80,46.98L239.06,46.91L239.29,46.94L239.46,47.07L239.57,47.30L239.59,47.60L239.52,47.94L239.38,48.29L239.17,48.61L238.93,48.87L238.66,49.05L238.39,49.12L238.28,49.11"/><path d="M237.98,47.11L237.99,46.82L237.85,46.17"/><path d="M237.53,45.47L237.66,45.44L237.78,45.42"/><path d="M238.16,44.63L238.19,44.65"/><path d="M239.35,45.82L239.64,46.15L239.83,46.40L239.99,46.65"/><path d="M238.83,45.52L238.83,45.48L238.61,44.99L238.59,44.97L238.57,44.95"/></g></g><g id="Actor_.2"><g style="stroke:#000000;stroke-width:0.071"><path d="M145.37,70.25L145.19,69.90L145.14,69.44L145.22,68.91L145.43,68.36L145.74,67.84L146.12,67.40L146.55,67.09L146.81,67.00L146.97,66.94L147.35,66.95L147.00,66.76L146.63,66.74L146.20,66.90L145.78,67.21L145.39,67.64L145.08,68.16L144.88,68.71L144.80,69.24L144.85,69.70L145.03,70.05L145.32,70.25L145.66,70.44L145.37,70.25"/><path d="M147.35,66.95L147.64,67.14L147.83,67.47L147.89,67.93L147.82,68.45L147.63,69.01L147.32,69.53L146.94,69.97L146.52,70.29L146.52,69.75L146.79,69.54L147.05,69.25L147.24,68.90L147.37,68.54L147.42,68.19L147.38,67.90L147.29,67.74L147.26,67.68L147.06,67.56L146.81,67.55L146.54,67.65L146.26,67.85L146.01,68.14L145.80,68.48L145.67,68.84L145.61,69.19L145.65,69.49L145.76,69.72L145.95,69.85L146.20,69.86L146.47,69.77L146.45,70.33L146.03,70.47L145.66,70.44"/><path d="M146.45,70.26L146.52,70.29"/><path d="M146.52,69.75L146.17,69.55L146.45,69.34L146.70,69.05L146.90,68.70L147.03,68.34L147.08,68.00L147.04,67.70L146.95,67.55"/><path d="M146.47,69.77L146.13,69.57L145.85,69.67L145.73,69.66"/><path d="M146.17,69.55L146.17,69.60"/></g></g><g id="Actor_.3"><g style="stroke:#000000;stroke-width:0.071"><path d="M220.80,71.36L220.77,71.45L220.74,71.91L220.92,72.93L221.78,73.42L222.42,73.48"/><path d="M220.74,71.91L220.83,71.03L221.69,71.53L221.86,72.55L221.89,72.10L222.02,71.61L222.24,71.11L222.52,70.66L222.86,70.28L223.24,69.97L223.63,69.79L223.99,69.73L224.30,69.79L224.69,70.01L224.32,69.92L223.93,70.00L223.89,70.01L223.43,70.27L222.99,70.69L222.62,71.22L222.35,71.80L222.21,72.38L222.22,72.91L222.36,73.33L222.63,73.60L222.69,73.63L223.06,73.72L223.14,73.73L223.57,73.64L223.64,73.62L224.07,73.37L224.48,72.98L224.50,72.96L224.83,72.48L225.08,71.95L225.09,71.93L225.22,71.37L225.22,70.87L225.20,70.80L225.06,70.39L225.01,70.32L224.74,70.05L224.69,70.01"/><path d="M222.24,69.15L222.55,69.09L222.87,69.08L223.75,69.16L224.61,69.66L223.99,69.73L223.10,69.64L222.24,69.15L221.41,70.02L221.11,70.46L220.83,71.03"/><path d="M221.78,73.42L221.86,72.55L221.93,72.94L222.10,73.25L222.35,73.44L222.63,73.60"/><path d="M221.69,71.53L222.52,70.66L223.10,69.64"/><path d="M221.41,70.02L221.75,69.63L221.89,69.52"/><path d="M223.08,73.43L223.39,73.51L223.74,73.44L224.12,73.22L224.47,72.88L224.78,72.45L225.00,71.97L225.11,71.49L225.11,71.06L224.99,70.72L224.77,70.50L224.47,70.42L224.11,70.49L223.86,70.64L223.74,70.71L223.38,71.05L223.08,71.48L222.86,71.95L222.74,72.43L222.75,72.86L222.86,73.21L223.08,73.43"/><path d="M224.50,70.80L224.60,70.91L224.70,71.18L224.70,71.51L224.61,71.88L224.44,72.25L224.20,72.59L223.92,72.85L223.63,73.02L223.36,73.08L223.21,73.04"/><path d="M223.51,73.16L223.27,73.10L223.10,72.93L223.01,72.66L223.01,72.33L223.10,71.96L223.27,71.59L223.50,71.25L223.78,70.99L224.07,70.82L224.35,70.76L224.58,70.82L224.76,71.00L224.85,71.26L224.85,71.60L224.76,71.97L224.59,72.34L224.35,72.67L224.08,72.94L223.78,73.11L223.51,73.16"/><path d="M223.46,71.31L223.66,71.12L223.89,70.99L224.10,70.94L224.29,70.99L224.42,71.13L224.49,71.33L224.49,71.59L224.42,71.88L224.29,72.17L224.11,72.43L223.89,72.63L223.67,72.76L223.45,72.81L223.27,72.76L223.13,72.63L223.06,72.42L223.06,72.16L223.13,71.89"/><path d="M223.14,72.63L223.15,72.63L223.36,72.59L223.59,72.46L223.80,72.25L223.99,71.99L224.12,71.71L224.19,71.42L224.19,71.16L224.12,70.95L224.11,70.95"/><path d="M223.91,70.98L223.92,71.00L223.92,71.26L223.85,71.55L223.72,71.84L223.53,72.10L223.32,72.30L223.09,72.43L223.07,72.44"/><path d="M224.12,71.69L223.98,71.99L223.79,72.27"/><path d="M224.61,69.66L224.67,70.00"/></g></g><g id="Actor_.4"><g style="stroke:#000000;stroke-width:0.071"><path d="M194.03,105.87L194.03,106.19L194.13,106.62L194.20,106.92L194.29,107.19L194.53,107.58L194.79,107.78L195.13,107.95L195.52,108.07L195.27,107.90L195.06,107.70L194.78,107.39L194.62,107.58L194.53,107.58"/><path d="M194.11,105.88L193.71,105.46L193.56,104.99L193.57,104.93L193.67,104.46L193.71,104.41L194.05,103.98L194.61,103.64L194.65,103.62L195.35,103.40L196.13,103.31L196.93,103.37L197.65,103.56L198.23,103.88L198.27,103.91L198.67,104.32L198.70,104.37L198.85,104.84L198.87,104.90L198.76,105.37L198.41,105.81L197.84,106.16L197.11,106.39L196.29,106.48L195.47,106.42L194.72,106.21L194.11,105.88"/><path d="M193.94,105.22L193.80,104.79L193.90,104.36L194.22,103.96L194.73,103.65L195.40,103.44L196.14,103.35L196.89,103.41L197.57,103.59L197.62,103.63L198.12,103.89L198.48,104.27L198.62,104.70L198.53,105.13L198.21,105.53L197.69,105.85L197.03,106.06L196.29,106.14L195.54,106.08L194.86,105.90L194.31,105.60L193.94,105.22"/><path d="M193.56,104.99L193.56,105.03L193.71,105.50L194.11,105.92L194.72,106.25L195.47,106.45L196.29,106.51L197.11,106.42L197.62,106.26L197.84,106.19L198.41,105.84L198.76,105.41L198.87,104.93L198.87,104.90"/><path d="M193.56,105.03L193.56,105.06L193.72,105.53L193.73,105.55L194.13,105.97L194.15,105.98L194.74,106.30L195.00,106.37L195.48,106.50L196.29,106.56L197.10,106.48L197.62,106.31L197.81,106.25L198.37,105.90L198.39,105.89L198.74,105.46L198.76,105.44L198.86,104.96L198.87,104.93"/><path d="M194.78,107.39L194.78,106.31"/><path d="M195.25,105.18L195.53,105.33L195.87,105.42L196.25,105.45L196.62,105.41L196.96,105.30L197.22,105.14L197.38,104.94L197.43,104.72L197.36,104.51L197.17,104.32L196.90,104.16L196.55,104.07L196.17,104.04L195.80,104.08L195.47,104.19L195.37,104.25L195.20,104.35L195.04,104.55L194.99,104.77L195.07,104.98L195.25,105.18"/><path d="M195.52,108.07L196.22,108.14L196.66,108.11L197.08,108.02L197.44,107.88L197.28,107.86L197.14,107.78L196.96,107.62L196.47,108.02L196.22,108.14"/><path d="M197.44,107.88L197.90,107.57L198.08,107.34L198.22,107.01L198.07,107.32L197.90,107.57"/><path d="M196.96,107.62L196.96,106.49"/><path d="M198.39,105.89L198.39,106.64L198.22,107.01"/></g></g><g id="Actor_.5"><g style="stroke:#000000;stroke-width:0.071"><path d="M17.52,77.83L17.53,77.68L17.67,77.22L17.40,78.31L17.68,78.80L18.21,79.43L19.16,79.98L18.76,79.42L18.84,79.52L18.94,79.58L18.74,79.25L18.70,79.03L18.67,78.80L18.73,78.27L18.92,77.71L19.22,77.18L19.61,76.73L20.03,76.41L20.46,76.23L20.84,76.23L21.15,76.40L21.35,76.73L21.42,77.18L21.40,77.38"/><path d="M18.35,78.87L18.76,79.42L18.64,79.19L18.56,78.74L18.63,78.21L18.74,77.84L18.35,78.87L17.40,78.31"/><path d="M19.13,76.81L18.74,77.84L18.82,77.65L19.12,77.12L19.50,76.67L19.93,76.35L19.13,76.81L18.18,76.26L17.67,77.22L17.88,76.77L18.03,76.55"/><path d="M18.94,79.58L19.25,79.75L19.63,79.75L20.06,79.57L20.20,79.47"/><path d="M19.16,79.98L19.56,79.75"/><path d="M22.66,80.89L19.35,78.98L19.23,78.78L19.20,78.58L19.18,78.50L19.22,78.16L19.34,77.82L19.53,77.49L19.77,77.20L20.04,77.00L20.30,76.89L20.54,76.89L20.74,77.00L24.04,78.90L24.16,79.11L24.21,79.39L24.21,79.55L24.17,79.32L24.07,79.15L23.91,79.06L23.71,79.06L23.48,79.15L23.26,79.32L23.06,79.56L22.90,79.83L22.80,80.12L22.77,80.40L22.81,80.63L22.91,80.80L23.07,80.89L23.27,80.89L23.50,80.80L23.36,80.88L23.09,80.99L22.85,80.99L22.66,80.89L22.53,80.68L22.49,80.40L22.53,80.07L22.59,79.90L22.65,79.72L22.83,79.39L23.07,79.11L23.34,78.91L23.61,78.80L23.85,78.80L24.04,78.90"/><path d="M18.42,76.07L18.50,75.98L18.85,75.72L19.77,75.33L20.72,75.88L19.93,76.35L20.36,76.17L20.74,76.17L21.05,76.34L21.15,76.40"/><path d="M19.29,75.53L19.21,75.57L18.85,75.72L18.18,76.26"/><path d="M21.41,77.33L21.53,76.99L21.35,76.75"/><path d="M20.72,75.88L21.07,76.35"/><path d="M23.50,80.80L23.72,80.63L23.92,80.40L24.05,80.16L24.08,80.12L24.18,79.83L24.21,79.55"/></g></g><g id="Actor_.6"><g style="stroke:#000000;stroke-width:0.071"><path d="M36.38,151.54L36.38,150.95L43.27,146.97L43.06,146.81L42.86,146.58L42.71,146.32L42.61,146.04L42.58,145.78L35.69,149.75L35.72,150.02L35.82,150.30L35.97,150.56L36.17,150.78L36.38,150.95L48.95,158.20L49.64,157.81L50.16,158.10L50.10,158.50L49.93,158.79L49.66,158.94L49.33,158.95L48.95,158.80L39.85,153.55L36.38,151.54L36.01,151.26L35.67,150.87L35.40,150.41L35.23,149.92L35.17,149.45L35.69,149.75L35.69,110.37L35.17,110.08L35.17,149.45"/><path d="M35.17,110.08L36.03,108.58L36.55,108.88L35.69,110.37"/><path d="M36.03,108.58L41.20,105.60L41.34,105.68"/><path d="M36.55,108.88L41.72,105.90L41.20,105.60"/><path d="M38.37,140.37L38.47,140.37L38.58,140.33L38.23,140.13L38.25,140.24L38.30,140.33L38.37,140.37L38.36,140.36"/><path d="M38.23,140.13L38.23,128.02L37.43,126.87L38.23,124.80L38.23,112.69L38.25,112.55L38.30,112.41L38.37,112.28L38.47,112.17L38.58,112.09L39.52,111.54L39.52,123.46L40.33,124.60L39.53,126.67L39.52,138.79L39.51,138.92L39.46,139.06L39.38,139.19L39.28,139.31L39.18,139.39L38.23,139.93"/><path d="M38.58,140.33L39.70,139.68L39.80,139.60L39.90,139.49L39.97,139.36L40.02,139.22L40.04,139.09L40.04,126.98L39.52,126.68"/><path d="M39.18,139.39L39.70,139.68"/><path d="M39.52,123.46L40.04,123.75L40.85,124.90L40.04,126.98"/><path d="M39.52,111.54L39.69,111.44L40.04,111.64L40.04,123.75"/><path d="M40.04,139.09L39.52,138.79"/><path d="M40.85,124.90L40.33,124.60"/><path d="M40.04,111.64L40.02,111.53L39.97,111.45L39.90,111.40L39.80,111.40L39.69,111.44"/><path d="M41.14,150.80L41.19,150.71L41.46,150.50L41.83,150.34L42.27,150.26L42.72,150.26L42.91,150.30L43.16,150.34L43.53,150.50L43.53,149.90L43.16,149.75L42.72,149.67L42.27,149.67L41.83,149.75L41.46,149.90L41.19,150.12L41.05,150.37L41.05,150.50"/><path d="M41.05,150.37L41.05,150.63L41.19,150.88L41.46,151.10L42.32,151.59L42.69,151.75L43.13,151.83L43.58,151.83L44.02,151.75L44.39,151.59L44.66,151.38L44.70,151.29L44.66,151.21L44.39,151.00L44.39,150.40L43.53,149.90"/><path d="M41.72,105.90L42.58,106.40L42.58,145.78"/><path d="M42.58,106.40L42.27,106.22"/><path d="M43.53,150.50L44.39,151.00"/><path d="M43.27,146.97L49.64,150.65"/><path d="M44.70,151.29L44.80,151.13L44.80,150.86L44.66,150.61L44.39,150.40"/><path d="M49.64,154.51L49.56,154.58L49.19,154.73L48.75,154.81L48.29,154.81L47.86,154.73L47.49,154.58L46.63,154.08L46.36,153.86L46.22,153.61L46.22,153.35L46.36,153.10L46.63,152.88L47.00,152.73L47.43,152.65L47.89,152.65L48.32,152.73L48.69,152.88L48.69,153.48L49.56,153.98L49.64,154.05"/><path d="M48.69,153.48L48.32,153.33L47.89,153.25L47.43,153.25L47.00,153.33L46.63,153.48L46.36,153.70L46.31,153.78"/><path d="M49.64,121.41L50.16,121.71L57.05,117.73L57.01,117.35L56.89,116.94L55.59,113.60L48.70,117.58L48.25,117.62L48.13,117.21L48.09,116.83L48.61,117.13L48.63,117.35L48.70,117.58L50.00,120.92L49.55,120.96L49.62,121.19L49.64,121.41L49.64,157.81L49.61,158.03L49.51,158.20L49.36,158.29L49.17,158.29L48.95,158.20L48.95,158.80"/><path d="M48.25,117.62L49.55,120.96"/><path d="M48.09,116.83L48.09,113.72L47.57,113.42L47.95,113.64"/><path d="M47.57,113.42L47.57,111.43L48.01,110.69L48.52,110.99L48.61,110.94L48.09,110.64L48.01,110.69"/><path d="M48.26,113.82L48.52,113.97L48.09,113.72L48.09,111.73L48.52,110.99"/><path d="M48.52,113.97L48.61,113.92L48.61,117.13L55.50,113.15L55.52,113.37L55.59,113.60"/><path d="M47.57,111.43L48.09,111.73"/><path d="M48.09,110.64L48.09,108.45L48.10,108.39L48.12,108.32L48.16,108.25L48.21,108.19L48.26,108.15L48.78,108.45L50.16,107.66L49.64,107.36L48.26,108.15"/><path d="M48.09,108.45L48.61,108.75L48.61,110.94"/><path d="M49.56,153.98L49.56,153.38L49.64,153.45"/><path d="M48.69,152.88L49.56,153.38"/><path d="M48.78,108.45L48.73,108.49L48.68,108.55L48.64,108.61L48.62,108.68L48.61,108.75"/><path d="M49.93,158.79L56.82,154.81L56.78,154.84"/><path d="M56.82,154.81L56.99,154.52L57.05,154.13L50.16,158.10L50.16,121.71L50.12,121.32L50.00,120.92L56.89,116.94"/><path d="M50.16,107.66L51.02,108.15L51.02,111.86L51.07,112.20L51.22,112.45L51.45,112.58L51.73,112.59L52.05,112.46L52.37,112.22L52.66,111.88L52.89,111.49L53.04,111.07L53.09,110.67L52.57,110.37L52.52,110.77L52.37,111.19L52.14,111.58L51.86,111.92L51.54,112.16L51.22,112.29L51.12,112.29"/><path d="M54.16,148.04L54.27,147.96L54.36,147.84L54.44,147.71L54.49,147.57L54.51,147.44L54.51,135.33L55.31,133.25L54.51,132.10L54.51,119.99L54.49,119.88L54.44,119.80L54.36,119.75L54.27,119.75L54.16,119.79L53.04,120.44L52.94,120.52L52.84,120.63L52.76,120.77L52.72,120.91L52.70,121.04L52.70,133.15L51.89,135.23L52.70,136.37L52.70,148.48L52.72,148.60L52.76,148.68L52.84,148.72L52.94,148.73L53.04,148.68L54.16,148.04L53.65,147.74L52.70,148.28"/><path d="M53.04,148.68L52.70,148.48"/><path d="M52.57,110.37L52.57,106.66L53.43,105.17L53.95,105.47L53.09,106.96L53.09,110.67"/><path d="M53.09,106.96L52.57,106.66"/><path d="M53.65,147.74L53.75,147.66L53.85,147.55L53.92,147.41L53.97,147.27L53.99,147.14L54.51,147.44"/><path d="M53.99,147.14L53.99,135.03L54.80,132.95L55.31,133.25"/><path d="M53.99,135.03L54.51,135.33"/><path d="M53.99,119.89L53.99,131.81L54.80,132.95"/><path d="M53.99,131.81L54.51,132.10"/><path d="M54.16,119.79L54.51,119.99"/><path d="M53.95,105.47L55.33,104.67L54.81,104.37L54.86,104.35L54.91,104.35"/><path d="M53.43,105.17L54.81,104.37"/><path d="M55.45,104.67L54.92,104.36"/><path d="M55.33,104.67L55.38,104.65L55.43,104.65L55.46,104.67L55.49,104.72L55.50,104.77L55.50,106.96L55.58,106.91L56.01,107.16L56.01,109.15L55.58,109.89L55.50,109.94L55.50,113.15"/><path d="M57.05,154.13L57.05,117.73"/></g></g><g id="Actor_.7"><g style="stroke:#000000;stroke-width:0.071"><path d="M98.25,79.30L54.98,104.27L54.98,104.39"/><path d="M54.98,104.27L55.50,104.57L55.50,106.96L55.58,106.91L56.01,107.16L56.01,109.15L55.58,109.89L55.50,109.94L55.50,111.86L196.73,30.33L196.73,28.41L196.64,28.46L196.21,28.21L196.21,26.22L196.64,25.48L196.73,25.43L196.73,23.04L99.46,79.19"/><path d="M55.50,104.57L98.25,79.89"/><path d="M60.15,106.58L90.48,89.07L90.81,89.54L92.52,88.55L92.86,87.70L93.39,87.39L93.39,85.30L92.86,85.61L92.52,85.13L90.81,86.12L90.48,86.98L60.15,104.49L59.95,104.68L59.82,104.95L59.80,106.38L59.82,106.49L59.87,106.57L59.95,106.62L60.04,106.62L60.15,106.58L59.80,106.38"/><path d="M90.48,89.07L89.96,88.77L59.80,106.18"/><path d="M92.52,88.55L92.00,88.26L90.51,89.12"/><path d="M92.00,88.26L92.34,87.40L92.86,87.70"/><path d="M92.34,87.40L92.87,87.09L93.39,87.39"/><path d="M92.30,85.26L92.34,85.31L92.86,85.61"/><path d="M92.87,87.09L92.87,85.60"/><path d="M196.73,23.04L196.21,22.74L99.47,78.59"/><path d="M108.19,78.24L124.41,68.88L124.92,69.18L125.26,69.66L126.97,68.67L126.45,68.37L124.96,69.23"/><path d="M124.92,69.18L108.19,78.84L108.19,76.75L124.92,67.09L125.26,66.23L126.48,65.53L126.97,65.25L127.30,65.72L126.78,65.42L126.75,65.37"/><path d="M126.45,68.37L126.78,67.51L127.30,67.81L126.97,68.67"/><path d="M127.30,67.81L144.03,58.15L144.03,56.06L127.30,65.72"/><path d="M126.78,67.51L143.52,57.85L143.52,56.36"/><path d="M144.03,58.15L143.52,57.85"/><path d="M161.41,48.78L160.90,48.48L161.23,47.63L161.75,47.92L161.41,48.78L159.70,49.77L159.37,49.30L158.84,49.60L158.84,47.52L159.37,47.21L159.70,46.35L161.41,45.36L161.75,45.84L161.23,45.54L161.20,45.49"/><path d="M158.84,49.01L158.85,49.00L159.37,49.30"/><path d="M160.90,48.48L159.41,49.35"/><path d="M161.23,47.63L191.56,30.12L191.76,29.92L191.89,29.65L191.91,28.43"/><path d="M161.75,47.92L192.08,30.41L192.28,30.22L192.41,29.95L192.42,29.82L191.91,29.52"/><path d="M161.75,45.84L192.08,28.33L192.42,28.52L192.42,29.82"/><path d="M191.56,30.12L192.08,30.41"/><path d="M192.42,28.52L192.41,28.41L192.36,28.33L192.28,28.28L192.19,28.28L192.08,28.33"/></g></g><g id="Actor_.8"><g style="stroke:#000000;stroke-width:0.071"><path d="M40.28,187.57L40.35,187.10L40.36,187.04L40.40,186.99L40.72,186.55L41.26,186.20L41.29,186.18L41.98,185.94L42.76,185.84L43.55,185.88L44.04,186.00L44.29,186.06L44.89,186.37L44.93,186.39L45.35,186.80L45.38,186.84L45.56,187.31L45.57,187.37L45.50,187.85L45.17,188.29L44.62,188.65L43.91,188.90L43.10,189.00L42.27,188.96L41.51,188.77L41.07,188.55L40.88,188.45L40.46,188.04L40.28,187.57L40.28,187.61L40.46,188.08L40.88,188.49L41.51,188.81L42.27,188.99L43.10,189.04L43.91,188.93L44.10,188.87L44.62,188.69L45.17,188.33L45.50,187.88L45.49,187.91L45.48,187.94L45.15,188.37L45.14,188.39L44.60,188.74L43.89,188.98L43.10,189.09L42.28,189.05L41.53,188.86L40.92,188.55L40.90,188.54L40.48,188.13L40.46,188.10L40.28,187.64L40.28,187.61"/><path d="M40.59,186.93L40.52,187.37L40.65,187.71L40.69,187.79L41.07,188.16L41.64,188.45L42.33,188.62L43.08,188.66L43.82,188.57L44.47,188.34L44.96,188.02L45.17,187.74L45.26,187.62L45.33,187.18L45.16,186.76L44.78,186.38L44.21,186.10L43.52,185.92L42.77,185.88L42.03,185.98L41.38,186.20L40.88,186.53L40.59,186.93"/><path d="M40.74,188.39L40.74,189.16L40.92,189.56L41.05,189.86L41.22,190.09L41.68,190.41L41.84,190.38L42.16,190.14L42.43,190.40L42.65,190.55L42.90,190.67L42.46,190.63L42.05,190.54L41.68,190.41"/><path d="M41.22,190.09L41.06,189.84L40.92,189.56"/><path d="M41.75,187.42L41.71,187.32L41.74,187.10L41.89,186.90L42.14,186.73L42.47,186.62L42.84,186.57L43.22,186.59L43.57,186.68L43.86,186.82L44.06,187.01L44.14,187.23L44.10,187.45L43.95,187.65L43.70,187.81L43.38,187.93L43.00,187.97L42.63,187.95L42.28,187.87L41.99,187.72L41.79,187.53L41.75,187.42"/><path d="M42.90,190.67L43.60,190.60L43.85,190.43L44.34,189.93L44.43,190.06L44.51,190.11L44.60,190.12L44.85,189.73L44.93,189.45L45.10,188.73L45.10,188.41"/><path d="M42.16,190.14L42.16,189.02"/><path d="M43.60,190.60L43.99,190.48L44.33,190.32L44.60,190.12"/><path d="M44.34,188.83L44.34,189.93"/><path d="M45.50,187.88L45.57,187.41L45.57,187.37"/></g></g><g id="Actor_.9"><g style="stroke:#000000;stroke-width:0.071"><path d="M154.26,75.10L154.25,75.01L154.27,74.57L154.26,75.68L155.12,76.18L155.39,75.21L155.50,74.73L155.70,74.23L155.99,73.77L156.32,73.37L156.69,73.06L157.07,72.85L157.44,72.77L157.76,72.82L158.29,72.99L158.28,73.14"/><path d="M154.46,73.90L154.38,74.09L154.27,74.57L154.54,73.60L154.87,73.11L155.20,72.72L156.12,72.00L156.37,72.08L156.64,72.17L157.43,72.49L158.29,72.99"/><path d="M154.54,73.60L155.40,74.09L155.39,75.21L155.37,75.66L155.46,76.04L155.64,76.33L155.90,76.50L155.12,76.18"/><path d="M158.10,73.01L158.40,73.23L158.45,73.27L158.50,73.34L158.68,73.71L158.70,73.79L158.74,74.26L158.65,74.80L158.63,74.84L158.42,75.37L158.11,75.87L157.70,76.31L157.27,76.61L156.85,76.74L156.77,76.77L156.69,76.76L156.30,76.72L156.24,76.69L155.93,76.47L155.75,76.09L155.71,75.59L155.81,75.02L156.04,74.43L156.38,73.88L156.80,73.43L157.26,73.11L157.71,72.97L158.10,73.01L157.76,72.82L156.98,72.50L156.12,72.00"/><path d="M155.40,74.09L156.32,73.37L156.98,72.50"/><path d="M155.20,72.72L155.57,72.41L155.66,72.36"/><path d="M156.28,76.02L156.24,75.61L156.32,75.14L156.51,74.66L156.79,74.21L157.14,73.84L157.51,73.58L157.87,73.47L158.20,73.50L158.44,73.68L158.59,73.99L158.63,74.40L158.55,74.87L158.36,75.35L158.08,75.80L157.73,76.17L157.36,76.43L157.00,76.55L156.67,76.51L156.43,76.33L156.28,76.02"/><path d="M156.24,76.69L155.90,76.50"/><path d="M157.99,73.83L158.07,73.89L158.18,74.13L158.21,74.45L158.15,74.81L158.00,75.19L157.78,75.54L157.52,75.83L157.23,76.02L156.94,76.12L156.73,76.09"/><path d="M156.97,76.19L156.84,76.18L156.65,76.04L156.53,75.79L156.51,75.48L156.55,75.23L156.57,75.11L156.72,74.74L156.94,74.39L157.20,74.10L157.49,73.90L157.78,73.81L158.03,73.84L158.22,73.98L158.34,74.22L158.36,74.54L158.30,74.90L158.15,75.28L157.93,75.62L157.67,75.91L157.38,76.11L157.09,76.20L156.97,76.19"/><path d="M157.62,74.00L157.68,74.13L157.70,74.38L157.65,74.66L157.54,74.95L157.37,75.22L157.16,75.45L156.94,75.60L156.72,75.67L156.65,75.67"/><path d="M156.61,75.00L156.56,75.28L156.59,75.53L156.68,75.72L156.83,75.83L157.02,75.85L157.24,75.78L157.46,75.62L157.67,75.40L157.84,75.13L157.96,74.84L158.00,74.56L157.98,74.31L157.89,74.12L157.74,74.01L157.55,73.99L157.33,74.06L157.10,74.22L156.92,74.42"/><path d="M157.42,74.03L157.43,74.22L157.38,74.51L157.27,74.80L157.10,75.07L156.89,75.29L156.67,75.45L156.58,75.47"/><path d="M157.65,74.66L157.55,74.93L157.35,75.25"/></g></g><g id="Actor_.10"><g style="stroke:#000000;stroke-width:0.071"><path d="M86.95,133.58L86.94,133.74L87.08,134.32L87.39,134.72L87.34,134.68L87.04,134.28L87.01,134.23L86.88,133.66L86.88,133.61L86.92,132.94L87.14,132.21L87.50,131.50L87.99,130.88L88.54,130.41L88.57,130.39L89.15,130.11L89.68,130.06L89.74,130.06L89.80,130.08L89.26,130.13L88.67,130.41L88.10,130.90L87.60,131.54L87.22,132.28L86.99,133.04L86.95,133.58"/><path d="M90.72,131.23L90.61,130.77L90.32,130.38L89.88,130.20L89.35,130.26L88.78,130.53L88.23,131.01L87.74,131.63L87.37,132.35L87.15,133.09L87.10,133.77L87.24,134.34L87.53,134.73L87.97,134.90L88.50,134.85L88.68,134.77"/><path d="M89.23,134.40L89.09,134.55L88.91,134.65L88.64,134.75L87.60,134.15L87.78,133.41L87.79,133.25L87.82,133.09L87.81,132.24L88.85,132.84L89.27,132.79L89.57,132.73L89.86,132.62L89.62,132.99L89.43,133.39L89.30,133.79L89.23,134.40L89.28,134.73L89.40,134.99L89.58,135.18L89.98,135.30L90.27,135.26L90.58,135.13L90.89,134.92L91.36,134.43L91.60,134.06L91.79,133.66L91.92,133.26L91.98,132.65L91.93,132.32L91.81,132.06L91.63,131.87L91.23,131.75L90.94,131.79L90.77,131.86L90.63,131.92L90.32,132.13L89.86,132.62"/><path d="M88.69,134.77L88.48,134.87L88.46,134.88L87.92,134.93L87.89,134.93L87.87,134.92L87.42,134.74L87.39,134.72"/><path d="M87.42,134.74L87.11,134.34L86.98,133.76L87.02,133.05L87.25,132.30L87.63,131.56L88.09,130.97L88.13,130.92L88.70,130.43L89.29,130.15L89.83,130.09L90.28,130.28L90.24,130.26L89.80,130.08"/><path d="M87.78,133.41L87.82,133.09"/><path d="M87.81,132.24L88.51,131.66L88.74,131.41L89.25,130.72L89.87,130.93L90.07,130.99L90.49,131.10L91.54,131.70L91.65,131.84L91.63,131.87"/><path d="M88.64,134.75L89.32,135.07L89.58,135.18"/><path d="M89.30,133.79L89.20,133.50L88.85,132.84"/><path d="M88.74,131.41L88.62,131.53L88.51,131.66"/><path d="M90.16,134.63L90.41,134.61L90.67,134.48L90.94,134.25L91.17,133.96L91.34,133.62L91.44,133.27L91.47,132.95L91.40,132.69L91.26,132.50L91.06,132.42L90.81,132.44L90.54,132.57L90.28,132.80L90.05,133.09L89.87,133.43L89.77,133.78L89.75,134.10L89.81,134.36L89.95,134.55L90.16,134.63"/><path d="M90.32,132.13L90.37,131.89L90.30,131.32L89.25,130.72"/><path d="M90.07,130.99L89.97,130.96L89.87,130.93"/><path d="M90.30,131.32L90.69,131.51L90.97,131.63L91.23,131.75"/><path d="M90.28,130.28L90.30,130.30L90.60,130.70L90.62,130.72L90.74,131.24"/><path d="M91.81,132.06L91.65,131.84"/></g></g><g id="Actor_.11"><g style="stroke:#000000;stroke-width:0.071"><path d="M159.14,13.04L159.13,12.57L158.98,12.19L158.72,11.95L158.36,11.87L157.95,11.97L157.52,12.24L157.11,12.64L156.77,13.14L156.53,13.69L156.41,14.24L156.42,14.73L156.56,15.12L156.83,15.36L156.73,15.30L156.46,15.06L156.35,14.81L156.58,15.56L155.63,15.01L155.27,14.19L155.17,13.52L155.59,12.46L155.38,12.91L155.32,13.13"/><path d="M155.17,13.52L156.12,14.07L156.67,13.08L156.42,13.63L156.30,14.18L156.32,14.67L156.35,14.81L156.12,14.07"/><path d="M157.21,12.10L156.67,13.08L157.01,12.58L157.41,12.18L157.84,11.91L157.99,11.86L157.21,12.10L156.26,11.55L155.59,12.46L155.86,12.04L156.03,11.86"/><path d="M156.58,15.56L157.08,15.41"/><path d="M156.83,15.36L157.19,15.43L157.60,15.33L157.91,15.14"/><path d="M156.93,14.33L157.02,14.57L157.18,14.72L160.48,16.62L160.32,16.47L160.23,16.23L160.22,15.93L160.30,15.58L160.45,15.24L160.66,14.93L160.91,14.67L161.18,14.51L161.44,14.45L161.66,14.49L158.36,12.59L158.14,12.54L157.88,12.60L157.61,12.77L157.36,13.02L157.15,13.33L156.99,13.68L156.92,14.02L156.93,14.33"/><path d="M156.26,11.55L156.91,11.24L156.56,11.40L156.54,11.41"/><path d="M156.91,11.24L157.81,11.07L158.76,11.63L158.91,12.13"/><path d="M157.93,15.15L157.87,15.17"/><path d="M158.72,11.95L158.61,11.89L158.26,11.81L157.99,11.86L158.76,11.63"/><path d="M159.20,13.07L159.13,12.84"/><path d="M160.48,16.62L160.71,16.67L160.97,16.61L161.13,16.52L161.35,16.38L161.49,16.24L161.56,16.17L161.74,15.91L161.87,15.62L161.93,15.33L161.92,15.08L161.85,14.88L161.71,14.75L161.52,14.71L161.31,14.77L161.08,14.90L160.87,15.11L160.69,15.37L160.57,15.66L160.50,15.95L160.51,16.20L160.59,16.40L160.73,16.53L160.91,16.57L161.13,16.52"/><path d="M161.93,15.33L161.93,15.19L161.92,14.88L161.83,14.64L161.66,14.49"/></g></g><g id="Actor_.12"><g style="stroke:#000000;stroke-width:0.071"><path d="M63.93,152.22L63.58,152.02L63.33,151.77L63.19,151.38L63.18,150.89L63.30,150.35L63.55,149.80L63.89,149.30L64.29,148.91L64.72,148.65L65.13,148.55L65.48,148.62L65.83,148.82L66.09,149.05L66.24,149.43L66.26,149.91L66.14,150.46L65.91,151.00L65.58,151.51L65.18,151.91L64.75,152.19L64.34,152.30L63.98,152.24L64.29,151.65L64.52,151.69L64.80,151.62L65.08,151.44L65.34,151.17L65.56,150.84L65.71,150.48L65.79,150.12L65.78,149.81L65.68,149.56L65.51,149.40L65.27,149.36L65.00,149.42L64.72,149.59L64.46,149.85L64.24,150.18L64.08,150.54L63.99,150.90L64.00,151.22L64.09,151.47L64.26,151.63L63.93,152.22L63.67,151.97L63.53,151.58L63.52,151.09L63.65,150.55L63.89,150.00L64.23,149.50L64.64,149.11L65.06,148.84L65.47,148.74L65.83,148.82"/><path d="M63.98,152.24L63.93,152.21"/><path d="M64.29,151.65L64.25,151.63"/><path d="M65.34,149.37L65.43,149.61L65.44,149.93L65.37,150.28L65.21,150.64L64.99,150.97L64.73,151.24L64.45,151.42L64.18,151.49L64.09,151.48"/></g></g><g id="Actor_.13"><g style="stroke:#000000;stroke-width:0.071"><path d="M73.90,110.67L74.38,110.40L74.42,110.05L74.55,109.69L74.75,109.35L75.00,109.05L75.27,108.84L75.55,108.73L75.80,108.72L76.00,108.83L76.14,109.04L76.19,109.33L76.15,109.67L76.03,110.04L75.84,110.38L75.59,110.68L75.31,110.90L75.04,111.02L74.78,111.04L74.57,110.94L74.44,110.73L74.38,110.45L73.91,110.75L73.99,111.18L74.20,111.49L74.52,111.64L74.91,111.62L75.33,111.44L75.75,111.10L76.13,110.65L76.42,110.12L76.60,109.56L76.66,109.04L76.58,108.60L76.38,108.28L76.07,108.12L75.69,108.12L75.27,108.30L74.84,108.62L74.46,109.07L74.16,109.59L73.97,110.15L73.90,110.67L73.56,110.47L73.63,109.95L73.82,109.40L74.12,108.87L74.50,108.42L74.92,108.10L75.34,107.92L75.73,107.92L76.04,108.08L76.38,108.28"/><path d="M73.91,110.75L73.56,110.55L73.65,110.98L73.86,111.29L74.20,111.49"/><path d="M74.50,110.83L74.69,110.83L74.97,110.70L75.25,110.48L75.49,110.18L75.68,109.84L75.81,109.47L75.84,109.13L75.79,108.84L75.72,108.72"/><path d="M73.56,110.55L73.62,110.51"/><path d="M74.34,110.42L74.38,110.45"/></g></g><g id="Actor_.14"><g style="stroke:#000000;stroke-width:0.071"><path d="M36.90,169.49L37.02,169.28L37.24,169.10L42.41,166.12L42.72,165.99L43.08,165.92L43.46,165.92L43.82,165.99L44.13,166.12L53.78,171.68L54.00,171.86L54.12,172.07L54.12,172.29L54.00,172.50L53.77,172.68L48.61,175.66L48.30,175.79L47.94,175.86L47.56,175.86L47.19,175.79L46.89,175.66L46.89,176.26L37.24,170.69L37.24,170.09L37.02,169.92L36.90,169.71L36.90,169.49L36.90,170.30L37.02,170.51L37.24,170.69"/><path d="M37.24,170.09L46.89,175.66"/><path d="M44.15,169.70L44.12,169.64L43.87,169.45L43.53,169.30L43.13,169.23L42.72,169.23L42.32,169.30L41.98,169.45L41.73,169.64L41.70,169.70"/><path d="M41.60,169.52L41.73,169.75L41.98,169.94L42.32,170.09L42.71,170.16L43.13,170.16L43.53,170.09L43.87,169.94L44.12,169.75L44.25,169.52L44.25,169.28L44.12,169.05L43.87,168.85L43.53,168.71L43.13,168.63L42.72,168.63L42.32,168.71L41.98,168.85L41.78,169.00L41.73,169.05L41.60,169.28L41.60,169.52"/><path d="M46.89,176.26L47.19,176.39L47.56,176.45L47.94,176.46L48.30,176.39L48.61,176.26L48.61,175.66"/><path d="M47.14,172.93L46.90,172.73L46.77,172.50L46.77,172.26L46.90,172.03L47.14,171.83L47.48,171.69L47.88,171.62L48.30,171.62L48.70,171.69L49.04,171.83L49.28,172.03L49.41,172.26L49.41,172.50L49.28,172.73L49.04,172.93L48.70,173.07L48.30,173.14L47.88,173.14L47.48,173.07L47.14,172.93"/><path d="M49.31,172.68L49.29,172.63L49.04,172.43L48.70,172.29L48.30,172.21L47.88,172.21L47.48,172.29L47.14,172.43L46.90,172.63L46.87,172.68"/><path d="M48.61,176.26L53.78,173.27L53.77,172.68"/><path d="M53.78,173.27L54.00,173.10L54.12,172.89L54.12,172.29"/></g></g><g id="Actor_.15"><g style="stroke:#000000;stroke-width:0.071"><path d="M188.59,102.50L188.43,102.22L188.42,101.74L188.43,101.68L188.67,101.23L188.70,101.18L189.18,100.79L189.21,100.77L189.85,100.50L190.61,100.35L191.41,100.34L191.98,100.44L192.17,100.48L192.83,100.74L192.86,100.77L193.35,101.14L193.38,101.19L193.65,101.64L193.66,101.70L193.67,102.18L193.43,102.64L192.95,103.03L192.28,103.32L191.50,103.47L190.67,103.48L189.87,103.34L189.19,103.06L188.70,102.68L188.59,102.50"/><path d="M188.42,101.74L188.42,101.78L188.43,102.26L188.43,102.29L188.71,102.76L189.22,103.15L189.89,103.43L190.67,103.57L191.49,103.56L191.98,103.46L192.26,103.41L192.92,103.13L193.41,102.72L193.67,102.24L193.67,102.22L193.43,102.68L192.95,103.07L192.28,103.35L191.50,103.51L190.67,103.52L189.87,103.37L189.46,103.21L189.19,103.10L188.70,102.71L188.43,102.26"/><path d="M189.41,104.65L189.22,104.42L189.26,104.43L189.35,104.25L189.60,104.59L189.81,104.81L190.05,105.00L189.70,104.84L189.41,104.65"/><path d="M189.22,104.42L189.10,104.02L189.05,103.73L189.02,103.43L188.97,102.99L188.97,102.96"/><path d="M189.35,104.25L189.34,103.20"/><path d="M189.34,102.74L189.36,102.76L189.98,103.01L190.70,103.14L191.45,103.13L192.17,102.99L192.77,102.73L193.21,102.38L193.43,101.96L193.42,101.53L193.18,101.11L192.73,100.77L192.11,100.51L191.39,100.39L190.64,100.39L189.92,100.53L189.32,100.79L188.88,101.15L188.66,101.56L188.67,102.00L188.91,102.41L189.34,102.74"/><path d="M190.05,105.00L190.72,105.14L190.96,105.05L191.42,104.69L191.63,104.87L191.80,104.97L192.00,105.01L191.59,105.11L191.15,105.15L190.72,105.14"/><path d="M190.20,102.27L189.97,102.09L189.84,101.88L189.84,101.66L189.95,101.45L190.17,101.27L190.48,101.14L190.84,101.07L190.85,101.07L191.22,101.07L191.58,101.13L191.89,101.26L192.12,101.44L192.24,101.64L192.25,101.86L192.14,102.07L191.92,102.25L191.61,102.39L191.25,102.46L190.87,102.46L190.51,102.39L190.20,102.27"/><path d="M191.42,103.56L191.42,104.69"/><path d="M192.00,105.01L192.54,104.75L192.78,104.54L192.94,104.30L193.07,104.00L193.12,103.87L192.74,104.51L192.54,104.75"/><path d="M193.12,103.87L193.12,102.96"/><path d="M193.67,102.22L193.67,102.18"/></g></g><g id="Actor_.16"><g style="stroke:#000000;stroke-width:0.071"><path d="M155.26,33.51L155.29,33.34L155.44,32.88L155.13,33.97L155.36,34.51L155.84,35.20L156.79,35.75L156.44,35.13L156.59,35.33L156.69,35.39L156.48,35.07L156.40,34.64L156.44,34.11L156.52,33.87L156.62,33.56L156.91,33.02L157.29,32.56L157.71,32.22L158.10,32.04L158.14,32.03L158.53,32.01L158.85,32.16L158.75,32.10L158.43,31.95L158.04,31.97L157.75,32.08L157.61,32.16L157.19,32.50L156.81,32.96L156.52,33.50L156.34,34.05L156.29,34.58L156.38,35.01L156.44,35.13L156.08,34.52L156.96,32.48L158.55,31.67L158.81,32.14"/><path d="M155.13,33.97L156.08,34.52"/><path d="M156.96,32.48L156.01,31.93L155.44,32.88L155.68,32.43L155.83,32.22"/><path d="M156.69,35.39L157.01,35.54L157.41,35.52L157.83,35.33L157.92,35.25"/><path d="M156.79,35.75L157.24,35.53"/><path d="M161.75,34.67L158.45,32.76L158.25,32.67L158.00,32.68L157.73,32.80L157.47,33.01L157.24,33.30L157.05,33.64L156.94,33.99L156.91,34.31L156.97,34.59L157.10,34.78L160.40,36.69L160.27,36.49L160.21,36.22L160.24,35.89L160.36,35.54L160.54,35.21L160.77,34.92L161.04,34.71L161.30,34.59L161.55,34.57L161.75,34.67L161.88,34.86L161.94,35.14L161.94,35.31L161.89,35.08L161.78,34.92L161.61,34.84L161.41,34.85L161.19,34.95L161.12,35.00L160.97,35.13L160.77,35.37L160.62,35.65L160.53,35.94L160.50,36.21L160.54,36.44L160.66,36.60L160.82,36.68L161.03,36.67L161.25,36.57L161.47,36.39L161.49,36.37L161.67,36.15L161.82,35.87L161.91,35.58L161.94,35.31"/><path d="M156.01,31.93L156.68,31.45L156.32,31.69L156.26,31.75"/><path d="M156.68,31.45L157.59,31.12L158.55,31.67"/><path d="M158.85,32.16L159.06,32.47L159.15,32.91L159.13,33.16"/><path d="M159.15,33.17L159.26,32.91L159.09,32.62"/><path d="M160.40,36.69L160.60,36.78L160.85,36.77L161.11,36.65L161.25,36.57"/></g></g><g id="Actor_.17"><g style="stroke:#000000;stroke-width:0.071"><path d="M77.26,123.53L77.24,122.71L77.00,122.07L76.56,121.66L75.97,121.53L75.28,121.70L74.56,122.14L73.88,122.81L73.31,123.64L72.90,124.56L72.70,125.48L72.72,126.29L72.96,126.94L73.40,127.34L73.99,127.47L74.68,127.31L75.40,126.87L76.08,126.20L76.65,125.36L77.06,124.44L77.26,123.53L77.26,123.50L77.26,123.51"/><path d="M72.35,125.30L72.37,126.13L72.62,126.78L73.06,127.19L73.35,127.36L72.91,126.95L72.67,126.30L72.65,125.47L72.68,125.32L72.85,124.55L73.26,123.62L73.84,122.77L74.53,122.09L75.25,121.65L75.95,121.49L76.55,121.62L76.26,121.45L75.66,121.32L74.96,121.48L74.23,121.93L73.55,122.60L72.97,123.45L72.56,124.38L72.35,125.30L72.35,125.28L72.56,124.36L72.96,123.44L73.40,122.80L73.53,122.61L74.21,121.94L74.93,121.50L74.96,121.48"/><path d="M73.35,127.36L73.95,127.49L74.65,127.32L74.68,127.31"/><path d="M74.06,124.89L74.06,125.19L74.16,125.45L74.33,125.60L74.56,125.66L74.84,125.59L75.12,125.42L75.39,125.16L75.61,124.83L75.77,124.46L75.83,124.19L75.85,124.11L75.84,123.78L75.75,123.53L75.57,123.37L75.34,123.32L75.07,123.38"/><path d="M74.51,125.69L74.58,125.70L74.86,125.64L75.15,125.46L75.42,125.19L75.65,124.85L75.82,124.48L75.90,124.11L75.89,123.78L75.80,123.52L75.62,123.35L75.38,123.30L75.10,123.37L74.81,123.55L74.53,123.82L74.30,124.15L74.14,124.53L74.06,124.90L74.06,125.23L74.16,125.49L74.34,125.65L74.51,125.69"/><path d="M75.43,123.34L75.45,123.36L75.55,123.61L75.56,123.94L75.48,124.30L75.32,124.66L75.09,124.99L74.83,125.25L74.54,125.42L74.27,125.49L74.18,125.47"/><path d="M74.54,125.42L74.80,125.26L75.08,124.99L75.31,124.65L75.47,124.28L75.56,123.91"/><path d="M76.55,121.62L77.00,122.03L77.24,122.68L77.26,123.50"/></g></g><g id="Actor_.18"><g style="stroke:#000000;stroke-width:0.071"><path d="M82.95,116.29L83.21,116.76L83.76,117.44L84.62,117.94L84.33,117.41L84.18,117.09L84.13,116.68L84.18,116.21L84.33,115.72L84.56,115.24L84.87,114.79L85.22,114.41L85.60,114.14L86.31,113.58L85.45,113.08L84.48,113.50L84.12,113.74L83.76,114.06L83.21,115.07L83.05,115.59L82.92,116.24L82.95,116.29"/><path d="M83.78,116.73L84.33,115.72L84.62,114.55L85.60,114.14L85.97,113.98L86.33,113.95L86.64,114.04L87.12,114.35L86.79,114.16L86.39,114.16L85.93,114.34L85.48,114.68L85.07,115.16L84.75,115.72L84.54,116.31L84.47,116.87L84.54,117.35L84.75,117.70L85.07,117.89L84.56,117.62L84.33,117.41L83.78,116.73L82.92,116.24"/><path d="M83.60,114.36L83.44,114.59L83.21,115.07"/><path d="M84.62,117.94L84.92,117.81"/><path d="M84.62,114.55L83.76,114.06"/><path d="M84.48,113.50L84.85,113.34L84.94,113.30"/><path d="M85.15,117.42L85.23,117.55L85.50,117.70L85.83,117.71L86.20,117.56L86.57,117.28L86.90,116.89L87.17,116.43L87.34,115.95L87.40,115.49L87.34,115.10L87.17,114.81L86.90,114.66L86.57,114.65L86.32,114.75L86.20,114.80L85.83,115.08L85.50,115.47L85.23,115.93L85.06,116.41L85.00,116.87L85.06,117.26L85.15,117.42"/><path d="M85.07,117.89L85.13,117.92L85.22,117.92L85.62,117.93L85.69,117.90L86.12,117.74L86.55,117.41L86.58,117.38L86.95,116.95L86.95,116.94L87.24,116.44L87.43,115.91L87.44,115.87L87.51,115.33L87.44,114.88L87.42,114.80L87.22,114.46L87.17,114.39L87.12,114.35"/><path d="M86.80,115.03L86.75,115.00L86.49,114.99L86.20,115.11L85.91,115.32L85.65,115.63L85.45,115.98L85.32,116.36L85.27,116.72L85.32,117.02L85.45,117.25L85.65,117.36L85.91,117.37L86.20,117.25L86.49,117.04L86.75,116.73L86.95,116.38L87.09,116.00L87.13,115.64L87.09,115.34L86.95,115.11L86.80,115.03L86.93,115.25L86.98,115.56L86.93,115.91L86.80,116.29L86.60,116.65L86.34,116.95L86.05,117.17L85.76,117.28L85.50,117.28"/><path d="M85.62,117.01L85.63,117.01L85.47,116.92L85.36,116.75L85.33,116.51L85.36,116.23L85.46,115.97"/><path d="M85.63,117.01L85.83,117.01L86.05,116.93L86.27,116.76L86.47,116.52L86.63,116.25L86.74,115.95L86.77,115.68L86.74,115.44L86.63,115.27L86.47,115.17L86.27,115.17L86.05,115.26L85.83,115.43L85.65,115.64"/><path d="M85.42,116.84L85.53,116.84L85.75,116.75L85.97,116.58L86.17,116.35L86.33,116.07L86.43,115.78L86.47,115.50L86.43,115.27L86.38,115.17"/><path d="M86.18,115.21L86.20,115.35L86.16,115.62L86.06,115.92L85.90,116.19L85.70,116.43L85.48,116.60L85.35,116.65"/><path d="M85.65,117.36L85.65,117.36"/><path d="M86.34,116.04L86.15,116.37"/><path d="M86.95,115.11L86.75,115.00"/><path d="M86.31,113.58L86.75,114.11"/></g></g><g id="Actor_.19"><g style="stroke:#000000;stroke-width:0.071"><path d="M46.30,192.96L46.27,192.92L46.15,192.68L46.13,192.51L46.36,192.88L46.54,193.12L46.76,193.34L46.47,193.15L46.30,192.96"/><path d="M46.13,192.51L46.13,191.54"/><path d="M46.22,191.54L46.90,191.82L47.69,191.97L48.52,191.97L49.31,191.82L49.98,191.53L50.46,191.14L50.72,190.69L50.71,190.21L50.70,190.15L50.44,189.69L50.41,189.65L49.93,189.27L49.89,189.25L49.24,188.98L48.48,188.84L47.68,188.84L46.92,188.98L46.28,189.26L46.24,189.28L45.76,189.66L45.73,189.71L45.48,190.16L45.47,190.22L45.47,190.70L45.73,191.16L46.22,191.54"/><path d="M45.90,190.81L45.95,190.89L46.39,191.25L47.01,191.50L47.73,191.63L48.48,191.63L49.20,191.49L49.80,191.24L50.24,190.88L50.47,190.47L50.47,190.03L50.24,189.62L49.79,189.27L49.18,189.01L48.46,188.88L47.70,188.88L46.99,189.02L46.38,189.28L45.94,189.63L45.71,190.04L45.71,190.48L45.90,190.81"/><path d="M50.72,190.72L50.71,190.75L50.45,191.23L49.95,191.63L49.29,191.91L48.51,192.06L47.69,192.06L47.43,192.01L46.92,191.91L46.25,191.64L45.75,191.24L45.48,190.77L45.47,190.74L45.73,191.19L46.22,191.58L46.30,191.61L46.90,191.86L47.69,192.01L48.52,192.00L49.31,191.85L49.98,191.57L50.46,191.18L50.72,190.72L50.72,190.69"/><path d="M45.47,190.22L45.47,190.74"/><path d="M46.76,193.34L47.36,193.57L47.78,193.63L48.22,193.65L48.65,193.60L48.43,193.53L48.23,193.41L47.99,193.20L47.99,192.06"/><path d="M47.36,193.57L47.57,193.50L47.99,193.20"/><path d="M47.43,190.84L47.23,190.76L47.01,190.58L46.89,190.37L46.89,190.15L47.00,189.94L47.23,189.76L47.53,189.63L47.90,189.56L48.28,189.56L48.64,189.63L48.95,189.76L49.17,189.93L49.29,190.14L49.30,190.36L49.18,190.57L48.96,190.75L48.65,190.88L48.29,190.95L47.91,190.95L47.54,190.88L47.43,190.84"/><path d="M48.65,193.60L49.29,193.41L49.60,193.24L49.84,193.02L49.99,192.78L50.02,192.37L50.03,192.08L50.05,191.55"/><path d="M49.95,191.62L49.95,192.62L49.51,193.20L49.29,193.41"/><path d="M49.99,192.78L49.98,192.79L49.97,192.74L49.95,192.62"/></g></g><g id="Actor_.20"><g style="stroke:#000000;stroke-width:0.071"><path d="M73.95,155.59L73.09,155.10L72.69,156.10L72.56,157.26L72.99,157.59L73.68,158.07L74.54,158.56L74.11,158.23L73.90,158.00L73.77,157.65L73.74,157.22L73.81,156.75L73.98,156.26L74.23,155.78L74.55,155.34L74.91,154.99L75.06,154.89L75.28,154.74L75.66,154.61L76.01,154.60L76.30,154.72L75.60,154.24L74.91,154.99L73.95,155.59L73.81,156.75L73.42,157.75L74.11,158.23L74.45,158.43L74.20,158.13L74.08,157.68L74.11,157.14L74.28,156.55L74.57,155.97L74.95,155.46L75.39,155.07L75.85,154.84L76.28,154.79L76.63,154.92L76.30,154.72"/><path d="M73.42,157.75L72.56,157.26"/><path d="M72.63,156.66L72.62,156.57L72.69,156.10L72.86,155.62L72.98,155.39"/><path d="M73.09,155.10L73.44,154.67L73.79,154.35L74.75,153.75L75.60,154.24"/><path d="M74.45,158.43L74.51,158.45L74.86,158.58L74.95,158.59L75.36,158.54L75.43,158.51L75.87,158.29L76.29,157.92L76.31,157.90L76.66,157.44L76.92,156.92L76.93,156.90L77.08,156.34L77.11,155.83L77.09,155.76L76.98,155.32L76.93,155.26L76.68,154.95L76.63,154.92"/><path d="M73.79,154.35L74.16,154.10L74.25,154.06"/><path d="M74.88,158.23L74.71,158.01L74.62,157.65L74.64,157.21L74.77,156.73L75.01,156.25L75.33,155.84L75.69,155.52L75.81,155.46L76.06,155.33L76.41,155.28L76.70,155.39L76.90,155.64L77.00,156.00L76.98,156.44L76.84,156.93L76.60,157.40L76.29,157.81L75.93,158.13L75.55,158.32L75.20,158.37L74.91,158.26L74.88,158.23"/><path d="M74.54,158.56L74.64,158.50"/><path d="M76.39,155.67L76.51,155.82L76.58,156.10L76.57,156.44L76.46,156.82L76.28,157.18L76.03,157.51L75.75,157.75L75.46,157.90L75.19,157.94L75.08,157.90"/><path d="M75.34,158.02L75.11,157.94L74.96,157.75L74.88,157.47L74.90,157.12L75.00,156.75L75.19,156.38L75.43,156.06L75.66,155.86L75.71,155.81L76.01,155.66L76.28,155.63L76.50,155.71L76.66,155.90L76.73,156.18L76.72,156.53L76.61,156.90L76.43,157.27L76.18,157.59L75.90,157.84L75.61,157.99L75.34,158.02"/><path d="M75.37,156.14L75.58,155.95L75.81,155.84L76.02,155.81L76.19,155.87L76.32,156.02L76.37,156.24L76.36,156.51L76.28,156.80L76.14,157.08L75.95,157.33L75.73,157.53L75.50,157.64L75.29,157.67L75.12,157.60L75.00,157.45L74.94,157.24L74.95,156.97L75.03,156.70"/><path d="M75.99,155.81L76.02,155.85L76.07,156.07L76.06,156.34L75.98,156.63L75.83,156.91L75.64,157.16L75.43,157.35L75.20,157.47L75.02,157.49"/><path d="M75.64,157.17L75.82,156.92L75.98,156.60"/><path d="M75.79,155.85L75.80,155.91L75.79,156.18L75.71,156.47L75.56,156.75L75.37,157.00L75.16,157.20L74.95,157.30"/></g></g><g id="Actor_.21"><g style="stroke:#000000;stroke-width:0.071"><path d="M88.73,36.96L88.72,36.88L88.78,36.44L88.68,37.53L89.10,37.81L89.77,38.23L90.72,38.78L90.18,38.43L90.00,38.26L89.84,37.90L89.80,37.42L89.86,37.07L89.90,36.88L90.13,36.33L90.46,35.81L90.86,35.39L91.29,35.11L91.70,34.98L92.07,35.03L92.18,35.08L92.72,35.43L92.63,35.84"/><path d="M89.03,35.78L88.92,35.99L88.78,36.44L89.13,35.50L90.08,36.05L89.63,38.08L88.68,37.53"/><path d="M89.13,35.50L89.78,34.77L89.45,35.11L89.32,35.28"/><path d="M91.42,38.30L91.17,38.46L90.75,38.59L90.38,38.54L90.10,38.32L89.94,37.96L89.91,37.48L90.01,36.94L90.23,36.39L90.56,35.87L90.96,35.45L91.39,35.17L91.81,35.04L92.18,35.09L92.45,35.31L92.18,35.08L91.63,34.73L90.08,36.05"/><path d="M90.38,38.54L90.18,38.43L89.63,38.08"/><path d="M90.01,34.61L89.78,34.77L90.02,34.61"/><path d="M90.72,38.78L91.05,38.50"/><path d="M94.02,39.80L90.72,37.89L90.55,37.76L90.44,37.53L90.42,37.23L90.48,36.89L90.63,36.55L90.83,36.23L91.08,35.96L91.35,35.78L91.61,35.71L91.84,35.74L95.14,37.64L95.32,37.78L95.42,38.01L95.44,38.30L95.44,38.46L95.39,38.74L95.27,39.03L95.10,39.29L94.89,39.51L94.67,39.66L94.51,39.75L94.25,39.83L94.02,39.80L93.85,39.66L93.74,39.44L93.72,39.14L93.73,39.10L93.79,38.80L93.93,38.45L94.13,38.13L94.38,37.87L94.65,37.69L94.91,37.61L95.14,37.64"/><path d="M90.41,34.36L90.68,34.18L91.63,34.73"/><path d="M92.45,35.31L92.62,35.67L92.65,36.15L92.64,36.20"/><path d="M94.67,39.66L94.45,39.73L94.26,39.70L94.11,39.59L94.03,39.40L94.01,39.15L94.06,38.87L94.18,38.58L94.35,38.31L94.56,38.09L94.78,37.94L95.00,37.88L95.19,37.90L95.34,38.02L95.42,38.21L95.44,38.46"/></g></g><g id="Actor_.22"><g style="stroke:#000000;stroke-width:0.071"><path d="M212.59,66.83L212.37,67.44L212.78,67.36L213.20,67.12L213.61,66.74L213.96,66.26L214.22,65.72L214.36,65.17L214.38,64.67L214.26,64.26L214.02,63.99L213.68,63.88L213.28,63.94L212.85,64.17L212.44,64.54L212.08,65.02L211.81,65.56L211.66,66.11L211.64,66.62L211.75,67.03L211.98,67.31L212.31,67.43L212.55,66.82L212.33,66.74L212.18,66.56L212.11,66.29L212.13,65.96L212.23,65.59L212.40,65.24L212.64,64.93L212.91,64.68L213.19,64.53L213.45,64.49L213.67,64.57L213.83,64.74L213.91,65.01L213.90,65.34L213.81,65.70L213.63,66.05L213.40,66.37L213.14,66.62L212.85,66.78L212.59,66.83L212.24,66.63L212.24,66.63"/><path d="M211.98,67.31L211.64,67.11L211.40,66.83L211.29,66.42L211.32,65.91L211.47,65.36L211.74,64.82L212.09,64.34L212.51,63.97L212.93,63.75L213.33,63.68L213.67,63.79L214.02,63.99"/><path d="M212.26,66.66L212.55,66.82"/><path d="M212.24,66.63L212.51,66.58L212.79,66.42L213.06,66.17L213.29,65.86L213.46,65.50L213.55,65.14L213.56,64.81L213.48,64.54L213.44,64.50"/><path d="M212.37,67.44L212.32,67.41"/></g></g><g id="Actor_.23"><g style="stroke:#000000;stroke-width:0.071"><path d="M224.51,36.10L224.28,35.96L223.64,35.96L222.93,36.24L222.22,36.78L221.58,37.53L221.07,38.41L220.74,39.33L220.63,40.22L220.74,40.98L221.07,41.53L221.58,41.82L222.22,41.83L222.93,41.55L222.90,41.56L222.18,41.85L221.53,41.84L221.04,41.55"/><path d="M221.02,41.54L220.73,41.37L220.40,40.82L220.28,40.05L220.40,39.16L220.73,38.22L221.24,37.33L221.89,36.57L222.47,36.13L222.61,36.02L223.33,35.74L223.98,35.75L224.27,35.92L223.62,35.91L222.90,36.19L222.18,36.74L221.53,37.49L221.02,38.39L220.69,39.32L220.58,40.22L220.69,40.98L221.02,41.54L221.34,41.73"/><path d="M221.24,41.67L220.76,41.39"/><path d="M220.28,40.05L220.28,40.02L220.40,39.14L220.72,38.21L221.23,37.33L221.87,36.58L222.58,36.04L222.61,36.02"/><path d="M222.91,37.83L223.18,37.72L223.43,37.73L223.63,37.84L223.76,38.06L223.81,38.36L223.76,38.70L223.63,39.07L223.43,39.42L223.18,39.71L222.90,39.92L222.62,40.03L222.37,40.03L222.17,39.91L222.04,39.70L222.00,39.41"/><path d="M222.37,40.03L222.34,40.01"/><path d="M222.47,40.08L222.38,40.08L222.17,39.96L222.04,39.74L222.00,39.43L222.04,39.07L222.17,38.70L222.38,38.34L222.64,38.04L222.93,37.82L223.21,37.71L223.47,37.71L223.68,37.83L223.81,38.05L223.86,38.36L223.81,38.71L223.68,39.09L223.47,39.45L223.21,39.75L222.93,39.97L222.64,40.08L222.47,40.08"/><path d="M223.37,37.73L223.47,37.89L223.51,38.19L223.47,38.54L223.34,38.90L223.14,39.25L222.89,39.54L222.61,39.75L222.33,39.86L222.14,39.86"/><path d="M222.93,41.55L223.64,41.01L224.28,40.26L224.79,39.38L225.11,38.45L225.23,37.57L225.23,37.54L225.14,36.95"/><path d="M223.51,38.17L223.47,38.52L223.33,38.89L223.19,39.15L223.13,39.25L222.87,39.55L222.60,39.76"/><path d="M224.27,35.92L224.47,36.04"/><path d="M224.00,35.76L223.98,35.75L223.99,35.76"/><path d="M225.23,37.57L225.14,36.96"/></g></g><g id="Actor_.24"><g style="stroke:#000000;stroke-width:0.071"><path d="M220.79,52.14L220.78,52.04L220.74,51.63L220.84,52.70L221.70,53.19L222.40,53.34"/><path d="M224.79,49.96L224.84,50.00L225.07,50.32L225.12,50.38L225.14,50.46L225.23,50.89L225.19,51.42L225.02,51.99L224.74,52.51L224.39,52.96L224.36,52.99L223.94,53.34L223.51,53.55L223.44,53.57L223.02,53.60L222.94,53.60L222.88,53.57L222.54,53.42L222.30,53.10L222.20,52.64L222.24,52.09L222.42,51.50L222.72,50.93L223.12,50.43L223.56,50.06L224.02,49.84L224.44,49.81L224.79,49.96L224.40,49.73L224.11,49.62L223.76,49.63L223.38,49.77L223.00,50.04L222.64,50.39L222.33,50.82L222.09,51.31L221.93,51.81L221.86,52.28L221.76,51.21L220.91,50.71L220.74,51.63L220.81,51.16L220.85,51.03"/><path d="M220.91,50.71L221.21,50.17L221.52,49.75L222.40,48.94L222.69,48.94L222.99,48.97L223.83,49.15L224.69,49.65L224.71,49.92"/><path d="M221.70,53.19L221.86,52.28L221.90,52.69L222.03,53.03L222.25,53.27L222.54,53.42"/><path d="M221.76,51.21L222.64,50.39L223.26,49.43L222.40,48.94"/><path d="M221.52,49.75L221.88,49.39L222.00,49.31"/><path d="M222.86,53.06L223.01,53.26L223.29,53.38L223.63,53.35L224.01,53.18L224.37,52.87L224.69,52.46L224.94,52.00L225.09,51.51L225.12,51.06L225.04,50.69L224.85,50.43L224.57,50.31L224.22,50.33L223.97,50.45L223.85,50.51L223.48,50.82L223.16,51.22L222.91,51.69L222.77,52.17L222.73,52.62L222.82,53.00L222.86,53.06"/><path d="M224.51,50.69L224.64,50.86L224.70,51.15L224.68,51.50L224.56,51.88L224.37,52.24L224.12,52.55L223.84,52.79L223.55,52.93L223.28,52.95L223.19,52.91"/><path d="M223.43,53.04L223.21,52.94L223.06,52.74L223.00,52.45L223.02,52.21L223.03,52.10L223.14,51.73L223.33,51.36L223.58,51.05L223.87,50.81L224.16,50.67L224.42,50.65L224.64,50.74L224.79,50.95L224.86,51.24L224.83,51.59L224.71,51.96L224.52,52.33L224.27,52.64L223.99,52.88L223.70,53.02L223.43,53.04"/><path d="M223.16,51.69L223.08,51.96L223.06,52.23L223.11,52.45L223.22,52.61L223.39,52.68L223.60,52.67L223.82,52.56L224.04,52.38L224.24,52.13L224.39,51.85L224.48,51.56L224.50,51.29L224.45,51.06L224.33,50.90L224.16,50.83L223.95,50.85L223.73,50.95L223.51,51.14"/><path d="M223.15,52.51L223.30,52.49L223.52,52.39L223.74,52.20L223.94,51.96L224.09,51.67L224.17,51.38L224.20,51.11L224.15,50.89L224.11,50.83"/><path d="M223.08,52.31L223.25,52.23L223.47,52.05L223.67,51.80L223.81,51.52L223.90,51.23L223.92,50.96L223.90,50.87"/><path d="M223.26,49.43L224.11,49.62L224.69,49.65"/><path d="M224.09,51.65L223.92,51.98L223.74,52.20"/></g></g><g id="Actor_.25"><g style="stroke:#000000;stroke-width:0.071"><path d="M7.01,119.08L7.33,119.51L7.91,120.08L8.86,120.63L8.41,120.13L8.50,120.21L8.60,120.27L8.38,119.97L8.28,119.55L8.31,119.03L8.48,118.48L8.76,117.94L9.03,117.59L9.13,117.46L9.55,117.11L9.98,116.90L10.38,116.86L10.70,117.00L10.60,116.94L10.27,116.80L9.88,116.84L9.45,117.05L9.03,117.40L9.03,117.40L8.66,117.88L8.38,118.42L8.31,118.60L8.21,118.97L8.17,119.49L8.27,119.91L8.41,120.13L7.96,119.63L7.01,119.08L7.23,117.98L7.12,118.43L7.11,118.56"/><path d="M7.96,119.63L8.65,117.57L7.70,117.02L7.23,117.98L7.42,117.52L7.56,117.30"/><path d="M7.70,117.02L8.37,116.43L8.02,116.71L7.92,116.82"/><path d="M9.80,120.12L9.76,120.16L9.33,120.37L8.93,120.41L8.60,120.27"/><path d="M9.24,120.38L8.86,120.63"/><path d="M8.86,119.47L8.79,119.20L8.82,118.88L8.92,118.53L9.10,118.20L9.33,117.90L9.59,117.68L9.86,117.55L10.10,117.53L10.31,117.61L13.61,119.52L13.41,119.43L13.16,119.46L12.89,119.59L12.78,119.68L12.63,119.81L12.40,120.10L12.22,120.44L12.12,120.79L12.12,120.81L12.10,121.11L12.16,121.38L12.30,121.56L9.00,119.66L8.86,119.47"/><path d="M8.65,117.57L10.24,116.52L9.29,115.97L8.37,116.43L8.72,116.24L8.81,116.21"/><path d="M11.01,118.01L11.03,117.72L10.93,117.29L10.70,117.00"/><path d="M10.90,117.26L11.14,117.52L11.02,117.88"/><path d="M10.24,116.52L10.63,116.96"/><path d="M12.38,121.10L12.43,121.32L12.55,121.48L12.72,121.55L12.93,121.53L13.15,121.42L13.37,121.23L13.56,120.99L13.71,120.71L13.80,120.42L13.81,120.15L13.76,119.92L13.64,119.77L13.47,119.70L13.27,119.72L13.04,119.83L12.82,120.01L12.63,120.26L12.49,120.54L12.40,120.83L12.38,121.10"/><path d="M12.30,121.56L12.50,121.65L12.75,121.62L13.02,121.49L13.15,121.42"/><path d="M13.61,119.52L13.75,119.70L13.81,119.97L13.81,120.15"/></g></g><g id="Actor_.26"><g style="stroke:#000000;stroke-width:0.071"><path d="M212.29,47.31L211.96,47.18L211.74,46.89L211.64,46.47L211.67,45.96L211.83,45.41L212.10,44.87L212.46,44.40L212.87,44.04L213.30,43.82L213.70,43.77L214.03,43.88L214.27,44.16L214.38,44.57L214.36,45.08L214.21,45.63L213.95,46.17L213.59,46.65L213.18,47.02L212.75,47.25L212.35,47.32L212.58,46.71L212.84,46.66L213.12,46.51L213.39,46.27L213.62,45.95L213.80,45.60L213.90,45.24L213.91,44.91L213.83,44.64L213.68,44.45L213.46,44.38L213.20,44.41L212.92,44.55L212.65,44.79L212.41,45.10L212.23,45.46L212.13,45.82L212.11,46.15L212.18,46.43L212.32,46.62L212.54,46.70L212.29,47.31"/><path d="M214.03,43.88L213.69,43.69L213.36,43.57L212.96,43.62L212.53,43.84L212.12,44.20L211.75,44.67L211.48,45.21L211.32,45.76L211.29,46.27L211.40,46.69L211.62,46.98L211.96,47.18"/><path d="M212.30,47.29L212.35,47.32"/><path d="M212.58,46.71L212.25,46.52"/><path d="M212.54,46.70L212.27,46.55"/><path d="M213.44,44.38L213.49,44.44L213.56,44.71L213.55,45.04L213.45,45.40L213.28,45.76L213.05,46.07L212.78,46.31L212.49,46.47L212.24,46.51"/></g></g><g id="Actor_.27"><g style="stroke:#000000;stroke-width:0.071"><path d="M185.36,84.58L185.14,84.40L185.02,84.20L185.02,83.98L185.02,84.79L185.14,85.00L185.36,85.18L185.36,84.58L195.01,90.15L195.31,90.28L195.68,90.35L196.06,90.35L196.42,90.28L196.73,90.15L196.73,90.75L199.42,89.19"/><path d="M185.02,83.98L185.14,83.77L185.36,83.59L190.53,80.61L190.84,80.48L191.20,80.41L191.58,80.41L191.94,80.48L192.25,80.61L201.26,85.81L201.90,86.17L202.12,86.35L202.24,86.56L202.24,86.78L202.12,86.99L201.90,87.17L201.90,87.76L200.41,88.62"/><path d="M185.36,85.18L195.01,90.75L195.31,90.88L195.68,90.94L196.06,90.94L196.42,90.88L196.73,90.75"/><path d="M192.27,84.18L192.24,84.13L191.99,83.94L191.65,83.79L191.25,83.72L190.85,83.72L190.84,83.72L190.44,83.79L190.10,83.94L189.85,84.13L189.82,84.19"/><path d="M190.44,84.58L190.84,84.65L191.25,84.65L191.65,84.58L191.99,84.43L192.24,84.24L192.37,84.01L192.37,83.77L192.24,83.54L191.99,83.34L191.65,83.20L191.25,83.12L190.84,83.12L190.44,83.20L190.10,83.34L189.85,83.54L189.72,83.77L189.72,84.01L189.85,84.24L190.10,84.43L190.44,84.58"/><path d="M195.01,90.75L195.01,90.15"/><path d="M195.37,87.46L195.26,87.42L195.02,87.22L194.89,86.99L194.89,86.75L195.02,86.52L195.26,86.32L195.60,86.18L196.00,86.11L196.42,86.11L196.82,86.18L197.16,86.32L197.41,86.52L197.53,86.75L197.54,86.99L197.41,87.22L197.16,87.42L196.82,87.56L196.42,87.63L196.00,87.63L195.60,87.56L195.37,87.46"/><path d="M197.44,87.17L197.41,87.12L197.16,86.92L196.82,86.78L196.42,86.70L196.00,86.70L195.60,86.78L195.26,86.92L195.02,87.12L194.99,87.17"/><path d="M196.73,90.15L201.90,87.17"/><path d="M201.90,87.76L202.12,87.59L202.24,87.38L202.24,86.78"/></g></g><g><g><path style="stroke:#a0a0a4;stroke-width:0.180;stroke-dasharray:0.6 0.6" d="M191.05,88.46L191.05,102.46"/><path style="stroke:#a0a0a4;stroke-width:0.180;stroke-dasharray:0.6 0.6" d="M191.05,69.81L191.05,84.65"/></g></g><g><g><path style="stroke:#a0a0a4;stroke-width:0.180;stroke-dasharray:0.6 0.6" d="M196.21,90.92L196.21,105.45"/><path style="stroke:#a0a0a4;stroke-width:0.180;stroke-dasharray:0.6 0.6" d="M196.21,72.79L196.21,87.63"/></g></g><g><g><path style="stroke:#a0a0a4;stroke-width:0.180;stroke-dasharray:0.6 0.6" d="M161.22,35.76L167.44,39.35"/><path style="stroke:#a0a0a4;stroke-width:0.180;stroke-dasharray:0.6 0.6" d="M170.21,40.95L171.50,41.70"/><path style="stroke:#a0a0a4;stroke-width:0.180;stroke-dasharray:0.6 0.6" d="M174.27,43.30L183.29,48.51"/><path style="stroke:#a0a0a4;stroke-width:0.180;stroke-dasharray:0.6 0.6" d="M197.76,56.86L186.35,50.27"/><path style="stroke:#a0a0a4;stroke-width:0.180;stroke-dasharray:0.6 0.6" d="M202.34,59.50L200.82,58.62"/></g></g><g><g><path style="stroke:#a0a0a4;stroke-width:0.180;stroke-dasharray:0.6 0.6" d="M161.22,15.64L183.29,28.39"/><path style="stroke:#a0a0a4;stroke-width:0.180;stroke-dasharray:0.6 0.6" d="M188.93,31.64L187.63,30.89"/><path style="stroke:#a0a0a4;stroke-width:0.180;stroke-dasharray:0.6 0.6" d="M197.76,36.74L191.70,33.24"/><path style="stroke:#a0a0a4;stroke-width:0.180;stroke-dasharray:0.6 0.6" d="M200.82,38.50L202.34,39.38"/></g></g><g><g><path style="stroke:#a0a0a4;stroke-width:0.180;stroke-dasharray:0.6 0.6" d="M202.93,59.84L211.70,64.90"/><path style="stroke:#a0a0a4;stroke-width:0.180;stroke-dasharray:0.6 0.6" d="M221.17,70.37L212.37,65.29"/></g></g><g><g><path style="stroke:#a0a0a4;stroke-width:0.180;stroke-dasharray:0.6 0.6" d="M202.93,39.72L211.70,44.78"/><path style="stroke:#a0a0a4;stroke-width:0.180;stroke-dasharray:0.6 0.6" d="M221.17,50.25L212.38,45.17"/></g></g><g><g><path style="stroke:#a0a0a4;stroke-width:0.180;stroke-dasharray:0.6 0.6" d="M201.67,26.62L220.98,37.77"/><path style="stroke:#a0a0a4;stroke-width:0.180;stroke-dasharray:0.6 0.6" d="M222.28,38.52L235.53,46.17"/></g></g><g><g><path style="stroke:#a0a0a4;stroke-width:0.180;stroke-dasharray:0.6 0.6" d="M131.56,60.07L94.72,38.80"/><path style="stroke:#a0a0a4;stroke-width:0.180;stroke-dasharray:0.6 0.6" d="M134.33,61.67L135.85,62.54"/></g></g><g><g><path style="stroke:#a0a0a4;stroke-width:0.180;stroke-dasharray:0.6 0.6" d="M136.44,62.88L145.21,67.95"/><path style="stroke:#a0a0a4;stroke-width:0.180;stroke-dasharray:0.6 0.6" d="M154.67,73.41L145.89,68.34"/></g></g><g><g><path style="stroke:#a0a0a4;stroke-width:0.180;stroke-dasharray:0.6 0.6" d="M42.92,173.97L42.92,187.97"/><path style="stroke:#a0a0a4;stroke-width:0.180;stroke-dasharray:0.6 0.6" d="M42.92,155.32L42.92,170.16"/></g></g><g><g><path style="stroke:#a0a0a4;stroke-width:0.180;stroke-dasharray:0.6 0.6" d="M48.09,176.43L48.09,190.95"/><path style="stroke:#a0a0a4;stroke-width:0.180;stroke-dasharray:0.6 0.6" d="M48.09,158.30L48.09,173.14"/></g></g><g><g><path style="stroke:#a0a0a4;stroke-width:0.180;stroke-dasharray:0.6 0.6" d="M35.17,133.37L13.10,120.62"/><path style="stroke:#a0a0a4;stroke-width:0.180;stroke-dasharray:0.6 0.6" d="M38.23,135.13L49.64,141.72"/><path style="stroke:#a0a0a4;stroke-width:0.180;stroke-dasharray:0.6 0.6" d="M52.70,143.48L54.22,144.36"/></g></g><g><g><path style="stroke:#a0a0a4;stroke-width:0.180;stroke-dasharray:0.6 0.6" d="M60.28,101.22L23.49,79.98"/><path style="stroke:#a0a0a4;stroke-width:0.180;stroke-dasharray:0.6 0.6" d="M64.61,103.72L63.05,102.81"/></g></g><g><g><path style="stroke:#a0a0a4;stroke-width:0.180;stroke-dasharray:0.6 0.6" d="M54.81,144.70L63.57,149.76"/><path style="stroke:#a0a0a4;stroke-width:0.180;stroke-dasharray:0.6 0.6" d="M73.04,155.23L64.25,150.15"/></g></g><g><g><path style="stroke:#a0a0a4;stroke-width:0.180;stroke-dasharray:0.6 0.6" d="M65.20,104.06L73.98,109.12"/><path style="stroke:#a0a0a4;stroke-width:0.180;stroke-dasharray:0.6 0.6" d="M83.44,114.59L74.65,109.51"/></g></g><g><g><path style="stroke:#a0a0a4;stroke-width:0.180;stroke-dasharray:0.6 0.6" d="M53.55,112.13L73.02,123.37"/><path style="stroke:#a0a0a4;stroke-width:0.180;stroke-dasharray:0.6 0.6" d="M87.41,131.68L74.32,124.12"/></g></g><g id="PMI6.0"><g><path style="stroke:#0085ca;stroke-width:0.200" d="M89.97,17.32L89.81,34.61"/></g><g><path style="fill:#0085ca" d="M90.81,34.61L90.80,34.51L90.79,34.42L90.76,34.32L90.73,34.23L90.69,34.14L90.64,34.06L90.58,33.98L90.51,33.90L90.44,33.84L90.36,33.78L90.28,33.73L90.19,33.69L90.10,33.65L90.00,33.63L89.90,33.62L89.81,33.61L89.71,33.62L89.61,33.63L89.52,33.65L89.42,33.69L89.33,33.73L89.25,33.78L89.17,33.84L89.10,33.90L89.03,33.98L88.97,34.06L88.92,34.14L88.88,34.23L88.85,34.32L88.82,34.42L88.81,34.51L88.81,34.61L88.81,34.71L88.82,34.81L88.85,34.90L88.88,34.99L88.92,35.08L88.97,35.17L89.03,35.25L89.10,35.32L89.17,35.38L89.25,35.44L89.33,35.49L89.42,35.53L89.52,35.57L89.61,35.59L89.71,35.61L89.81,35.61L89.90,35.61L90.00,35.59L90.10,35.57L90.19,35.53L90.28,35.49L90.36,35.44L90.44,35.38L90.51,35.32L90.58,35.25L90.64,35.17L90.69,35.08L90.73,34.99L90.76,34.90L90.79,34.81L90.80,34.71z"/></g><g><path style="fill:#0085ca" d="M86.61,17.32L93.38,17.32L93.38,10.55L86.61,10.55z"/><text xml:space="preserve" fill="#ffffff" stroke-width="0" x="89.10" y="15.42" font-size="2.75" opacity="1.00" font-family="Rubik Medium">6</text></g></g><g id="PMI1.0"><g><path style="stroke:#0085ca;stroke-width:0.200" d="M99.05,63.24L98.82,82.99"/></g><g><path style="fill:#0085ca" d="M99.82,82.99L99.81,82.89L99.80,82.79L99.77,82.70L99.74,82.60L99.70,82.52L99.65,82.43L99.59,82.35L99.52,82.28L99.45,82.21L99.37,82.16L99.29,82.11L99.20,82.06L99.11,82.03L99.01,82.01L98.91,81.99L98.82,81.99L98.72,81.99L98.62,82.01L98.52,82.03L98.43,82.06L98.34,82.11L98.26,82.16L98.18,82.21L98.11,82.28L98.04,82.35L97.98,82.43L97.93,82.52L97.89,82.60L97.86,82.70L97.83,82.79L97.82,82.89L97.82,82.99L97.82,83.09L97.83,83.18L97.86,83.28L97.89,83.37L97.93,83.46L97.98,83.54L98.04,83.62L98.11,83.69L98.18,83.76L98.26,83.82L98.34,83.87L98.43,83.91L98.52,83.94L98.62,83.97L98.72,83.98L98.82,83.99L98.91,83.98L99.01,83.97L99.11,83.94L99.20,83.91L99.29,83.87L99.37,83.82L99.45,83.76L99.52,83.69L99.59,83.62L99.65,83.54L99.70,83.46L99.74,83.37L99.77,83.28L99.80,83.18L99.81,83.09z"/></g><g><path style="fill:#0085ca" d="M95.71,63.24L102.48,63.24L102.48,56.47L95.71,56.47z"/><text xml:space="preserve" fill="#ffffff" stroke-width="0" x="98.41" y="61.33" font-size="2.75" opacity="1.00" font-family="Rubik Medium">1</text></g></g><g id="PMI7.0"><g><path style="stroke:#0085ca;stroke-width:0.200" d="M244.15,25.21L224.74,36.49"/></g><g><path style="fill:#0085ca" d="M225.74,36.49L225.73,36.39L225.72,36.30L225.70,36.20L225.66,36.11L225.62,36.02L225.57,35.94L225.51,35.86L225.45,35.78L225.37,35.72L225.29,35.66L225.21,35.61L225.12,35.57L225.03,35.53L224.93,35.51L224.84,35.50L224.74,35.49L224.64,35.50L224.54,35.51L224.45,35.53L224.36,35.57L224.27,35.61L224.18,35.66L224.10,35.72L224.03,35.78L223.97,35.86L223.91,35.94L223.86,36.02L223.81,36.11L223.78,36.20L223.76,36.30L223.74,36.39L223.74,36.49L223.74,36.59L223.76,36.69L223.78,36.78L223.81,36.87L223.86,36.96L223.91,37.05L223.97,37.13L224.03,37.20L224.10,37.26L224.18,37.32L224.27,37.37L224.36,37.41L224.45,37.45L224.54,37.47L224.64,37.49L224.74,37.49L224.84,37.49L224.93,37.47L225.03,37.45L225.12,37.41L225.21,37.37L225.29,37.32L225.37,37.26L225.45,37.20L225.51,37.13L225.57,37.05L225.62,36.96L225.66,36.87L225.70,36.78L225.72,36.69L225.73,36.59z"/></g><g><path style="fill:#0085ca" d="M244.15,26.63L250.92,26.63L250.92,19.86L244.15,19.86z"/><text xml:space="preserve" fill="#ffffff" stroke-width="0" x="246.75" y="24.73" font-size="2.75" opacity="1.00" font-family="Rubik Medium">7</text></g></g><g id="PMI2.0"><g><path style="stroke:#0085ca;stroke-width:0.200" d="M214.07,97.09L199.61,88.86"/></g><g><path style="fill:#0085ca" d="M200.61,88.86L200.61,88.76L200.59,88.66L200.57,88.57L200.54,88.48L200.50,88.39L200.45,88.30L200.39,88.22L200.32,88.15L200.25,88.09L200.17,88.03L200.09,87.98L200.00,87.93L199.90,87.90L199.81,87.88L199.71,87.86L199.61,87.86L199.52,87.86L199.42,87.88L199.32,87.90L199.23,87.93L199.14,87.98L199.06,88.03L198.98,88.09L198.91,88.15L198.84,88.22L198.78,88.30L198.73,88.39L198.69,88.48L198.66,88.57L198.63,88.66L198.62,88.76L198.61,88.86L198.62,88.96L198.63,89.05L198.66,89.15L198.69,89.24L198.73,89.33L198.78,89.41L198.84,89.49L198.91,89.57L198.98,89.63L199.06,89.69L199.14,89.74L199.23,89.78L199.32,89.82L199.42,89.84L199.52,89.85L199.61,89.86L199.71,89.85L199.81,89.84L199.90,89.82L200.00,89.78L200.09,89.74L200.17,89.69L200.25,89.63L200.32,89.57L200.39,89.49L200.45,89.41L200.50,89.33L200.54,89.24L200.57,89.15L200.59,89.05L200.61,88.96z"/></g><g><path style="fill:#0085ca" d="M214.06,102.41L220.84,102.41L220.84,95.64L214.06,95.64z"/><text xml:space="preserve" fill="#ffffff" stroke-width="0" x="216.57" y="100.50" font-size="2.75" opacity="1.00" font-family="Rubik Medium">2</text></g></g><g id="PMI3.0"><g><path style="stroke:#0085ca;stroke-width:0.200" d="M104.93,126.67L87.31,116.82"/></g><g><path style="fill:#0085ca" d="M88.31,116.82L88.31,116.72L88.29,116.63L88.27,116.53L88.23,116.44L88.19,116.35L88.14,116.27L88.08,116.19L88.02,116.12L87.94,116.05L87.87,115.99L87.78,115.94L87.69,115.90L87.60,115.87L87.51,115.84L87.41,115.83L87.31,115.82L87.21,115.83L87.12,115.84L87.02,115.87L86.93,115.90L86.84,115.94L86.75,115.99L86.68,116.05L86.60,116.12L86.54,116.19L86.48,116.27L86.43,116.35L86.39,116.44L86.35,116.53L86.33,116.63L86.32,116.72L86.31,116.82L86.32,116.92L86.33,117.02L86.35,117.11L86.39,117.21L86.43,117.29L86.48,117.38L86.54,117.46L86.60,117.53L86.68,117.60L86.75,117.65L86.84,117.70L86.93,117.75L87.02,117.78L87.12,117.80L87.21,117.82L87.31,117.82L87.41,117.82L87.51,117.80L87.60,117.78L87.69,117.75L87.78,117.70L87.87,117.65L87.94,117.60L88.02,117.53L88.08,117.46L88.14,117.38L88.19,117.29L88.23,117.21L88.27,117.11L88.29,117.02L88.31,116.92z"/></g><g><path style="fill:#0085ca" d="M104.93,131.95L111.70,131.95L111.70,125.18L104.93,125.18z"/><text xml:space="preserve" fill="#ffffff" stroke-width="0" x="107.40" y="130.04" font-size="2.75" opacity="1.00" font-family="Rubik Medium">3</text></g></g><g id="PMI4.0"><g><path style="stroke:#0085ca;stroke-width:0.200" d="M146.22,86.97L146.10,70.49"/></g><g><path style="fill:#0085ca" d="M147.10,70.49L147.10,70.39L147.08,70.30L147.06,70.20L147.03,70.11L146.98,70.02L146.93,69.93L146.88,69.86L146.81,69.78L146.74,69.72L146.66,69.66L146.57,69.61L146.49,69.57L146.39,69.53L146.30,69.51L146.20,69.50L146.10,69.49L146.00,69.50L145.91,69.51L145.81,69.53L145.72,69.57L145.63,69.61L145.55,69.66L145.47,69.72L145.40,69.78L145.33,69.86L145.27,69.93L145.22,70.02L145.18,70.11L145.15,70.20L145.12,70.30L145.11,70.39L145.10,70.49L145.11,70.59L145.12,70.69L145.15,70.78L145.18,70.87L145.22,70.96L145.27,71.05L145.33,71.12L145.40,71.20L145.47,71.26L145.55,71.32L145.63,71.37L145.72,71.41L145.81,71.45L145.91,71.47L146.00,71.49L146.10,71.49L146.20,71.49L146.30,71.47L146.39,71.45L146.49,71.41L146.57,71.37L146.66,71.32L146.74,71.26L146.81,71.20L146.88,71.12L146.93,71.05L146.98,70.96L147.03,70.87L147.06,70.78L147.08,70.69L147.10,70.59z"/></g><g><path style="fill:#0085ca" d="M142.86,93.74L149.63,93.74L149.63,86.97L142.86,86.97z"/><text xml:space="preserve" fill="#ffffff" stroke-width="0" x="145.29" y="91.84" font-size="2.75" opacity="1.00" font-family="Rubik Medium">4</text></g></g><g id="PMI5.0"><g><path style="stroke:#0085ca;stroke-width:0.200" d="M108.44,143.98L91.53,134.37"/></g><g><path style="fill:#0085ca" d="M92.53,134.37L92.52,134.27L92.51,134.17L92.49,134.08L92.45,133.99L92.41,133.90L92.36,133.81L92.30,133.73L92.24,133.66L92.16,133.60L92.08,133.54L92.00,133.49L91.91,133.45L91.82,133.41L91.72,133.39L91.63,133.37L91.53,133.37L91.43,133.37L91.33,133.39L91.24,133.41L91.15,133.45L91.06,133.49L90.97,133.54L90.89,133.60L90.82,133.66L90.76,133.73L90.70,133.81L90.65,133.90L90.60,133.99L90.57,134.08L90.55,134.17L90.53,134.27L90.53,134.37L90.53,134.47L90.55,134.56L90.57,134.66L90.60,134.75L90.65,134.84L90.70,134.92L90.76,135.00L90.82,135.08L90.89,135.14L90.97,135.20L91.06,135.25L91.15,135.29L91.24,135.33L91.33,135.35L91.43,135.36L91.53,135.37L91.63,135.36L91.72,135.35L91.82,135.33L91.91,135.29L92.00,135.25L92.08,135.20L92.16,135.14L92.24,135.08L92.30,135.00L92.36,134.92L92.41,134.84L92.45,134.75L92.49,134.66L92.51,134.56L92.52,134.47z"/></g><g><path style="fill:#0085ca" d="M108.44,149.29L115.21,149.29L115.21,142.52L108.44,142.52z"/><text xml:space="preserve" fill="#ffffff" stroke-width="0" x="110.93" y="147.38" font-size="2.75" opacity="1.00" font-family="Rubik Medium">5</text></g></g><g/><g id="paperID" visibility="hidden" opacity="0.00" transform="scale(0.000100)"><path style="stroke:#000000;stroke-width:0.500;fill:#e6e6e6;fill-rule:evenodd" d="M-2000.00,-2000.00L2297.00,-2000.00L2297.00,2210.00L-2000.00,2210.00zM0.00,0.00L297.00,0.00L297.00,210.00L0.00,210.00z"/><path style="fill:#000000;fill-opacity:0.118" d="M3.00,210.00L297.00,210.00L297.00,3.00L300.00,3.00L300.00,213.00L3.00,213.00z"/></g><g><g><path style="stroke:#000000;stroke-width:0.353;fill:#0085ca" d="M176.44,142.31L266.87,142.31L266.87,146.90L176.44,146.90z"/><text xml:space="preserve" fill="#ffffff" stroke-width="0" x="178.21" y="145.84" font-size="2.28" opacity="1.00" font-family="Rubik" font-weight="bold">Pos.</text><text xml:space="preserve" fill="#ffffff" stroke-width="0" x="186.99" y="145.84" font-size="2.32" opacity="1.00" font-family="Rubik" font-weight="bold">Part No</text><text xml:space="preserve" fill="#ffffff" stroke-width="0" x="206.43" y="145.84" font-size="2.25" opacity="1.00" font-family="Rubik" font-weight="bold">Qty.</text><text xml:space="preserve" fill="#ffffff" stroke-width="0" x="215.10" y="145.84" font-size="2.30" opacity="1.00" font-family="Rubik" font-weight="bold">Description</text><path style="stroke:#000000;stroke-width:0.353" d="M185.22,142.31L185.22,146.90"/><path style="stroke:#000000;stroke-width:0.353" d="M204.66,142.31L204.66,146.90"/><path style="stroke:#000000;stroke-width:0.353" d="M213.34,142.31L213.34,146.90"/></g><g id="Line1"><path style="stroke:#000000;stroke-width:0.353;fill:#ffffff" d="M176.44,146.90L266.87,146.90L266.87,151.48L176.44,151.48z"/><text xml:space="preserve" fill="#505050" stroke-width="0" x="178.21" y="150.42" font-size="2.40" opacity="1.00" font-family="Rubik">1</text><text xml:space="preserve" fill="#505050" stroke-width="0" x="186.99" y="150.42" font-size="2.53" opacity="1.00" font-family="Rubik">5A44064000</text><text xml:space="preserve" fill="#505050" stroke-width="0" x="206.43" y="150.42" font-size="2.40" opacity="1.00" font-family="Rubik">1</text><text xml:space="preserve" fill="#505050" stroke-width="0" x="215.10" y="150.42" font-size="2.53" opacity="1.00" font-family="Rubik">Ground bus</text><path style="stroke:#000000;stroke-width:0.353" d="M185.22,146.90L185.22,151.48"/><path style="stroke:#000000;stroke-width:0.353" d="M204.66,146.90L204.66,151.48"/><path style="stroke:#000000;stroke-width:0.353" d="M213.34,146.90L213.34,151.48"/></g><g id="Line2"><path style="stroke:#000000;stroke-width:0.353;fill:#e7f5fd" d="M176.44,151.48L266.87,151.48L266.87,156.07L176.44,156.07z"/><text xml:space="preserve" fill="#505050" stroke-width="0" x="178.21" y="155.01" font-size="2.36" opacity="1.00" font-family="Rubik">2</text><text xml:space="preserve" fill="#505050" stroke-width="0" x="186.99" y="155.01" font-size="2.53" opacity="1.00" font-family="Rubik">5A44064100</text><text xml:space="preserve" fill="#505050" stroke-width="0" x="206.43" y="155.01" font-size="2.36" opacity="1.00" font-family="Rubik">2</text><text xml:space="preserve" fill="#505050" stroke-width="0" x="215.10" y="155.01" font-size="2.55" opacity="1.00" font-family="Rubik">Ground Bus Clamp Plate</text><path style="stroke:#000000;stroke-width:0.353" d="M185.22,151.48L185.22,156.07"/><path style="stroke:#000000;stroke-width:0.353" d="M204.66,151.48L204.66,156.07"/><path style="stroke:#000000;stroke-width:0.353" d="M213.34,151.48L213.34,156.07"/></g><g id="Line3"><path style="stroke:#000000;stroke-width:0.353;fill:#ffffff" d="M176.44,156.07L266.87,156.07L266.87,160.65L176.44,160.65z"/><text xml:space="preserve" fill="#505050" stroke-width="0" x="178.21" y="159.59" font-size="2.39" opacity="1.00" font-family="Rubik">3</text><text xml:space="preserve" fill="#505050" stroke-width="0" x="186.99" y="159.59" font-size="2.54" opacity="1.00" font-family="Rubik">70016982</text><text xml:space="preserve" fill="#505050" stroke-width="0" x="206.43" y="159.59" font-size="2.36" opacity="1.00" font-family="Rubik">5</text><text xml:space="preserve" fill="#505050" stroke-width="0" x="215.10" y="159.59" font-size="2.54" opacity="1.00" font-family="Rubik">Hex Self-Locking Nut M10</text><path style="stroke:#000000;stroke-width:0.353" d="M185.22,156.07L185.22,160.65"/><path style="stroke:#000000;stroke-width:0.353" d="M204.66,156.07L204.66,160.65"/><path style="stroke:#000000;stroke-width:0.353" d="M213.34,156.07L213.34,160.65"/></g><g id="Line4"><path style="stroke:#000000;stroke-width:0.353;fill:#e7f5fd" d="M176.44,160.65L266.87,160.65L266.87,165.24L176.44,165.24z"/><text xml:space="preserve" fill="#505050" stroke-width="0" x="178.21" y="164.18" font-size="2.41" opacity="1.00" font-family="Rubik">4</text><text xml:space="preserve" fill="#505050" stroke-width="0" x="186.99" y="164.18" font-size="2.53" opacity="1.00" font-family="Rubik">70020314</text><text xml:space="preserve" fill="#505050" stroke-width="0" x="206.43" y="164.18" font-size="2.36" opacity="1.00" font-family="Rubik">5</text><text xml:space="preserve" fill="#505050" stroke-width="0" x="215.10" y="164.18" font-size="2.55" opacity="1.00" font-family="Rubik">Stainless Steel Spring Washer M10</text><path style="stroke:#000000;stroke-width:0.353" d="M185.22,160.65L185.22,165.24"/><path style="stroke:#000000;stroke-width:0.353" d="M204.66,160.65L204.66,165.24"/><path style="stroke:#000000;stroke-width:0.353" d="M213.34,160.65L213.34,165.24"/></g><g id="Line5"><path style="stroke:#000000;stroke-width:0.353;fill:#ffffff" d="M176.44,165.24L266.87,165.24L266.87,169.82L176.44,169.82z"/><text xml:space="preserve" fill="#505050" stroke-width="0" x="178.21" y="168.76" font-size="2.36" opacity="1.00" font-family="Rubik">5</text><text xml:space="preserve" fill="#505050" stroke-width="0" x="186.99" y="168.76" font-size="2.53" opacity="1.00" font-family="Rubik">70024158</text><text xml:space="preserve" fill="#505050" stroke-width="0" x="206.43" y="168.76" font-size="2.38" opacity="1.00" font-family="Rubik">6</text><text xml:space="preserve" fill="#505050" stroke-width="0" x="215.10" y="168.76" font-size="2.54" opacity="1.00" font-family="Rubik">Hex Self-Locking Nut M10 </text><path style="stroke:#000000;stroke-width:0.353" d="M185.22,165.24L185.22,169.82"/><path style="stroke:#000000;stroke-width:0.353" d="M204.66,165.24L204.66,169.82"/><path style="stroke:#000000;stroke-width:0.353" d="M213.34,165.24L213.34,169.82"/></g><g id="Line6"><path style="stroke:#000000;stroke-width:0.353;fill:#e7f5fd" d="M176.44,169.82L266.87,169.82L266.87,174.41L176.44,174.41z"/><text xml:space="preserve" fill="#505050" stroke-width="0" x="178.21" y="173.35" font-size="2.38" opacity="1.00" font-family="Rubik">6</text><text xml:space="preserve" fill="#505050" stroke-width="0" x="186.99" y="173.35" font-size="2.54" opacity="1.00" font-family="Rubik">70031469</text><text xml:space="preserve" fill="#505050" stroke-width="0" x="206.43" y="173.35" font-size="2.36" opacity="1.00" font-family="Rubik">5</text><text xml:space="preserve" fill="#505050" stroke-width="0" x="215.10" y="173.35" font-size="2.55" opacity="1.00" font-family="Rubik">Hex Head Screw M10x20, Stainless Steel</text><path style="stroke:#000000;stroke-width:0.353" d="M185.22,169.82L185.22,174.41"/><path style="stroke:#000000;stroke-width:0.353" d="M204.66,169.82L204.66,174.41"/><path style="stroke:#000000;stroke-width:0.353" d="M213.34,169.82L213.34,174.41"/></g><g id="Line7"><path style="stroke:#000000;stroke-width:0.353;fill:#ffffff" d="M176.44,174.41L266.87,174.41L266.87,178.99L176.44,178.99z"/><text xml:space="preserve" fill="#505050" stroke-width="0" x="178.21" y="177.93" font-size="2.41" opacity="1.00" font-family="Rubik">7</text><text xml:space="preserve" fill="#505050" stroke-width="0" x="186.99" y="177.93" font-size="2.53" opacity="1.00" font-family="Rubik">70048571</text><text xml:space="preserve" fill="#505050" stroke-width="0" x="206.43" y="177.93" font-size="2.36" opacity="1.00" font-family="Rubik">2</text><text xml:space="preserve" fill="#505050" stroke-width="0" x="215.10" y="177.93" font-size="2.55" opacity="1.00" font-family="Rubik">Washer M10  ISO 7093, Stainless Steel A2</text><path style="stroke:#000000;stroke-width:0.353" d="M185.22,174.41L185.22,178.99"/><path style="stroke:#000000;stroke-width:0.353" d="M204.66,174.41L204.66,178.99"/><path style="stroke:#000000;stroke-width:0.353" d="M213.34,174.41L213.34,178.99"/></g></g><g id="hotspot.0" ident="" onmouseover="ShowHotSpot(evt,&apos;0&apos;)" onmouseout="HideHotSpot(evt,&apos;0&apos;)" onmousemove="ShowToolTip(evt,&apos;0&apos;,&quot;Fillet1&quot;)" opacity="0"><path style="fill:#00ff00;fill-rule:evenodd" d="M176.44,146.90L176.44,151.48L266.87,151.48L266.87,146.90zM203.48,18.99L203.80,21.27L204.11,21.61L204.11,23.67L203.80,24.00L203.76,28.06L205.08,31.24L205.09,68.96L198.23,73.01L196.73,72.98L184.21,65.59L183.53,64.67L183.26,38.00L55.66,111.52L55.74,113.79L57.05,117.30L57.08,154.36L50.00,158.57L49.34,158.77L35.87,151.00L35.51,150.40L35.51,109.36L36.71,107.99L41.34,105.43L42.63,106.35L42.92,146.52L49.68,150.48L49.67,121.15L48.35,117.64L48.07,113.76L47.76,113.42L47.72,110.97L48.07,110.36L48.28,108.00L49.24,107.32L49.97,107.32L50.93,108.00L51.17,111.98L51.78,111.87L52.57,110.68L52.89,105.87L53.71,104.76L98.50,78.91L98.48,63.03L95.78,62.84L95.78,56.28L102.33,56.28L102.33,62.84L99.31,63.03L99.32,78.26L100.61,77.81L183.23,30.07L183.54,23.96L184.10,22.92L189.36,20.02L190.61,20.66L190.94,25.61L197.24,21.92L198.33,21.91L198.98,22.56L199.19,26.58L199.80,26.46L200.58,25.28L200.87,20.75L201.73,19.36L203.19,18.71zM187.44,27.54L186.44,28.18L186.40,26.83L187.29,26.07L187.43,26.12zM191.93,29.44L191.45,30.00L190.83,30.10L190.94,28.79L191.94,28.38zM197.69,35.42L197.67,64.79L197.08,64.65L191.27,61.10L190.94,60.79L190.83,33.50L196.10,30.63zM187.39,32.31L186.44,32.99L186.44,31.36L187.43,30.94zM187.74,37.98L188.36,38.91L187.71,40.65L187.44,53.54L186.44,54.18L186.14,42.15L185.67,40.89L186.13,39.71L186.44,36.18L187.00,35.69L187.40,35.71zM162.27,45.42L182.82,33.44L183.24,33.48L183.12,34.79L162.35,46.76L159.98,48.90L159.05,49.05L159.17,47.11L160.00,46.02L161.09,45.40zM202.19,46.33L202.81,47.26L202.15,49.32L201.89,61.89L200.89,62.53L200.59,50.50L200.12,49.24L200.58,48.06L200.85,35.18L201.74,34.42L201.88,34.47zM192.56,65.31L192.48,65.92L190.60,65.94L189.53,65.37L189.61,64.76L191.27,64.63zM127.87,65.28L143.45,56.30L143.45,57.72L126.95,67.23L126.38,68.27L125.32,68.85L124.33,68.84L108.42,77.95L108.32,76.53L124.76,66.97L125.98,65.60L126.74,65.32zM197.43,68.12L197.71,68.92L195.41,68.85L194.76,68.47L194.66,67.89L196.07,67.52zM92.70,85.46L92.70,86.92L92.04,87.87L90.98,88.77L89.69,88.69L59.94,105.88L59.93,104.56L90.42,86.89L90.99,85.85L92.42,85.17zM39.71,123.72L40.35,124.33L39.69,126.06L39.42,138.95L38.42,139.59L38.12,127.56L37.80,127.23L37.76,125.74L38.12,125.13L38.42,111.96L39.42,111.53zM54.13,131.78L54.78,132.67L54.14,134.41L53.86,147.29L53.57,147.66L52.77,147.94L52.56,135.91L52.25,135.58L52.21,134.09L52.57,133.48L52.87,120.30L53.87,119.88zM44.55,150.99L44.46,151.33L42.26,151.35L41.18,150.66L42.17,150.02L42.59,150.03zM49.68,153.95L49.69,154.29L49.28,154.59L48.04,154.58L46.43,153.88L46.41,153.38L48.71,153.25z"/></g><g id="hotspot.1" ident="" onmouseover="ShowHotSpot(evt,&apos;1&apos;)" onmouseout="HideHotSpot(evt,&apos;1&apos;)" onmousemove="ShowToolTip(evt,&apos;1&apos;,&quot;Base-Flange1&quot;)" opacity="0"><path style="fill:#00ff00;fill-rule:evenodd" d="M176.44,151.48L176.44,156.07L266.87,156.07L266.87,151.48zM202.18,86.17L202.20,87.24L200.87,88.21L200.87,89.03L214.08,96.52L214.26,95.46L220.81,95.46L220.81,102.01L214.26,102.01L214.09,97.36L200.90,89.67L198.98,89.39L196.63,90.68L195.08,90.68L185.15,84.86L185.15,83.70L190.49,80.37L192.24,80.37zM54.21,171.87L54.06,172.84L48.61,176.07L46.74,176.08L37.04,170.37L37.14,169.10L42.80,165.76L43.89,165.76zM192.22,83.91L192.16,84.21L189.92,84.21L189.87,83.91L190.49,83.56L191.60,83.56zM197.09,87.19L195.27,87.19L195.27,86.83L197.09,86.83zM43.93,169.71L41.79,169.71L41.79,169.35L43.93,169.35zM46.95,172.48L47.24,172.20L49.05,172.22L48.95,172.84L47.35,172.87z"/></g><g id="hotspot.2" ident="" onmouseover="ShowHotSpot(evt,&apos;2&apos;)" onmouseout="HideHotSpot(evt,&apos;2&apos;)" onmousemove="ShowToolTip(evt,&apos;2&apos;,&quot;ecfnyl10a2&quot;)" opacity="0"><path style="fill:#00ff00;fill-rule:evenodd" d="M176.44,156.07L176.44,160.65L266.87,160.65L266.87,156.07zM224.34,49.22L224.98,50.18L224.99,51.93L224.22,53.09L222.06,53.10L221.11,52.77L221.09,50.28L222.28,48.89L223.70,48.90zM224.63,69.48L224.99,70.08L224.99,72.16L223.90,73.31L222.38,73.33L221.01,72.78L221.13,70.23L222.27,69.12L224.03,69.12zM157.54,72.35L158.52,73.29L158.52,75.04L157.76,76.20L155.60,76.22L154.32,75.55L154.32,74.38L154.82,72.94L155.83,71.99zM87.24,114.41L87.46,115.36L88.53,116.96L104.91,126.07L105.09,125.00L111.64,125.00L111.64,131.55L105.09,131.55L104.92,126.90L88.53,117.60L86.60,117.32L85.84,117.65L84.84,117.67L83.71,117.28L83.01,116.34L83.01,115.48L84.03,113.57L84.86,113.10L85.95,113.10zM76.97,155.17L76.97,156.60L75.88,158.07L74.03,158.10L72.68,157.21L72.76,155.60L73.62,154.21L74.27,153.88L75.35,153.88z"/></g><g id="hotspot.3" ident="" onmouseover="ShowHotSpot(evt,&apos;3&apos;)" onmouseout="HideHotSpot(evt,&apos;3&apos;)" onmousemove="ShowToolTip(evt,&apos;3&apos;,&quot;Cut-Extrude1&quot;)" opacity="0"><path style="fill:#00ff00;fill-rule:evenodd" d="M176.44,160.65L176.44,165.24L266.87,165.24L266.87,160.65zM214.04,43.79L214.41,44.41L214.05,45.81L212.97,46.99L211.81,46.99L211.48,46.66L211.47,45.15L212.33,43.76L213.42,43.42zM214.41,64.32L214.05,66.04L213.09,67.01L212.12,67.25L211.49,66.89L211.46,65.05L212.65,63.66L213.74,63.65zM147.57,66.91L147.95,67.52L147.29,69.27L146.96,70.87L146.65,71.20L146.51,86.60L149.53,86.79L149.53,93.34L142.98,93.34L142.98,86.79L145.68,86.60L145.68,71.38L145.37,71.04L145.01,69.79L145.00,68.27L145.86,66.88L146.96,66.53zM76.67,108.63L76.67,109.38L75.56,111.20L74.06,111.20L73.74,110.88L73.72,109.36L74.91,107.96L76.00,107.96zM66.03,148.77L66.05,150.50L64.95,151.98L63.79,151.99L63.47,151.66L63.44,149.81L64.64,148.41L65.40,148.40zM213.53,44.61L212.96,46.05L212.35,46.16L212.45,44.84L213.01,44.36zM213.34,65.64L212.46,66.39L212.41,65.04L213.30,64.29L213.45,64.34zM147.07,67.73L146.49,69.16L145.88,69.27L145.98,67.96L146.54,67.47zM75.70,109.72L74.71,110.70L74.68,109.36L75.25,108.56L75.66,108.60zM65.52,149.62L64.96,151.02L63.99,151.14L64.07,150.49L64.67,149.39L65.40,149.39z"/></g><g id="hotspot.4" ident="" onmouseover="ShowHotSpot(evt,&apos;4&apos;)" onmouseout="HideHotSpot(evt,&apos;4&apos;)" onmousemove="ShowToolTip(evt,&apos;4&apos;,&quot;Schnitt-Rotation-Dnn2&quot;)" opacity="0"><path style="fill:#00ff00;fill-rule:evenodd" d="M176.44,165.24L176.44,169.82L266.87,169.82L266.87,165.24zM239.42,45.71L240.10,46.67L239.74,48.38L238.36,49.59L235.46,49.01L235.20,48.64L235.23,46.75L235.91,45.51L237.39,44.38L238.14,44.38zM193.53,101.23L193.52,102.32L193.20,102.66L192.89,104.28L192.14,104.80L189.95,104.80L189.33,104.46L189.02,102.84L188.71,102.51L188.69,101.03L189.85,100.27L192.24,100.27zM198.67,104.11L198.65,105.54L197.57,107.67L194.79,107.67L194.13,106.40L193.81,105.44L193.83,103.92L195.31,103.16L197.05,103.16zM90.78,131.09L91.76,131.72L92.07,133.33L92.61,134.40L108.44,143.40L108.63,142.34L115.17,142.33L115.17,148.89L108.62,148.89L108.45,144.24L92.41,134.97L89.45,134.98L88.88,134.65L87.55,134.65L87.22,134.32L87.20,131.83L88.70,130.13L90.15,130.11zM44.52,186.01L45.52,186.98L45.52,187.72L45.19,188.07L44.88,189.68L44.12,190.21L41.60,190.22L40.96,189.58L40.31,187.07L41.20,186.01L42.16,185.69L43.56,185.69zM50.66,189.86L50.66,190.61L49.88,192.76L48.59,193.44L47.74,193.43L46.43,193.10L46.14,191.46L45.83,191.13L45.81,189.33L46.65,188.89L49.36,188.89z"/></g><g id="hotspot.5" ident="" onmouseover="ShowHotSpot(evt,&apos;5&apos;)" onmouseout="HideHotSpot(evt,&apos;5&apos;)" onmousemove="ShowToolTip(evt,&apos;5&apos;,&quot;BearingFace&quot;)" opacity="0"><path style="fill:#00ff00;fill-rule:evenodd" d="M176.44,169.82L176.44,174.41L266.87,174.41L266.87,169.82zM158.52,11.33L159.38,13.04L160.44,13.59L161.75,14.54L161.75,15.64L161.38,16.27L160.09,16.18L158.18,15.16L156.24,15.23L155.63,14.87L155.17,13.28L155.95,11.78L157.12,10.99L157.86,10.99zM86.79,16.92L86.79,10.37L93.34,10.37L93.34,16.92L90.32,17.11L90.44,33.82L92.42,35.05L92.93,36.14L95.29,37.65L95.28,38.76L94.52,39.65L93.32,39.29L91.72,38.28L90.15,38.32L88.72,37.45L88.81,36.15L89.13,35.08L89.18,33.63L89.49,33.30L89.49,17.11zM159.49,33.16L161.71,34.46L161.74,35.87L161.28,36.40L160.09,36.42L158.53,35.41L156.57,35.47L155.64,34.77L155.17,33.51L156.18,31.60L156.77,31.23L158.21,31.23zM21.13,76.15L21.73,77.48L24.00,78.74L24.00,80.19L23.67,80.52L22.69,80.73L20.44,79.38L18.48,79.45L17.55,78.42L17.51,77.59L18.52,75.68L19.84,75.25zM10.88,116.95L11.12,117.92L13.74,119.52L13.72,120.63L13.27,121.16L11.79,121.14L10.16,120.16L8.25,120.20L7.28,119.22L7.26,117.71L8.22,116.43L8.78,115.99L9.52,115.98z"/></g><g id="hotspot.6" ident="" onmouseover="ShowHotSpot(evt,&apos;6&apos;)" onmouseout="HideHotSpot(evt,&apos;6&apos;)" onmousemove="ShowToolTip(evt,&apos;6&apos;,&quot;Imported1&quot;)" opacity="0"><path style="fill:#00ff00;fill-rule:evenodd" d="M176.44,174.41L176.44,178.99L266.87,178.99L266.87,174.41zM250.67,26.23L244.15,26.18L243.51,25.74L226.12,35.72L225.31,37.16L224.99,38.76L224.33,40.03L222.64,41.55L221.12,41.52L220.48,40.88L220.45,38.72L221.77,36.51L222.93,35.74L225.30,35.44L225.80,35.43L243.91,24.93L244.12,19.68L250.67,19.68zM76.64,121.47L77.30,122.43L77.29,123.51L76.18,125.95L74.28,127.29L72.79,126.92L72.43,126.32L72.44,124.77L73.60,122.40L74.60,121.48L75.70,121.18zM222.29,38.32L222.96,37.61L223.36,37.65L223.39,38.76L222.59,39.61L222.07,39.63zM75.38,124.48L74.90,125.04L74.28,125.14L74.38,123.83L74.94,123.34L75.34,123.38z"/></g></g></svg>