<?xml version="1.0" encoding="UTF-8" standalone="yes"?><svg xmlns="http://www.w3.org/2000/svg" xmlns:xlink="http://www.w3.org/1999/xlink" width="297.000mm" height="210.000mm" viewBox="0.000000 0.000000 297.000000 210.000000" stroke-linejoin="round" stroke-linecap="round" fill="none" fill-rule="evenodd"><desc>Composer Export</desc><script type="text/ecmascript"><![CDATA[
if(typeof(top) != "undefined")
{
	top.ShowPaper = ShowPaper;
}
function ShowHotSpot(evt,hotspotid)
{
	var svgDocument = evt.target.ownerDocument;
	var strId = "hotspot."+hotspotid;
	var hotspot = svgDocument.getElementById(strId);
	if(hotspot)
		hotspot.setAttribute("opacity",".5");
}
function HideHotSpot(evt,hotspotid)
{
	var svgDocument = evt.target.ownerDocument;
	var strId = "hotspot."+hotspotid;
	var hotspot = svgDocument.getElementById(strId);
	if(hotspot)
		hotspot.setAttribute("opacity","0");

	var toolTip = svgDocument.getElementById('ToolTip');
	if(toolTip)
		toolTip.setAttribute("visibility","hidden");
}
function ShowToolTip(evt,hotspotid,strTooltip)
{
	if(strTooltip=="")
	return;

	// change text
	var svgDocument = evt.target.ownerDocument;
	var tiptext = svgDocument.getElementById('ToolTipText');
	if( !tiptext )
	return;
	tiptext.firstChild.nodeValue = " " + strTooltip + "  " ;

	// show tooltip before, else some refresh issue

	var toolTip = svgDocument.getElementById('ToolTip');
	if(!toolTip)
	return;

	toolTip.setAttribute("visibility","visible");
	toolTip.setAttribute("opacity",".95");

	// move tooltip
	// get viewbox

	var root = svgDocument.documentElement;
	var vbox = (root.getAttribute("viewBox")).split(' ');
	var x0 = parseFloat(vbox[0]);
	var y0 = parseFloat(vbox[1]);
	var vboxW = parseFloat(vbox[2]);
	var vboxH = parseFloat(vbox[3]);

	// get default width of svg

	var strW = root.getAttribute("width");
	var svgW = parseFloat(strW);
	if(strW.indexOf('mm') != -1)
	svgW *= 3.779;

	var strH = root.getAttribute("height");
	var svgH = parseFloat(strH);
	if(strH.indexOf('mm') != -1)
	svgH *= 3.779;  	// 96 dpi  -> 96/25.4 = 3.779

	// update the viewbox / width / height if svg is embedded in html with zoom fit all
	var realx0 = x0;
	var realy0 = y0;
	var realvboxW = vboxW;
	var realvboxH = vboxH;
	var realsvgW = svgW;
	var realsvgH = svgH;

	if ((typeof(top) == "undefined") || (typeof(top.svgctl1) != "undefined")) // embedded in html
	{
		// get window size in pxl

		svgW = window.innerWidth;
		svgH = window.innerHeight;

		// calculate real viewbox

		realsvgW = svgW;
		realsvgH = svgH;
		if((svgW / svgH) > (vboxW / vboxH))
		{
			realvboxW = (vboxH * svgW) / svgH;
			realvboxH = vboxH;
			realx0 = x0 - (realvboxW - vboxW)/2 ;
		}
		else
		{
			realvboxH = (vboxW * svgH) / svgW;
			realvboxW = vboxW;
			realy0 = y0 - (realvboxH - vboxH)/2 ;
		}
	}

	// get user zoom/pan

	var newScale = root.currentScale;
	var translation = root.currentTranslate;

	// transform pxl to user unit

	var xPos = (((evt.clientX+10- translation.x)/newScale) * realvboxW)/realsvgW  + realx0 ;
	var yPos = (((evt.clientY+5- translation.y)/newScale) * realvboxH)/ realsvgH  + realy0 ;
	var scaleForWidth = ( (1 / newScale) * realvboxH) / realsvgH;

	// move tooltip

	toolTip.setAttribute("transform", "translate(" + xPos + "," + yPos + ")" );

	// resize tooltip

	var fontsize = 12;
	tiptext.setAttribute("font-size",fontsize*scaleForWidth);
	tiptext.setAttribute("y", fontsize*scaleForWidth);
	var tipBG = svgDocument.getElementById('ToolTipBG');
	var outline = tiptext.getBBox();
	if(tipBG)
	{
		tipBG.setAttribute("stroke-width", 1*scaleForWidth);
		tipBG.setAttribute("width", Number(outline.width) );
		tipBG.setAttribute("height", Number(outline.height) + fontsize*.5*scaleForWidth );
	}
	var ToolTipShadow = svgDocument.getElementById('ToolTipShadow');
	if(ToolTipShadow)
	{
		ToolTipShadow.setAttribute("width", Number(outline.width) );
		ToolTipShadow.setAttribute("height", Number(outline.height) + fontsize*.5*scaleForWidth );
		ToolTipShadow.setAttribute("x", 3*scaleForWidth);
		ToolTipShadow.setAttribute("y", 3*scaleForWidth);
	}
}
function ShowPaper()
{
  var svgDocument = getDocument();
  var paper = svgDocument.getElementById("paperID");
  if(paper)
  {
    paper.setAttribute("transform","scale(1)");
    paper.setAttribute("opacity","1");
    paper.setAttribute("visibility","visible");
  }
  var svg = svgDocument.getRootElement();
  if(svg)
  {
    svg.setAttribute("width","307.000mm");
    svg.setAttribute("height","220.000mm");
    svg.setAttribute("viewBox","-5.000000 -5.000000 307.000000 220.000000");
  }
}
]]></script><defs/><g><g id="Actor_.0"><g style="stroke:#000000;stroke-width:0.176"><path d="M145.51,16.47L145.67,16.74L145.98,16.98L146.40,17.15L146.89,17.24L147.40,17.23L147.89,17.14L148.30,16.97L149.81,16.09L150.12,15.85"/><path d="M145.49,15.95L145.51,16.24L145.68,16.52L145.99,16.75L146.41,16.92L146.90,17.00L147.41,17.00L147.89,16.91L148.30,16.73L148.30,16.97L148.06,17.42L148.05,17.43"/><path d="M148.84,8.47L148.84,5.71L148.24,5.96L147.54,6.10L146.79,6.10L146.08,5.98L145.47,5.73L145.01,5.39L144.76,4.99L144.73,4.56"/><path d="M145.24,4.55L145.42,4.23L145.77,3.95L145.77,5.50"/><path d="M144.79,4.06L144.93,4.14"/><path d="M145.95,17.22L146.19,17.41L146.53,17.55L146.92,17.63L147.33,17.63L147.73,17.56L148.06,17.42L149.51,16.58L149.57,16.54L149.82,16.35"/><path d="M149.95,15.30L149.82,15.52L149.59,15.71L149.26,15.86L148.88,15.93L148.77,15.94L148.67,15.95L148.58,15.98L148.51,16.02L148.47,16.07L148.44,16.13L148.43,16.19L148.30,16.41L148.05,16.60L147.72,16.74L147.33,16.81L146.92,16.81L146.53,16.73L146.20,16.59L145.96,16.40L145.83,16.18L145.83,15.94"/><path d="M146.50,11.56L146.50,14.11"/><path d="M145.79,14.22L145.79,11.31"/><path d="M146.63,5.78L147.31,5.39L147.79,5.18L148.36,5.08L148.95,5.08L149.14,5.11"/><path d="M145.77,3.95L147.31,3.06L147.31,5.39"/><path d="M147.69,5.76L147.69,5.68L147.47,5.80"/><path d="M147.69,5.68L148.01,5.54L148.39,5.47L148.52,5.47"/><path d="M146.88,2.88L146.85,2.87"/><path d="M147.31,3.06L147.79,2.86L148.36,2.75L148.95,2.75L149.52,2.86L150.00,3.06L150.35,3.34L150.54,3.66L150.54,4.01"/><path d="M148.30,16.73L149.81,15.86L149.81,16.09L149.58,16.54"/><path d="M148.01,15.83L148.01,15.73L148.07,15.61L148.13,15.57"/><path d="M148.07,16.19L148.07,15.71"/><path d="M148.07,15.61L148.04,15.59L147.97,15.71L148.01,15.73"/><path d="M148.04,15.59L148.10,15.55"/><path d="M148.04,16.17L148.04,15.77"/><path d="M147.97,15.71L147.97,15.81"/><path d="M148.77,15.94L148.77,11.14"/><path d="M148.44,16.13L148.44,11.32"/><path d="M148.48,11.31L148.48,8.62"/><path d="M149.02,10.21L149.02,9.99L149.35,9.80"/><path d="M149.02,9.99L149.05,10.01L149.05,10.22"/><path d="M149.05,9.95L149.05,9.74L149.02,9.72L149.02,9.94"/><path d="M149.02,9.62L149.02,9.42L149.16,9.27"/><path d="M149.02,9.72L149.19,9.63"/><path d="M149.05,9.74L149.27,9.62"/><path d="M149.05,9.64L149.05,9.44L149.02,9.42"/><path d="M149.02,9.32L149.02,9.11L149.03,9.10"/><path d="M149.06,8.64L149.06,8.81L149.02,8.85L149.02,9.10"/><path d="M149.02,8.85L149.05,8.87L149.05,9.11"/><path d="M149.05,8.87L149.09,8.83L149.09,8.64"/><path d="M149.02,9.11L149.05,9.13L149.05,9.34"/><path d="M149.05,9.13L149.38,8.93"/><path d="M149.02,8.62L149.02,8.45"/><path d="M149.05,8.64L149.05,8.47"/><path d="M148.84,5.71L149.22,5.49L149.27,5.62L149.27,7.49L149.87,8.43L149.91,8.53L149.94,8.62L149.95,8.71L149.94,8.79L149.90,8.85"/><path d="M149.81,15.86L150.11,15.62L150.28,15.34L150.28,15.05"/><path d="M149.56,16.56L149.57,16.54"/><path d="M149.38,9.82L149.05,10.01"/><path d="M149.12,10.19L149.12,10.33L149.12,10.43L149.14,10.49L149.16,10.52"/><path d="M149.99,8.79L149.99,10.44"/><path d="M149.25,10.31L149.26,10.31L149.27,10.30L149.28,10.29L149.29,10.27L149.29,10.09"/><path d="M149.26,10.10L149.26,10.24L149.29,10.26"/><path d="M149.26,10.24L149.25,10.26L149.24,10.28"/><path d="M149.21,10.54L149.18,10.53L149.16,10.48L149.15,10.35L149.12,10.33"/><path d="M149.15,10.35L149.15,10.17"/><path d="M149.35,8.92L149.09,9.07"/><path d="M149.35,9.41L149.24,9.42"/><path d="M149.38,9.43L149.21,9.45"/><path d="M149.27,9.21L149.05,9.44"/><path d="M149.06,8.81L149.09,8.83"/><path d="M149.17,8.74L149.27,8.63"/><path d="M149.17,8.69L149.22,8.63"/><path d="M149.87,8.43L150.62,7.99"/><path d="M149.22,8.25L149.22,5.49L150.36,4.83L150.79,4.48L151.03,4.08L151.04,3.65"/><path d="M149.27,7.49L150.03,7.06"/><path d="M149.27,5.62L150.03,5.18"/><path d="M150.28,15.28L150.28,15.27"/><path d="M150.36,4.83L150.36,7.57"/></g><g style="stroke:#000000;stroke-width:0.353"><path d="M149.95,14.61L150.13,14.77L150.28,15.05L150.28,15.57L150.12,15.85L149.82,16.35L149.80,16.37L149.56,16.56L148.05,17.43L147.71,17.57L147.33,17.64L146.93,17.64L146.54,17.57L146.20,17.43L145.97,17.23L145.95,17.22L145.50,16.46L145.49,16.17L145.49,15.95L145.62,15.66L145.83,15.78"/><path d="M144.93,4.14L144.73,4.56L144.73,7.32L144.76,7.75L145.01,8.15L145.25,8.33L145.25,13.61L145.43,13.94L145.79,14.22L145.89,14.26L146.01,14.29L146.14,14.29L146.26,14.27L146.37,14.23L146.45,14.17L146.50,14.11"/><path d="M146.88,2.88L145.47,3.70L145.44,3.68L144.79,4.06L144.68,4.22L144.68,10.83L145.25,11.16"/><path d="M149.22,8.25L148.84,8.47L148.24,8.72L147.54,8.86L146.79,8.86L146.08,8.74L145.47,8.49L145.25,8.33"/><path d="M145.24,4.55L145.24,4.90L145.42,5.22L145.77,5.50L146.26,5.70L146.82,5.81L147.42,5.81L147.98,5.70L148.47,5.50L150.00,4.61L150.35,4.34L150.54,4.01"/><path d="M145.83,15.94L145.83,14.24"/><path d="M148.95,8.41L149.70,8.84L149.78,8.87L149.84,8.88L149.90,8.85L150.53,8.49L150.52,9.83L150.34,10.16L149.99,10.44L149.40,10.78L148.48,11.31L148.00,11.51L147.43,11.62L146.83,11.62L146.27,11.51L146.01,11.42L145.79,11.31"/><path d="M150.36,7.59L150.79,7.25L151.03,6.84L151.04,6.41L151.04,3.65L150.82,3.24L150.40,2.88L150.16,2.77L149.81,2.62L149.11,2.47L148.36,2.46L147.64,2.57L147.51,2.49L146.85,2.87L146.82,2.92"/><path d="M148.07,15.71L148.01,15.83L147.97,15.81"/><path d="M148.10,15.55L148.13,15.57L148.13,16.15L148.07,16.19L148.04,16.17"/><path d="M149.02,10.21L149.05,10.22L149.15,10.17"/><path d="M149.35,9.41L149.38,9.43L149.38,9.76L149.05,9.95L149.02,9.94"/><path d="M149.02,9.62L149.05,9.64L149.27,9.62"/><path d="M149.02,9.32L149.05,9.34L149.27,9.21"/><path d="M149.02,9.10L149.05,9.11L149.38,8.71L149.38,8.66"/><path d="M149.09,8.64L149.05,8.64L149.02,8.62"/><path d="M149.95,15.30L149.95,12.16L150.01,12.12L150.08,12.06L150.11,11.99L150.11,10.34"/><path d="M149.95,12.16L149.95,10.46"/><path d="M149.29,10.09L149.24,10.11L149.24,10.29L149.24,10.30L149.25,10.31"/><path d="M149.16,10.52L149.21,10.54L149.23,10.55L149.25,10.54L149.27,10.53L149.29,10.51L149.32,10.49L149.34,10.46L149.36,10.41L149.38,10.32L149.38,10.21L149.38,9.82L149.35,9.80"/><path d="M149.35,8.92L149.38,8.93L149.38,9.27L149.21,9.45"/><path d="M149.27,8.63L149.17,8.64L149.17,8.74"/><path d="M150.53,8.49L150.65,8.41L150.69,8.36L150.71,8.28L150.70,8.19L150.67,8.09L150.62,7.99L150.03,7.06L150.03,5.18L149.98,5.05"/><path d="M150.53,7.84L150.52,7.46"/></g></g><g id="Actor_.1"><g style="stroke:#000000;stroke-width:0.176"><path d="M42.77,177.58L42.74,177.53L42.56,177.32L42.37,177.17L32.04,171.21L31.78,171.01L31.64,170.76L31.64,170.50"/><path d="M32.04,171.36L32.04,171.21"/><path d="M32.65,170.76L32.65,170.50L32.79,170.26L33.05,170.05L33.05,171.21"/><path d="M33.05,170.05L34.14,169.42"/><path d="M34.99,168.93L82.53,141.48L82.72,141.41L82.90,141.41L83.04,141.49"/><path d="M42.98,184.37L43.09,184.75L43.39,185.09L43.87,185.36L44.46,185.53L45.12,185.59L45.78,185.53L46.37,185.36L46.84,185.09L47.15,184.74L47.25,184.36"/><path d="M42.37,177.17L42.87,176.88"/><path d="M43.50,177.97L43.17,178.17"/><path d="M77.60,153.20L77.75,153.11"/><path d="M79.24,149.71L79.43,150.02"/><path d="M82.53,141.48L82.03,141.19"/></g><g style="stroke:#000000;stroke-width:0.353"><path d="M33.63,169.13L32.04,170.05L31.78,170.26L31.64,170.50L31.64,171.05"/><path d="M32.65,170.76L32.79,171.01L33.05,171.21L42.87,176.88L43.06,177.03L43.24,177.24L43.38,177.48L43.47,177.73L43.50,177.97L43.50,179.43"/><path d="M82.40,141.12L82.22,141.12L82.03,141.19L34.48,168.64"/><path d="M47.24,184.33L47.25,184.36L47.25,188.58L47.15,188.96L46.84,189.30L46.37,189.57L45.78,189.75L45.12,189.81L44.46,189.75L43.87,189.58L43.39,189.31L43.09,188.97L42.98,188.59L42.98,184.37L42.99,184.33"/><path d="M43.50,178.56L43.78,178.39"/><path d="M79.24,149.71L78.94,149.53L78.55,149.53L78.12,149.70L76.11,150.86L75.68,151.19L75.29,151.64L74.99,152.17L74.79,152.73L74.76,152.98"/><path d="M76.71,153.13L77.24,152.82"/><path d="M78.92,149.73L78.81,149.53"/><path d="M83.16,154.84L83.16,144.13"/><path d="M83.16,143.13L83.16,141.85L83.13,141.64L83.04,141.49L82.99,141.46"/></g></g><g id="Actor_.2"><g style="stroke:#000000;stroke-width:0.176"><path d="M43.78,179.11L43.78,179.10"/><path d="M44.38,163.51L44.88,163.80L44.88,164.96L44.38,165.25L43.99,164.94L43.78,164.57"/><path d="M44.38,177.70L44.38,179.50"/><path d="M44.38,173.42L44.38,165.25L47.77,167.21L47.77,176.45"/><path d="M78.45,153.92L78.45,153.68L73.68,153.31L73.23,153.25L72.81,153.13L72.45,152.96L69.06,151.01L68.70,150.85L68.27,150.78L67.83,150.78L67.40,150.85L67.04,151.01L44.88,163.80L44.62,164.01L44.48,164.25"/><path d="M48.18,182.22L48.18,179.13"/><path d="M47.77,181.75L47.77,178.89"/><path d="M48.27,166.92L47.77,167.21L47.96,167.35L48.10,167.51L48.18,167.68L48.18,176.69"/><path d="M49.51,170.38L48.80,170.44L48.18,167.68L48.88,167.63"/><path d="M48.80,179.45L48.80,184.97"/><path d="M48.80,177.05L48.80,170.44"/><path d="M66.54,150.72L67.04,151.01L67.04,153.84"/><path d="M69.56,150.72L69.06,151.01L69.06,153.50"/><path d="M72.95,152.67L72.45,152.96L72.45,153.49"/><path d="M73.77,152.91L73.68,153.31L73.68,153.51"/><path d="M78.45,153.68L78.54,153.27"/></g><g style="stroke:#000000;stroke-width:0.353"><path d="M43.78,177.94L43.78,179.11L43.99,179.48L44.11,179.58"/><path d="M43.78,173.07L43.78,164.19L43.99,163.82L44.38,163.51L66.54,150.72L67.08,150.49L67.72,150.37L68.39,150.37L69.02,150.49L69.56,150.72L72.95,152.67L73.19,152.78L73.47,152.86L73.77,152.91L78.54,153.27L78.54,153.94"/><path d="M44.48,164.25L44.48,164.51L44.62,164.75L44.88,164.96L48.27,166.92L48.56,167.13L48.77,167.37L48.88,167.63L49.51,170.38L49.51,177.46"/><path d="M49.51,179.15L49.51,184.92L48.80,184.97L48.18,182.22L48.10,182.05L47.96,181.89L47.77,181.75L47.25,181.45"/></g></g><g id="Actor_.3"><g style="stroke:#000000;stroke-width:0.176"><path d="M49.78,186.34L49.61,186.24L49.40,186.24L49.17,186.33L48.93,186.51L48.72,186.76L48.56,187.04L48.45,187.35L48.41,187.64L48.45,187.89L48.55,188.07"/><path d="M49.42,187.93L49.26,187.99L49.12,187.99L49.01,187.93L48.94,187.81L48.91,187.64L48.94,187.45L49.01,187.24L49.12,187.05L49.26,186.89L49.42,186.77L49.57,186.71L49.68,186.71L49.71,186.71L49.83,186.77L49.90,186.89L49.92,187.06"/></g><g style="stroke:#000000;stroke-width:0.353"><path d="M49.78,186.34L49.88,186.52L49.92,186.77L49.92,187.06L49.90,187.25L49.82,187.46L49.71,187.65L49.57,187.81L49.42,187.93L49.16,188.08L48.93,188.17L48.72,188.17L47.25,187.32"/><path d="M47.25,184.88L49.77,186.33"/></g></g><g id="Actor_.4"><g style="stroke:#000000;stroke-width:0.176"><path d="M110.30,138.00L110.30,142.66L112.80,147.10L117.55,150.87L124.09,153.61L131.77,155.05L139.85,155.05L147.53,153.61L152.74,151.58L152.81,151.53L152.85,151.48L152.87,151.43"/><path d="M159.44,142.86L157.07,146.80L152.95,150.05L147.43,152.47L140.73,153.91L133.64,154.15L129.04,153.65L122.85,152.02L117.43,149.27L113.69,145.76L111.90,141.79L112.18,137.75L112.26,137.61"/><path d="M159.45,140.79L157.88,144.98L154.17,148.67L151.26,150.17L148.65,151.52L141.87,153.25L134.50,153.69L127.26,152.79L120.85,150.64L119.06,149.71L115.91,147.45L112.91,143.54L112.16,139.28L112.17,139.26"/><path d="M112.41,135.28L112.41,139.56L114.11,142.58L114.71,143.63L119.06,147.09L125.06,149.60L129.14,150.54L132.11,150.92L134.70,150.92L139.52,150.92L146.56,149.60L152.55,147.08L156.91,143.62L158.99,139.92L159.20,139.55L159.19,135.28"/><path d="M112.66,154.84L113.77,158.96L117.03,162.69L119.07,164.10"/><path d="M157.64,109.14L156.06,112.99L152.51,116.37L150.92,117.16L147.32,118.95L141.01,120.47L134.17,120.80L129.65,120.33L127.51,119.89L121.65,117.84L120.49,117.06L117.18,114.84L114.54,111.20L113.97,107.26"/><path d="M117.86,111.72L115.46,109.37L114.31,106.76L114.32,106.67L114.37,106.60L114.44,106.53L114.54,106.48L114.66,106.45L115.79,109.00L118.14,111.30L118.01,111.39L117.95,111.47L117.90,111.56L117.86,111.72L118.01,111.81L118.23,111.87L118.40,111.84L118.51,111.74L118.56,111.63L118.58,111.47L118.52,111.42L118.49,111.37L118.49,111.38"/><path d="M114.24,100.33L114.28,100.18L114.40,100.02L114.56,99.88L114.76,99.78L114.76,100.76L114.69,100.90L114.67,101.00L114.67,101.21L114.60,101.21L114.51,101.23L114.45,101.27L114.41,101.33L114.40,101.40L114.40,105.57L114.28,105.50L114.24,105.45L114.23,105.40L114.23,101.23L114.26,101.06L114.35,100.92L114.46,100.84L114.68,100.76L114.83,100.76L115.40,100.84L115.33,100.98L115.30,101.11L115.31,101.29L115.30,105.99L115.23,106.27L115.17,106.40L115.05,106.58L114.66,106.45L114.55,106.24L114.47,106.01L114.43,105.85L114.40,105.57L115.31,105.88L115.44,105.94L115.53,106.01L115.58,106.11L115.57,106.20L115.51,106.32L115.42,106.42L115.30,106.51L115.16,106.56L115.05,106.58L116.13,108.94L118.26,111.05L118.14,111.30L118.23,111.39L118.35,111.47L118.45,111.45L118.47,111.42"/><path d="M114.31,106.76L114.27,106.50L114.28,106.47"/><path d="M114.23,105.45L114.23,105.40"/><path d="M114.22,104.60L114.23,104.74"/><path d="M114.23,100.39L114.22,100.43L114.23,101.23L114.24,101.28L114.28,101.33L114.40,101.40"/><path d="M114.67,101.21L115.44,101.30L115.52,101.34L115.58,101.43L115.58,106.11L116.62,108.39L118.49,110.24"/><path d="M114.68,99.75L114.71,99.75L114.76,99.78L115.40,99.43L115.33,99.40"/><path d="M118.68,106.34L118.68,105.76L116.63,103.73L115.58,101.43L115.58,101.37L115.62,101.29L115.69,101.21L115.84,101.13L115.83,101.10L115.74,100.97L115.59,100.88L115.40,100.84"/><path d="M115.84,101.13L116.88,103.39L118.89,105.38L118.81,105.45L118.75,105.54L118.70,105.63L118.68,105.72L118.68,105.76L118.75,105.84L118.79,105.95"/><path d="M115.40,99.43L115.64,99.26L115.77,99.12L116.86,96.74L118.87,94.73L118.82,94.72L118.76,94.74L118.77,94.65L118.80,94.55L118.90,94.43L119.04,94.35L118.85,94.07L118.69,94.17L118.63,94.25L118.59,94.34L118.58,94.44L118.77,94.73"/><path d="M115.84,98.97L115.74,99.00L115.66,99.05L115.60,99.12L115.59,99.17"/><path d="M132.80,91.75L136.67,92.37L139.99,93.58L142.74,95.37L144.52,97.58L145.09,100.13L144.45,102.37L142.64,104.55L140.68,105.89L138.43,106.90L136.56,107.48L134.81,107.85L130.36,108.18L125.96,107.70L122.02,106.46L118.94,104.58L117.02,102.24L116.45,99.68L117.27,97.13L119.42,94.86L122.68,93.08L126.73,91.97L129.62,91.67L131.94,91.69"/><path d="M128.52,91.75L126.68,91.89L122.58,93.01L119.27,94.81L117.10,97.12L116.26,99.69L116.84,102.29L118.79,104.66L121.91,106.57L125.89,107.82L130.36,108.31L134.86,107.97L138.96,106.85L142.26,105.05L144.44,102.75L145.28,100.17L144.69,97.57L142.75,95.20L139.63,93.29L135.65,92.04L132.80,91.73"/><path d="M120.37,166.90L120.30,166.83L119.96,166.29L119.92,166.17L119.82,165.41L119.07,164.97"/><path d="M118.47,111.67L118.51,111.74L119.06,113.94L120.11,113.00L119.88,112.78L119.70,112.52L119.60,112.29L119.56,112.04L119.72,112.09L119.82,112.09L120.91,111.93L120.91,107.34L121.07,107.29L121.20,107.27L121.33,107.29L121.38,107.31L121.38,111.98L121.34,112.22L121.28,112.36L121.21,112.50L121.06,112.66L121.02,112.60L120.95,112.33L120.91,111.93L121.08,111.92L121.24,111.94L124.91,113.17L129.02,113.80L129.16,113.85L129.26,113.92L129.79,114.45L129.79,110.27L129.74,110.05L129.63,109.84L129.69,109.70L129.76,109.63L129.93,109.51L129.54,108.97L129.36,108.81L129.15,108.72L125.04,108.08L121.54,106.91L121.45,107.06L121.41,107.15L121.38,107.31L124.94,108.50L128.86,109.10L129.01,109.13L129.14,109.21L129.26,109.33L129.25,114.02L129.20,114.15L129.12,114.28L129.02,114.39L128.89,114.47L128.80,114.51L129.02,114.74L124.55,114.07L120.62,112.73L120.33,112.61L120.11,112.46L119.99,112.34L119.93,112.22L119.90,112.09L119.90,107.91L119.72,107.91L119.56,107.86L119.59,107.68L119.67,107.50L119.80,107.34L119.98,107.19L120.05,107.15L118.86,106.46L119.05,105.91L118.95,105.92L118.87,105.95L118.81,105.99L118.77,106.08"/><path d="M118.49,111.04L118.36,111.06L118.26,111.05L118.34,111.00L118.49,110.87"/><path d="M118.58,111.47L118.58,107.30L118.51,107.23L118.49,107.16"/><path d="M118.59,106.62L118.62,106.54L118.68,106.49L118.76,106.46L118.86,106.46L118.75,106.63L118.67,106.83L118.61,107.03L118.58,107.30L119.56,107.86L119.56,112.04"/><path d="M119.05,105.91L119.07,105.68L119.01,105.52L118.89,105.38"/><path d="M119.04,94.35L119.07,94.45L119.03,94.57L118.87,94.73"/><path d="M118.58,94.44L118.53,94.41L118.50,94.48L118.49,94.99"/><path d="M118.70,94.80L118.76,94.74"/><path d="M118.49,94.55L118.48,94.50"/><path d="M118.69,94.06L118.71,94.05L118.81,94.05L118.85,94.07L120.04,93.39L120.75,93.36L120.81,93.33"/><path d="M120.90,166.29L120.37,166.03L120.30,165.96L119.96,165.41L119.93,165.30L119.82,164.53L122.28,165.71L128.73,167.59L135.86,168.23L142.99,167.57L149.42,165.67L154.53,162.72L157.81,159.01L158.95,154.89"/><path d="M119.82,165.41L119.82,164.53"/><path d="M119.32,160.90L119.99,164.20"/><path d="M119.44,160.83L120.13,164.12"/><path d="M120.13,112.96L120.11,113.00L120.40,113.18L120.41,113.08L120.49,112.89L120.61,112.74L121.06,112.66L124.71,113.89L128.80,114.51L128.85,114.17L128.86,113.87L128.86,109.10L128.90,108.67"/><path d="M120.76,106.91L120.05,107.15L120.20,107.58L120.91,107.34L120.76,106.91L121.00,106.85L121.25,106.84L121.54,106.91"/><path d="M120.20,107.58L120.02,107.68L119.95,107.76L119.91,107.84L119.90,107.91"/><path d="M119.68,93.49L119.71,93.46L119.86,93.40L120.04,93.39L120.09,93.35"/><path d="M120.40,113.18L124.41,114.55L128.98,115.23L129.02,114.74L129.21,114.76L129.48,114.75L129.54,114.73L129.68,114.66L129.72,114.61L129.77,114.54L129.79,114.45L129.88,114.51L129.97,114.54L130.08,114.55L130.08,110.38L129.95,110.36L129.86,110.32L129.79,110.27"/><path d="M120.75,93.36L121.07,93.33L121.31,93.27L124.98,92.03L129.20,91.38L129.41,91.33L129.55,91.25L129.46,91.26L129.37,91.29"/><path d="M121.53,93.19L121.47,93.18L121.45,93.19"/><path d="M132.06,169.37L131.76,169.47L130.85,169.56L129.94,169.50L129.12,169.27L128.44,168.89"/><path d="M128.98,115.23L129.22,115.23L129.55,115.16L129.81,115.03L129.97,114.86L129.89,114.82"/><path d="M131.92,98.88L131.78,98.83L131.22,98.71L131.10,98.70L130.50,98.69L130.17,98.73L129.62,98.88L129.52,98.91L129.09,99.15L129.02,99.21L128.75,99.52L128.72,99.58L128.64,99.93L128.64,99.99L128.77,100.33L128.81,100.39L129.12,100.69L129.19,100.74L129.66,100.96L130.33,101.12L131.04,101.13L131.15,101.12L131.37,101.09L131.92,100.95L132.01,100.91L132.45,100.67L132.52,100.62L132.79,100.30L132.83,100.23L132.90,99.90L132.90,99.83L132.77,99.49L132.73,99.43L132.49,99.20L132.35,99.08"/><path d="M128.89,91.43L128.87,91.41"/><path d="M129.79,114.57L129.25,114.02"/><path d="M130.08,114.55L130.05,114.72L129.97,114.86L131.52,114.78L131.47,114.55L131.64,114.52L131.76,114.45L131.79,114.57L131.86,114.65L131.99,114.72L132.22,114.77L132.53,114.74L132.75,114.51L132.66,114.47L132.53,114.39L132.42,114.28L132.34,114.15L132.30,114.02L132.29,113.92L132.39,113.85L132.53,113.80L136.63,113.17L140.31,111.94L140.47,111.92L140.63,111.93L140.63,107.34L140.60,107.32L140.45,107.28L140.30,107.28L140.17,107.31L136.66,108.49L132.68,109.10L132.65,108.67L132.34,108.74L132.13,108.86L131.99,109.01L132.16,109.12L132.23,109.20L132.29,109.33L131.92,109.84L131.89,109.76L131.83,109.67L131.72,109.57L131.62,109.51L129.93,109.51L130.03,109.90L130.06,110.11L130.08,110.38L131.47,110.38L131.50,109.98L131.59,109.57L131.68,109.42L131.99,109.01"/><path d="M129.63,109.84L129.26,109.33L129.32,109.20L129.38,109.12L129.56,109.00"/><path d="M130.17,100.84L129.80,100.66L129.59,100.45L129.52,100.25L129.55,100.07L129.58,99.97L129.74,99.79L130.04,99.61L130.42,99.51L130.61,99.48L131.03,99.49L131.42,99.58L131.70,99.71L131.95,99.95L132.02,100.16L131.98,100.40L131.80,100.62L131.50,100.79L131.12,100.90L130.93,100.92L130.57,100.92L130.17,100.84"/><path d="M129.55,91.25L129.92,91.02L129.86,91.02L129.77,91.04L129.73,91.06"/><path d="M131.95,91.23L131.60,91.02L129.92,91.02L130.00,90.98L130.01,90.99"/><path d="M131.94,91.64L131.18,91.56"/><path d="M131.52,114.78L131.66,114.96L131.89,115.11L132.19,115.21L132.21,115.16"/><path d="M133.36,116.62L132.19,115.21L132.57,115.23L137.08,114.56L141.15,113.18L141.12,113.02L141.08,112.92L141.03,112.84L140.92,112.73L141.10,112.66L141.36,112.52L141.55,112.34L141.63,112.19L140.63,112.02L140.59,112.32L140.49,112.66L136.84,113.89L132.75,114.51L132.70,114.17L132.68,113.77L132.68,109.10L132.63,109.11L132.49,109.15L132.38,109.22L132.29,109.33L132.29,113.92L131.76,114.45L131.76,110.27L131.64,110.35L131.47,110.38L131.47,114.55"/><path d="M131.92,109.84L131.83,110.00L131.79,110.10L131.76,110.27"/><path d="M132.09,103.53L137.14,106.45L137.14,106.30L132.09,103.39"/><path d="M131.55,90.97L131.60,91.02L131.70,91.02L131.78,91.05L131.82,91.08"/><path d="M132.57,115.23L132.53,114.74L135.34,114.41L136.95,114.08L140.92,112.73L140.49,112.66L140.34,112.49L140.26,112.36L140.21,112.22L140.17,112.08L140.17,107.31L140.13,107.11L140.08,107.02L140.00,106.91L136.55,108.07L132.65,108.67"/><path d="M132.72,103.46L137.14,100.90L137.14,100.76L132.59,103.39"/><path d="M132.80,91.45L136.50,92.01L140.28,93.28L140.54,93.34L140.78,93.36L141.56,93.38L141.73,93.41L141.77,93.44"/><path d="M140.13,103.79L138.83,104.55L138.83,104.69L138.74,104.74L138.39,104.87L137.97,104.93L137.53,104.93L137.13,104.85L136.77,104.70L136.51,104.49L136.36,104.25L136.36,103.99L135.88,103.98L135.49,103.90L135.12,103.75L135.04,103.70L134.82,103.50L134.70,103.25"/><path d="M136.84,102.04L135.48,102.83L135.35,102.95L135.29,103.08"/><path d="M135.53,102.80L135.53,102.65L135.35,102.81L135.28,102.95"/><path d="M138.83,104.55L138.74,104.59L138.39,104.72L137.97,104.79L137.53,104.78L137.13,104.70L136.77,104.55L136.51,104.34L136.36,104.10L136.36,103.84L135.88,103.84L135.49,103.76L135.12,103.61L135.04,103.55L134.82,103.35L134.70,103.11"/><path d="M135.12,103.61L135.12,103.75"/><path d="M135.53,102.65L136.84,101.90"/><path d="M136.36,103.99L136.36,103.89"/><path d="M136.77,104.70L136.77,104.55"/><path d="M135.86,103.17L135.88,103.22L135.93,103.26L136.01,103.30L136.18,103.32L136.27,103.31L136.35,103.27L136.35,103.13L136.27,103.16L136.18,103.18L136.01,103.16L135.93,103.12L135.88,103.08L135.86,103.03"/><path d="M135.94,103.27L135.94,103.13"/><path d="M136.35,103.13L137.66,102.37"/><path d="M136.35,103.27L137.66,102.52"/><path d="M151.72,100.28L153.62,102.92L154.09,106.22L152.77,109.45L149.79,112.28L145.45,114.44L140.16,115.72L137.49,115.85"/><path d="M137.14,106.45L142.19,103.53"/><path d="M137.14,106.30L142.19,103.38"/><path d="M137.51,104.12L137.53,104.17L137.57,104.21L137.66,104.25L137.74,104.26L137.92,104.25L138.01,104.21L138.01,104.07L137.92,104.11L137.74,104.12L137.66,104.10L137.57,104.06L137.53,104.02L137.51,103.97"/><path d="M137.59,104.22L137.59,104.07"/><path d="M138.01,104.21L139.30,103.47"/><path d="M136.94,104.03L137.00,103.89L137.18,103.75L137.18,103.60L137.00,103.75L136.93,103.90"/><path d="M138.01,104.07L139.30,103.32"/><path d="M137.14,103.77L137.14,103.62"/><path d="M137.18,103.60L138.48,102.84"/><path d="M137.18,103.75L138.48,102.99"/><path d="M137.14,100.90L141.56,103.46"/><path d="M137.14,100.76L141.69,103.38"/><path d="M138.83,104.69L140.13,103.94"/><path d="M140.00,106.91L140.23,106.84L140.47,106.83L140.74,106.88L141.50,107.15L141.68,107.27L141.82,107.43L141.93,107.61L141.97,107.76L141.98,107.86L141.96,107.87L141.76,107.91L141.65,107.91L141.65,112.08L140.63,111.93L140.63,112.02"/><path d="M140.00,93.18L140.04,93.18L140.10,93.19"/><path d="M141.15,113.18L141.33,113.08L141.59,112.86L141.78,112.62L141.90,112.39L141.83,112.38"/><path d="M140.78,106.90L140.63,107.34L141.35,107.58L141.50,107.15L142.70,106.45L142.51,105.91L142.60,105.91L142.68,105.94L142.74,105.99L142.77,106.08L142.76,106.04"/><path d="M140.72,93.33L140.78,93.36"/><path d="M143.45,111.78L143.44,111.84L142.48,113.94L141.90,112.39L141.96,112.21L141.98,112.04L141.89,112.07L141.79,112.09L141.65,112.08L141.63,112.19L141.67,112.20"/><path d="M141.98,112.04L141.98,107.86L142.96,107.29L143.04,107.21L143.05,107.14"/><path d="M141.35,107.58L141.46,107.64L141.56,107.71L141.61,107.79L141.65,107.91"/><path d="M141.47,93.36L142.69,94.07L142.79,94.03L142.87,94.07"/><path d="M141.43,93.35L141.46,93.36"/><path d="M143.06,110.23L144.92,108.38L146.01,106.01L146.10,105.93L146.23,105.87L146.23,105.97L147.13,105.68L147.10,105.86L147.04,106.11L146.95,106.32L146.88,106.45L147.05,106.49L147.13,106.55L147.19,106.62L147.23,106.76L146.06,109.40L143.68,111.71L143.44,111.84L143.24,111.86L143.09,111.80L143.00,111.67L142.96,111.51L142.96,107.29L142.95,107.11L142.90,106.91L142.83,106.71L142.70,106.45L142.85,106.48L142.91,106.52L142.95,106.58L142.96,106.61"/><path d="M147.31,105.40L147.29,105.46L147.24,105.51L147.17,105.55L146.23,105.87L146.23,101.28L146.09,101.30L146.00,101.35L145.96,101.43L145.96,106.11L145.98,106.19L146.03,106.31L146.12,106.42L146.24,106.50L146.38,106.56L146.49,106.57L145.41,108.93L143.29,111.05L143.20,111.00L143.06,110.87"/><path d="M143.68,111.71L143.67,111.62L143.60,111.47L143.50,111.36L143.42,111.30L143.40,111.29L143.26,111.43L143.15,111.47L143.09,111.44L143.06,111.39"/><path d="M146.23,105.97L146.31,106.26L146.37,106.40L146.49,106.57L146.88,106.45L145.73,109.03L143.40,111.29L143.29,111.05L143.18,111.05L143.06,111.03"/><path d="M142.96,111.47L143.01,111.43L143.04,111.38L143.05,111.28"/><path d="M142.75,105.97L142.78,105.87L142.87,105.75L142.86,105.69L142.83,105.59L142.78,105.50L142.66,105.38L144.68,103.36L145.70,101.13L145.80,101.17L145.88,101.23L145.94,101.31L145.96,101.43L144.93,103.70L142.87,105.75L142.87,106.33"/><path d="M143.05,107.11L143.04,107.09"/><path d="M143.04,107.10L143.04,107.15"/><path d="M142.66,105.38L142.51,105.55L142.47,105.73L142.51,105.91"/><path d="M146.22,99.40L146.19,99.40L146.14,99.42L146.08,99.39L145.95,99.30L145.80,99.15L145.71,99.00L144.66,96.71L142.65,94.72L142.73,94.72L142.80,94.76"/><path d="M142.65,94.72L142.52,94.60L142.47,94.48L142.48,94.37L142.50,94.35L142.55,94.37L142.67,94.46L142.73,94.56L142.76,94.65L142.77,94.72L142.96,94.44L142.95,94.37L142.92,94.27L142.86,94.18L142.78,94.11L142.69,94.07L142.50,94.35"/><path d="M143.05,94.48L143.04,94.54L143.04,94.99"/><path d="M143.05,94.50L143.01,94.41L142.99,94.41L142.96,94.44"/><path d="M151.40,94.10L150.84,94.36L149.36,94.76L147.74,94.89L146.13,94.71L144.69,94.26L143.57,93.57L142.87,92.71"/><path d="M149.05,88.46L150.10,88.66L151.34,89.18L152.24,89.89L152.71,90.73L152.71,91.61L152.24,92.45L151.34,93.16L150.61,93.47L150.10,93.68L149.26,93.87L148.65,93.95L147.12,93.95L145.67,93.68L144.44,93.16L143.54,92.45L143.07,91.61L143.07,90.73L143.54,89.89L144.43,89.18L145.67,88.66L146.73,88.46"/><path d="M144.29,169.04L144.40,168.99L144.85,168.59L145.86,168.31"/><path d="M145.70,101.13L145.77,100.99L145.90,100.90L146.10,100.83L146.14,100.83L146.22,101.00L146.24,101.11L146.23,101.28L146.87,101.20L146.97,101.20L147.06,101.24L147.11,101.29L147.13,101.35L147.13,105.68L147.17,105.67"/><path d="M145.70,98.96L145.85,99.02L145.92,99.09L145.95,99.17"/><path d="M149.33,89.77L149.44,89.80L149.99,90.14L150.34,90.55L150.44,91.01L150.29,91.46L149.91,91.87L149.69,92.01L149.33,92.19L148.61,92.38L147.81,92.44L147.03,92.36L146.33,92.14L145.78,91.80L145.44,91.39L145.34,90.93L145.48,90.48L145.87,90.07L146.46,89.75"/><path d="M146.87,101.20L146.88,101.03L146.86,100.92L146.78,100.75L146.14,100.83"/><path d="M147.14,101.39L147.22,101.35L147.28,101.30L147.31,101.24L147.30,101.13L147.25,101.00L147.14,100.87L146.98,100.79L146.78,100.75L146.78,99.77L146.81,99.75L146.85,99.75"/><path d="M147.28,100.24L147.19,100.08L147.05,99.93L146.86,99.81L146.14,99.42"/><path d="M153.58,95.93L153.25,96.94L152.40,97.85L151.10,98.55L149.49,98.99L147.73,99.13L145.97,98.94L145.83,98.89"/><path d="M149.05,89.84L149.25,90.08L149.31,90.34L149.23,90.59L149.02,90.82L148.69,90.99L148.29,91.10L147.85,91.14L147.41,91.09L147.02,90.96L146.71,90.78L146.52,90.54L146.46,90.29L146.55,90.04L146.73,89.85"/><path d="M149.89,90.35L149.98,90.72L149.94,90.83L149.86,91.09L149.54,91.43L149.07,91.68L148.48,91.85L147.83,91.89L147.18,91.83L146.84,91.72L146.61,91.64L146.16,91.37L145.88,91.03L145.80,90.65L145.92,90.28"/><path d="M146.73,90.21L146.73,90.42L146.85,90.63L147.06,90.79L147.35,90.92L147.70,90.98L148.07,90.98L148.42,90.92L148.72,90.79L148.93,90.62L149.05,90.42"/><path d="M147.23,106.76L147.26,106.61"/><path d="M147.31,105.72L147.31,105.77L147.29,105.78"/><path d="M147.29,100.29L147.30,100.32"/><path d="M147.31,100.58L147.30,100.37"/><path d="M152.81,92.88L152.03,93.71L151.55,94.06L151.45,94.11L151.40,94.12"/><path d="M151.79,93.87L151.84,93.77L151.83,93.72L151.79,93.69"/><path d="M151.72,93.69L151.70,93.68"/><path d="M152.87,152.30L152.85,152.36L152.81,152.41L152.74,152.45L153.03,152.30L152.87,152.21"/><path d="M153.03,152.30L153.03,151.43L154.07,150.87L155.04,150.27"/><path d="M153.03,151.43L152.80,151.29L154.81,150.13"/><path d="M152.74,151.58L152.74,152.45"/><path d="M152.80,151.29L152.76,151.28"/><path d="M152.37,151.05L154.38,149.88L154.38,150.32"/><path d="M152.59,93.98L152.54,93.95"/><path d="M154.38,149.88L154.78,150.12L154.71,150.13"/><path d="M153.51,98.37L153.51,98.39"/><path d="M155.04,151.04L155.22,151.01L155.30,150.97L155.04,151.14"/><path d="M155.30,150.97L155.30,150.10L155.22,150.14L155.04,150.17L154.94,150.17L154.78,150.12"/><path d="M161.31,142.66L158.81,147.09L155.30,150.10"/><path d="M157.07,105.20L157.05,105.17"/></g><g style="stroke:#000000;stroke-width:0.353"><path d="M119.10,165.21L117.87,164.38L117.38,163.92L114.18,160.27L113.84,159.55L112.73,155.44L112.66,154.84L112.68,149.21L110.30,144.99L110.30,138.00L112.48,134.13"/><path d="M112.81,143.76L112.11,139.42L112.16,139.32L112.15,139.34L112.41,135.28L113.97,107.26L114.08,106.68L114.25,106.26"/><path d="M143.06,168.97L143.55,169.12L143.63,169.13L144.29,169.04L145.32,168.76L145.42,168.71L145.86,168.31L148.81,167.24L153.68,164.42L154.18,163.96L157.40,160.32L157.74,159.60L158.87,155.50L158.95,154.89L158.93,149.21L158.81,149.42L154.07,153.19L147.53,155.93L139.85,157.38L131.77,157.38L124.09,155.94L117.55,153.20L112.80,149.42L112.67,149.19"/><path d="M112.63,142.58L112.62,142.49"/><path d="M145.98,99.22L146.22,99.40L147.02,99.86L147.22,100.10L147.30,100.32L147.31,100.42L147.30,106.04L147.13,108.67L145.53,111.52L142.48,113.94L138.29,115.70L133.36,116.62L128.18,116.62L123.26,115.70L119.06,113.94L116.02,111.52L114.41,108.68L114.23,105.92L114.23,100.33L114.32,100.11L114.51,99.87L115.48,99.30"/><path d="M114.23,105.66L114.23,105.64"/><path d="M115.90,147.51L115.97,147.55"/><path d="M115.87,147.60L116.65,148.11L115.93,147.64"/><path d="M118.89,94.60L116.65,96.83L115.58,99.19"/><path d="M115.46,99.32L115.55,99.23"/><path d="M115.53,99.25L115.59,99.17"/><path d="M115.59,99.20L115.66,99.05L115.59,99.20"/><path d="M116.65,148.11L118.14,149.07L115.93,147.53"/><path d="M117.38,163.92L119.10,165.19"/><path d="M118.17,149.09L118.14,149.07L119.06,149.71L120.85,150.70L120.82,150.68"/><path d="M117.03,148.35L117.96,148.94"/><path d="M119.07,164.10L119.07,164.97L119.17,165.73L119.21,165.85L119.54,166.39L119.62,166.47L120.37,166.90L120.90,167.17L121.01,167.19L121.66,167.14L122.18,166.93"/><path d="M120.13,164.12L119.99,164.20L118.64,163.42L119.32,160.90L119.44,160.83"/><path d="M118.49,111.36L118.50,110.53L118.49,111.36"/><path d="M118.48,111.43L118.49,111.33L118.50,111.38L118.49,111.38"/><path d="M118.78,106.04L118.55,106.71L118.50,107.02L118.50,110.53"/><path d="M118.78,106.06L118.79,105.95"/><path d="M118.83,94.66L118.76,94.74L118.82,94.67L118.80,94.69"/><path d="M118.48,95.01L118.48,94.50L118.52,94.26L118.62,94.11L118.88,93.95L118.76,94.02"/><path d="M118.88,93.95L119.24,93.74L119.19,93.78"/><path d="M119.06,93.85L119.88,93.39L120.35,93.34L120.17,93.35"/><path d="M120.91,150.83L120.82,150.80L119.57,149.99"/><path d="M120.19,93.35L120.75,93.33"/><path d="M120.91,166.30L120.90,166.29L122.89,167.28L129.05,169.07L129.30,169.12L135.86,169.71L142.43,169.10L144.85,168.59"/><path d="M120.79,93.33L121.21,93.27L121.39,93.21L121.18,93.28L124.92,92.02L125.87,91.87L125.30,91.96"/><path d="M120.45,93.34L120.81,93.33"/><path d="M129.15,91.37L129.18,91.36L125.32,91.96"/><path d="M132.66,169.42L132.51,169.54L131.89,169.80L131.16,169.94L130.38,169.94L129.65,169.80L129.03,169.54L128.57,169.18L128.33,168.86"/><path d="M128.75,91.74L128.52,91.75L129.18,91.70L128.75,91.74"/><path d="M128.07,91.53L128.88,91.41"/><path d="M131.18,91.56L129.18,91.70L129.43,91.69"/><path d="M129.73,91.06L129.38,91.28L129.18,91.36"/><path d="M131.95,91.15L131.73,91.02L131.55,90.97L130.00,90.98L129.80,91.02L129.52,91.20"/><path d="M129.28,91.33L129.42,91.27L129.28,91.33"/><path d="M142.19,103.53L142.19,103.38L137.14,100.47L132.09,103.39L132.09,103.53"/><path d="M136.79,114.24L136.91,114.23L134.80,114.55L132.54,114.83"/><path d="M132.59,103.39L137.14,106.01L141.69,103.38"/><path d="M132.80,91.43L136.56,92.00L140.36,93.27L140.74,93.33L140.64,93.32"/><path d="M134.70,103.25L134.72,102.86L134.85,102.63L135.12,102.42L136.43,101.66L136.84,101.90L136.84,102.04"/><path d="M135.28,102.95L135.29,103.10L135.37,103.24L135.53,103.37L135.75,103.46L136.00,103.51L136.26,103.51L136.50,103.47L136.73,103.39L138.07,102.61L138.48,102.84L138.48,102.99"/><path d="M135.86,103.17L135.86,102.98L135.94,102.89L137.25,102.13L137.66,102.37L137.66,102.52"/><path d="M136.91,114.23L137.01,114.21"/><path d="M137.51,104.12L137.51,103.92L137.59,103.84L138.89,103.08L139.30,103.32L139.30,103.47"/><path d="M140.13,103.94L140.13,103.79L139.72,103.56L138.42,104.31L138.20,104.40L137.96,104.45L137.70,104.45L137.45,104.42L137.18,104.31L137.02,104.19L136.94,104.05L136.93,103.90"/><path d="M140.72,93.33L141.32,93.35L141.11,93.34"/><path d="M141.54,93.36L141.32,93.35L141.54,93.36L141.73,93.41L142.43,93.82L142.21,93.70"/><path d="M142.84,94.05L141.77,93.44L142.43,93.82L142.14,93.66"/><path d="M143.06,111.40L143.06,111.30L143.07,111.43"/><path d="M143.06,111.30L143.06,107.15L142.99,106.70L142.75,105.97L142.76,106.03"/><path d="M142.72,94.67L144.86,96.80L145.99,99.25L145.91,99.19"/><path d="M143.17,94.20L143.35,93.87L143.00,94.23L143.04,94.38L143.05,94.52L143.05,94.50"/><path d="M143.00,94.23L142.91,94.10L142.66,93.95"/><path d="M143.30,94.29L143.39,93.50"/><path d="M142.73,94.69L142.64,94.59L142.73,94.69"/><path d="M143.03,94.31L143.03,94.34"/><path d="M143.05,94.52L143.05,95.00"/><path d="M142.43,93.82L142.79,94.03"/><path d="M143.58,94.22L143.37,93.40L142.79,92.62L142.55,91.54L142.56,91.41L142.87,90.47L142.93,90.36L143.80,89.46L144.97,88.82L146.43,88.42L146.73,88.39"/><path d="M145.95,99.17L145.96,99.18"/><path d="M146.06,99.30L145.99,99.25"/><path d="M146.22,99.40L146.10,99.33"/><path d="M146.73,17.61L146.73,90.21"/><path d="M145.85,90.38L145.98,90.19L146.28,89.87L146.73,89.60"/><path d="M147.26,101.32L147.26,105.64"/><path d="M147.31,101.12L148.78,101.12L150.48,100.80L151.92,100.20L152.96,99.36L153.51,98.39L153.58,95.93L153.35,94.91L152.59,93.98L152.42,93.85"/><path d="M149.05,90.42L149.05,16.86"/><path d="M149.05,89.60L149.56,89.92L149.96,90.44"/><path d="M149.05,88.42L149.62,88.47L151.04,88.92L152.23,89.66L152.94,90.52L153.00,90.63L153.23,91.71L152.89,92.78L152.32,93.55"/><path d="M151.40,94.12L151.59,93.77L151.73,93.69L151.82,93.71"/><path d="M153.47,150.86L154.57,150.22L152.75,151.27L152.82,151.32L152.87,151.43L152.87,152.30"/><path d="M152.75,151.27L152.37,151.05"/><path d="M159.45,140.83L159.46,140.85L159.19,135.28L157.64,109.14L157.07,105.20L156.96,104.63L156.59,103.93L154.00,100.36L152.87,99.44"/><path d="M152.48,94.44L152.37,93.56L152.41,93.43"/><path d="M152.69,94.35L152.41,93.83"/><path d="M154.75,150.12L154.57,150.22L154.70,150.14"/><path d="M155.04,151.14L155.04,150.27L154.78,150.12"/><path d="M158.93,149.21L161.31,144.98L161.30,137.99L159.12,134.12"/><path d="M159.44,142.86L159.68,138.72L159.31,137.89"/></g></g><g id="Actor_.5"><g style="stroke:#000000;stroke-width:0.176"><path d="M44.03,101.82L44.20,102.13L44.52,102.39L54.08,107.90L67.93,99.90"/><path d="M44.03,102.69L44.03,102.66"/><path d="M44.52,103.26L44.52,102.39"/><path d="M46.77,150.73L47.53,151.17L47.53,160.53"/><path d="M47.53,151.17L47.59,150.33L47.79,149.44L47.03,149.01"/><path d="M47.79,149.44L56.26,119.40L56.32,119.10L56.34,118.82L55.59,118.39"/><path d="M53.23,102.83L53.09,102.59L52.83,102.38L52.47,102.23L52.04,102.15L51.60,102.15L51.17,102.23L50.81,102.38L50.55,102.59L50.41,102.83"/><path d="M51.31,157.62L51.94,157.99L51.74,158.06L51.57,158.06L51.43,157.98"/><path d="M51.94,157.99L56.97,155.08L57.17,154.93L57.34,154.72L57.48,154.48L57.57,154.23L57.60,153.99L57.60,152.53L57.57,152.33L57.48,152.18"/><path d="M54.08,108.77L54.08,107.90L54.78,108.43L55.41,109.17L55.91,110.04L56.23,110.95L56.34,111.83L70.19,103.83"/><path d="M56.22,154.64L56.97,155.08"/><path d="M56.26,119.40L55.50,118.96"/><path d="M55.59,111.39L56.34,111.83L56.34,118.82"/><path d="M57.60,153.99L56.85,153.55"/><path d="M57.60,152.53L56.97,152.17"/><path d="M57.97,98.47L58.10,98.23L58.37,98.02L58.73,97.87L59.15,97.79L59.60,97.79L60.02,97.87L60.38,98.02L60.64,98.23L60.78,98.47"/><path d="M60.30,113.22L60.45,113.46L60.50,113.79L60.45,114.18L60.30,114.58L60.08,114.97L59.80,115.30L59.49,115.53L59.18,115.66L58.90,115.65L58.68,115.52"/><path d="M66.23,111.16L66.45,111.29L66.73,111.29L67.04,111.17L67.36,110.93L67.64,110.61L67.86,110.22L68.00,109.81L68.05,109.43L68.00,109.10L67.86,108.85"/></g><g style="stroke:#000000;stroke-width:0.353"><path d="M46.77,160.97L46.77,150.73L46.84,149.89L47.03,149.01L55.50,118.96L55.57,118.67L55.59,118.39L55.59,111.39L55.51,110.81L55.30,110.20L54.96,109.62L54.54,109.13L54.08,108.77L44.52,103.26L44.20,103.00L44.03,102.69L44.03,101.50L44.20,101.19L44.52,100.93L54.10,95.40L55.86,94.39L56.31,94.20L56.84,94.10L57.39,94.10L57.92,94.20L58.37,94.39L67.93,99.90L68.63,100.44L69.26,101.17L69.56,101.69L69.76,102.04L70.08,102.96L70.19,103.83L70.19,110.83L70.17,111.11L70.11,111.40L61.64,141.45L61.44,142.33L61.38,143.17L61.38,152.53"/><path d="M50.41,102.83L50.41,103.09L50.55,103.34L50.79,103.53L50.81,103.54L51.17,103.70L51.60,103.77L52.04,103.77L52.47,103.70L52.83,103.54L53.09,103.34L53.23,103.09L53.23,102.83L53.23,103.02"/><path d="M53.01,103.40L52.83,103.25L52.47,103.10L52.04,103.02L51.60,103.02L51.17,103.10L50.81,103.25L50.63,103.40"/><path d="M56.85,152.24L56.85,153.55L56.82,153.79L56.73,154.05L56.59,154.29L56.41,154.49L56.22,154.64L51.31,157.48"/><path d="M51.43,157.98L51.34,157.83L51.31,157.62L51.31,156.17L51.34,155.93L51.43,155.67L51.57,155.43L51.74,155.22L51.94,155.08L56.97,152.17L57.17,152.09L57.34,152.10L57.48,152.18L57.47,152.17"/><path d="M60.30,113.22L60.08,113.09L59.80,113.08L59.49,113.21L59.18,113.44L58.90,113.77L58.68,114.16L58.53,114.56L58.48,114.95L58.53,115.28L58.68,115.52"/><path d="M60.78,98.47L60.78,98.73L60.64,98.97L60.38,99.18L60.02,99.33L59.60,99.41L59.15,99.41L58.73,99.33L58.37,99.18L58.10,98.97L57.97,98.73L57.97,98.47"/><path d="M60.56,99.04L60.38,98.89L60.02,98.74L59.60,98.66L59.15,98.66L58.73,98.74L58.37,98.89L58.18,99.04"/><path d="M59.71,113.12L59.74,113.35L59.69,113.74L59.55,114.15L59.33,114.53L59.05,114.86L58.73,115.10L58.52,115.18"/><path d="M66.23,111.16L66.09,110.92L66.04,110.59L66.09,110.20L66.23,109.80L66.45,109.41L66.73,109.08L67.04,108.85L67.36,108.72L67.64,108.73L67.86,108.85"/><path d="M66.07,110.82L66.29,110.74L66.60,110.50L66.88,110.17L67.10,109.79L67.25,109.38L67.30,108.99L67.26,108.76"/></g></g><g id="Actor_.6"><g style="stroke:#000000;stroke-width:0.176"><path d="M74.32,195.84L74.10,195.37L74.06,194.75L74.19,194.04L74.48,193.33L74.91,192.66L75.43,192.11L75.98,191.74L76.53,191.58L77.00,191.64"/><path d="M75.87,195.99L75.36,196.15L74.91,196.09L74.56,195.82L74.36,195.38L74.32,194.79L74.45,194.13L74.72,193.45L75.12,192.82L75.61,192.31L76.14,191.95L76.65,191.80L77.10,191.86L77.44,192.12L77.65,192.57L77.66,192.84"/><path d="M77.02,191.65L76.55,191.59L76.00,191.75L75.45,192.13L75.27,192.32L74.93,192.67L74.50,193.34L74.21,194.06L74.08,194.76L74.12,195.38L74.34,195.85L74.70,196.13"/><path d="M75.61,195.85L75.53,195.90L75.09,195.59L74.50,195.21L74.92,194.17L75.15,193.04L75.97,192.63L76.65,192.14L77.54,192.75L77.59,192.79L77.59,192.79"/><path d="M74.50,195.21L74.55,195.19L74.60,195.19L74.64,195.19L74.65,195.19L74.67,195.20L75.66,195.77L76.27,196.15L76.45,196.27L76.60,196.37L76.71,196.45L76.76,196.49L76.77,196.51"/><path d="M75.66,195.77L76.14,195.39L76.27,195.20L76.37,194.97L76.42,194.71L76.42,194.44L76.27,193.71L75.29,193.14L75.06,194.22L74.67,195.20L75.22,195.57L75.65,195.86"/><path d="M75.53,195.90L75.55,195.87L75.58,195.86"/><path d="M75.15,193.04L75.18,193.07L75.22,193.09L75.26,193.12L75.29,193.14L76.06,192.75L76.71,192.29"/><path d="M77.84,192.94L77.75,193.15L77.64,193.30L77.47,193.44L77.13,193.71L76.81,194.08L76.55,194.51L76.37,194.97L76.28,195.42L76.29,195.82L76.40,196.15L76.60,196.37L76.88,196.47L77.22,196.44L77.59,196.27"/><path d="M76.65,195.28L76.67,195.59L76.75,195.76L76.78,195.82L76.96,195.96L77.19,195.99L77.46,195.91L77.74,195.72L77.99,195.46L78.20,195.13L78.34,194.77L78.41,194.43L78.39,194.12L78.28,193.89L78.10,193.75L77.87,193.72L77.60,193.80"/><path d="M77.89,193.84L78.05,193.95L78.14,194.15L78.16,194.41L78.10,194.71L77.98,195.02L77.80,195.30L77.58,195.53L77.34,195.68L77.11,195.75L76.91,195.73"/><path d="M78.66,193.56L78.46,193.34L78.18,193.23L77.84,193.27L77.47,193.44L77.27,193.54L77.03,193.61L76.27,193.71"/><path d="M76.65,192.14L76.65,192.18L76.66,192.23L76.68,192.26L76.71,192.28"/><path d="M77.59,192.79L77.59,192.79"/></g><g style="stroke:#000000;stroke-width:0.353"><path d="M77.69,192.85L77.66,192.48L77.45,192.01L77.43,191.96L77.39,191.93L77.02,191.65L77.00,191.64L76.95,191.62L76.48,191.56L76.43,191.56L75.89,191.72L75.86,191.75L75.32,192.11L74.82,192.63L74.41,193.27L74.13,193.97L74.00,194.65L74.00,194.68L74.04,195.29L74.25,195.75L74.28,195.80L74.32,195.84L74.68,196.12L74.70,196.13L74.75,196.15L75.23,196.21L75.27,196.21L75.81,196.04L75.85,196.03L75.89,196.00"/><path d="M75.58,195.86L75.62,195.85L75.62,195.85L75.65,195.86L76.77,196.51L77.12,196.45L77.22,196.44L77.37,196.38L77.59,196.27L77.93,196.00L78.25,195.63L78.51,195.19L78.69,194.74L78.78,194.29L78.77,193.89L78.66,193.56L78.61,193.45L78.56,193.41L78.46,193.34L78.30,193.23L78.11,193.11L77.84,192.94L76.71,192.28"/><path d="M76.66,195.25L76.67,195.41L76.76,195.61L76.91,195.73"/><path d="M77.60,193.80L77.32,193.99L77.07,194.25L76.90,194.53L76.86,194.58L76.72,194.94L76.65,195.28"/><path d="M77.89,193.84L77.69,193.81L77.50,193.87"/></g></g><g id="Actor_.7"><g style="stroke:#000000;stroke-width:0.176"><path d="M30.91,185.83L30.91,171.29L30.65,171.08L30.51,170.83L30.51,170.58"/><path d="M30.91,171.29L42.11,177.76L42.62,177.47"/><path d="M31.92,170.15L31.92,170.12L31.65,170.33L31.52,170.58"/><path d="M31.92,170.12L33.63,169.14"/><path d="M82.40,141.12L82.22,141.12L82.03,141.19L34.49,168.64"/><path d="M42.48,192.37L42.62,192.29L42.71,192.14L42.74,191.93L42.98,191.80"/><path d="M42.74,191.93L42.74,191.21"/><path d="M47.25,188.65L47.15,189.03L46.84,189.37L46.37,189.65L45.78,189.82L45.12,189.88L44.46,189.82L43.87,189.65L43.39,189.38L43.09,189.04L42.98,188.66"/><path d="M42.98,187.71L42.74,187.57L42.98,187.44"/><path d="M42.74,187.57L42.74,183.21"/><path d="M42.98,180.66L43.09,181.04L43.39,181.38L43.87,181.65L44.46,181.83L45.12,181.89L45.78,181.83L46.37,181.65L46.84,181.38L47.15,181.04L47.25,180.66"/><path d="M42.11,177.76L42.31,177.91L42.48,178.11L42.62,178.35L42.71,178.61L42.74,178.85L42.74,179.57L43.25,179.28"/><path d="M42.74,179.57L43.37,179.94"/><path d="M43.25,178.56L42.74,178.85"/><path d="M46.52,180.78L46.52,180.52L46.39,180.28L46.12,180.07L45.76,179.92L45.34,179.84L44.89,179.84L44.47,179.92L44.11,180.07L43.85,180.28L43.71,180.52"/><path d="M76.74,150.49L76.60,150.74L76.42,151.25L76.36,151.73L76.42,152.15L76.60,152.45"/><path d="M82.14,151.58L81.79,151.58L81.40,151.73L81.01,152.03L80.66,152.44L80.38,152.92L80.20,153.43L80.14,153.91L80.19,154.27"/><path d="M82.03,141.19L81.52,140.90"/></g><g style="stroke:#000000;stroke-width:0.353"><path d="M33.12,168.85L30.91,170.12L30.65,170.33L30.51,170.58L30.51,185.37L30.65,185.62L30.91,185.83L42.11,192.30L42.31,192.37L42.48,192.37L42.98,192.09L42.98,192.29L43.09,192.67L43.39,193.01L43.87,193.28L44.46,193.46L45.12,193.52L45.27,193.50L45.78,193.46L46.37,193.28L46.84,193.01L47.15,192.67L47.25,192.29L47.25,188.65L47.24,188.61"/><path d="M43.37,179.94L43.08,180.28L42.98,180.66L42.98,184.30L43.09,184.68L43.39,185.02L43.71,185.20L43.87,185.29L44.46,185.46L45.12,185.52L45.78,185.46L46.37,185.29L46.84,185.02L47.14,184.67L47.25,184.29L47.25,180.66L47.15,180.28L46.85,179.93L46.38,179.66L45.79,179.48L45.13,179.42L44.47,179.48L43.88,179.65L43.25,179.28L43.25,178.56L43.22,178.31L43.13,178.06L42.99,177.82L42.81,177.61L42.62,177.47L31.92,171.29L31.66,171.08L31.52,170.83L31.52,170.58"/><path d="M82.40,141.12L81.90,140.83L81.72,140.83L81.52,140.90L33.98,168.35"/><path d="M42.98,192.09L42.98,188.66L42.99,188.62"/><path d="M42.74,191.21L42.98,191.34"/><path d="M42.74,183.21L42.98,183.34"/><path d="M46.52,180.78L46.38,181.03L46.12,181.23L45.76,181.39L45.34,181.46L44.89,181.46L44.47,181.39L44.11,181.23L43.85,181.03L43.71,180.78L43.71,180.52"/><path d="M76.73,152.53L77.29,152.84L76.60,152.45"/><path d="M77.29,152.84L77.94,153.22"/><path d="M78.54,153.57L79.52,154.13"/><path d="M81.54,154.53L81.79,154.35L82.14,153.94L82.42,153.45L82.59,152.95L82.66,152.46L82.59,152.05L82.42,151.74L78.58,149.53"/></g></g><g id="Actor_.8"><g style="stroke:#000000;stroke-width:0.176"><path d="M78.52,125.05L78.46,125.04L78.41,125.06L78.39,125.07L78.35,125.10L78.29,125.16L78.25,125.23L78.22,125.31L78.21,125.38L78.21,125.45L78.24,125.49L78.28,125.52"/><path d="M78.95,125.30L78.90,125.29L78.84,125.31L78.78,125.35L78.73,125.41L78.68,125.48L78.65,125.56L78.64,125.63L78.64,125.69L78.67,125.74L78.71,125.77"/></g><g style="stroke:#000000;stroke-width:0.353"><path d="M76.51,125.53L72.51,123.22L72.35,123.10L72.24,122.88L72.22,122.60L72.27,122.28L72.40,121.95L72.60,121.65L72.83,121.39L72.87,121.37L73.09,121.22L73.34,121.14L73.56,121.16L77.65,123.52"/><path d="M76.96,127.11L77.03,127.16L77.47,127.20L77.97,127.04L78.48,126.69L78.95,126.19L79.33,125.57L79.59,124.91L79.71,124.27L79.66,123.71L79.45,123.29L79.11,123.04L78.67,122.99L78.17,123.15L77.66,123.50L77.19,124.01L76.81,124.62L76.55,125.28L76.44,125.93L76.49,126.49L76.69,126.91L76.96,127.11"/><path d="M78.28,125.52L78.71,125.77L78.76,125.78L78.82,125.76L78.87,125.72L78.93,125.66L78.97,125.59L79.00,125.51L79.02,125.44L79.01,125.37L78.99,125.33L78.95,125.30L78.52,125.05"/></g></g><g id="Actor_.9"><g style="stroke:#000000;stroke-width:0.176"><path d="M42.46,176.28L41.40,175.67"/><path d="M45.97,175.41L45.97,175.40L46.05,174.76L45.97,174.21L45.74,173.81L45.37,173.60L44.91,173.60L44.39,173.80L43.88,174.19L43.42,174.73L43.05,175.37L42.81,176.04L42.73,176.68L42.75,176.81"/><path d="M42.36,173.93L43.23,174.44"/><path d="M44.91,177.24L44.90,177.25L44.39,177.64L43.87,177.84L43.48,177.83"/><path d="M43.78,176.58L43.67,176.40L43.64,176.15L43.67,175.86L43.78,175.56L43.95,175.27L44.16,175.02L44.39,174.85L44.62,174.75L44.84,174.76"/><path d="M45.00,174.85L44.85,174.76"/><path d="M48.56,179.35L48.46,179.17L48.42,178.92L48.46,178.63L48.57,178.33L48.73,178.04L48.94,177.79L49.18,177.62L49.41,177.52L49.62,177.53L49.79,177.62"/><path d="M49.43,179.21L49.27,179.28L49.13,179.27L49.02,179.21L48.95,179.09L48.92,178.92L48.95,178.73L49.02,178.53L49.13,178.33L49.27,178.17L49.43,178.05L49.58,177.99L49.72,177.99L49.84,178.06L49.91,178.18L49.93,178.34"/></g><g style="stroke:#000000;stroke-width:0.353"><path d="M42.08,173.93L41.40,175.67L41.84,176.29"/><path d="M46.00,175.43L46.02,175.37L46.10,174.70L46.10,174.67L46.02,174.09L46.00,174.05L45.75,173.62L45.71,173.59L45.32,173.36L45.27,173.35L44.78,173.34L44.74,173.34L44.19,173.56L44.16,173.57L43.62,173.98L43.14,174.55L42.75,175.22L42.50,175.92L42.42,176.59L42.42,176.62"/><path d="M42.58,173.54L43.59,172.96L44.45,173.46"/><path d="M44.94,177.26L44.90,177.30L44.36,177.71L44.34,177.73L43.79,177.94L43.75,177.94L43.49,177.94"/><path d="M49.79,177.62L49.89,177.80L49.93,178.05L49.93,178.34L49.91,178.54L49.84,178.74L49.72,178.93L49.58,179.10L49.43,179.21L49.18,179.36L48.94,179.45L48.73,179.45L43.78,176.58L43.79,176.59"/><path d="M45.00,174.85L49.78,177.62"/></g></g><g id="Actor_.10"><g style="stroke:#000000;stroke-width:0.176"><path d="M42.87,176.88L42.37,177.18L32.55,171.50L32.15,171.19L31.95,170.83"/><path d="M32.55,169.76L33.05,170.05L33.05,171.21L32.55,171.50L32.54,171.65"/><path d="M34.14,169.42L33.05,170.05L32.79,170.26L32.65,170.50"/><path d="M82.90,141.41L82.72,141.41L82.53,141.48L34.99,168.93"/><path d="M42.37,177.18L42.56,177.32L42.74,177.53L42.76,177.58"/><path d="M43.50,177.97L43.17,178.17"/><path d="M77.60,153.20L77.75,153.11"/><path d="M79.24,149.71L79.42,150.02"/><path d="M82.03,141.19L82.53,141.48"/></g><g style="stroke:#000000;stroke-width:0.353"><path d="M31.95,170.83L31.95,170.44L32.15,170.07L32.55,169.76L33.63,169.13"/><path d="M32.65,170.50L32.65,170.76L32.79,171.01L33.05,171.21L42.87,176.88L43.06,177.03L43.24,177.24L43.38,177.48L43.47,177.73L43.50,177.97L43.50,179.43"/><path d="M34.48,168.64L82.03,141.19L82.22,141.12L82.40,141.12L83.04,141.49L83.13,141.64L83.16,141.85L83.16,143.13"/><path d="M43.50,178.56L43.78,178.39"/><path d="M79.24,149.71L78.94,149.53L78.55,149.53L78.12,149.70L76.11,150.86L75.68,151.19L75.29,151.64L74.99,152.17L74.79,152.73L74.76,152.98"/><path d="M76.71,153.13L77.24,152.82"/><path d="M78.92,149.73L78.81,149.53"/><path d="M83.16,144.12L83.16,154.84"/></g></g><g id="Actor_.11"><g style="stroke:#000000;stroke-width:0.176"><path d="M141.05,195.99L140.73,195.33"/><path d="M145.50,185.24L146.75,187.78L146.28,187.68L145.71,187.81L145.12,188.17L144.56,188.72L144.08,189.41L143.75,190.17L143.58,190.92L143.59,191.57L140.29,191.49"/><path d="M141.37,196.64L142.35,197.92L145.74,196.07L144.95,193.76L143.71,191.68L144.29,192.58"/><path d="M142.35,197.92L142.93,198.82"/><path d="M144.63,192.57L144.35,192.51"/><path d="M143.59,191.57L143.96,191.39L143.71,191.68"/><path d="M143.96,191.39L143.96,190.91L144.11,190.25L144.41,189.58L144.82,188.98L145.31,188.50L145.83,188.19L146.33,188.08L146.67,188.14L146.92,187.84L149.69,188.08L152.56,187.89L153.14,188.78"/><path d="M144.54,192.29L144.88,192.35L145.38,192.23L145.90,191.92L146.39,191.44L146.80,190.84L147.10,190.17L147.24,189.51L147.25,189.04"/><path d="M144.36,190.74L144.37,191.19L144.50,191.54L144.73,191.76L145.06,191.84L145.44,191.75L145.83,191.51L146.20,191.15L146.51,190.69L146.74,190.19L146.85,189.69L146.84,189.24L146.71,188.88L146.47,188.66L146.15,188.59L145.77,188.67"/><path d="M145.74,196.07L146.31,196.96"/><path d="M146.08,188.81L146.28,188.99L146.28,189.00L146.38,189.28L146.39,189.65L146.30,190.06L146.12,190.47L145.86,190.84L145.56,191.14L145.24,191.33L144.93,191.40L144.66,191.35"/><path d="M146.67,188.14L146.75,187.78"/><path d="M147.49,188.74L146.92,187.84"/><path d="M153.47,184.60L152.56,187.89"/></g><g style="stroke:#000000;stroke-width:0.353"><path d="M141.14,196.17L140.99,195.87L140.73,195.33L140.34,193.92L140.24,191.55L140.29,191.49L140.16,190.56L140.30,189.42L140.72,188.23L141.36,187.08L142.18,186.11L143.09,185.38L144.01,184.98L144.85,184.94L145.50,185.24L145.56,185.17L148.26,184.43L149.98,184.24L151.69,184.28L153.47,184.60L154.04,185.50L153.90,186.02"/><path d="M141.05,195.99L141.37,196.65L141.95,197.54L142.93,198.82L146.31,196.96L145.52,194.66L144.29,192.58L144.54,192.29"/><path d="M147.33,188.94L147.33,189.33L147.16,190.08L146.83,190.84L146.35,191.53L145.79,192.08L145.20,192.44L144.63,192.57L144.29,192.58"/><path d="M144.36,190.73L144.36,190.87L144.47,191.16L144.66,191.35"/><path d="M144.36,190.74L144.47,190.24L144.64,189.86L144.69,189.73L145.01,189.28L145.38,188.91L145.77,188.67"/><path d="M145.54,188.82L145.82,188.75L146.08,188.81"/><path d="M147.25,189.04L147.49,188.74L150.26,188.97L153.14,188.78L153.66,186.87"/></g></g><g id="Actor_.12"><g style="stroke:#000000;stroke-width:0.176"><path d="M28.09,203.41L29.35,204.14L29.48,204.97L29.83,205.57"/><path d="M28.09,194.69L29.35,195.41L29.35,204.14"/><path d="M29.35,195.41L29.48,194.45L29.83,193.43L30.39,192.46L31.09,191.65L31.87,191.05L33.26,190.25L32.00,189.53"/><path d="M31.87,191.05L30.61,190.33"/><path d="M31.30,203.84L31.54,203.84L31.81,203.73L32.09,203.53L32.33,203.24L32.53,202.90L32.65,202.55L32.70,202.21L32.65,201.92L32.53,201.71L32.33,201.59"/><path d="M32.33,192.87L32.53,192.98L32.65,193.20L32.70,193.48L32.65,193.82L32.53,194.18L32.33,194.52L32.09,194.80L31.81,195.01L31.54,195.12L31.30,195.12L31.10,195.00"/><path d="M33.26,190.25L33.41,190.19L33.55,190.19L33.66,190.26"/></g><g style="stroke:#000000;stroke-width:0.353"><path d="M30.00,205.67L30.39,205.89L28.57,204.84L28.22,204.24L28.09,203.41L28.09,194.69L28.22,193.72L28.57,192.70L28.70,192.48"/><path d="M32.30,189.47L32.29,189.47L32.15,189.47L32.00,189.53L30.61,190.33L29.83,190.92L29.13,191.74"/><path d="M30.39,205.89L31.09,205.90L31.87,205.59L33.26,204.79L33.41,204.67L33.55,204.51L33.66,204.32L33.73,204.11L33.76,203.92L33.76,190.54L33.73,190.38L33.66,190.26"/><path d="M31.19,203.78L31.30,203.84L31.10,203.73L30.98,203.51L30.93,203.23L30.98,202.89L31.10,202.53L31.30,202.19L31.54,201.91L31.81,201.70L32.09,201.59L32.33,201.59L32.53,201.71"/><path d="M32.53,192.98L32.33,192.87L32.09,192.87L31.81,192.98L31.54,193.18L31.30,193.47L31.10,193.81L30.98,194.16L30.93,194.50L30.98,194.79L31.10,195.00"/><path d="M32.97,189.86L33.61,190.22"/></g></g><g id="Actor_.13"><g style="stroke:#000000;stroke-width:0.176"><path d="M86.10,120.71L86.06,120.68L86.05,120.68"/><path d="M86.53,120.96L86.49,120.93L86.44,120.93L86.38,120.96L86.32,121.00L86.27,121.06L86.23,121.13L86.20,121.21L86.19,121.28L86.20,121.35L86.23,121.39"/></g><g style="stroke:#000000;stroke-width:0.353"><path d="M85.18,119.16L81.25,116.89L81.07,116.79L80.84,116.79L80.59,116.89L80.33,117.08L80.11,117.35L79.93,117.66L79.81,117.99L79.77,118.31L79.81,118.57L79.93,118.77L84.06,121.15"/><path d="M86.03,118.69L86.13,118.65L86.58,118.65L86.95,118.86L87.18,119.25L87.26,119.78L87.18,120.41L86.95,121.08L86.59,121.70L86.14,122.24L85.63,122.62L85.13,122.83L84.67,122.82L84.31,122.62L84.07,122.23L83.99,121.69L84.07,121.06L84.30,120.40L84.66,119.77L85.11,119.24L85.18,119.19"/><path d="M86.10,120.71L86.53,120.96L86.56,121.00L86.57,121.06L86.56,121.14L86.53,121.21L86.49,121.28L86.44,121.35L86.38,121.39L86.32,121.41L86.27,121.41L86.05,121.29"/></g></g><g id="Actor_.14"><g style="stroke:#000000;stroke-width:0.176"><path d="M74.31,204.55L74.09,204.08L74.05,203.46L74.07,203.37L74.18,202.76L74.47,202.04L74.90,201.38L75.41,200.83L75.97,200.46L76.52,200.29L76.99,200.36"/><path d="M75.86,204.71L75.35,204.86L74.90,204.80L74.55,204.54L74.35,204.09L74.31,203.51L74.34,203.37L74.43,202.85L74.71,202.17L75.11,201.54L75.60,201.02L76.13,200.67L76.64,200.52L77.09,200.57L77.43,200.84L77.64,201.28L77.65,201.55"/><path d="M77.01,200.37L76.54,200.31L75.99,200.47L75.44,200.84L75.08,201.22L74.92,201.39L74.49,202.05L74.20,202.77L74.07,203.48L74.11,204.09L74.33,204.57L74.69,204.85"/><path d="M75.60,204.57L75.52,204.61L75.08,204.31L74.49,203.92L74.91,202.89L75.14,201.75L75.96,201.35L76.64,200.86L77.58,201.51L77.58,201.51"/><path d="M74.49,203.92L74.54,203.91L74.59,203.90L74.63,203.91L74.64,203.91L74.66,203.92L75.21,204.28L75.64,204.58"/><path d="M75.64,204.49L74.66,203.92L75.05,202.93L75.28,201.86L76.26,202.42L76.41,203.16L76.40,203.43L76.36,203.69L76.26,203.91L76.13,204.10L75.64,204.49L76.26,204.87L76.44,204.99L76.59,205.09L76.69,205.16L76.75,205.21L76.76,205.23"/><path d="M75.52,204.61L75.54,204.59L75.57,204.57"/><path d="M75.14,201.75L75.17,201.78L75.21,201.81L75.25,201.84L75.28,201.86L76.05,201.47L76.70,201.00"/><path d="M77.82,201.65L77.74,201.86L77.63,202.02L77.46,202.15L77.12,202.43L76.80,202.80L76.54,203.23L76.36,203.69L76.27,204.13L76.28,204.54L76.39,204.87L76.59,205.09L76.87,205.19L77.21,205.16L77.57,204.99"/><path d="M76.64,204.00L76.66,204.30L76.77,204.54L76.95,204.68L77.18,204.71L77.45,204.63L77.72,204.44L77.98,204.17L78.19,203.84L78.33,203.49L78.40,203.14L78.38,202.84L78.27,202.61L78.09,202.47L77.86,202.44L77.59,202.52"/><path d="M77.88,202.55L78.04,202.67L78.13,202.87L78.15,203.13L78.09,203.43L77.97,203.73L77.79,204.01L77.57,204.24L77.33,204.40L77.29,204.42L77.10,204.47L76.90,204.45"/><path d="M76.26,202.42L77.02,202.33L77.26,202.26L77.46,202.15L77.83,201.99L78.17,201.95L78.45,202.05L78.65,202.27"/><path d="M76.64,200.86L76.64,200.90L76.65,200.94L76.67,200.98L76.70,201.00"/><path d="M77.58,201.51L77.58,201.51"/></g><g style="stroke:#000000;stroke-width:0.353"><path d="M77.68,201.57L77.65,201.19L77.44,200.73L77.42,200.68L77.38,200.65L77.01,200.37L76.99,200.36L76.94,200.34L76.47,200.28L76.42,200.28L75.88,200.44L75.85,200.46L75.31,200.82L74.81,201.35L74.40,201.99L74.12,202.69L73.99,203.36L73.99,203.40L74.03,204.01L74.24,204.47L74.27,204.52L74.31,204.55L74.67,204.84L74.69,204.85L74.74,204.86L75.21,204.93L75.26,204.92L75.80,204.76L75.84,204.74L75.87,204.72"/><path d="M75.57,204.57L75.60,204.57L75.61,204.57L75.64,204.58L76.76,205.23L77.10,205.17L77.21,205.16L77.36,205.10L77.57,204.99L77.92,204.72L78.24,204.34L78.50,203.91L78.68,203.45L78.77,203.01L78.76,202.60L78.65,202.27L78.60,202.17L78.55,202.13L78.45,202.05L78.29,201.95L78.10,201.83L77.82,201.65L76.70,201.00"/><path d="M77.59,202.52L77.31,202.70L77.06,202.97L76.85,203.30L76.71,203.65L76.64,204.00"/><path d="M76.65,203.97L76.66,204.13L76.75,204.33L76.90,204.45"/><path d="M77.88,202.55L77.68,202.53L77.49,202.58"/></g></g><g id="Actor_.15"><g style="stroke:#000000;stroke-width:0.176"><path d="M51.55,66.27L51.57,66.32L51.61,66.36L51.67,66.39L51.75,66.41L51.83,66.42L51.92,66.40L51.99,66.38L52.04,66.34L52.06,66.32L52.08,66.30L52.08,66.25"/><path d="M51.55,65.77L51.57,65.82L51.61,65.86L51.67,65.89L51.75,65.91L51.83,65.92L51.92,65.91L51.99,65.88L52.04,65.85L52.08,65.80L52.08,65.75"/></g><g style="stroke:#000000;stroke-width:0.353"><path d="M49.51,66.72L49.67,67.13L50.04,67.49L50.58,67.76L51.24,67.93L51.97,67.97L52.67,67.88L53.00,67.77L53.30,67.66L53.77,67.35L54.06,66.97L54.13,66.55L53.97,66.14L53.60,65.78L53.05,65.51L52.39,65.34L51.67,65.30L50.96,65.39L50.34,65.61L49.86,65.92L49.57,66.30L49.51,66.72"/><path d="M52.97,67.77L52.97,72.41L52.94,72.62L52.80,72.81L52.56,72.96L52.24,73.07L51.89,73.12L51.53,73.10L51.20,73.02L50.93,72.88L50.74,72.70L50.66,72.49L50.66,67.79"/><path d="M51.55,66.27L51.55,65.77L51.56,65.72L51.59,65.68L51.65,65.64L51.72,65.62L51.80,65.61L51.88,65.61L51.96,65.63L52.02,65.66L52.07,65.71L52.08,65.75L52.08,66.25"/></g></g><g id="Actor_.16"><g style="stroke:#000000;stroke-width:0.176"><path d="M49.02,168.16L50.77,172.18L54.52,175.70L54.79,175.57"/><path d="M49.38,168.15L49.80,164.08L52.33,160.27L56.31,157.39L56.73,157.08L62.58,154.81L69.35,153.66L76.41,153.74L82.81,154.99L83.10,155.05L88.79,157.46L92.96,160.74L93.98,162.47L95.22,164.60L95.37,168.68"/><path d="M50.75,192.18L50.39,191.58L50.27,190.75L50.01,190.60"/><path d="M50.27,190.75L50.27,182.03L50.39,181.06L50.75,180.04L51.30,179.07L52.01,178.26L52.78,177.66L52.53,177.52"/><path d="M50.27,182.03L50.01,181.88"/><path d="M51.27,191.33L51.52,191.47L51.64,192.30L52.00,192.91"/><path d="M51.52,191.47L51.52,182.75L51.64,181.78L52.00,180.76L52.56,179.80L53.26,178.98L54.04,178.39L53.79,178.24"/><path d="M51.52,182.75L51.27,182.61"/><path d="M52.78,177.66L54.73,176.54L54.95,176.37L55.07,176.17L55.09,175.96"/><path d="M54.70,189.08L54.82,189.28L54.86,189.55L54.82,189.86L54.70,190.19L54.52,190.51L54.29,190.77L54.04,190.97L53.79,191.07L53.56,191.06L53.38,190.96"/><path d="M53.38,182.24L53.56,182.34L53.79,182.34L54.04,182.24L54.29,182.05L54.52,181.78L54.70,181.47L54.82,181.14L54.86,180.83L54.82,180.56L54.70,180.36"/><path d="M54.04,178.39L55.98,177.27L55.73,177.12"/><path d="M54.73,177.70L54.73,176.54L54.48,176.40"/><path d="M54.52,176.36L54.52,175.70L54.66,175.83L54.73,175.98"/><path d="M55.98,191.81L55.98,177.27L56.20,177.18L56.45,177.13L56.71,177.12L56.97,177.16L57.19,177.24L57.19,191.78"/><path d="M57.42,177.08L57.19,177.24L63.29,179.41L70.24,180.42L77.40,180.17L84.09,178.69L89.70,176.11L93.70,172.67L95.72,168.70"/></g><g style="stroke:#000000;stroke-width:0.353"><path d="M50.01,184.99L49.51,183.83"/><path d="M49.38,168.15L51.09,172.10L54.99,175.75L55.09,175.96L55.09,177.50"/><path d="M78.76,194.41L84.09,193.22L89.70,190.65L93.70,187.21L95.72,183.24L95.72,168.70L95.58,164.57L93.28,160.65L89.04,157.31L83.26,154.86L81.70,154.56L76.47,153.54L69.31,153.46L62.43,154.62L56.48,156.93L52.02,160.17L49.45,164.03L49.02,168.16L49.02,168.24"/><path d="M50.49,192.04L50.79,192.21L50.49,192.04L50.14,191.43L50.01,190.60L50.01,181.88L50.14,180.91L50.49,179.89L50.98,179.05L51.05,178.93L51.75,178.11L52.53,177.52L54.48,176.40L54.63,176.27L54.72,176.13L54.73,175.98"/><path d="M50.79,192.21L51.30,192.50L51.60,192.51"/><path d="M74.01,194.82L70.24,194.96L63.29,193.95L56.97,191.70L56.71,191.66L56.45,191.66L56.20,191.72L55.98,191.81L54.04,192.93L53.26,193.24L52.56,193.23L51.75,192.76L51.39,192.16L51.27,191.33L51.27,182.61L51.39,181.64L51.75,180.62L52.31,179.65L53.01,178.84L53.79,178.24L55.73,177.12L56.03,177.00L56.38,176.92L56.75,176.92L57.11,176.97L63.43,179.22L70.28,180.21L77.32,179.97L83.91,178.51L89.43,175.97L90.54,175.02L93.37,172.59L95.37,168.68"/><path d="M51.30,192.50L50.98,192.32"/><path d="M52.31,193.08L51.89,192.84"/><path d="M52.56,193.23L52.00,192.91"/><path d="M54.47,188.98L54.57,189.13L54.61,189.40L54.57,189.72L54.45,190.05L54.42,190.11L54.27,190.36L54.04,190.63L53.79,190.82L53.53,190.92L53.35,190.92"/><path d="M54.70,189.08L54.52,188.98L54.29,188.98L54.04,189.08L53.79,189.27L53.56,189.53L53.38,189.85L53.26,190.18L53.22,190.49L53.26,190.76L53.38,190.96"/><path d="M53.38,182.24L53.26,182.04L53.22,181.77L53.26,181.46L53.38,181.12L53.56,180.81L53.79,180.55L54.04,180.35L54.29,180.25L54.52,180.26L54.70,180.36L54.63,180.32"/><path d="M53.35,182.20L53.53,182.20L53.79,182.10L54.04,181.91L54.27,181.64L54.45,181.33L54.57,181.00L54.61,180.68L54.57,180.41L54.47,180.26"/><path d="M91.54,174.16L88.79,171.99L83.10,169.59L76.41,168.28L69.35,168.20L62.58,169.35L56.73,171.62L53.26,174.13"/></g></g><g id="Actor_.17"><g style="stroke:#000000;stroke-width:0.176"><path d="M59.10,61.91L59.12,61.95L59.16,62.00L59.23,62.03L59.30,62.05L59.38,62.05L59.47,62.04L59.54,62.02L59.59,61.98L59.63,61.94L59.64,61.89"/><path d="M59.10,61.41L59.12,61.46L59.16,61.50L59.22,61.53L59.30,61.55L59.38,61.56L59.47,61.55L59.54,61.52L59.59,61.49L59.63,61.44L59.64,61.39"/></g><g style="stroke:#000000;stroke-width:0.353"><path d="M57.41,62.95L57.21,62.75L57.06,62.34L57.14,61.92L57.44,61.54L57.93,61.23L58.55,61.02L59.26,60.94L59.62,60.96L59.98,60.98L60.64,61.16L61.18,61.44L61.54,61.80L61.68,62.21L61.60,62.63L61.31,63.01L60.82,63.32L60.19,63.52L59.48,63.61L58.76,63.56L58.10,63.39L57.56,63.11L57.41,62.95"/><path d="M60.53,63.41L60.53,68.06L60.49,68.27L60.34,68.46L60.09,68.61L59.78,68.71L59.43,68.76L59.07,68.73L58.74,68.65L58.52,68.53L58.47,68.51L58.29,68.32L58.22,68.12L58.22,63.42"/><path d="M59.10,61.91L59.10,61.41L59.11,61.36L59.15,61.32L59.20,61.28L59.28,61.26L59.36,61.25L59.44,61.25L59.52,61.27L59.58,61.30L59.62,61.35L59.64,61.39L59.64,61.89"/></g></g><g><g><path style="stroke:#a0a0a4;stroke-width:0.449;stroke-dasharray:0.4 0.4" d="M81.41,153.15L87.46,156.64"/><path style="stroke:#a0a0a4;stroke-width:0.449;stroke-dasharray:0.4 0.4" d="M90.20,158.22L141.07,187.59"/><path style="stroke:#a0a0a4;stroke-width:0.449;stroke-dasharray:0.4 0.4" d="M146.31,190.62L144.72,189.70"/></g></g><g><g><path style="stroke:#a0a0a4;stroke-width:0.500;stroke-dasharray:0.4 0.4" d="M67.04,110.01L80.02,117.50"/></g></g><g><g/></g><g><g><path style="stroke:#a0a0a4;stroke-width:0.500;stroke-dasharray:0.4 0.4" d="M59.37,68.75L59.37,98.60"/></g></g><g><g><path style="stroke:#a0a0a4;stroke-width:0.500;stroke-dasharray:0.4 0.4" d="M59.49,114.37L72.46,121.86"/></g></g><g><g><path style="stroke:#a0a0a4;stroke-width:0.500;stroke-dasharray:0.4 0.4" d="M49.42,187.35L50.01,187.69"/><path style="stroke:#a0a0a4;stroke-width:0.500;stroke-dasharray:0.4 0.4" d="M74.50,201.83L53.47,189.69"/></g></g><g><g><path style="stroke:#a0a0a4;stroke-width:0.500;stroke-dasharray:0.4 0.4" d="M51.82,73.11L51.82,102.96"/></g></g><g><g><path style="stroke:#a0a0a4;stroke-width:0.449;stroke-dasharray:0.4 0.4" d="M51.27,186.39L33.76,196.50"/></g></g><g><g><path style="stroke:#a0a0a4;stroke-width:0.500;stroke-dasharray:0.4 0.4" d="M49.43,178.63L50.77,179.41"/><path style="stroke:#a0a0a4;stroke-width:0.500;stroke-dasharray:0.4 0.4" d="M74.51,193.11L53.47,180.96"/></g></g><g><g/></g><g><g/></g><g><g/></g><g id="PMI3.0"><g><path style="stroke:#0085ca;stroke-width:0.500" d="M92.81,137.80L80.14,145.45"/></g><g><path style="fill:#0085ca" d="M81.14,145.45L81.13,145.35L81.12,145.26L81.09,145.16L81.06,145.07L81.02,144.98L80.97,144.90L80.91,144.82L80.84,144.75L80.77,144.68L80.69,144.62L80.61,144.57L80.52,144.53L80.43,144.50L80.33,144.47L80.23,144.46L80.14,144.45L80.04,144.46L79.94,144.47L79.85,144.50L79.75,144.53L79.66,144.57L79.58,144.62L79.50,144.68L79.43,144.75L79.36,144.82L79.30,144.90L79.25,144.98L79.21,145.07L79.18,145.16L79.16,145.26L79.14,145.35L79.14,145.45L79.14,145.55L79.16,145.65L79.18,145.74L79.21,145.84L79.25,145.92L79.30,146.01L79.36,146.09L79.43,146.16L79.50,146.23L79.58,146.28L79.66,146.33L79.75,146.38L79.85,146.41L79.94,146.43L80.04,146.45L80.14,146.45L80.23,146.45L80.33,146.43L80.43,146.41L80.52,146.38L80.61,146.33L80.69,146.28L80.77,146.23L80.84,146.16L80.91,146.09L80.97,146.01L81.02,145.92L81.06,145.84L81.09,145.74L81.12,145.65L81.13,145.55z"/></g><g><path style="fill:#0085ca" d="M92.81,139.14L99.58,139.14L99.58,132.37L92.81,132.37z"/><text xml:space="preserve" fill="#ffffff" stroke-width="0" x="95.28" y="137.24" font-size="2.75" opacity="1.00" font-family="Rubik Medium">3</text></g></g><g id="PMI5.0"><g><path style="stroke:#0085ca;stroke-width:0.500" d="M26.91,164.84L42.50,173.68"/></g><g><path style="fill:#0085ca" d="M43.51,173.68L43.50,173.58L43.49,173.48L43.46,173.39L43.43,173.29L43.39,173.20L43.34,173.12L43.28,173.04L43.21,172.97L43.14,172.90L43.06,172.84L42.98,172.79L42.89,172.75L42.80,172.72L42.70,172.70L42.60,172.68L42.51,172.68L42.41,172.68L42.31,172.70L42.21,172.72L42.12,172.75L42.03,172.79L41.95,172.84L41.87,172.90L41.80,172.97L41.73,173.04L41.67,173.12L41.62,173.20L41.58,173.29L41.55,173.39L41.52,173.48L41.51,173.58L41.51,173.68L41.51,173.77L41.52,173.87L41.55,173.97L41.58,174.06L41.62,174.15L41.67,174.23L41.73,174.31L41.80,174.38L41.87,174.45L41.95,174.51L42.03,174.56L42.12,174.60L42.21,174.63L42.31,174.66L42.41,174.67L42.51,174.68L42.60,174.67L42.70,174.66L42.80,174.63L42.89,174.60L42.98,174.56L43.06,174.51L43.14,174.45L43.21,174.38L43.28,174.31L43.34,174.23L43.39,174.15L43.43,174.06L43.46,173.97L43.49,173.87L43.50,173.77z"/></g><g><path style="fill:#0085ca" d="M20.14,166.31L26.91,166.31L26.91,159.53L20.14,159.53z"/><text xml:space="preserve" fill="#ffffff" stroke-width="0" x="22.63" y="164.40" font-size="2.75" opacity="1.00" font-family="Rubik Medium">5</text></g></g><g id="PMI1.0"><g><path style="stroke:#0085ca;stroke-width:0.500" d="M85.39,91.67L85.63,121.68"/></g><g><path style="fill:#0085ca" d="M86.63,121.68L86.62,121.58L86.61,121.49L86.59,121.39L86.55,121.30L86.51,121.21L86.46,121.12L86.40,121.05L86.34,120.97L86.26,120.91L86.19,120.85L86.10,120.80L86.01,120.76L85.92,120.72L85.82,120.70L85.73,120.69L85.63,120.68L85.53,120.68L85.43,120.70L85.34,120.72L85.25,120.76L85.16,120.80L85.07,120.85L85.00,120.91L84.92,120.97L84.86,121.05L84.80,121.12L84.75,121.21L84.71,121.30L84.67,121.39L84.65,121.49L84.63,121.58L84.63,121.68L84.63,121.78L84.65,121.88L84.67,121.97L84.71,122.06L84.75,122.15L84.80,122.24L84.86,122.31L84.92,122.39L85.00,122.45L85.07,122.51L85.16,122.56L85.25,122.60L85.34,122.64L85.43,122.66L85.53,122.68L85.63,122.68L85.73,122.68L85.82,122.66L85.92,122.64L86.01,122.60L86.10,122.56L86.18,122.51L86.26,122.45L86.34,122.39L86.40,122.31L86.46,122.24L86.51,122.15L86.55,122.06L86.59,121.97L86.61,121.88L86.62,121.78z"/></g><g><path style="fill:#0085ca" d="M81.98,91.67L88.75,91.67L88.75,84.90L81.98,84.90z"/><text xml:space="preserve" fill="#ffffff" stroke-width="0" x="84.68" y="89.76" font-size="2.75" opacity="1.00" font-family="Rubik Medium">1</text></g></g><g id="PMI2.0"><g><path style="stroke:#0085ca;stroke-width:0.500" d="M176.25,186.34L153.25,186.45"/></g><g><path style="fill:#0085ca" d="M154.25,186.45L154.24,186.35L154.23,186.25L154.20,186.16L154.17,186.06L154.13,185.98L154.08,185.89L154.02,185.81L153.95,185.74L153.88,185.67L153.80,185.62L153.72,185.56L153.63,185.52L153.54,185.49L153.44,185.47L153.34,185.45L153.25,185.45L153.15,185.45L153.05,185.47L152.95,185.49L152.86,185.52L152.77,185.56L152.69,185.61L152.61,185.67L152.54,185.74L152.47,185.81L152.41,185.89L152.36,185.98L152.32,186.06L152.29,186.16L152.26,186.25L152.25,186.35L152.25,186.45L152.25,186.54L152.26,186.64L152.29,186.74L152.32,186.83L152.36,186.92L152.41,187.00L152.47,187.08L152.54,187.15L152.61,187.22L152.69,187.28L152.77,187.33L152.86,187.37L152.96,187.40L153.05,187.43L153.15,187.44L153.25,187.45L153.34,187.44L153.44,187.43L153.54,187.40L153.63,187.37L153.72,187.33L153.80,187.28L153.88,187.22L153.95,187.15L154.02,187.08L154.08,187.00L154.13,186.92L154.17,186.83L154.20,186.74L154.23,186.64L154.24,186.54z"/></g><g><path style="fill:#0085ca" d="M176.25,189.71L183.02,189.71L183.02,182.94L176.25,182.94z"/><text xml:space="preserve" fill="#ffffff" stroke-width="0" x="178.75" y="187.81" font-size="2.75" opacity="1.00" font-family="Rubik Medium">2</text></g></g><g id="PMI4.0"><g><path style="stroke:#0085ca;stroke-width:0.500" d="M13.28,183.00L28.93,192.11"/></g><g><path style="fill:#0085ca" d="M29.93,192.11L29.92,192.02L29.91,191.92L29.88,191.82L29.85,191.73L29.81,191.64L29.76,191.56L29.70,191.48L29.63,191.41L29.56,191.34L29.48,191.28L29.40,191.23L29.31,191.19L29.22,191.16L29.12,191.13L29.03,191.12L28.93,191.11L28.83,191.12L28.73,191.13L28.64,191.16L28.54,191.19L28.46,191.23L28.37,191.28L28.29,191.34L28.22,191.41L28.15,191.48L28.10,191.56L28.05,191.64L28.00,191.73L27.97,191.82L27.95,191.92L27.93,192.02L27.93,192.11L27.93,192.21L27.95,192.31L27.97,192.40L28.00,192.50L28.05,192.59L28.10,192.67L28.15,192.75L28.22,192.82L28.29,192.89L28.37,192.95L28.46,193.00L28.54,193.04L28.64,193.07L28.73,193.09L28.83,193.11L28.93,193.11L29.03,193.11L29.12,193.09L29.22,193.07L29.31,193.04L29.40,193.00L29.48,192.95L29.56,192.89L29.63,192.82L29.70,192.75L29.76,192.67L29.81,192.59L29.85,192.50L29.88,192.40L29.91,192.31L29.92,192.21z"/></g><g><path style="fill:#0085ca" d="M6.51,184.41L13.28,184.41L13.28,177.64L6.51,177.64z"/><text xml:space="preserve" fill="#ffffff" stroke-width="0" x="8.94" y="182.51" font-size="2.75" opacity="1.00" font-family="Rubik Medium">4</text></g></g><g id="PMI6.0"><g><path style="stroke:#0085ca;stroke-width:0.500" d="M97.65,202.90L78.82,203.00"/></g><g><path style="fill:#0085ca" d="M79.82,203.00L79.81,202.91L79.80,202.81L79.78,202.71L79.74,202.62L79.70,202.53L79.65,202.45L79.59,202.37L79.53,202.30L79.45,202.23L79.38,202.17L79.29,202.12L79.20,202.08L79.11,202.05L79.01,202.02L78.92,202.01L78.82,202.00L78.72,202.01L78.62,202.02L78.53,202.05L78.44,202.08L78.35,202.12L78.26,202.17L78.19,202.23L78.11,202.30L78.05,202.37L77.99,202.45L77.94,202.53L77.90,202.62L77.86,202.71L77.84,202.81L77.82,202.91L77.82,203.00L77.82,203.10L77.84,203.20L77.86,203.29L77.90,203.39L77.94,203.48L77.99,203.56L78.05,203.64L78.11,203.71L78.19,203.78L78.26,203.84L78.35,203.89L78.44,203.93L78.53,203.96L78.62,203.98L78.72,204.00L78.82,204.00L78.92,204.00L79.01,203.98L79.11,203.96L79.20,203.93L79.29,203.89L79.38,203.84L79.45,203.78L79.53,203.71L79.59,203.64L79.65,203.56L79.70,203.48L79.74,203.39L79.78,203.29L79.80,203.20L79.81,203.10z"/></g><g><path style="fill:#0085ca" d="M97.65,206.27L104.43,206.27L104.43,199.50L97.65,199.50z"/><text xml:space="preserve" fill="#ffffff" stroke-width="0" x="100.14" y="204.37" font-size="2.75" opacity="1.00" font-family="Rubik Medium">6</text></g></g><g id="PMI7.0"><g><path style="stroke:#0085ca;stroke-width:0.500" d="M132.49,54.79L132.35,99.08"/></g><g><path style="fill:#0085ca" d="M133.35,99.08L133.34,98.98L133.33,98.89L133.30,98.79L133.27,98.70L133.23,98.61L133.18,98.53L133.12,98.45L133.05,98.38L132.98,98.31L132.90,98.25L132.82,98.20L132.73,98.16L132.64,98.13L132.54,98.10L132.44,98.09L132.35,98.08L132.25,98.09L132.15,98.10L132.05,98.13L131.96,98.16L131.87,98.20L131.79,98.25L131.71,98.31L131.64,98.38L131.57,98.45L131.51,98.53L131.46,98.61L131.42,98.70L131.39,98.79L131.36,98.89L131.35,98.98L131.35,99.08L131.35,99.18L131.36,99.28L131.39,99.37L131.42,99.47L131.46,99.55L131.51,99.64L131.57,99.72L131.64,99.79L131.71,99.86L131.79,99.91L131.87,99.96L131.96,100.01L132.05,100.04L132.15,100.06L132.25,100.08L132.35,100.08L132.44,100.08L132.54,100.06L132.64,100.04L132.73,100.01L132.82,99.96L132.90,99.91L132.98,99.86L133.05,99.79L133.12,99.72L133.18,99.64L133.23,99.55L133.27,99.47L133.30,99.37L133.33,99.28L133.34,99.18z"/></g><g><path style="fill:#0085ca" d="M129.12,54.79L135.89,54.79L135.89,48.02L129.12,48.02z"/><text xml:space="preserve" fill="#ffffff" stroke-width="0" x="131.72" y="52.89" font-size="2.75" opacity="1.00" font-family="Rubik Medium">7</text></g></g><g/><g id="paperID" visibility="hidden" opacity="0.00" transform="scale(0.000100)"><path style="stroke:#000000;stroke-width:0.500;fill:#e6e6e6;fill-rule:evenodd" d="M-2000.00,-2000.00L2297.00,-2000.00L2297.00,2210.00L-2000.00,2210.00zM0.00,0.00L297.00,0.00L297.00,210.00L0.00,210.00z"/><path style="fill:#000000;fill-opacity:0.118" d="M3.00,210.00L297.00,210.00L297.00,3.00L300.00,3.00L300.00,213.00L3.00,213.00z"/></g><g><g><path style="stroke:#000000;stroke-width:0.353;fill:#0085ca" d="M209.52,86.06L278.92,86.06L278.92,90.64L209.52,90.64z"/><text xml:space="preserve" fill="#ffffff" stroke-width="0" x="211.28" y="89.59" font-size="2.28" opacity="1.00" font-family="Rubik" font-weight="bold">Pos.</text><text xml:space="preserve" fill="#ffffff" stroke-width="0" x="220.06" y="89.59" font-size="2.32" opacity="1.00" font-family="Rubik" font-weight="bold">Part No</text><text xml:space="preserve" fill="#ffffff" stroke-width="0" x="238.96" y="89.59" font-size="2.25" opacity="1.00" font-family="Rubik" font-weight="bold">Qty.</text><text xml:space="preserve" fill="#ffffff" stroke-width="0" x="247.64" y="89.59" font-size="2.30" opacity="1.00" font-family="Rubik" font-weight="bold">Description</text><path style="stroke:#000000;stroke-width:0.353" d="M218.30,86.06L218.30,90.64"/><path style="stroke:#000000;stroke-width:0.353" d="M237.20,86.06L237.20,90.64"/><path style="stroke:#000000;stroke-width:0.353" d="M245.88,86.06L245.88,90.64"/></g><g id="Line1"><path style="stroke:#000000;stroke-width:0.353;fill:#ffffff" d="M209.52,90.64L278.92,90.64L278.92,95.23L209.52,95.23z"/><text xml:space="preserve" fill="#505050" stroke-width="0" x="211.28" y="94.17" font-size="2.40" opacity="1.00" font-family="Rubik">1</text><text xml:space="preserve" fill="#505050" stroke-width="0" x="220.06" y="94.17" font-size="2.51" opacity="1.00" font-family="Rubik">212195</text><text xml:space="preserve" fill="#505050" stroke-width="0" x="238.96" y="94.17" font-size="2.41" opacity="1.00" font-family="Rubik">4</text><text xml:space="preserve" fill="#505050" stroke-width="0" x="247.64" y="94.17" font-size="2.54" opacity="1.00" font-family="Rubik">Rivet MGLP R8 10 6,5x20</text><path style="stroke:#000000;stroke-width:0.353" d="M218.30,90.64L218.30,95.23"/><path style="stroke:#000000;stroke-width:0.353" d="M237.20,90.64L237.20,95.23"/><path style="stroke:#000000;stroke-width:0.353" d="M245.88,90.64L245.88,95.23"/></g><g id="Line2"><path style="stroke:#000000;stroke-width:0.353;fill:#e7f5fd" d="M209.52,95.23L278.92,95.23L278.92,99.81L209.52,99.81z"/><text xml:space="preserve" fill="#505050" stroke-width="0" x="211.28" y="98.76" font-size="2.36" opacity="1.00" font-family="Rubik">2</text><text xml:space="preserve" fill="#505050" stroke-width="0" x="220.06" y="98.76" font-size="2.52" opacity="1.00" font-family="Rubik">220016</text><text xml:space="preserve" fill="#505050" stroke-width="0" x="238.96" y="98.76" font-size="2.40" opacity="1.00" font-family="Rubik">1</text><text xml:space="preserve" fill="#505050" stroke-width="0" x="247.64" y="98.76" font-size="2.55" opacity="1.00" font-family="Rubik">A2 M10 wing nut</text><path style="stroke:#000000;stroke-width:0.353" d="M218.30,95.23L218.30,99.81"/><path style="stroke:#000000;stroke-width:0.353" d="M237.20,95.23L237.20,99.81"/><path style="stroke:#000000;stroke-width:0.353" d="M245.88,95.23L245.88,99.81"/></g><g id="Line3"><path style="stroke:#000000;stroke-width:0.353;fill:#ffffff" d="M209.52,99.81L278.92,99.81L278.92,104.40L209.52,104.40z"/><text xml:space="preserve" fill="#505050" stroke-width="0" x="211.28" y="103.34" font-size="2.39" opacity="1.00" font-family="Rubik">3</text><text xml:space="preserve" fill="#505050" stroke-width="0" x="220.06" y="103.34" font-size="2.53" opacity="1.00" font-family="Rubik">5A46034501</text><text xml:space="preserve" fill="#505050" stroke-width="0" x="238.96" y="103.34" font-size="2.40" opacity="1.00" font-family="Rubik">1</text><text xml:space="preserve" fill="#505050" stroke-width="0" x="247.64" y="103.34" font-size="2.54" opacity="1.00" font-family="Rubik">Reservoir support</text><path style="stroke:#000000;stroke-width:0.353" d="M218.30,99.81L218.30,104.40"/><path style="stroke:#000000;stroke-width:0.353" d="M237.20,99.81L237.20,104.40"/><path style="stroke:#000000;stroke-width:0.353" d="M245.88,99.81L245.88,104.40"/></g><g id="Line4"><path style="stroke:#000000;stroke-width:0.353;fill:#e7f5fd" d="M209.52,104.40L278.92,104.40L278.92,108.98L209.52,108.98z"/><text xml:space="preserve" fill="#505050" stroke-width="0" x="211.28" y="107.93" font-size="2.41" opacity="1.00" font-family="Rubik">4</text><text xml:space="preserve" fill="#505050" stroke-width="0" x="220.06" y="107.93" font-size="2.53" opacity="1.00" font-family="Rubik">5A46038001</text><text xml:space="preserve" fill="#505050" stroke-width="0" x="238.96" y="107.93" font-size="2.40" opacity="1.00" font-family="Rubik">1</text><text xml:space="preserve" fill="#505050" stroke-width="0" x="247.64" y="107.93" font-size="2.52" opacity="1.00" font-family="Rubik">Spacer</text><path style="stroke:#000000;stroke-width:0.353" d="M218.30,104.40L218.30,108.98"/><path style="stroke:#000000;stroke-width:0.353" d="M237.20,104.40L237.20,108.98"/><path style="stroke:#000000;stroke-width:0.353" d="M245.88,104.40L245.88,108.98"/></g><g id="Line5"><path style="stroke:#000000;stroke-width:0.353;fill:#ffffff" d="M209.52,108.98L278.92,108.98L278.92,113.57L209.52,113.57z"/><text xml:space="preserve" fill="#505050" stroke-width="0" x="211.28" y="112.51" font-size="2.36" opacity="1.00" font-family="Rubik">5</text><text xml:space="preserve" fill="#505050" stroke-width="0" x="220.06" y="112.51" font-size="2.54" opacity="1.00" font-family="Rubik">70023871</text><text xml:space="preserve" fill="#505050" stroke-width="0" x="238.96" y="112.51" font-size="2.36" opacity="1.00" font-family="Rubik">2</text><text xml:space="preserve" fill="#505050" stroke-width="0" x="247.64" y="112.51" font-size="2.54" opacity="1.00" font-family="Rubik">Hex flange screw M6X20</text><path style="stroke:#000000;stroke-width:0.353" d="M218.30,108.98L218.30,113.57"/><path style="stroke:#000000;stroke-width:0.353" d="M237.20,108.98L237.20,113.57"/><path style="stroke:#000000;stroke-width:0.353" d="M245.88,108.98L245.88,113.57"/></g><g id="Line6"><path style="stroke:#000000;stroke-width:0.353;fill:#e7f5fd" d="M209.52,113.57L278.92,113.57L278.92,118.15L209.52,118.15z"/><text xml:space="preserve" fill="#505050" stroke-width="0" x="211.28" y="117.10" font-size="2.38" opacity="1.00" font-family="Rubik">6</text><text xml:space="preserve" fill="#505050" stroke-width="0" x="220.06" y="117.10" font-size="2.54" opacity="1.00" font-family="Rubik">70024156</text><text xml:space="preserve" fill="#505050" stroke-width="0" x="238.96" y="117.10" font-size="2.36" opacity="1.00" font-family="Rubik">2</text><text xml:space="preserve" fill="#505050" stroke-width="0" x="247.64" y="117.10" font-size="2.55" opacity="1.00" font-family="Rubik">Self lock nut M6</text><path style="stroke:#000000;stroke-width:0.353" d="M218.30,113.57L218.30,118.15"/><path style="stroke:#000000;stroke-width:0.353" d="M237.20,113.57L237.20,118.15"/><path style="stroke:#000000;stroke-width:0.353" d="M245.88,113.57L245.88,118.15"/></g><g id="Line7"><path style="stroke:#000000;stroke-width:0.353;fill:#ffffff" d="M209.52,118.15L278.92,118.15L278.92,122.74L209.52,122.74z"/><text xml:space="preserve" fill="#505050" stroke-width="0" x="211.28" y="121.68" font-size="2.41" opacity="1.00" font-family="Rubik">7</text><text xml:space="preserve" fill="#505050" stroke-width="0" x="220.06" y="121.68" font-size="2.53" opacity="1.00" font-family="Rubik">TBA</text><text xml:space="preserve" fill="#505050" stroke-width="0" x="238.96" y="121.68" font-size="2.40" opacity="1.00" font-family="Rubik">1</text><text xml:space="preserve" fill="#505050" stroke-width="0" x="247.64" y="121.68" font-size="2.55" opacity="1.00" font-family="Rubik">Power steering reservoir</text><path style="stroke:#000000;stroke-width:0.353" d="M218.30,118.15L218.30,122.74"/><path style="stroke:#000000;stroke-width:0.353" d="M237.20,118.15L237.20,122.74"/><path style="stroke:#000000;stroke-width:0.353" d="M245.88,118.15L245.88,122.74"/></g></g><g id="hotspot.0" ident="" onmouseover="ShowHotSpot(evt,&apos;0&apos;)" onmouseout="HideHotSpot(evt,&apos;0&apos;)" onmousemove="ShowToolTip(evt,&apos;0&apos;,&quot;Revolve1&quot;)" opacity="0"><path style="fill:#00ff00;fill-rule:evenodd" d="M209.52,90.64L209.52,95.23L278.92,95.23L278.92,90.64zM61.11,61.45L61.56,62.13L61.56,62.64L60.65,63.30L60.44,68.17L60.14,68.53L58.44,68.53L58.22,68.31L58.02,63.43L57.12,62.79L57.12,61.76L57.71,61.24L58.37,61.02L59.99,61.02zM53.59,65.87L54.02,66.52L53.81,67.05L52.86,67.87L52.70,72.79L52.44,72.97L50.93,72.94L50.71,72.72L50.52,67.84L49.61,67.20L49.59,66.15L50.63,65.43L52.71,65.43zM81.99,91.58L81.99,84.86L88.48,84.86L88.48,91.58L85.52,91.71L85.82,118.73L86.49,118.62L87.18,119.54L87.16,120.04L86.49,122.04L85.77,122.64L84.28,122.63L84.06,122.41L83.84,121.08L79.80,118.72L79.85,117.60L80.44,116.87L81.19,116.87L85.18,119.16L85.16,99.89L84.95,91.71zM77.21,123.32L77.80,123.32L78.24,123.05L78.99,123.05L79.43,123.50L79.43,125.14L78.98,126.02L77.82,127.06L76.77,127.05L76.55,126.83L76.32,125.51L72.29,123.14L72.36,121.82L72.94,121.29L73.69,121.29z"/></g><g id="hotspot.1" ident="" onmouseover="ShowHotSpot(evt,&apos;1&apos;)" onmouseout="HideHotSpot(evt,&apos;1&apos;)" onmousemove="ShowToolTip(evt,&apos;1&apos;,&quot;6460610&quot;)" opacity="0"><path style="fill:#00ff00;fill-rule:evenodd" d="M209.52,95.23L209.52,99.81L278.92,99.81L278.92,95.23zM153.37,184.70L153.65,185.08L154.05,186.01L176.15,186.09L176.28,182.90L182.77,182.90L182.77,189.62L176.28,189.62L176.15,186.66L154.18,186.65L153.98,186.89L153.40,187.41L152.95,188.73L151.12,188.88L147.37,188.88L146.70,190.87L145.45,192.26L144.28,192.61L145.25,194.37L146.14,196.91L143.17,198.62L142.59,198.60L140.80,195.73L140.35,194.41L140.07,190.21L140.73,187.99L141.93,186.32L143.01,185.41L143.60,185.11L145.59,185.14L148.02,184.46L149.57,184.24L151.41,184.24z"/></g><g id="hotspot.2" ident="" onmouseover="ShowHotSpot(evt,&apos;2&apos;)" onmouseout="HideHotSpot(evt,&apos;2&apos;)" onmousemove="ShowToolTip(evt,&apos;2&apos;,&quot;Cut-Extrude4[2]&quot;)" opacity="0"><path style="fill:#00ff00;fill-rule:evenodd" d="M209.52,99.81L209.52,104.40L278.92,104.40L278.92,99.81zM58.22,94.37L67.49,99.67L68.85,100.74L69.93,102.75L69.92,111.66L61.74,140.57L61.31,143.02L61.32,152.54L81.33,140.94L82.07,140.94L82.98,141.60L83.11,143.26L83.52,143.17L92.69,137.52L92.81,132.34L99.30,132.34L99.30,139.05L92.81,139.05L92.69,138.09L83.11,143.84L83.18,154.87L88.47,157.08L93.15,160.58L95.33,164.35L95.54,165.69L95.55,183.44L93.55,187.18L90.05,190.30L84.72,192.92L80.68,193.96L78.69,194.26L78.56,193.49L77.66,192.85L77.26,191.92L77.01,191.73L75.80,191.74L75.37,191.96L74.46,193.04L73.90,194.69L72.50,194.84L69.48,194.84L63.29,193.97L57.13,191.74L55.93,191.74L53.53,193.08L52.24,193.09L50.29,191.95L50.03,191.54L49.84,184.90L49.60,184.24L49.32,184.91L48.66,184.99L48.07,182.24L47.39,181.55L47.12,181.56L46.98,192.72L46.24,193.31L43.85,193.31L43.00,192.60L42.78,192.21L41.87,192.21L30.62,185.78L30.62,170.18L46.45,161.05L46.74,150.08L48.27,144.11L55.35,119.17L55.36,110.70L54.50,109.12L44.09,102.98L44.09,101.29L46.07,99.95L56.22,94.20L57.57,94.14zM60.43,99.00L60.18,99.23L58.40,99.23L58.16,99.00L58.57,98.77L60.01,98.77zM50.62,103.39L50.82,103.19L52.73,103.21L52.73,103.46L52.44,103.66L50.89,103.66zM67.07,109.68L66.18,110.80L66.16,109.65L66.77,108.89L67.05,108.92zM59.49,114.04L58.44,115.21L58.42,114.52L58.90,113.66L59.57,113.14zM56.69,153.85L56.37,154.41L51.38,157.39L51.36,155.59L51.74,155.08L56.40,152.40L56.68,152.42zM83.18,169.66L88.47,171.88L91.15,173.86L91.36,174.17L89.61,175.73L83.78,178.51L77.81,179.83L74.05,180.04L69.26,180.04L63.07,179.17L56.90,176.95L55.93,176.94L55.49,177.20L55.06,177.26L54.92,175.83L53.27,174.05L57.05,171.43L62.12,169.44L68.31,168.34L76.77,168.34zM43.85,173.20L45.21,173.40L45.62,173.65L45.87,174.06L46.01,175.47L49.86,177.82L49.85,178.58L49.07,179.38L48.51,179.40L44.97,177.37L44.68,177.37L44.03,177.86L43.37,177.92L43.02,177.14L41.68,176.28L41.35,175.40L42.24,173.63L43.45,172.97zM43.87,179.40L43.37,179.47L43.45,178.53L43.65,178.49z"/></g><g id="hotspot.3" ident="" onmouseover="ShowHotSpot(evt,&apos;3&apos;)" onmouseout="HideHotSpot(evt,&apos;3&apos;)" onmousemove="ShowToolTip(evt,&apos;3&apos;,&quot;Fillet1&quot;)" opacity="0"><path style="fill:#00ff00;fill-rule:evenodd" d="M209.52,104.40L209.52,108.98L278.92,108.98L278.92,104.40zM13.40,182.91L27.74,191.33L28.34,191.32L28.87,191.10L29.66,191.09L30.62,190.27L31.87,189.51L32.38,189.52L33.49,190.20L33.51,204.42L31.66,205.67L29.95,205.67L28.42,204.76L28.17,204.35L28.21,192.85L27.98,192.61L27.74,191.76L13.40,183.33L13.18,184.32L6.47,184.32L6.47,177.60L13.18,177.60z"/></g><g id="hotspot.4" ident="" onmouseover="ShowHotSpot(evt,&apos;4&apos;)" onmouseout="HideHotSpot(evt,&apos;4&apos;)" onmousemove="ShowToolTip(evt,&apos;4&apos;,&quot;Fillet1&quot;)" opacity="0"><path style="fill:#00ff00;fill-rule:evenodd" d="M209.52,108.98L209.52,113.57L278.92,113.57L278.92,108.98zM26.80,164.66L41.47,172.98L41.77,172.98L42.02,172.75L42.77,172.75L43.33,173.01L43.85,173.20L45.21,173.40L45.62,173.65L45.87,174.06L46.01,175.47L49.86,177.82L49.85,178.58L49.07,179.38L48.51,179.40L44.97,177.37L44.68,177.37L44.03,177.86L43.37,177.92L43.02,177.14L41.68,176.28L41.34,175.40L41.69,174.81L41.68,174.30L41.25,173.19L27.07,165.21L26.79,165.23L26.66,166.21L20.16,166.21L20.16,159.50L26.65,159.50zM48.73,185.78L49.86,186.67L49.86,187.18L49.32,187.99L48.27,188.01L47.18,187.33L47.18,184.88z"/></g><g id="hotspot.5" ident="" onmouseover="ShowHotSpot(evt,&apos;5&apos;)" onmouseout="HideHotSpot(evt,&apos;5&apos;)" onmousemove="ShowToolTip(evt,&apos;5&apos;,&quot;Fase1&quot;)" opacity="0"><path style="fill:#00ff00;fill-rule:evenodd" d="M209.52,113.57L209.52,118.15L278.92,118.15L278.92,113.57zM77.26,191.92L77.66,192.85L78.56,193.49L78.55,194.92L78.04,195.73L77.15,196.40L76.35,196.37L76.11,196.14L75.37,196.17L74.35,195.93L74.12,195.72L74.11,193.79L75.01,192.27L75.80,191.74L77.01,191.73zM77.20,200.59L77.66,201.67L78.08,201.92L79.22,202.11L79.65,202.56L97.54,202.65L97.67,199.47L104.16,199.47L104.16,206.18L97.67,206.18L97.54,203.22L79.77,203.21L79.41,203.73L78.26,204.12L78.08,204.39L77.38,205.01L76.32,205.01L75.89,204.75L74.54,204.80L74.10,204.36L74.11,202.41L75.17,200.82L76.03,200.34L76.78,200.34z"/></g><g id="hotspot.6" ident="" onmouseover="ShowHotSpot(evt,&apos;6&apos;)" onmouseout="HideHotSpot(evt,&apos;6&apos;)" onmousemove="ShowToolTip(evt,&apos;6&apos;,&quot;&lt;282104-1&gt;-&lt;Imported1&gt;&quot;)" opacity="0"><path style="fill:#00ff00;fill-rule:evenodd" d="M209.52,118.15L209.52,122.74L278.92,122.74L278.92,118.15zM149.86,2.73L150.76,3.37L150.76,7.22L150.53,7.46L150.31,10.09L150.10,10.32L150.10,15.61L149.86,16.05L148.91,16.86L148.91,88.25L150.08,88.62L151.88,89.48L152.97,90.82L152.96,92.23L152.53,93.13L152.52,94.14L152.99,94.55L153.40,95.46L153.41,98.42L152.95,99.10L152.94,99.65L153.65,100.08L156.71,104.30L157.37,107.84L159.13,134.34L161.14,137.85L161.14,145.02L158.90,148.96L158.70,155.83L157.37,160.24L153.97,164.13L149.55,166.77L146.76,167.96L145.45,168.63L144.28,169.01L143.00,168.99L135.87,169.68L132.57,169.42L131.25,169.89L130.20,169.89L128.67,169.43L128.01,168.77L122.70,167.24L122.26,166.99L120.48,167.02L119.40,166.34L118.74,165.02L117.20,163.91L114.10,160.38L112.75,155.99L112.56,149.12L110.32,145.16L110.32,137.70L112.33,134.20L113.87,107.69L114.09,106.36L114.31,99.96L115.40,99.28L116.64,96.77L118.30,95.11L118.43,94.14L119.53,93.47L121.10,93.27L125.28,91.94L129.27,91.29L129.68,91.04L132.00,91.12L132.20,54.83L129.02,54.70L129.02,47.98L135.74,47.98L135.74,54.70L132.78,54.83L132.64,56.01L132.56,91.35L136.18,91.93L139.47,93.05L141.70,93.47L142.57,93.95L143.18,93.93L143.27,93.48L142.56,92.17L142.56,91.11L143.25,89.81L144.71,88.84L146.55,88.25L146.57,17.72L145.90,17.28L145.45,16.62L145.46,15.85L145.68,15.61L145.68,14.19L145.23,13.76L144.99,11.13L144.73,10.95L144.71,4.05L147.46,2.53L149.21,2.50z"/></g></g></svg>