<?xml version="1.0" encoding="UTF-8" standalone="yes"?><svg xmlns="http://www.w3.org/2000/svg" xmlns:xlink="http://www.w3.org/1999/xlink" width="297.000mm" height="210.000mm" viewBox="0.000000 0.000000 297.000000 210.000000" stroke-linejoin="round" stroke-linecap="round" fill="none" fill-rule="evenodd"><desc>Composer Export</desc><script type="text/ecmascript"><![CDATA[
if(typeof(top) != "undefined")
{
	top.ShowPaper = ShowPaper;
}
function ShowHotSpot(evt,hotspotid)
{
	var svgDocument = evt.target.ownerDocument;
	var strId = "hotspot."+hotspotid;
	var hotspot = svgDocument.getElementById(strId);
	if(hotspot)
		hotspot.setAttribute("opacity",".5");
}
function HideHotSpot(evt,hotspotid)
{
	var svgDocument = evt.target.ownerDocument;
	var strId = "hotspot."+hotspotid;
	var hotspot = svgDocument.getElementById(strId);
	if(hotspot)
		hotspot.setAttribute("opacity","0");

	var toolTip = svgDocument.getElementById('ToolTip');
	if(toolTip)
		toolTip.setAttribute("visibility","hidden");
}
function ShowToolTip(evt,hotspotid,strTooltip)
{
	if(strTooltip=="")
	return;

	// change text
	var svgDocument = evt.target.ownerDocument;
	var tiptext = svgDocument.getElementById('ToolTipText');
	if( !tiptext )
	return;
	tiptext.firstChild.nodeValue = " " + strTooltip + "  " ;

	// show tooltip before, else some refresh issue

	var toolTip = svgDocument.getElementById('ToolTip');
	if(!toolTip)
	return;

	toolTip.setAttribute("visibility","visible");
	toolTip.setAttribute("opacity",".95");

	// move tooltip
	// get viewbox

	var root = svgDocument.documentElement;
	var vbox = (root.getAttribute("viewBox")).split(' ');
	var x0 = parseFloat(vbox[0]);
	var y0 = parseFloat(vbox[1]);
	var vboxW = parseFloat(vbox[2]);
	var vboxH = parseFloat(vbox[3]);

	// get default width of svg

	var strW = root.getAttribute("width");
	var svgW = parseFloat(strW);
	if(strW.indexOf('mm') != -1)
	svgW *= 3.779;

	var strH = root.getAttribute("height");
	var svgH = parseFloat(strH);
	if(strH.indexOf('mm') != -1)
	svgH *= 3.779;  	// 96 dpi  -> 96/25.4 = 3.779

	// update the viewbox / width / height if svg is embedded in html with zoom fit all
	var realx0 = x0;
	var realy0 = y0;
	var realvboxW = vboxW;
	var realvboxH = vboxH;
	var realsvgW = svgW;
	var realsvgH = svgH;

	if ((typeof(top) == "undefined") || (typeof(top.svgctl1) != "undefined")) // embedded in html
	{
		// get window size in pxl

		svgW = window.innerWidth;
		svgH = window.innerHeight;

		// calculate real viewbox

		realsvgW = svgW;
		realsvgH = svgH;
		if((svgW / svgH) > (vboxW / vboxH))
		{
			realvboxW = (vboxH * svgW) / svgH;
			realvboxH = vboxH;
			realx0 = x0 - (realvboxW - vboxW)/2 ;
		}
		else
		{
			realvboxH = (vboxW * svgH) / svgW;
			realvboxW = vboxW;
			realy0 = y0 - (realvboxH - vboxH)/2 ;
		}
	}

	// get user zoom/pan

	var newScale = root.currentScale;
	var translation = root.currentTranslate;

	// transform pxl to user unit

	var xPos = (((evt.clientX+10- translation.x)/newScale) * realvboxW)/realsvgW  + realx0 ;
	var yPos = (((evt.clientY+5- translation.y)/newScale) * realvboxH)/ realsvgH  + realy0 ;
	var scaleForWidth = ( (1 / newScale) * realvboxH) / realsvgH;

	// move tooltip

	toolTip.setAttribute("transform", "translate(" + xPos + "," + yPos + ")" );

	// resize tooltip

	var fontsize = 12;
	tiptext.setAttribute("font-size",fontsize*scaleForWidth);
	tiptext.setAttribute("y", fontsize*scaleForWidth);
	var tipBG = svgDocument.getElementById('ToolTipBG');
	var outline = tiptext.getBBox();
	if(tipBG)
	{
		tipBG.setAttribute("stroke-width", 1*scaleForWidth);
		tipBG.setAttribute("width", Number(outline.width) );
		tipBG.setAttribute("height", Number(outline.height) + fontsize*.5*scaleForWidth );
	}
	var ToolTipShadow = svgDocument.getElementById('ToolTipShadow');
	if(ToolTipShadow)
	{
		ToolTipShadow.setAttribute("width", Number(outline.width) );
		ToolTipShadow.setAttribute("height", Number(outline.height) + fontsize*.5*scaleForWidth );
		ToolTipShadow.setAttribute("x", 3*scaleForWidth);
		ToolTipShadow.setAttribute("y", 3*scaleForWidth);
	}
}
function ShowPaper()
{
  var svgDocument = getDocument();
  var paper = svgDocument.getElementById("paperID");
  if(paper)
  {
    paper.setAttribute("transform","scale(1)");
    paper.setAttribute("opacity","1");
    paper.setAttribute("visibility","visible");
  }
  var svg = svgDocument.getRootElement();
  if(svg)
  {
    svg.setAttribute("width","307.000mm");
    svg.setAttribute("height","220.000mm");
    svg.setAttribute("viewBox","-5.000000 -5.000000 307.000000 220.000000");
  }
}
]]></script><defs/><g><g id="Actor_.0"><g style="stroke:#000000;stroke-width:0.176"><path d="M48.71,49.57L54.08,52.67L54.43,52.43"/><path d="M48.80,46.52L49.16,46.31L49.64,46.32L50.19,46.54L51.98,47.57L52.54,47.99L53.06,48.56L53.49,49.22L53.78,49.92L53.92,50.58L54.08,52.67L54.14,52.93L54.27,53.11"/><path d="M49.78,63.53L55.15,66.63L55.17,66.32L55.25,65.99L55.41,65.66L55.66,65.80"/><path d="M50.04,62.56L55.41,65.66L56.10,64.47L56.35,64.62"/><path d="M50.73,61.37L56.10,64.47L56.19,64.27L56.24,64.07L56.25,63.89L56.61,63.65"/><path d="M50.88,60.79L56.25,63.89L55.47,53.72L55.44,53.56L55.36,53.45"/><path d="M51.82,50.76L51.70,50.83L51.65,50.83L51.54,50.83L51.37,50.75L51.18,50.62L51.01,50.43L50.87,50.22L50.78,49.99L50.73,49.78L50.66,48.79L51.02,48.55"/><path d="M50.73,49.78L51.09,49.54"/><path d="M50.66,48.79L50.67,48.61L50.74,48.48"/><path d="M50.19,46.54L50.54,46.30"/><path d="M53.15,68.11L53.03,68.18L52.88,68.18L52.70,68.10L52.52,67.97L52.35,67.78L52.21,67.57L52.11,67.34L52.07,67.13L51.99,66.14L52.00,65.96L52.07,65.83"/><path d="M52.07,67.13L52.42,66.89"/><path d="M51.99,66.14L52.35,65.90"/><path d="M53.50,54.31L53.36,54.39L53.17,54.39L52.95,54.30L52.73,54.13L52.52,53.90L52.35,53.64L52.23,53.36L52.17,53.10L52.19,52.87L52.28,52.71"/><path d="M51.98,47.57L52.33,47.33"/><path d="M54.45,53.21L54.66,52.75L55.45,52.94L54.43,52.35"/><path d="M53.92,50.58L54.27,50.34"/><path d="M55.51,66.39L55.15,66.63L55.28,68.32L55.24,68.88L55.03,69.28"/><path d="M55.28,68.32L55.64,68.08"/><path d="M55.83,53.48L55.47,53.72L54.68,53.26"/><path d="M55.25,53.39L55.45,52.94L55.64,53.03"/><path d="M54.55,52.69L54.66,52.75L54.54,52.68"/></g><g style="stroke:#000000;stroke-width:0.353"><path d="M54.55,52.69L54.47,52.58L54.43,52.43L54.27,50.34L54.14,49.68L53.84,48.98L53.78,48.89L53.41,48.32L52.89,47.75L52.33,47.33L51.17,46.66L50.54,46.30L50.00,46.08L49.52,46.07L49.16,46.28L48.80,46.52L48.59,46.92L48.55,47.48L48.71,49.57L48.77,49.83L48.90,50.01L54.27,53.11L54.45,53.21L55.25,53.39L55.36,53.45"/><path d="M54.43,52.34L55.64,53.03L55.77,53.22L55.83,53.48L56.61,63.65L56.59,63.96L56.50,64.29L56.35,64.62L55.66,65.80L55.57,66.00L55.52,66.20L55.51,66.39L55.64,68.08L55.60,68.64L55.38,69.04L55.03,69.28L54.67,69.49L54.19,69.48L53.64,69.26L51.85,68.23L51.29,67.81L50.77,67.24L50.34,66.58L50.05,65.88L49.91,65.22L49.78,63.53L49.80,63.22L49.89,62.89L50.04,62.56L50.73,61.37L50.82,61.17L50.87,60.98L50.88,60.79L50.11,50.71"/><path d="M51.03,48.42L51.02,48.55L51.09,49.54L51.14,49.75L51.23,49.98L51.37,50.19L51.54,50.38L51.72,50.51L51.89,50.58"/><path d="M51.82,50.76L51.88,50.63L51.90,50.45L51.82,49.46L51.78,49.25L51.68,49.02L51.54,48.81L51.37,48.62L51.19,48.49L51.01,48.41L50.86,48.41L50.74,48.48"/><path d="M52.07,65.83L52.19,65.76L52.35,65.76L52.52,65.84L52.71,65.97L52.88,66.16L53.01,66.37L53.11,66.60L53.15,66.81L53.23,67.80L53.22,67.98L53.15,68.11"/><path d="M52.28,52.71L52.42,52.63L52.61,52.63L52.83,52.72L53.05,52.89L53.26,53.11L53.40,53.33L53.43,53.38L53.55,53.66L53.61,53.92L53.59,54.15L53.53,54.15L53.31,54.06L53.08,53.89L52.87,53.66L52.70,53.40L52.58,53.12L52.53,52.85L52.55,52.63"/><path d="M52.36,65.77L52.35,65.90L52.42,66.89L52.47,67.10L52.56,67.33L52.70,67.54L52.87,67.73L53.05,67.86L53.22,67.93"/><path d="M53.59,54.15L53.50,54.31"/></g></g><g id="Actor_.1"><g style="stroke:#000000;stroke-width:0.176"><path d="M76.70,38.28L76.79,38.19L76.83,38.05L76.82,37.86L76.76,37.66L76.65,37.45L76.51,37.26L76.34,37.11L76.17,37.01L76.02,36.97L75.89,37.00"/><path d="M75.76,37.49L75.79,37.39L75.85,37.33L75.93,37.32L76.04,37.34L76.15,37.41L76.26,37.51L76.35,37.63L76.42,37.77L76.47,37.91L76.47,38.03L76.45,38.13L76.39,38.19L76.30,38.21L76.20,38.18"/><path d="M76.83,36.36L76.74,36.06L76.72,35.66L76.81,35.34L77.01,35.15L77.29,35.09L77.64,35.17L78.01,35.39L78.37,35.73L78.68,36.14L78.92,36.60L79.05,37.05L79.08,37.45L78.99,37.77L78.79,37.97L78.51,38.02L78.16,37.94L77.79,37.72L77.68,37.62"/><path d="M78.30,37.20L78.39,37.11L78.44,36.96L78.42,36.78L78.36,36.58L78.25,36.37L78.11,36.18L77.95,36.03L77.87,35.98L77.78,35.93L77.62,35.89L77.49,35.92"/><path d="M78.94,36.13L78.96,36.13L78.97,36.19"/><path d="M79.74,35.59L78.96,36.13L78.92,36.08"/><path d="M78.00,35.12L78.75,34.61"/></g><g style="stroke:#000000;stroke-width:0.353"><path d="M78.30,37.20L76.70,38.28L76.57,38.31L76.41,38.27L76.20,38.18L76.08,38.11L75.97,38.01L75.88,37.89L75.81,37.75L75.77,37.61L75.76,37.49L75.76,37.23L75.80,37.09L75.89,37.00L77.49,35.92"/><path d="M77.66,37.63L77.80,37.76L78.19,37.99L78.22,38.00L78.58,38.09L78.61,38.09L78.92,38.03L78.95,38.01L78.98,37.99L79.19,37.78L79.20,37.75L79.30,37.41L79.30,37.39L79.27,36.96L79.13,36.49L78.88,36.01L78.55,35.58L78.18,35.23L77.79,35.00L77.76,34.99L77.40,34.90L77.36,34.90L77.06,34.96L77.03,34.98L76.79,35.21L76.78,35.24L76.68,35.58L76.68,35.61L76.71,36.03L76.81,36.37"/><path d="M79.29,37.26L79.97,36.80L79.74,35.59L78.75,34.61L77.99,34.84L77.77,34.99"/></g></g><g id="Actor_.2"><g style="stroke:#000000;stroke-width:0.176"><path d="M39.20,60.99L39.41,61.19L39.64,61.36L39.90,61.50L40.23,61.63L40.32,62.00L40.43,62.32L40.28,62.04L40.09,61.77L39.87,61.53L39.64,61.36L39.41,61.25L39.19,61.21L39.01,61.25L38.88,61.36L38.80,61.54L38.78,61.77L38.82,62.04L38.92,62.33L39.07,62.61L39.26,62.88L39.49,63.12L39.72,63.29L39.95,63.40L40.16,63.44L40.34,63.40L40.47,63.29L40.55,63.11L40.57,62.88L40.53,62.61L40.43,62.32L40.59,62.62L40.79,62.91L40.61,63.12L40.47,63.29L40.38,63.43L40.31,63.56"/><path d="M39.40,61.76L39.35,61.85L39.33,61.99L39.36,62.15L39.43,62.32L39.53,62.48L39.66,62.63L39.79,62.74L39.93,62.80L40.04,62.80L40.05,62.80L40.14,62.76"/><path d="M40.21,62.66L40.20,62.82L40.13,62.94L40.01,62.99L39.87,62.98L39.70,62.90L39.53,62.77L39.38,62.60L39.26,62.40L39.17,62.19L39.14,61.99L39.16,61.83L39.23,61.72L39.34,61.66L39.49,61.67"/><path d="M40.79,62.91L41.44,62.47"/><path d="M41.18,61.75L41.15,61.79"/><path d="M41.09,61.55L41.06,61.58"/><path d="M41.01,61.43L40.99,61.44"/><path d="M40.98,61.38L40.97,61.39"/><path d="M41.02,61.45L41.00,61.46"/><path d="M41.05,61.49L41.02,61.51"/><path d="M40.23,61.63L40.88,61.19"/><path d="M41.16,61.68L41.12,61.72"/><path d="M41.12,61.62L41.09,61.65"/><path d="M40.48,60.92L40.46,60.92"/><path d="M40.69,61.06L40.69,61.07"/><path d="M40.64,61.02L40.62,61.03"/><path d="M40.43,60.89L40.41,60.89"/><path d="M40.58,60.98L40.56,60.99"/><path d="M40.53,60.95L40.51,60.95"/><path d="M41.27,62.01L41.25,62.03"/><path d="M41.21,61.82L41.18,61.86"/><path d="M41.28,62.07L41.27,62.08"/><path d="M41.25,61.94L41.23,61.98"/><path d="M41.23,61.88L41.20,61.92"/></g><g style="stroke:#000000;stroke-width:0.353"><path d="M38.92,62.33L39.07,62.62L39.28,62.92L39.49,63.12L39.72,63.29L39.80,63.33L39.99,63.43L40.31,63.56L40.97,63.12L41.44,62.47L40.88,61.19L39.85,60.55L39.20,60.99L39.01,61.19L39.01,61.20L38.88,61.36L38.78,61.51L38.72,61.63L38.80,62.01L38.92,62.33"/><path d="M39.40,61.76L39.50,61.72L39.60,61.72"/><path d="M39.49,61.67L39.65,61.75L39.82,61.88L39.97,62.05L40.10,62.25L40.18,62.46L40.21,62.66"/><path d="M40.21,62.61L40.20,62.67L40.14,62.76"/><path d="M41.07,61.60L41.10,61.57L41.09,61.55L41.08,61.55L41.08,61.55L41.07,61.55L41.07,61.55L41.06,61.54L41.06,61.53L41.06,61.53L41.06,61.52L41.06,61.52L41.06,61.51"/><path d="M41.10,61.68L41.13,61.64L41.12,61.62L41.12,61.62L41.11,61.62L41.11,61.61L41.10,61.61L41.10,61.60L41.10,61.60L41.09,61.59L41.09,61.58L41.09,61.58"/><path d="M41.16,61.71L41.16,61.72L41.16,61.72L41.16,61.73L41.16,61.74L41.17,61.74L41.17,61.75L41.18,61.75L41.18,61.75L41.19,61.77L41.16,61.81"/><path d="M41.03,61.53L41.06,61.51L41.05,61.49L41.05,61.49L41.04,61.49L41.04,61.49L41.03,61.48L41.03,61.48L41.02,61.47L41.02,61.47L41.02,61.46L41.02,61.45L41.02,61.45L41.02,61.45L41.01,61.43L41.01,61.43L41.00,61.43L41.00,61.43L40.99,61.42L40.99,61.42L40.98,61.41L40.98,61.40L40.98,61.40L40.98,61.39L40.98,61.39L40.98,61.38L40.97,61.37L40.96,61.37"/><path d="M41.13,61.65L41.13,61.65L41.13,61.66L41.13,61.67L41.14,61.67L41.14,61.68L41.15,61.68L41.15,61.68L41.16,61.68L41.17,61.71L41.13,61.75"/><path d="M40.96,61.37L40.96,61.37"/><path d="M40.49,60.94L40.49,60.94L40.48,60.93L40.48,60.92L40.48,60.92L40.46,60.91L40.44,60.91"/><path d="M40.49,60.94L40.51,60.94L40.53,60.95L40.53,60.95L40.53,60.96L40.54,60.97L40.54,60.98L40.57,60.97L40.58,60.98L40.58,60.99L40.59,61.00L40.59,61.01"/><path d="M40.64,61.04L40.64,61.03L40.64,61.02L40.62,61.01L40.60,61.01"/><path d="M40.37,60.87L40.37,60.87"/><path d="M40.43,60.91L40.43,60.90L40.43,60.89L40.41,60.89L40.40,60.89"/><path d="M40.69,61.07L40.69,61.06L40.67,61.05L40.67,61.05"/><path d="M41.26,62.05L41.27,62.03L41.27,62.01L41.26,62.01L41.25,62.00L41.25,62.00L41.25,61.99L41.24,61.98"/><path d="M41.21,61.94L41.24,61.90L41.23,61.88L41.23,61.88L41.22,61.88L41.22,61.87L41.21,61.86L41.21,61.86L41.21,61.85"/><path d="M41.23,61.92L41.23,61.92L41.23,61.93L41.24,61.93L41.24,61.94L41.25,61.94L41.25,61.94L41.26,61.97L41.24,61.99"/><path d="M41.18,61.78L41.18,61.79L41.19,61.79L41.19,61.80L41.19,61.81L41.20,61.81L41.21,61.81L41.21,61.82L41.22,61.84L41.18,61.88"/><path d="M41.28,62.09L41.28,62.09L41.28,62.07L41.27,62.07L41.26,62.06"/></g></g><g id="Actor_.3"><g style="stroke:#000000;stroke-width:0.176"><path d="M19.76,38.33L19.14,38.37L18.51,38.14L17.92,37.66L17.44,36.99L17.11,36.19L16.96,35.34L17.01,34.52L17.26,33.81L17.67,33.28L18.21,32.98"/><path d="M19.86,38.69L20.48,38.36L20.94,37.75L21.22,36.95L21.28,36.01L21.11,35.04L20.73,34.13L20.19,33.38L19.52,32.84L18.80,32.58L18.10,32.62"/><path d="M20.73,38.44L21.34,38.10L21.81,37.50L22.09,36.69L22.15,35.76L21.98,34.79L21.60,33.88L21.05,33.12L20.47,32.65L20.39,32.59L19.67,32.32L18.97,32.36"/><path d="M19.13,31.92L19.91,31.88L20.71,32.17L21.13,32.51L21.46,32.77L22.07,33.62L22.49,34.64L22.68,35.73L22.62,36.77L22.31,37.68L21.78,38.35"/><path d="M27.40,21.32L26.24,21.45L24.98,22.08L23.76,23.14L22.69,24.53L22.16,25.56L21.88,26.11L21.41,27.73L21.33,29.23L21.63,30.46L22.30,31.31"/><path d="M29.88,53.34L29.92,53.51L30.18,53.82L30.63,54.24L31.23,54.73L31.93,55.24L32.64,55.73L33.30,56.13L33.85,56.43L34.24,56.58L34.42,56.57"/><path d="M29.57,53.12L29.78,53.11L30.21,53.28L30.84,53.62L31.60,54.08L32.41,54.63L33.19,55.21L33.87,55.77L34.39,56.25L34.68,56.60L34.73,56.79"/><path d="M31.13,35.41L31.55,35.13L31.71,34.89L31.86,34.58L31.97,34.25L32.06,33.88L32.15,33.33L32.19,32.84L32.19,32.06L32.18,31.82L32.01,30.85L31.85,30.43L31.63,30.04L31.36,29.73L31.04,29.49L30.66,29.32L30.25,29.24L29.81,29.25L29.38,29.34"/><path d="M30.30,52.10L30.50,52.09L30.56,52.11L30.94,52.26L31.57,52.59L32.32,53.06L33.13,53.61L33.92,54.19L34.60,54.75L35.11,55.22L35.41,55.57L35.46,55.76"/><path d="M30.20,51.57L30.43,51.56L30.92,51.75L31.63,52.13L32.47,52.65L33.38,53.26L34.26,53.91L35.02,54.54L35.60,55.07L35.93,55.46L35.98,55.68"/><path d="M32.00,51.98L32.76,52.44L33.57,52.99L34.35,53.58L35.03,54.13"/><path d="M42.90,59.92L42.61,60.06L42.15,59.99L41.58,59.73L40.94,59.29L40.30,58.72L39.71,58.08L39.25,57.43L38.94,56.84L38.83,56.35L38.93,56.02"/><path d="M43.17,60.19L43.27,59.82L43.15,59.26L42.81,58.59L42.28,57.85L41.61,57.12L40.88,56.48L40.15,55.98L39.50,55.68L38.99,55.60L38.66,55.76"/><path d="M38.82,40.08L39.19,39.83L39.60,39.78L39.78,39.79L40.11,39.88L40.46,40.05L40.81,40.29L41.35,40.79L41.82,41.35L42.83,42.70L43.23,43.21L43.46,43.45L43.66,43.64L43.80,43.74"/><path d="M39.50,54.92L39.83,54.77L40.34,54.84L40.99,55.15L41.72,55.64L42.45,56.28L43.12,57.01L43.65,57.75L43.99,58.43L44.12,58.98L44.01,59.35"/><path d="M44.53,59.37L44.65,58.95L44.64,58.89L44.51,58.33L44.13,57.57L43.53,56.75L42.79,55.93L41.97,55.21L41.16,54.66L40.70,54.44L40.42,54.32L39.85,54.23L39.48,54.40"/><path d="M53.58,48.57L53.20,47.63L53.00,47.19L52.54,46.26L52.27,45.84L51.97,45.45L51.81,45.28L51.32,44.90L50.79,44.69L50.24,44.66L49.91,44.75L49.38,45.10"/><path d="M82.67,66.60L81.96,65.70L81.63,64.38L81.69,63.33L81.72,62.78L82.23,61.05L83.09,59.36L84.23,57.88L85.53,56.75L86.87,56.08L88.12,55.94"/><path d="M83.14,66.43L82.47,65.59L82.17,64.35L82.23,63.33L82.25,62.85L82.72,61.23L83.53,59.65L84.60,58.26L85.82,57.20L86.76,56.73L87.08,56.57L88.25,56.44L89.21,56.82"/><path d="M84.04,66.95L83.37,66.10L83.06,64.87L83.15,63.37L83.62,61.75L84.43,60.17L85.49,58.78L86.65,57.78L86.72,57.72L87.97,57.09L89.14,56.96L90.11,57.34"/><path d="M86.78,66.58L86.23,66.86L85.14,66.98L84.24,66.63"/><path d="M90.54,58.50L90.53,58.45L89.91,57.66"/></g><g style="stroke:#000000;stroke-width:0.353"><path d="M18.97,32.36L18.10,32.62L17.49,32.95L17.02,33.56L16.75,34.36L16.69,35.30L16.86,36.27L17.23,37.18L17.78,37.94L18.44,38.47L19.16,38.73L19.86,38.69L20.73,38.44"/><path d="M19.76,38.33L20.30,38.03L20.71,37.50L20.95,36.79L21.00,35.97L20.85,35.12L20.52,34.32L20.04,33.65L19.46,33.18L18.82,32.95L18.21,32.98"/><path d="M18.88,32.06L18.91,32.04L18.37,32.34L18.17,32.60"/><path d="M18.83,32.08L19.13,31.92L19.99,31.87L20.86,32.19L21.58,32.78L22.19,33.61L22.60,34.61L22.78,35.67L22.72,36.70L22.42,37.59L21.86,38.31L21.10,38.73L20.23,38.78L20.55,38.76"/><path d="M19.93,38.67L20.23,38.78L20.28,38.78"/><path d="M18.91,32.04L19.05,31.97"/><path d="M29.38,29.34L20.29,31.98"/><path d="M22.40,31.37L22.30,31.31L22.06,31.10L21.40,30.26L21.27,30.00L20.97,28.81L20.97,28.56L21.05,27.20L21.47,25.73L22.21,24.29L22.25,24.24L23.18,23.03L24.29,22.07L24.47,21.96L25.67,21.36L26.79,21.24L27.11,21.22L27.41,21.32L28.37,21.70L48.65,33.40"/><path d="M22.06,38.06L31.13,35.41"/><path d="M34.42,56.57L34.38,56.40L34.12,56.09L33.67,55.67L33.07,55.18L32.38,54.67L31.66,54.19L31.00,53.78L30.45,53.48L30.06,53.34L29.88,53.34"/><path d="M30.30,52.10L29.57,53.12L29.62,53.31L29.91,53.66L30.43,54.14L31.11,54.70L31.90,55.28L32.70,55.83L33.46,56.29L34.09,56.63L34.52,56.80L34.73,56.79L35.46,55.76"/><path d="M29.99,35.75L38.43,40.62L38.82,40.08"/><path d="M38.43,40.62L30.78,51.41"/><path d="M31.98,51.97L32.00,51.98L31.29,51.60L30.84,51.42L30.73,51.41L30.51,51.42L30.39,51.44L30.29,51.49L30.20,51.57L30.15,51.68L30.14,51.80L30.16,51.91L30.21,52.12L30.24,52.18"/><path d="M35.04,54.14L35.03,54.13L35.62,54.67L35.93,55.04L35.98,55.14L36.03,55.34L36.05,55.45L36.03,55.57L35.98,55.68L35.90,55.76L35.80,55.82L35.68,55.83L35.46,55.85L35.40,55.84"/><path d="M43.80,43.74L43.90,43.79L35.95,55.07"/><path d="M39.50,54.92L38.66,55.76L38.55,56.13L38.67,56.68L39.02,57.36L39.55,58.10L40.21,58.83L40.94,59.47L41.67,59.97L42.32,60.27L42.84,60.34L43.17,60.19L44.01,59.35"/><path d="M42.90,59.92L42.99,59.60L42.88,59.11L42.58,58.51L42.11,57.86L41.53,57.22L40.88,56.66L40.24,56.22L39.67,55.96L39.21,55.89L38.93,56.02"/><path d="M44.75,58.76L44.74,58.66L44.60,58.07L44.21,57.28L43.66,56.52L42.97,55.76L42.21,55.10L41.46,54.58L40.70,54.23L40.04,54.14L39.94,54.17L39.57,54.34L39.48,54.40L39.41,54.50L39.27,55.01L39.28,55.14"/><path d="M49.38,45.10L40.26,54.16"/><path d="M42.61,60.06L42.96,59.72"/><path d="M44.60,59.28L44.53,59.37L44.44,59.43L44.08,59.60L43.97,59.63L43.75,59.61"/><path d="M43.90,43.79L48.20,46.27"/><path d="M44.74,58.77L44.60,59.26"/><path d="M50.29,53.09L44.73,58.63"/><path d="M49.50,33.89L67.56,44.32"/><path d="M54.51,49.90L54.14,49.69L54.51,49.91L54.15,49.70"/><path d="M54.51,49.91L55.62,50.54L54.51,49.91"/><path d="M55.78,50.64L55.62,50.54L61.95,54.20"/><path d="M65.02,55.97L71.46,59.69"/><path d="M71.09,46.36L87.70,55.94"/><path d="M81.99,65.77L72.31,60.18"/><path d="M89.82,57.17L89.22,56.41L89.15,56.34L88.12,55.94L88.03,55.91L87.93,55.92L86.70,56.06L85.32,56.75L84.05,57.85L82.94,59.29L82.10,60.94L81.61,62.62L81.53,64.25L81.85,65.56L81.89,65.64L82.60,66.54L82.67,66.60L83.79,67.03L84.15,66.99"/><path d="M86.72,66.92L86.17,67.19L85.00,67.33L84.04,66.95L83.14,66.43"/><path d="M84.24,66.63L83.62,65.84L83.33,64.69L83.41,63.33L83.41,63.29L83.85,61.77L84.60,60.30L85.60,59.00L86.74,58.01L87.91,57.43L88.99,57.31L89.91,57.66"/><path d="M90.75,58.15L90.11,57.34L89.21,56.82"/></g></g><g id="Actor_.4"><g style="stroke:#000000;stroke-width:0.176"><path d="M79.51,48.29L79.53,48.20L79.59,48.14L79.68,48.12L79.78,48.14L79.90,48.21L80.00,48.31L80.10,48.44L80.17,48.57L80.21,48.71L80.22,48.83L80.19,48.93L80.13,48.99L80.05,49.01L79.94,48.98"/><path d="M80.45,49.08L80.54,48.99L80.58,48.85L80.57,48.67L80.50,48.46L80.40,48.25L80.25,48.06L80.09,47.91L79.92,47.81L79.76,47.77L79.64,47.80"/><path d="M83.21,47.21L83.33,47.32L83.70,47.54L84.04,47.62L84.32,47.56L84.52,47.36L84.61,47.05L84.58,46.64L84.45,46.19L84.21,45.74L83.89,45.32L83.53,44.99L83.16,44.77L82.82,44.69L82.54,44.75L82.34,44.94L82.25,45.26L82.27,45.66L82.37,45.96"/><path d="M83.02,45.51L83.15,45.49L83.31,45.52L83.43,45.59L83.48,45.62L83.64,45.78L83.78,45.96L83.89,46.17L83.95,46.38L83.97,46.56L83.94,46.67L83.93,46.70L83.84,46.79"/><path d="M83.92,45.02L83.93,45.02L83.94,45.04"/><path d="M83.91,45.02L83.93,45.02L84.71,44.49"/><path d="M84.71,46.25L85.50,45.72"/></g><g style="stroke:#000000;stroke-width:0.353"><path d="M83.84,46.79L80.45,49.08L80.32,49.11L80.16,49.07L79.94,48.98L79.83,48.92L79.80,48.89L79.72,48.81L79.63,48.69L79.56,48.55L79.51,48.41L79.51,48.29L79.51,48.04L79.55,47.89L79.64,47.80L83.02,45.51"/><path d="M82.34,45.97L82.24,45.63L82.21,45.21L82.21,45.18L82.31,44.84L82.32,44.81L82.56,44.57L82.59,44.56L82.89,44.50L82.92,44.49L83.29,44.58L83.32,44.59L83.70,44.82L84.08,45.17L84.41,45.61L84.66,46.08L84.80,46.56L84.83,46.98L84.83,47.01L84.73,47.35L84.72,47.38L84.51,47.59L84.48,47.61L84.45,47.62L84.15,47.69L84.11,47.69L83.75,47.60L83.72,47.59L83.34,47.36L83.19,47.23"/><path d="M84.83,46.97L85.30,46.65L85.50,45.72L84.71,44.49L83.73,44.19L83.19,44.56"/></g></g><g id="Actor_.5"><g style="stroke:#000000;stroke-width:0.176"><path d="M211.88,124.74L211.91,124.65L211.97,124.59L212.05,124.57L212.16,124.59L212.27,124.66L212.38,124.76L212.47,124.89L212.55,125.02L212.59,125.16L212.60,125.28L212.57,125.38L212.51,125.44L212.42,125.46L212.32,125.43"/><path d="M212.01,124.25L212.14,124.22L212.30,124.26L212.46,124.36L212.46,124.36L212.63,124.51L212.77,124.70L212.88,124.91L212.94,125.12L212.95,125.30L212.91,125.44L212.82,125.53"/><path d="M215.59,123.66L215.70,123.77L216.07,123.99L216.41,124.07L216.70,124.01L216.90,123.81L216.99,123.50L216.96,123.10L216.82,122.64L216.58,122.19L216.27,121.77L215.91,121.44L215.54,121.22L215.20,121.14L214.91,121.20L214.71,121.39L214.62,121.71L214.65,122.11L214.74,122.41"/><path d="M216.21,123.24L216.30,123.15L216.34,123.01L216.33,122.83L216.27,122.62L216.16,122.41L216.02,122.23L215.85,122.07L215.80,122.04L215.68,121.97L215.53,121.94L215.40,121.96"/><path d="M216.30,121.47L216.30,121.47L216.31,121.49"/><path d="M217.09,120.94L216.30,121.47L216.29,121.47"/><path d="M217.87,122.17L217.09,122.70"/></g><g style="stroke:#000000;stroke-width:0.353"><path d="M216.21,123.24L212.82,125.53L212.69,125.56L212.54,125.52L212.32,125.43L212.21,125.37L212.10,125.26L212.00,125.14L211.93,125.00L211.89,124.86L211.88,124.74L211.88,124.49L211.92,124.34L212.01,124.25L215.40,121.96"/><path d="M214.72,122.42L214.61,122.08L214.59,121.66L214.59,121.63L214.68,121.29L214.70,121.26L214.93,121.02L214.96,121.01L215.27,120.95L215.30,120.94L215.67,121.03L215.69,121.04L216.08,121.27L216.46,121.62L216.79,122.06L217.03,122.53L217.18,123.01L217.21,123.43L217.21,123.46L217.11,123.80L217.10,123.83L216.88,124.04L216.86,124.06L216.83,124.07L216.52,124.14L216.49,124.14L216.12,124.05L216.10,124.04L215.71,123.81L215.57,123.68"/><path d="M217.21,123.42L217.67,123.10L217.87,122.17L217.09,120.94L216.11,120.64L215.56,121.01"/></g></g><g id="Actor_.6"><g style="stroke:#000000;stroke-width:0.176"><path d="M195.28,131.31L194.60,130.44L194.29,129.18L194.02,125.63L193.93,125.69L193.48,125.43"/><path d="M193.93,125.69L194.20,129.24L194.52,130.53L195.21,131.42"/><path d="M194.29,129.18L195.81,130.05"/><path d="M194.20,129.24L193.76,128.98"/><path d="M194.02,125.63L193.66,125.42"/><path d="M195.20,124.62L195.07,124.70L194.90,124.69L194.71,124.61L194.52,124.47L194.33,124.27L194.18,124.04L194.08,123.79L194.03,123.56L194.21,123.44"/><path d="M194.36,122.56L194.34,122.73L194.39,123.32L194.44,123.55L194.54,123.80L194.69,124.03L194.87,124.23L195.07,124.37L195.26,124.45L195.27,124.45"/><path d="M194.03,123.56L193.99,122.97L194.17,122.85"/><path d="M193.99,122.97L194.00,122.78L194.08,122.63"/><path d="M194.39,123.32L194.57,123.20"/><path d="M194.34,122.73L194.51,122.62"/><path d="M194.97,122.18L194.79,122.31L194.25,122.00L193.98,121.88L193.74,121.88L193.56,121.98"/><path d="M194.79,121.63L194.61,121.75L194.34,121.64L194.10,121.64L193.92,121.74"/><path d="M194.61,121.75L195.15,122.06L195.43,122.27L195.69,122.56L195.90,122.89L196.05,123.24L196.12,123.57L196.29,125.74"/><path d="M194.25,122.00L194.43,121.87"/><path d="M195.81,130.17L196.26,130.43L195.99,126.88L195.54,126.62"/><path d="M196.17,126.64L195.99,126.76L195.63,126.56"/><path d="M195.01,123.47L195.22,123.59"/><path d="M194.79,122.31L195.07,122.51L195.33,122.80L195.55,123.13L195.70,123.48L195.76,123.81L195.99,126.76"/><path d="M195.76,123.81L195.94,123.69"/><path d="M195.20,123.48L194.92,123.32"/><path d="M195.15,122.06L195.33,121.94"/><path d="M197.27,132.61L196.58,131.72L196.26,130.43"/><path d="M195.99,126.88L196.35,126.64"/><path d="M197.36,125.01L197.34,124.82L196.45,125.42"/><path d="M196.12,123.57L196.30,123.45"/><path d="M196.22,123.10L198.05,121.87L199.57,122.75"/><path d="M201.58,121.39L200.57,121.00L199.35,121.13L198.04,121.77L196.19,123.02"/><path d="M197.34,124.82L196.98,124.61"/><path d="M196.97,124.51L197.42,124.77L197.45,125.16"/><path d="M197.42,124.77L200.10,122.96L199.65,122.70"/><path d="M197.59,121.52L198.04,121.77"/><path d="M201.51,121.50L200.52,121.11L200.33,121.13L199.33,121.24L198.05,121.87"/><path d="M200.10,122.96L201.41,122.31L202.63,122.18L203.63,122.58"/><path d="M201.13,121.14L201.13,121.14"/></g><g style="stroke:#000000;stroke-width:0.353"><path d="M196.02,131.74L195.21,131.42L194.77,131.16L194.07,130.27L193.76,128.98L193.48,125.43L193.65,125.32"/><path d="M196.17,126.64L195.94,123.69L195.87,123.36L195.73,123.01L195.51,122.68L195.25,122.39L194.97,122.18L194.43,121.87L194.16,121.76L193.92,121.76L193.74,121.86L193.56,121.98L193.46,122.19L193.44,122.46L193.66,125.42"/><path d="M194.23,122.56L194.18,122.66L194.17,122.85L194.21,123.44L194.26,123.67L194.36,123.92L194.51,124.15L194.69,124.35L194.89,124.49L195.08,124.57L195.22,124.57"/><path d="M195.28,124.27L195.25,124.25L195.05,124.11L194.87,123.91L194.72,123.68L194.62,123.43L194.57,123.20L194.52,122.63"/><path d="M195.20,124.62L195.27,124.48L195.29,124.29L195.24,123.69L195.19,123.46L195.09,123.22L194.94,122.99L194.76,122.79L194.56,122.64L194.37,122.57L194.20,122.56L194.08,122.63"/><path d="M196.45,125.42L196.30,123.45L196.23,123.12L196.08,122.77L195.87,122.44L195.61,122.15L195.33,121.94L194.79,121.63L194.52,121.52L194.28,121.52L194.10,121.62L193.92,121.74L193.91,121.77"/><path d="M195.28,131.31L196.62,132.08"/><path d="M198.42,132.99L198.28,133.01L197.27,132.61L196.82,132.35L196.13,131.46L195.81,130.17L195.54,126.62L195.63,126.56"/><path d="M195.01,123.47L194.72,123.67"/><path d="M195.08,123.21L194.92,123.32L194.93,123.53"/><path d="M196.52,128.95L196.35,126.64L196.16,126.53"/><path d="M197.36,125.01L196.29,125.74L196.09,125.62"/><path d="M195.98,122.61L197.59,121.52L198.90,120.87L200.12,120.74L201.13,121.14L201.58,121.39L201.78,121.66"/><path d="M199.07,124.07L197.45,125.16L197.28,125.06"/><path d="M204.03,123.09L203.63,122.58L203.19,122.32L202.18,121.93L200.96,122.06L199.65,122.70L196.97,124.51L196.98,124.61"/><path d="M201.51,121.50L202.38,122.00"/></g></g><g id="Actor_.7"><g style="stroke:#000000;stroke-width:0.176"><path d="M63.41,53.64L61.90,52.77L61.60,49.23L61.52,49.30L61.07,49.04"/><path d="M61.13,45.60L61.31,45.50L61.54,45.50L61.82,45.62L62.35,45.93L62.53,45.80"/><path d="M61.90,52.77L62.21,54.03L62.90,54.89"/><path d="M61.52,49.30L61.81,52.83L62.13,54.12L62.83,55.00"/><path d="M61.81,52.83L61.36,52.57"/><path d="M61.25,49.03L61.60,49.23"/><path d="M61.74,46.47L61.56,46.59L61.61,47.18L61.65,47.41L61.76,47.65L61.91,47.88L62.09,48.08L62.29,48.23L62.48,48.30L62.65,48.31L62.77,48.24"/><path d="M61.61,47.18L61.78,47.06"/><path d="M62.14,46.81L61.96,46.93L62.01,47.16L62.11,47.41L62.27,47.64L62.45,47.84L62.64,47.98L62.84,48.06L62.85,48.06"/><path d="M61.96,46.93L61.91,46.34L61.92,46.18"/><path d="M61.56,46.59L61.57,46.39L61.64,46.25"/><path d="M61.91,46.34L62.07,46.24"/><path d="M61.82,45.62L62.00,45.49"/><path d="M63.86,49.34L63.69,47.18L63.62,46.85L63.47,46.51L63.25,46.17L62.99,45.89L62.71,45.68L62.17,45.37L61.90,45.26L61.66,45.26L61.48,45.36"/><path d="M62.17,45.37L62.35,45.25"/><path d="M63.75,50.25L63.57,50.37L63.21,50.16"/><path d="M63.13,50.23L63.57,50.48L63.86,54.02L64.19,55.31L64.89,56.19"/><path d="M62.35,45.93L62.63,46.13L62.90,46.42L63.11,46.75L63.26,47.10L63.33,47.42L63.57,50.37"/><path d="M62.59,47.07L62.78,47.18"/><path d="M63.33,47.42L63.51,47.30"/><path d="M62.76,47.08L62.49,46.92"/><path d="M62.71,45.68L62.89,45.56"/><path d="M63.86,54.02L63.42,53.76"/><path d="M63.57,50.48L63.93,50.24"/><path d="M64.03,49.02L64.92,48.42L64.93,48.61"/><path d="M69.09,45.06L68.10,44.68L66.91,44.81L65.62,45.46L63.79,46.71"/><path d="M63.69,47.18L63.86,47.06"/><path d="M65.17,45.10L65.61,45.36L63.75,46.63"/><path d="M64.92,48.42L64.56,48.21"/><path d="M64.55,48.11L65.00,48.37L67.67,46.55L67.22,46.29"/><path d="M65.00,48.37L65.03,48.76"/><path d="M65.62,45.46L67.15,46.34"/><path d="M65.61,45.36L66.93,44.70L68.15,44.56L69.16,44.95"/><path d="M67.67,46.55L68.98,45.89L70.16,45.75L70.21,45.75L71.22,46.14"/></g><g style="stroke:#000000;stroke-width:0.353"><path d="M63.59,55.29L62.83,55.00L62.38,54.74L61.68,53.86L61.36,52.57L61.07,49.04L61.24,48.92"/><path d="M63.75,50.25L63.51,47.30L63.44,46.97L63.29,46.63L63.07,46.30L62.81,46.01L62.53,45.80L62.10,45.56L62.00,45.49L61.72,45.38L61.49,45.38L61.31,45.48L61.13,45.60L61.02,45.80L61.00,46.08L61.25,49.03"/><path d="M62.80,48.19L62.66,48.18L62.47,48.10L62.27,47.96L62.09,47.76L61.94,47.53L61.83,47.29L61.78,47.06L61.74,46.47L61.75,46.27L61.80,46.18"/><path d="M62.29,47.28L62.59,47.07"/><path d="M62.09,46.25L62.14,46.81L62.19,47.04L62.29,47.28L62.44,47.52L62.63,47.72L62.82,47.86L62.86,47.88"/><path d="M62.77,48.24L62.84,48.10L62.86,47.90L62.81,47.31L62.76,47.08L62.66,46.84L62.51,46.61L62.32,46.41L62.13,46.26L61.94,46.18L61.77,46.18L61.64,46.25"/><path d="M64.03,49.02L63.86,47.06L63.80,46.73L63.77,46.67L63.65,46.38L63.43,46.05L63.17,45.77L62.89,45.56L62.35,45.25L62.08,45.14L61.84,45.14L61.66,45.24L61.48,45.36L61.47,45.39"/><path d="M64.23,55.66L62.90,54.89"/><path d="M66.04,56.56L65.90,56.58L64.89,56.19L64.44,55.93L63.74,55.05L63.42,53.76L63.13,50.23L63.21,50.16"/><path d="M62.65,46.82L62.49,46.92L62.51,47.13"/><path d="M63.74,50.13L63.93,50.24L64.11,52.48"/><path d="M63.67,49.23L63.86,49.34L64.93,48.61"/><path d="M63.54,46.21L65.17,45.10L66.48,44.44L67.70,44.30L68.71,44.69L69.16,44.95L69.37,45.22"/><path d="M64.56,48.21L64.55,48.11L67.22,46.29L68.54,45.63L69.76,45.49L70.77,45.88L71.22,46.14L71.65,46.68"/><path d="M66.57,47.71L65.03,48.76L64.86,48.66"/><path d="M69.09,45.06L70.01,45.59"/></g></g><g id="Actor_.8"><g style="stroke:#000000;stroke-width:0.176"><path d="M208.67,114.67L208.77,114.68L208.84,114.64L208.89,114.57L208.90,114.46L208.88,114.33L208.82,114.19L208.74,114.05L208.63,113.94L208.52,113.85L208.41,113.80L208.32,113.80L208.24,113.83L208.19,113.91L208.18,114.02"/><path d="M209.17,114.73L209.24,114.61L209.26,114.45L209.26,114.44L209.22,114.25L209.14,114.04L209.01,113.84L208.86,113.67L208.69,113.54L208.53,113.46L208.38,113.45L208.27,113.51"/><path d="M210.10,114.09L210.38,114.31L210.75,114.47L211.07,114.49L211.32,114.37L211.47,114.12L211.51,113.76L211.43,113.33L211.25,112.87L210.97,112.43L210.63,112.04L210.26,111.76L209.90,111.60L209.58,111.57L209.33,111.70L209.18,111.95L209.14,112.31L209.22,112.74L209.26,112.84"/><path d="M210.78,113.64L210.84,113.53L210.86,113.36L210.86,113.33L210.83,113.17L210.74,112.96L210.62,112.76L210.46,112.58L210.30,112.45L210.13,112.38L209.99,112.37L209.87,112.43"/><path d="M211.36,111.18L210.58,111.71"/><path d="M211.49,112.85L211.49,112.82L212.28,112.29"/><path d="M211.49,112.83L211.49,112.82L211.48,112.80"/></g><g style="stroke:#000000;stroke-width:0.353"><path d="M210.78,113.64L209.17,114.73L209.06,114.78L208.91,114.77L208.67,114.67L208.56,114.63L208.45,114.54L208.34,114.42L208.26,114.29L208.21,114.15L208.18,114.02L208.18,113.79L208.20,113.62L208.27,113.51L209.87,112.43"/><path d="M210.08,114.11L210.40,114.36L210.78,114.53L210.81,114.54L211.15,114.56L211.19,114.56L211.22,114.55L211.48,114.42L211.51,114.39L211.67,114.12L211.69,114.09L211.73,113.71L211.73,113.68L211.65,113.23L211.46,112.75L211.17,112.29L210.81,111.88L210.43,111.58L210.05,111.41L210.02,111.41L209.68,111.38L209.64,111.39L209.34,111.53L209.32,111.56L209.16,111.83L209.14,111.86L209.10,112.24L209.10,112.26L209.18,112.71L209.24,112.85"/><path d="M211.71,113.83L212.33,113.41L212.28,112.29L211.36,111.18L210.49,111.19L210.11,111.44"/></g></g><g id="Actor_.9"><g style="stroke:#000000;stroke-width:0.176"><path d="M171.57,137.48L171.78,137.67L172.01,137.83L172.28,137.96L172.60,138.07L172.70,138.45L172.82,138.77L172.93,139.06L172.98,139.33L172.97,139.57L172.90,139.76L173.02,139.58L173.20,139.36L172.98,139.07L172.66,138.49L172.47,138.22L172.24,137.99L172.01,137.83L171.78,137.73L171.57,137.70L171.40,137.75L171.27,137.88L171.20,138.06L171.19,138.30L171.19,138.32"/><path d="M172.76,140.05L172.81,139.91L172.90,139.76L172.77,139.88L172.60,139.93L172.39,139.90L172.16,139.80L171.93,139.64L171.70,139.41L171.50,139.14L171.49,139.13"/><path d="M171.80,138.26L171.75,138.36L171.74,138.50L171.77,138.66L171.85,138.83L171.95,138.99L172.08,139.13L172.22,139.24L172.35,139.29L172.47,139.29L172.56,139.24"/><path d="M172.62,139.13L172.61,139.29L172.54,139.41L172.44,139.48L172.29,139.47L172.13,139.41L171.96,139.28L171.80,139.11L171.68,138.91L171.67,138.89L171.59,138.70L171.55,138.51L171.56,138.34L171.62,138.22L171.73,138.16L171.87,138.16"/><path d="M173.20,139.36L173.85,138.92"/><path d="M173.48,138.01L173.44,138.04"/><path d="M173.45,137.97L173.42,137.99"/><path d="M173.39,137.88L173.38,137.90"/><path d="M173.37,137.84L173.35,137.85"/><path d="M173.41,137.90L173.39,137.92"/><path d="M173.44,137.95L173.41,137.97"/><path d="M172.60,138.07L173.26,137.63"/><path d="M173.55,138.14L173.51,138.18"/><path d="M173.51,138.07L173.47,138.11"/><path d="M172.86,137.39L172.84,137.40"/><path d="M173.02,137.49L173.01,137.49"/><path d="M172.80,137.37L172.80,137.37"/><path d="M172.96,137.45L172.95,137.46"/><path d="M172.91,137.42L172.89,137.43"/><path d="M173.67,138.46L173.65,138.49"/><path d="M173.58,138.20L173.54,138.25"/><path d="M173.60,138.27L173.57,138.31"/><path d="M173.68,138.53L173.67,138.54"/><path d="M173.65,138.40L173.62,138.43"/><path d="M173.63,138.34L173.60,138.37"/></g><g style="stroke:#000000;stroke-width:0.353"><path d="M171.49,139.13L171.51,139.16L171.72,139.45L171.93,139.64L172.16,139.80L172.42,139.93L172.43,139.93L172.76,140.05L173.41,139.61L173.85,138.92L173.26,137.63L172.22,137.04L171.57,137.48L171.40,137.70L171.30,137.83L171.27,137.88L171.18,138.03L171.13,138.17L171.17,138.33"/><path d="M171.80,138.26L171.89,138.21L172.01,138.21"/><path d="M171.87,138.16L172.04,138.22L172.21,138.35L172.36,138.52L172.49,138.72L172.58,138.93L172.62,139.13"/><path d="M172.56,139.24L172.61,139.14L172.61,139.09"/><path d="M173.52,138.20L173.56,138.16L173.55,138.14L173.54,138.14L173.54,138.14L173.53,138.13L173.53,138.13L173.52,138.12L173.52,138.12L173.52,138.11L173.52,138.10L173.52,138.10"/><path d="M173.34,137.83L173.35,137.82L173.37,137.84L173.36,137.85L173.36,137.85L173.36,137.86L173.36,137.86L173.37,137.87L173.37,137.88L173.38,137.88L173.38,137.88L173.39,137.89L173.39,137.89L173.39,137.88L173.41,137.90L173.41,137.91L173.40,137.91L173.40,137.92L173.41,137.92L173.41,137.93L173.41,137.94L173.42,137.94L173.42,137.94L173.43,137.95L173.43,137.95L173.44,137.95L173.45,137.97L173.45,137.97L173.44,137.97L173.44,137.98L173.45,137.98L173.45,137.99L173.45,138.00L173.46,138.00L173.46,138.01L173.47,138.01L173.47,138.01L173.48,138.01L173.49,138.03L173.45,138.06"/><path d="M173.48,138.13L173.52,138.10L173.51,138.07L173.51,138.07L173.50,138.07L173.50,138.07L173.49,138.07L173.49,138.06L173.48,138.05L173.48,138.05L173.48,138.04L173.48,138.04L173.48,138.03"/><path d="M173.34,137.83L173.35,137.83"/><path d="M172.91,137.44L172.91,137.43L172.91,137.42L172.89,137.41L172.88,137.42"/><path d="M172.97,137.47L172.96,137.46L172.96,137.45L172.95,137.44L172.93,137.45"/><path d="M172.99,137.48L173.00,137.48L173.02,137.49L173.02,137.50"/><path d="M172.81,137.38L172.80,137.37L172.79,137.36L172.79,137.36"/><path d="M172.86,137.41L172.86,137.40L172.86,137.39L172.84,137.39L172.83,137.39"/><path d="M173.64,138.44L173.65,138.45L173.65,138.45L173.65,138.46L173.66,138.46L173.67,138.46L173.67,138.49L173.66,138.50"/><path d="M173.68,138.55L173.68,138.55L173.68,138.53L173.67,138.52L173.67,138.52L173.66,138.51L173.66,138.51L173.66,138.50"/><path d="M173.61,138.39L173.64,138.36L173.63,138.34L173.62,138.33L173.62,138.33L173.61,138.33L173.61,138.32L173.60,138.31L173.60,138.31L173.60,138.30"/><path d="M173.63,138.45L173.65,138.42L173.65,138.40L173.64,138.40L173.64,138.40L173.63,138.39L173.63,138.38L173.63,138.38L173.62,138.37"/><path d="M173.55,138.27L173.59,138.23L173.58,138.20L173.57,138.20L173.57,138.20L173.56,138.20L173.56,138.19L173.55,138.19L173.55,138.18L173.55,138.17L173.55,138.17"/><path d="M173.58,138.33L173.61,138.29L173.60,138.27L173.60,138.27L173.59,138.27L173.59,138.26L173.58,138.26L173.58,138.25L173.58,138.24L173.58,138.24"/></g></g><g id="Actor_.10"><g style="stroke:#000000;stroke-width:0.176"><path d="M181.08,126.02L186.45,129.12L186.81,128.88"/><path d="M181.18,122.97L181.54,122.76L182.02,122.77L182.56,122.99L184.35,124.02L184.71,123.78"/><path d="M188.04,142.25L187.79,142.11L187.63,142.43L187.54,142.77L187.52,143.08L182.16,139.98"/><path d="M182.42,139.01L187.79,142.11L188.47,140.92L188.56,140.72L188.62,140.52L188.63,140.34L188.98,140.10"/><path d="M183.10,137.82L188.72,141.07"/><path d="M183.26,137.24L188.63,140.34L187.85,130.17L188.20,129.93"/><path d="M183.39,125.00L183.03,125.24L183.11,126.23L183.15,126.44L183.25,126.67L183.39,126.88L183.56,127.07L183.74,127.20L183.92,127.28L184.03,127.28L184.07,127.28L184.19,127.21"/><path d="M183.11,126.23L183.47,125.99"/><path d="M183.03,125.24L183.05,125.06L183.12,124.93"/><path d="M182.56,122.99L182.92,122.75"/><path d="M184.80,143.34L184.44,143.58L184.49,143.79L184.58,144.02L184.72,144.23L184.89,144.42L185.07,144.55L185.25,144.63L185.41,144.63L185.52,144.56"/><path d="M184.44,143.58L184.37,142.59L184.38,142.41L184.45,142.28"/><path d="M184.37,142.59L184.72,142.35"/><path d="M185.88,130.76L185.73,130.84L185.54,130.84L185.33,130.75L185.10,130.58L184.89,130.35L184.72,130.09L184.60,129.81L184.55,129.54L184.57,129.32L184.65,129.16"/><path d="M184.35,124.02L184.91,124.44L185.43,125.01L185.86,125.67L186.16,126.37L186.29,127.03L186.45,129.12L186.51,129.37L186.64,129.56"/><path d="M186.83,129.66L187.04,129.20L186.92,129.14"/><path d="M186.80,128.80L187.83,129.39L187.04,129.20L186.91,129.13"/><path d="M186.29,127.03L186.65,126.79"/><path d="M187.40,145.73L187.61,145.33L187.65,144.77L187.52,143.08L187.88,142.83"/><path d="M187.65,144.77L188.01,144.53"/><path d="M187.05,129.71L187.85,130.17L187.81,130.01L187.73,129.90"/><path d="M188.01,129.48L187.83,129.39L187.62,129.84"/></g><g style="stroke:#000000;stroke-width:0.353"><path d="M186.92,129.14L186.84,129.03L186.81,128.88L186.65,126.79L186.51,126.13L186.22,125.43L185.79,124.77L185.27,124.20L184.71,123.78L183.93,123.33L182.92,122.75L182.37,122.53L181.90,122.52L181.53,122.73L181.18,122.97L180.96,123.37L180.92,123.93L181.08,126.02L181.14,126.28L181.27,126.46L186.64,129.56L186.83,129.66L187.62,129.84L187.73,129.90"/><path d="M182.48,127.16L183.26,137.24L183.25,137.43L183.20,137.62L183.10,137.82L182.42,139.01L182.26,139.34L182.17,139.67L182.16,139.98L182.29,141.67L182.42,142.33L182.72,143.03L183.15,143.69L183.67,144.26L184.23,144.68L186.02,145.71L186.40,145.87"/><path d="M183.40,124.87L183.39,125.00L183.47,125.99L183.51,126.20L183.61,126.43L183.75,126.64L183.91,126.83L184.10,126.96L184.26,127.03"/><path d="M183.12,124.93L183.23,124.86L183.39,124.86L183.57,124.94L183.75,125.07L183.92,125.26L184.06,125.47L184.15,125.70L184.20,125.91L184.27,126.90L184.26,127.08L184.19,127.21"/><path d="M184.45,142.28L184.57,142.21L184.72,142.21L184.90,142.29L185.08,142.42L185.25,142.61L185.39,142.82L185.49,143.05L185.53,143.26L185.61,144.25L185.59,144.43L185.52,144.56"/><path d="M185.60,144.38L185.43,144.31L185.25,144.18L185.08,143.99L184.94,143.78L184.84,143.55L184.80,143.34L184.72,142.35L184.73,142.22"/><path d="M184.92,129.08L184.91,129.30L184.96,129.57L185.08,129.85L185.25,130.11L185.46,130.34L185.68,130.51L185.90,130.59L185.96,130.60L185.88,130.76"/><path d="M185.96,130.60L185.98,130.37L185.93,130.11L185.81,129.83L185.64,129.56L185.43,129.34L185.20,129.17L184.99,129.08L184.80,129.08L184.65,129.16"/><path d="M187.26,145.82L187.40,145.73L187.76,145.49L187.97,145.09L188.01,144.53L187.88,142.83L187.89,142.65L187.94,142.45L188.04,142.25L188.72,141.07L188.88,140.74L188.97,140.41L188.98,140.10L188.20,129.93L188.14,129.67L188.01,129.48L186.80,128.78"/></g></g><g id="Actor_.11"><g style="stroke:#000000;stroke-width:0.176"><path d="M144.70,103.16L143.96,102.09L143.66,100.57L143.81,98.89L143.82,98.76L144.44,96.84L145.44,94.98L146.74,93.37L148.21,92.18L149.69,91.51L151.05,91.44L152.16,91.96"/><path d="M145.28,102.28L146.22,102.72L147.36,102.66L148.62,102.10L149.18,101.64"/><path d="M152.44,94.98L152.20,93.75L151.57,92.84"/></g><g style="stroke:#000000;stroke-width:0.353"><path d="M148.99,102.67L148.65,102.95L147.16,103.61L145.80,103.69L144.70,103.16L99.96,77.34L99.22,76.26L98.92,74.75L99.08,72.94L99.70,71.01L100.11,70.25L100.71,69.15L102.01,67.55L103.47,66.35L104.95,65.69L106.32,65.61L107.42,66.14L124.88,76.21"/><path d="M125.73,76.71L152.16,91.96L152.90,93.03L153.08,93.93"/><path d="M151.57,92.84L150.64,92.40L149.49,92.46L149.06,92.66L148.24,93.03L147.01,94.03L145.91,95.38L145.06,96.95L144.55,98.57L144.52,98.89L144.41,100.10L144.66,101.38L145.28,102.28"/></g></g><g id="Actor_.12"><g style="stroke:#000000;stroke-width:0.176"><path d="M162.41,112.63L161.70,111.73L161.37,110.41L161.46,108.81L161.96,107.08L162.18,106.67L162.83,105.39L163.96,103.91L165.27,102.78L166.61,102.12L167.86,101.97"/><path d="M168.95,102.85L167.97,102.48L166.82,102.61L165.56,103.23L164.34,104.29L163.27,105.68L162.46,107.26L161.99,108.89L161.90,110.39L162.21,111.62L162.88,112.46"/><path d="M218.18,131.26L217.15,131.03L215.94,131.31L215.05,131.85L214.69,132.07L213.49,133.24L212.49,134.70L211.78,136.31L211.41,137.91L211.43,138.89L211.44,139.35L211.86,140.48L212.63,141.20"/><path d="M217.22,144.67L216.46,143.27L216.20,141.66L216.24,141.46L216.49,140.00L217.28,138.45L218.51,137.16L220.04,136.26L221.74,135.85L223.44,135.95L224.95,136.56L225.34,136.82"/><path d="M218.44,131.42L218.46,131.44"/><path d="M239.93,156.10L239.54,155.84L238.01,155.23L236.32,155.13L234.62,155.55L233.09,156.44L231.86,157.73L231.07,159.28L230.82,160.75L230.79,160.94L231.04,162.55L231.80,163.96"/><path d="M245.33,160.37L244.30,160.14L243.09,160.42L242.20,160.96L241.83,161.19L240.64,162.35L239.64,163.81L238.92,165.42L238.56,167.03L238.58,168.04L238.59,168.46L239.01,169.60L239.77,170.31"/><path d="M247.87,178.50L248.01,178.53L248.34,178.70L249.45,179.33L250.11,179.75L250.77,180.17L251.80,180.88L252.08,181.11L252.15,181.20"/><path d="M248.67,179.01L248.72,179.07L249.17,179.41L249.95,179.92L250.75,180.40L251.26,180.68L251.35,180.70"/><path d="M253.66,178.33L253.49,178.21L253.06,177.85L251.71,176.47L251.12,175.99L250.84,175.80L250.56,175.66L250.31,175.57L250.08,175.54L249.90,175.54L249.66,175.66"/><path d="M274.83,177.17L273.59,177.31L272.25,177.98L270.94,179.11L269.80,180.59L269.19,181.79L268.94,182.28L268.44,184.01L268.35,185.61L268.68,186.93L269.39,187.83"/><path d="M269.86,187.67L269.19,186.82L268.89,185.59L268.97,184.09L269.44,182.46L270.25,180.88L271.32,179.49L272.54,178.43L273.80,177.81L274.75,177.70L274.96,177.68L275.93,178.05"/><path d="M270.75,188.18L270.09,187.34L269.78,186.10L269.87,184.60L270.34,182.98L271.14,181.40L272.22,180.00L273.43,178.95L274.69,178.32L275.06,178.28L275.87,178.19L276.82,178.57"/><path d="M270.96,187.86L271.86,188.21L272.95,188.09L274.12,187.50L275.26,186.52L276.26,185.22L277.01,183.74L277.45,182.23L277.53,180.83L277.25,179.68L276.62,178.89"/></g><g style="stroke:#000000;stroke-width:0.353"><path d="M161.73,111.80L161.45,111.64L160.78,110.79L160.47,109.56L160.56,108.06L160.96,106.67L161.03,106.44L161.84,104.85L162.91,103.47L164.13,102.41L165.38,101.78L166.55,101.65L167.40,101.98"/><path d="M163.86,113.03L163.53,113.06L162.41,112.63L162.34,112.57L161.63,111.67L161.59,111.59L161.26,110.29L161.35,108.65L161.84,106.97L162.68,105.32L163.79,103.88L165.06,102.78L166.44,102.09L167.67,101.95L167.77,101.94L167.86,101.98L168.89,102.38L168.96,102.44L169.56,103.20"/><path d="M181.15,123.02L162.88,112.46"/><path d="M199.98,120.75L168.95,102.85"/><path d="M194.37,130.65L186.51,126.11"/><path d="M215.13,142.65L215.80,143.30L212.63,141.20L197.60,132.52"/><path d="M203.31,122.68L218.02,131.17L218.63,131.56"/><path d="M215.81,143.31L215.80,143.30L217.22,144.68L231.80,163.96L234.61,166.68L235.64,167.57L239.77,170.31L249.50,175.93L249.66,175.66"/><path d="M218.19,131.26L222.32,134.00L223.35,134.89L226.16,137.61L240.73,156.88"/><path d="M242.15,158.26L239.93,156.11L239.97,156.14"/><path d="M241.80,158.03L245.43,160.43"/><path d="M245.33,160.37L247.83,161.82"/><path d="M249.50,175.93L247.87,178.50L247.95,178.60L248.22,178.82L249.25,179.53L251.19,180.73L251.90,181.11L252.15,181.20L253.88,178.46L253.66,178.33L253.72,178.35"/><path d="M248.67,179.01L248.76,179.03L249.28,179.30L250.07,179.79L250.85,180.30L251.30,180.63L251.35,180.70"/><path d="M248.68,162.31L274.42,177.18"/><path d="M253.88,178.46L254.66,178.89L253.49,178.21"/><path d="M253.62,178.29L253.79,178.39"/><path d="M254.66,178.89L254.95,179.06"/><path d="M254.73,178.93L268.71,187.00"/><path d="M276.54,178.40L275.94,177.64L275.86,177.58L274.83,177.17L274.75,177.15L274.65,177.15L273.42,177.29L272.04,177.98L270.77,179.08L269.66,180.52L268.82,182.17L268.33,183.85L268.24,185.49L268.57,186.79L268.61,186.87L269.33,187.78L269.39,187.83L270.51,188.26L270.87,188.23"/><path d="M275.93,178.05L276.82,178.57L277.49,179.41L277.80,180.65L277.71,182.15L277.24,183.77L276.44,185.35L275.37,186.74L274.15,187.80L272.89,188.43L271.72,188.56L270.75,188.18L269.86,187.67"/><path d="M271.86,188.21L270.73,187.57L270.33,187.07L270.05,185.92L270.13,184.52L270.15,184.44L270.57,183.01L271.32,181.53L272.32,180.23L273.46,179.24L274.63,178.66L275.72,178.54L276.62,178.89"/><path d="M270.96,187.86L270.73,187.57"/></g></g><g id="Actor_.13"><g style="stroke:#000000;stroke-width:0.176"><path d="M78.24,31.03L78.25,30.92L78.30,30.85L78.37,30.81L78.47,30.81L78.58,30.86L78.69,30.95L78.79,31.07L78.88,31.20L78.94,31.34L78.96,31.47L78.95,31.58L78.90,31.66L78.83,31.69L78.73,31.69"/><path d="M79.23,31.74L79.30,31.62L79.32,31.46L79.28,31.26L79.20,31.05L79.07,30.85L78.92,30.68L78.75,30.55L78.58,30.48L78.44,30.47L78.33,30.52"/><path d="M81.95,29.90L82.23,30.12L82.59,30.28L82.92,30.30L83.16,30.18L83.31,29.92L83.35,29.56L83.27,29.13L83.09,28.67L82.81,28.23L82.47,27.85L82.10,27.56L81.74,27.40L81.42,27.38L81.17,27.51L81.02,27.76L80.98,28.12L81.06,28.55L81.10,28.65"/><path d="M81.71,28.24L81.83,28.18L81.97,28.19L82.14,28.26L82.30,28.39L82.46,28.56L82.58,28.76L82.67,28.97L82.70,29.17L82.69,29.33L82.62,29.45"/><path d="M83.33,28.63L83.33,28.63L83.33,28.65"/><path d="M84.12,28.09L83.33,28.63L83.32,28.60"/><path d="M82.42,27.51L83.19,26.99"/></g><g style="stroke:#000000;stroke-width:0.353"><path d="M82.62,29.45L79.23,31.74L79.12,31.79L78.97,31.79L78.73,31.69L78.62,31.64L78.51,31.55L78.41,31.44L78.32,31.30L78.27,31.16L78.24,31.03L78.24,30.80L78.26,30.64L78.33,30.52L81.71,28.24"/><path d="M81.93,29.92L82.25,30.17L82.66,30.35L83.00,30.37L83.03,30.37L83.06,30.35L83.33,30.22L83.36,30.20L83.52,29.92L83.53,29.89L83.57,29.51L83.57,29.49L83.49,29.03L83.32,28.62L83.29,28.55L83.00,28.09L82.65,27.69L82.26,27.39L81.88,27.22L81.85,27.21L81.51,27.19L81.48,27.19L81.45,27.21L81.18,27.34L81.16,27.37L81.00,27.64L80.99,27.67L80.95,28.05L80.95,28.08L81.03,28.53L81.08,28.66"/><path d="M83.56,29.63L84.18,29.22L84.12,28.09L83.19,26.99L82.33,27.00L81.96,27.25"/></g></g><g id="Actor_.14"><g style="stroke:#000000;stroke-width:0.176"><path d="M87.48,63.57L90.88,65.53L94.68,59.25L94.93,58.90L95.23,58.62L95.54,58.44L95.84,58.38L96.10,58.44"/><path d="M95.36,60.77L93.81,61.88L92.38,63.45L91.21,65.33L90.41,67.34L90.04,69.31L90.14,71.05L90.70,72.41L91.67,73.27"/><path d="M90.88,65.53L90.97,65.59"/><path d="M91.77,73.09L93.03,73.36L94.48,73.03L96.00,72.14L97.45,70.77L98.70,69.04L99.63,67.12L100.15,65.16L100.23,63.37L99.94,62.22L99.86,61.88L99.06,60.85"/><path d="M94.68,59.25L91.28,57.29"/><path d="M94.68,60.76L94.55,60.57L94.49,60.30L94.51,59.99L94.61,59.65L94.77,59.31"/><path d="M96.29,58.62L96.31,58.56L96.34,58.44L96.35,58.28L96.36,58.08L96.32,57.85L96.27,57.73L96.23,57.66L96.16,57.59L96.09,57.53L96.00,57.49L95.82,57.47L95.69,57.49"/><path d="M99.16,57.74L98.90,57.69L98.61,57.76L98.29,57.94L98.00,58.23L97.74,58.58L97.55,58.98L97.45,59.38L97.43,59.74L97.50,60.00L97.51,60.05L97.67,60.26"/><path d="M97.99,60.17L99.17,60.68"/><path d="M99.34,58.29L100.51,63.45"/><path d="M102.66,55.70L101.90,55.87"/><path d="M103.25,56.64L102.46,56.82"/></g><g style="stroke:#000000;stroke-width:0.353"><path d="M98.25,60.15L99.17,60.68L99.99,61.74L100.38,63.27L100.29,65.12L99.75,67.12L98.80,69.11L97.52,70.88L96.03,72.29L94.46,73.20L92.97,73.54L91.67,73.27L88.27,71.30L87.30,70.45L86.74,69.09L86.64,67.34L87.01,65.38L87.68,63.69"/><path d="M94.77,59.31L90.97,65.59L87.57,63.63L87.48,63.57L91.28,57.29L91.53,56.93L91.83,56.66L92.14,56.48L92.44,56.42L92.70,56.47L96.10,58.44L96.29,58.61L96.40,58.88L96.42,59.23L96.34,59.62L96.18,60.03L95.95,60.40L95.66,60.71L93.85,62.02L92.46,63.54L91.32,65.37L90.54,67.33L90.18,69.24L90.28,70.93L90.83,72.26L91.77,73.09"/><path d="M90.40,71.22L91.08,71.07L92.60,70.18L94.05,68.81L95.30,67.08L96.23,65.15L96.75,63.20L96.83,61.40L96.46,59.92L96.30,59.72"/><path d="M94.10,60.43L94.68,60.76L94.86,60.86L95.10,60.86L95.36,60.77"/><path d="M97.38,56.71L97.51,56.78L95.76,55.77L95.50,55.72L95.21,55.79L94.89,55.98L94.60,56.26L94.34,56.62L94.15,57.01L94.08,57.27"/><path d="M94.80,57.69L95.69,57.49"/><path d="M96.37,59.50L97.67,60.26L99.06,60.85"/><path d="M100.37,63.37L100.51,63.45L100.65,63.33L99.48,58.17L99.36,57.90L99.16,57.74L97.51,56.78L97.67,56.87"/><path d="M99.59,58.69L101.88,58.17L102.13,58.03L102.33,57.79L102.34,57.78L102.46,57.46L102.49,57.09L102.44,56.70L102.30,56.33L102.09,56.02L101.82,55.81L101.53,55.70L101.25,55.72L97.24,56.62"/><path d="M99.34,58.29L99.36,58.58L99.30,58.91L99.17,59.25L98.98,59.57L98.75,59.84L98.49,60.04L98.23,60.16L97.99,60.17"/><path d="M102.28,57.86L103.01,57.69L103.25,56.64L102.66,55.70L101.83,55.81"/><path d="M103.08,57.38L104.66,57.03L104.81,56.95L104.93,56.80L105.01,56.60L105.03,56.38L105.00,56.14L104.91,55.92L104.79,55.74L104.63,55.61L104.45,55.55L104.28,55.56L102.78,55.90"/></g></g><g id="Actor_.15"><g style="stroke:#000000;stroke-width:0.176"><path d="M149.71,99.49L153.11,101.46L156.91,95.18L157.17,94.82L157.47,94.55L157.78,94.37L158.08,94.31L158.33,94.36"/><path d="M157.59,96.69L156.04,97.81L154.62,99.38L153.45,101.25L152.64,103.27L152.28,105.23L152.38,106.98L152.94,108.34L153.91,109.20"/><path d="M153.21,101.52L153.11,101.46"/><path d="M154.01,109.02L155.26,109.28L156.72,108.96L156.83,108.89L158.24,108.07L159.69,106.70L160.93,104.97L161.86,103.04L162.39,101.09L162.47,99.29L162.09,97.81L161.29,96.78"/><path d="M156.91,95.18L153.51,93.21"/><path d="M157.01,95.24L156.84,95.57L156.75,95.91L156.73,96.23L156.78,96.49L156.91,96.69"/><path d="M157.92,93.42L158.05,93.40L158.23,93.42L158.32,93.46L158.40,93.51L158.46,93.59L158.50,93.66L158.55,93.78L158.59,94.01L158.59,94.21L158.57,94.37L158.55,94.48L158.53,94.55"/><path d="M159.91,96.19L159.74,95.97L159.67,95.67L159.67,95.50L159.68,95.30L159.79,94.90L159.98,94.51L160.23,94.15L160.53,93.87L160.84,93.68L161.14,93.61L161.40,93.66"/><path d="M160.22,96.10L161.40,96.61"/><path d="M162.75,99.38L161.57,94.22"/><path d="M164.89,91.63L164.14,91.80"/><path d="M165.49,92.57L164.69,92.75"/></g><g style="stroke:#000000;stroke-width:0.353"><path d="M160.48,96.08L161.40,96.61L162.22,97.67L162.61,99.19L162.53,101.04L161.99,103.05L161.03,105.03L159.75,106.81L158.26,108.22L156.70,109.13L155.20,109.47L153.91,109.20L150.51,107.23L149.54,106.38L148.98,105.01L148.88,103.27L149.24,101.30L149.92,99.62"/><path d="M157.01,95.24L153.21,101.52L149.81,99.56L149.71,99.49L153.51,93.21L153.77,92.86L154.07,92.58L154.38,92.41L154.68,92.34L154.93,92.40L158.33,94.36L158.52,94.54L158.63,94.81L158.65,95.16L158.58,95.55L158.42,95.95L158.18,96.33L157.90,96.64L156.08,97.95L154.69,99.47L153.56,101.30L152.78,103.25L152.42,105.17L152.52,106.86L153.06,108.19L154.01,109.02"/><path d="M158.54,95.65L158.69,95.85L159.07,97.33L158.99,99.13L158.46,101.08L157.53,103.01L156.29,104.73L154.84,106.10L153.32,106.99L152.63,107.15"/><path d="M156.34,96.35L156.91,96.69L157.10,96.79L157.33,96.79L157.59,96.69"/><path d="M157.12,91.91L156.83,92.19L156.58,92.55L156.39,92.94L156.32,93.20"/><path d="M157.04,93.62L157.92,93.42"/><path d="M158.60,95.43L159.91,96.19L161.29,96.78"/><path d="M157.97,91.70L158.00,91.70L161.40,93.66L161.59,93.83L161.71,94.10L162.89,99.26L162.75,99.38L162.61,99.29"/><path d="M159.90,92.80L159.61,92.63"/><path d="M161.83,94.61L164.11,94.10L164.37,93.96L164.57,93.72L164.63,93.55L164.69,93.39L164.73,93.01L164.67,92.62L164.63,92.51L164.53,92.26L164.32,91.95L164.06,91.74L163.77,91.63L163.48,91.65L159.47,92.55"/><path d="M160.22,96.10L160.46,96.09L160.72,95.97L160.98,95.77L161.22,95.50L161.41,95.18L161.54,94.84L161.59,94.51L161.57,94.22"/><path d="M164.51,93.79L165.25,93.62L165.49,92.57L164.89,91.63L164.06,91.74"/><path d="M165.02,91.82L166.52,91.48L166.69,91.47L166.86,91.54L167.02,91.67L167.15,91.85L167.23,92.07L167.26,92.30L167.24,92.53L167.17,92.73L167.05,92.87L166.89,92.96L165.32,93.31"/></g></g><g id="Actor_.16"><g style="stroke:#000000;stroke-width:0.176"><path d="M210.62,107.48L210.63,107.37L210.67,107.30L210.75,107.26L210.85,107.26L210.96,107.31L211.07,107.40L211.17,107.51L211.25,107.65L211.31,107.79L211.33,107.92L211.32,108.03L211.28,108.11L211.20,108.14L211.11,108.14"/><path d="M211.61,108.19L211.68,108.07L211.69,107.91L211.66,107.71L211.57,107.50L211.45,107.30L211.29,107.13L211.12,107.00L210.96,106.93L210.81,106.92L210.70,106.97"/><path d="M211.35,108.24L211.35,108.24"/><path d="M214.32,106.35L214.61,106.58L214.97,106.73L215.29,106.75L215.54,106.63L215.69,106.37L215.73,106.01L215.65,105.58L215.46,105.12L215.18,104.68L214.84,104.29L214.47,104.01L214.11,103.85L213.79,103.83L213.54,103.96L213.40,104.22L213.36,104.58L213.44,105.01L213.48,105.10"/><path d="M214.09,104.69L214.20,104.63L214.35,104.64L214.51,104.71L214.68,104.84L214.83,105.01L214.96,105.21L215.04,105.42L215.08,105.62L215.06,105.78L215.00,105.90"/><path d="M215.76,105.23L215.76,105.21L215.74,105.18"/><path d="M216.55,104.68L215.75,105.21"/><path d="M214.89,104.04L215.68,103.51"/></g><g style="stroke:#000000;stroke-width:0.353"><path d="M215.00,105.90L211.61,108.19L211.50,108.24L211.35,108.24L211.11,108.14L211.00,108.09L210.88,108.00L210.78,107.89L210.70,107.75L210.64,107.62L210.62,107.48L210.62,107.26L210.63,107.09L210.70,106.97L214.09,104.69"/><path d="M214.30,106.37L214.63,106.62L215.04,106.80L215.38,106.82L215.41,106.82L215.44,106.80L215.71,106.67L215.73,106.65L215.89,106.37L215.91,106.34L215.95,105.96L215.95,105.93L215.86,105.48L215.67,105.00L215.38,104.54L215.02,104.14L214.63,103.84L214.25,103.67L214.23,103.66L213.89,103.64L213.85,103.65L213.82,103.66L213.56,103.79L213.53,103.82L213.37,104.09L213.36,104.12L213.32,104.51L213.32,104.53L213.40,104.98L213.46,105.11"/><path d="M215.93,106.11L216.50,105.73L216.55,104.68L215.68,103.51L214.75,103.39L214.31,103.69"/></g></g><g><g><path style="stroke:#a0a0a4;stroke-width:0.500;stroke-dasharray:0.4 0.4" d="M56.60,63.83L66.91,57.06"/><path style="stroke:#a0a0a4;stroke-width:0.500;stroke-dasharray:0.4 0.4" d="M77.55,50.08L79.86,48.56"/></g></g><g><g><path style="stroke:#a0a0a4;stroke-width:0.500;stroke-dasharray:0.4 0.4" d="M53.06,47.93L78.60,31.25"/></g></g><g><g><path style="stroke:#a0a0a4;stroke-width:0.500;stroke-dasharray:0.4 0.4" d="M41.01,61.43L53.29,53.15"/><path style="stroke:#a0a0a4;stroke-width:0.500;stroke-dasharray:0.4 0.4" d="M54.46,52.36L62.65,46.83"/><path style="stroke:#a0a0a4;stroke-width:0.500;stroke-dasharray:0.4 0.4" d="M63.55,46.23L76.12,37.76"/></g></g><g><g><path style="stroke:#a0a0a4;stroke-width:0.500;stroke-dasharray:0.4 0.4" d="M188.97,140.28L199.30,133.50"/><path style="stroke:#a0a0a4;stroke-width:0.500;stroke-dasharray:0.4 0.4" d="M209.96,126.51L212.24,125.01"/></g></g><g><g><path style="stroke:#a0a0a4;stroke-width:0.500;stroke-dasharray:0.4 0.4" d="M185.44,124.38L210.98,107.70"/></g></g><g><g><path style="stroke:#a0a0a4;stroke-width:0.500;stroke-dasharray:0.4 0.4" d="M172.08,138.82L172.41,138.59"/><path style="stroke:#a0a0a4;stroke-width:0.500;stroke-dasharray:0.4 0.4" d="M173.41,137.92L185.69,129.64"/><path style="stroke:#a0a0a4;stroke-width:0.500;stroke-dasharray:0.4 0.4" d="M195.12,123.29L186.89,128.83"/><path style="stroke:#a0a0a4;stroke-width:0.500;stroke-dasharray:0.4 0.4" d="M208.54,114.24L196.02,122.68"/></g></g><g id="PMI7.0"><g><path style="stroke:#0085ca;stroke-width:0.500" d="M11.79,18.57L16.96,21.71"/></g><g><path style="fill:#0085ca" d="M16.19,22.99L17.74,20.43L19.53,23.26z"/></g><g><path style="fill:#0085ca" d="M5.02,19.90L11.79,19.90L11.79,13.13L5.02,13.13z"/><text xml:space="preserve" fill="#ffffff" stroke-width="0" x="7.62" y="18.00" font-size="2.75" opacity="1.00" font-family="Rubik Medium">7</text></g></g><g id="PMI1.0"><g><path style="stroke:#0085ca;stroke-width:0.500" d="M63.87,24.92L47.07,34.83"/></g><g><path style="fill:#0085ca" d="M48.07,34.83L48.07,34.73L48.05,34.63L48.03,34.54L47.99,34.45L47.95,34.36L47.90,34.27L47.84,34.19L47.78,34.12L47.71,34.06L47.63,34.00L47.54,33.95L47.45,33.90L47.36,33.87L47.27,33.85L47.17,33.83L47.07,33.83L46.97,33.83L46.88,33.85L46.78,33.87L46.69,33.90L46.60,33.95L46.52,34.00L46.44,34.06L46.36,34.12L46.30,34.19L46.24,34.27L46.19,34.36L46.15,34.45L46.11,34.54L46.09,34.63L46.08,34.73L46.07,34.83L46.08,34.93L46.09,35.02L46.11,35.12L46.15,35.21L46.19,35.30L46.24,35.38L46.30,35.46L46.36,35.54L46.44,35.60L46.52,35.66L46.60,35.71L46.69,35.75L46.78,35.79L46.88,35.81L46.97,35.82L47.07,35.83L47.17,35.82L47.27,35.81L47.36,35.79L47.45,35.75L47.54,35.71L47.63,35.66L47.71,35.60L47.78,35.54L47.84,35.46L47.90,35.38L47.95,35.30L47.99,35.21L48.03,35.12L48.05,35.02L48.07,34.93z"/></g><g><path style="fill:#0085ca" d="M63.87,26.30L70.64,26.30L70.64,19.53L63.87,19.53z"/><text xml:space="preserve" fill="#ffffff" stroke-width="0" x="66.58" y="24.40" font-size="2.75" opacity="1.00" font-family="Rubik Medium">1</text></g></g><g id="PMI6.0"><g><path style="stroke:#0085ca;stroke-width:0.500" d="M237.87,112.57L212.54,112.56"/></g><g><path style="fill:#0085ca" d="M213.54,112.56L213.53,112.47L213.52,112.37L213.50,112.27L213.46,112.18L213.42,112.09L213.37,112.01L213.31,111.93L213.25,111.86L213.17,111.79L213.09,111.73L213.01,111.68L212.92,111.64L212.83,111.61L212.73,111.58L212.64,111.57L212.54,111.56L212.44,111.57L212.34,111.58L212.25,111.61L212.16,111.64L212.07,111.68L211.98,111.73L211.90,111.79L211.83,111.86L211.77,111.93L211.71,112.01L211.66,112.09L211.62,112.18L211.58,112.27L211.56,112.37L211.54,112.47L211.54,112.56L211.54,112.66L211.56,112.76L211.58,112.85L211.62,112.95L211.66,113.04L211.71,113.12L211.77,113.20L211.83,113.27L211.90,113.34L211.98,113.40L212.07,113.45L212.16,113.49L212.25,113.52L212.34,113.54L212.44,113.56L212.54,113.56L212.64,113.56L212.73,113.54L212.83,113.52L212.92,113.49L213.01,113.45L213.09,113.40L213.17,113.34L213.25,113.27L213.31,113.20L213.37,113.12L213.42,113.04L213.46,112.95L213.50,112.85L213.52,112.76L213.53,112.66z"/></g><g><path style="fill:#0085ca" d="M237.87,115.96L244.64,115.96L244.64,109.19L237.87,109.19z"/><text xml:space="preserve" fill="#ffffff" stroke-width="0" x="240.36" y="114.05" font-size="2.75" opacity="1.00" font-family="Rubik Medium">6</text></g></g><g id="PMI9.0"><g><path style="stroke:#0085ca;stroke-width:0.500" d="M233.45,94.22L216.57,104.00"/></g><g><path style="fill:#0085ca" d="M217.57,104.00L217.56,103.90L217.55,103.81L217.52,103.71L217.49,103.62L217.45,103.53L217.40,103.44L217.34,103.37L217.27,103.29L217.20,103.23L217.12,103.17L217.04,103.12L216.95,103.08L216.86,103.04L216.76,103.02L216.67,103.00L216.57,103.00L216.47,103.00L216.37,103.02L216.28,103.04L216.18,103.08L216.10,103.12L216.01,103.17L215.93,103.23L215.86,103.29L215.79,103.37L215.74,103.44L215.69,103.53L215.64,103.62L215.61,103.71L215.59,103.81L215.57,103.90L215.57,104.00L215.57,104.10L215.59,104.20L215.61,104.29L215.64,104.38L215.69,104.47L215.74,104.56L215.79,104.63L215.86,104.71L215.93,104.77L216.01,104.83L216.10,104.88L216.18,104.92L216.28,104.96L216.37,104.98L216.47,105.00L216.57,105.00L216.67,105.00L216.76,104.98L216.86,104.96L216.95,104.92L217.04,104.88L217.12,104.83L217.20,104.77L217.27,104.71L217.34,104.63L217.40,104.56L217.45,104.47L217.49,104.38L217.52,104.29L217.55,104.20L217.56,104.10z"/></g><g><path style="fill:#0085ca" d="M233.45,95.64L240.23,95.64L240.23,88.87L233.45,88.87z"/><text xml:space="preserve" fill="#ffffff" stroke-width="0" x="235.94" y="93.74" font-size="2.75" opacity="1.00" font-family="Rubik Medium">9</text></g></g><g id="PMI4.0"><g><path style="stroke:#0085ca;stroke-width:0.500" d="M71.94,78.71L71.88,55.66"/></g><g><path style="fill:#0085ca" d="M72.87,55.66L72.87,55.56L72.86,55.46L72.83,55.37L72.80,55.28L72.76,55.19L72.71,55.10L72.65,55.02L72.58,54.95L72.51,54.89L72.43,54.83L72.35,54.78L72.26,54.73L72.17,54.70L72.07,54.68L71.97,54.66L71.87,54.66L71.78,54.66L71.68,54.68L71.58,54.70L71.49,54.73L71.40,54.78L71.32,54.83L71.24,54.89L71.17,54.95L71.10,55.02L71.04,55.10L70.99,55.19L70.95,55.28L70.92,55.37L70.89,55.46L70.88,55.56L70.87,55.66L70.88,55.76L70.89,55.85L70.92,55.95L70.95,56.04L70.99,56.13L71.04,56.21L71.10,56.29L71.17,56.37L71.24,56.43L71.32,56.49L71.40,56.54L71.49,56.58L71.58,56.62L71.68,56.64L71.78,56.65L71.87,56.66L71.97,56.65L72.07,56.64L72.17,56.62L72.26,56.58L72.35,56.54L72.43,56.49L72.51,56.43L72.58,56.37L72.65,56.29L72.71,56.21L72.76,56.13L72.80,56.04L72.83,55.95L72.86,55.85L72.87,55.76z"/></g><g><path style="fill:#0085ca" d="M68.56,85.48L75.33,85.48L75.33,78.71L68.56,78.71z"/><text xml:space="preserve" fill="#ffffff" stroke-width="0" x="70.99" y="83.58" font-size="2.75" opacity="1.00" font-family="Rubik Medium">4</text></g></g><g id="PMI3.0"><g><path style="stroke:#0085ca;stroke-width:0.500" d="M186.93,162.18L186.83,145.52"/></g><g><path style="fill:#0085ca" d="M187.83,145.52L187.82,145.42L187.81,145.32L187.79,145.23L187.75,145.14L187.71,145.05L187.66,144.96L187.60,144.88L187.54,144.81L187.46,144.75L187.38,144.69L187.30,144.64L187.21,144.59L187.12,144.56L187.02,144.54L186.93,144.52L186.83,144.52L186.73,144.52L186.63,144.54L186.54,144.56L186.45,144.59L186.36,144.64L186.27,144.69L186.19,144.75L186.12,144.81L186.06,144.88L186.00,144.96L185.95,145.05L185.90,145.14L185.87,145.23L185.85,145.32L185.83,145.42L185.83,145.52L185.83,145.62L185.85,145.71L185.87,145.81L185.90,145.90L185.95,145.99L186.00,146.07L186.06,146.15L186.12,146.23L186.19,146.29L186.27,146.35L186.36,146.40L186.45,146.44L186.54,146.48L186.63,146.50L186.73,146.51L186.83,146.52L186.93,146.51L187.02,146.50L187.12,146.48L187.21,146.44L187.30,146.40L187.38,146.35L187.46,146.29L187.54,146.23L187.60,146.15L187.66,146.07L187.71,145.99L187.75,145.90L187.79,145.81L187.81,145.71L187.82,145.62z"/></g><g><path style="fill:#0085ca" d="M183.56,168.95L190.33,168.95L190.33,162.18L183.56,162.18z"/><text xml:space="preserve" fill="#ffffff" stroke-width="0" x="186.04" y="167.05" font-size="2.75" opacity="1.00" font-family="Rubik Medium">3</text></g></g><g id="PMI10.0"><g><path style="stroke:#0085ca;stroke-width:0.500" d="M125.25,56.56L125.32,80.46"/></g><g><path style="fill:#0085ca" d="M126.32,80.46L126.31,80.36L126.30,80.27L126.28,80.17L126.24,80.08L126.20,79.99L126.15,79.91L126.09,79.83L126.03,79.75L125.95,79.69L125.87,79.63L125.79,79.58L125.70,79.54L125.61,79.50L125.51,79.48L125.42,79.47L125.32,79.46L125.22,79.47L125.12,79.48L125.03,79.50L124.94,79.54L124.85,79.58L124.76,79.63L124.68,79.69L124.61,79.75L124.55,79.83L124.49,79.91L124.44,79.99L124.39,80.08L124.36,80.17L124.34,80.27L124.32,80.36L124.32,80.46L124.32,80.56L124.34,80.66L124.36,80.75L124.39,80.84L124.44,80.93L124.49,81.02L124.55,81.10L124.61,81.17L124.68,81.23L124.76,81.29L124.85,81.34L124.94,81.39L125.03,81.42L125.12,81.44L125.22,81.46L125.32,81.46L125.42,81.46L125.51,81.44L125.61,81.42L125.70,81.39L125.79,81.34L125.87,81.29L125.95,81.23L126.03,81.17L126.09,81.10L126.15,81.02L126.20,80.93L126.24,80.84L126.28,80.75L126.30,80.66L126.31,80.56z"/></g><g><path style="fill:#0085ca" d="M121.85,56.56L128.62,56.56L128.62,49.79L121.85,49.79z"/><text xml:space="preserve" fill="#ffffff" stroke-width="0" x="123.55" y="54.65" font-size="2.75" opacity="1.00" font-family="Rubik Medium">10</text></g></g><g id="PMI11.0"><g><path style="stroke:#0085ca;stroke-width:0.500" d="M157.61,69.81L157.55,92.78"/></g><g><path style="fill:#0085ca" d="M158.55,92.78L158.54,92.68L158.53,92.58L158.50,92.49L158.47,92.40L158.43,92.31L158.38,92.22L158.32,92.14L158.25,92.07L158.18,92.01L158.10,91.95L158.02,91.90L157.93,91.85L157.84,91.82L157.74,91.80L157.64,91.78L157.55,91.78L157.45,91.78L157.35,91.80L157.25,91.82L157.16,91.85L157.07,91.90L156.99,91.95L156.91,92.01L156.84,92.07L156.77,92.14L156.71,92.22L156.66,92.31L156.62,92.40L156.59,92.49L156.56,92.58L156.55,92.68L156.55,92.78L156.55,92.88L156.56,92.97L156.59,93.07L156.62,93.16L156.66,93.25L156.71,93.33L156.77,93.41L156.84,93.49L156.91,93.55L156.99,93.61L157.07,93.66L157.16,93.70L157.25,93.74L157.35,93.76L157.45,93.77L157.55,93.78L157.64,93.77L157.74,93.76L157.84,93.74L157.93,93.70L158.02,93.66L158.10,93.61L158.18,93.55L158.25,93.49L158.32,93.41L158.38,93.33L158.43,93.25L158.47,93.16L158.50,93.07L158.53,92.97L158.54,92.88z"/></g><g><path style="fill:#0085ca" d="M154.23,69.81L161.01,69.81L161.01,63.03L154.23,63.03z"/><text xml:space="preserve" fill="#ffffff" stroke-width="0" x="156.23" y="67.90" font-size="2.75" opacity="1.00" font-family="Rubik Medium">11</text></g></g><g id="PMI5.0"><g><path style="stroke:#0085ca;stroke-width:0.500" d="M154.77,148.55L171.43,138.67"/></g><g><path style="fill:#0085ca" d="M172.43,138.67L172.43,138.57L172.41,138.47L172.39,138.38L172.35,138.29L172.31,138.20L172.26,138.11L172.20,138.04L172.14,137.96L172.07,137.90L171.99,137.84L171.90,137.79L171.81,137.75L171.72,137.71L171.63,137.69L171.53,137.67L171.43,137.67L171.33,137.67L171.24,137.69L171.14,137.71L171.05,137.75L170.96,137.79L170.88,137.84L170.80,137.90L170.72,137.96L170.66,138.04L170.60,138.11L170.55,138.20L170.51,138.29L170.47,138.38L170.45,138.47L170.44,138.57L170.43,138.67L170.44,138.77L170.45,138.86L170.47,138.96L170.51,139.05L170.55,139.14L170.60,139.23L170.66,139.30L170.72,139.38L170.80,139.44L170.88,139.50L170.96,139.55L171.05,139.59L171.14,139.63L171.24,139.65L171.33,139.66L171.43,139.67L171.53,139.66L171.63,139.65L171.72,139.63L171.81,139.59L171.90,139.55L171.99,139.50L172.07,139.44L172.14,139.38L172.20,139.30L172.26,139.23L172.31,139.14L172.35,139.05L172.39,138.96L172.41,138.86L172.43,138.77z"/></g><g><path style="fill:#0085ca" d="M147.99,153.94L154.77,153.94L154.77,147.17L147.99,147.17z"/><text xml:space="preserve" fill="#ffffff" stroke-width="0" x="150.49" y="152.03" font-size="2.75" opacity="1.00" font-family="Rubik Medium">5</text></g></g><g id="PMI2.0"><g><path style="stroke:#0085ca;stroke-width:0.500" d="M248.30,146.43L248.25,164.23"/></g><g><path style="fill:#0085ca" d="M249.25,164.23L249.25,164.14L249.23,164.04L249.21,163.94L249.17,163.85L249.13,163.76L249.08,163.68L249.02,163.60L248.96,163.53L248.88,163.46L248.81,163.40L248.72,163.35L248.63,163.31L248.54,163.28L248.45,163.25L248.35,163.24L248.25,163.23L248.15,163.24L248.06,163.25L247.96,163.28L247.87,163.31L247.78,163.35L247.69,163.40L247.62,163.46L247.54,163.53L247.48,163.60L247.42,163.68L247.37,163.76L247.33,163.85L247.29,163.94L247.27,164.04L247.26,164.14L247.25,164.23L247.26,164.33L247.27,164.43L247.29,164.52L247.33,164.62L247.37,164.71L247.42,164.79L247.48,164.87L247.54,164.94L247.62,165.01L247.69,165.07L247.78,165.12L247.87,165.16L247.96,165.19L248.06,165.21L248.15,165.23L248.25,165.23L248.35,165.23L248.45,165.21L248.54,165.19L248.63,165.16L248.72,165.12L248.81,165.07L248.88,165.01L248.96,164.94L249.02,164.87L249.08,164.79L249.13,164.71L249.17,164.62L249.21,164.52L249.23,164.43L249.25,164.33z"/></g><g><path style="fill:#0085ca" d="M244.92,146.43L251.69,146.43L251.69,139.66L244.92,139.66z"/><text xml:space="preserve" fill="#ffffff" stroke-width="0" x="247.43" y="144.53" font-size="2.75" opacity="1.00" font-family="Rubik Medium">2</text></g></g><g id="PMI8.0"><g><path style="stroke:#0085ca;stroke-width:0.500" d="M285.82,190.12L279.98,186.38"/></g><g><path style="fill:#0085ca" d="M280.79,185.11L279.17,187.64L277.46,184.76z"/></g><g><path style="fill:#0085ca" d="M285.82,195.67L292.59,195.67L292.59,188.90L285.82,188.90z"/><text xml:space="preserve" fill="#ffffff" stroke-width="0" x="288.28" y="193.77" font-size="2.75" opacity="1.00" font-family="Rubik Medium">8</text></g></g><g/><g id="paperID" visibility="hidden" opacity="0.00" transform="scale(0.000100)"><path style="stroke:#000000;stroke-width:0.500;fill:#e6e6e6;fill-rule:evenodd" d="M-2000.00,-2000.00L2297.00,-2000.00L2297.00,2210.00L-2000.00,2210.00zM0.00,0.00L297.00,0.00L297.00,210.00L0.00,210.00z"/><path style="fill:#000000;fill-opacity:0.118" d="M3.00,210.00L297.00,210.00L297.00,3.00L300.00,3.00L300.00,213.00L3.00,213.00z"/></g><g><g><path style="stroke:#000000;stroke-width:0.353;fill:#0085ca" d="M12.63,142.29L94.45,142.29L94.45,146.88L12.63,146.88z"/><text xml:space="preserve" fill="#ffffff" stroke-width="0" x="14.39" y="145.82" font-size="2.28" opacity="1.00" font-family="Rubik" font-weight="bold">Pos.</text><text xml:space="preserve" fill="#ffffff" stroke-width="0" x="23.17" y="145.82" font-size="2.32" opacity="1.00" font-family="Rubik" font-weight="bold">Part No</text><text xml:space="preserve" fill="#ffffff" stroke-width="0" x="46.81" y="145.82" font-size="2.25" opacity="1.00" font-family="Rubik" font-weight="bold">Qty.</text><text xml:space="preserve" fill="#ffffff" stroke-width="0" x="55.48" y="145.82" font-size="2.30" opacity="1.00" font-family="Rubik" font-weight="bold">Description</text><path style="stroke:#000000;stroke-width:0.353" d="M21.41,142.29L21.41,146.88"/><path style="stroke:#000000;stroke-width:0.353" d="M45.04,142.29L45.04,146.88"/><path style="stroke:#000000;stroke-width:0.353" d="M53.72,142.29L53.72,146.88"/></g><g id="Line1"><path style="stroke:#000000;stroke-width:0.353;fill:#ffffff" d="M12.63,146.88L94.45,146.88L94.45,151.46L12.63,151.46z"/><text xml:space="preserve" fill="#505050" stroke-width="0" x="14.39" y="150.40" font-size="2.40" opacity="1.00" font-family="Rubik">1</text><text xml:space="preserve" fill="#505050" stroke-width="0" x="23.17" y="150.40" font-size="2.52" opacity="1.00" font-family="Rubik">5A50118401</text><text xml:space="preserve" fill="#505050" stroke-width="0" x="46.81" y="150.40" font-size="2.40" opacity="1.00" font-family="Rubik">1</text><text xml:space="preserve" fill="#505050" stroke-width="0" x="55.48" y="150.40" font-size="2.53" opacity="1.00" font-family="Rubik">Radiator manifold</text><path style="stroke:#000000;stroke-width:0.353" d="M21.41,146.88L21.41,151.46"/><path style="stroke:#000000;stroke-width:0.353" d="M45.04,146.88L45.04,151.46"/><path style="stroke:#000000;stroke-width:0.353" d="M53.72,146.88L53.72,151.46"/></g><g id="Line2"><path style="stroke:#000000;stroke-width:0.353;fill:#e7f5fd" d="M12.63,151.46L94.45,151.46L94.45,156.05L12.63,156.05z"/><text xml:space="preserve" fill="#505050" stroke-width="0" x="14.39" y="154.99" font-size="2.36" opacity="1.00" font-family="Rubik">2</text><text xml:space="preserve" fill="#505050" stroke-width="0" x="23.17" y="154.99" font-size="2.53" opacity="1.00" font-family="Rubik">5A50118601</text><text xml:space="preserve" fill="#505050" stroke-width="0" x="46.81" y="154.99" font-size="2.40" opacity="1.00" font-family="Rubik">1</text><text xml:space="preserve" fill="#505050" stroke-width="0" x="55.48" y="154.99" font-size="2.53" opacity="1.00" font-family="Rubik">Radiator manifold</text><path style="stroke:#000000;stroke-width:0.353" d="M21.41,151.46L21.41,156.05"/><path style="stroke:#000000;stroke-width:0.353" d="M45.04,151.46L45.04,156.05"/><path style="stroke:#000000;stroke-width:0.353" d="M53.72,151.46L53.72,156.05"/></g><g id="Line3"><path style="stroke:#000000;stroke-width:0.353;fill:#ffffff" d="M12.63,156.05L94.45,156.05L94.45,160.63L12.63,160.63z"/><text xml:space="preserve" fill="#505050" stroke-width="0" x="14.39" y="159.57" font-size="2.39" opacity="1.00" font-family="Rubik">3</text><text xml:space="preserve" fill="#505050" stroke-width="0" x="23.17" y="159.57" font-size="2.53" opacity="1.00" font-family="Rubik">5A50118701</text><text xml:space="preserve" fill="#505050" stroke-width="0" x="46.81" y="159.57" font-size="2.36" opacity="1.00" font-family="Rubik">2</text><text xml:space="preserve" fill="#505050" stroke-width="0" x="55.48" y="159.57" font-size="2.54" opacity="1.00" font-family="Rubik">Radiator manifold bracket</text><path style="stroke:#000000;stroke-width:0.353" d="M21.41,156.05L21.41,160.63"/><path style="stroke:#000000;stroke-width:0.353" d="M45.04,156.05L45.04,160.63"/><path style="stroke:#000000;stroke-width:0.353" d="M53.72,156.05L53.72,160.63"/></g><g id="Line4"><path style="stroke:#000000;stroke-width:0.353;fill:#e7f5fd" d="M12.63,160.63L94.45,160.63L94.45,165.22L12.63,165.22z"/><text xml:space="preserve" fill="#505050" stroke-width="0" x="14.39" y="164.16" font-size="2.41" opacity="1.00" font-family="Rubik">4</text><text xml:space="preserve" fill="#505050" stroke-width="0" x="23.17" y="164.16" font-size="2.54" opacity="1.00" font-family="Rubik">70023920</text><text xml:space="preserve" fill="#505050" stroke-width="0" x="46.81" y="164.16" font-size="2.36" opacity="1.00" font-family="Rubik">2</text><text xml:space="preserve" fill="#505050" stroke-width="0" x="55.48" y="164.16" font-size="2.55" opacity="1.00" font-family="Rubik">Zinc-plated rubber-lined clamp</text><path style="stroke:#000000;stroke-width:0.353" d="M21.41,160.63L21.41,165.22"/><path style="stroke:#000000;stroke-width:0.353" d="M45.04,160.63L45.04,165.22"/><path style="stroke:#000000;stroke-width:0.353" d="M53.72,160.63L53.72,165.22"/></g><g id="Line5"><path style="stroke:#000000;stroke-width:0.353;fill:#ffffff" d="M12.63,165.22L94.45,165.22L94.45,169.80L12.63,169.80z"/><text xml:space="preserve" fill="#505050" stroke-width="0" x="14.39" y="168.74" font-size="2.36" opacity="1.00" font-family="Rubik">5</text><text xml:space="preserve" fill="#505050" stroke-width="0" x="23.17" y="168.74" font-size="2.54" opacity="1.00" font-family="Rubik">70037461</text><text xml:space="preserve" fill="#505050" stroke-width="0" x="46.81" y="168.74" font-size="2.36" opacity="1.00" font-family="Rubik">2</text><text xml:space="preserve" fill="#505050" stroke-width="0" x="55.48" y="168.74" font-size="2.54" opacity="1.00" font-family="Rubik">M6 hex pressure nut</text><path style="stroke:#000000;stroke-width:0.353" d="M21.41,165.22L21.41,169.80"/><path style="stroke:#000000;stroke-width:0.353" d="M45.04,165.22L45.04,169.80"/><path style="stroke:#000000;stroke-width:0.353" d="M53.72,165.22L53.72,169.80"/></g><g id="Line6"><path style="stroke:#000000;stroke-width:0.353;fill:#e7f5fd" d="M12.63,169.80L94.45,169.80L94.45,174.39L12.63,174.39z"/><text xml:space="preserve" fill="#505050" stroke-width="0" x="14.39" y="173.33" font-size="2.38" opacity="1.00" font-family="Rubik">6</text><text xml:space="preserve" fill="#505050" stroke-width="0" x="23.17" y="173.33" font-size="2.53" opacity="1.00" font-family="Rubik">70045319</text><text xml:space="preserve" fill="#505050" stroke-width="0" x="46.81" y="173.33" font-size="2.36" opacity="1.00" font-family="Rubik">2</text><text xml:space="preserve" fill="#505050" stroke-width="0" x="55.48" y="173.33" font-size="2.54" opacity="1.00" font-family="Rubik">Screw M6X10 8.8</text><path style="stroke:#000000;stroke-width:0.353" d="M21.41,169.80L21.41,174.39"/><path style="stroke:#000000;stroke-width:0.353" d="M45.04,169.80L45.04,174.39"/><path style="stroke:#000000;stroke-width:0.353" d="M53.72,169.80L53.72,174.39"/></g><g id="Line7"><path style="stroke:#000000;stroke-width:0.353;fill:#ffffff" d="M12.63,174.39L94.45,174.39L94.45,178.97L12.63,178.97z"/><text xml:space="preserve" fill="#505050" stroke-width="0" x="14.39" y="177.91" font-size="2.41" opacity="1.00" font-family="Rubik">7</text><text xml:space="preserve" fill="#505050" stroke-width="0" x="23.17" y="177.91" font-size="2.52" opacity="1.00" font-family="Rubik">5A50118901</text><text xml:space="preserve" fill="#505050" stroke-width="0" x="46.81" y="177.91" font-size="2.40" opacity="1.00" font-family="Rubik">1</text><text xml:space="preserve" fill="#505050" stroke-width="0" x="55.48" y="177.91" font-size="2.54" opacity="1.00" font-family="Rubik">Radiator manifold kit 2</text><path style="stroke:#000000;stroke-width:0.353" d="M21.41,174.39L21.41,178.97"/><path style="stroke:#000000;stroke-width:0.353" d="M45.04,174.39L45.04,178.97"/><path style="stroke:#000000;stroke-width:0.353" d="M53.72,174.39L53.72,178.97"/></g><g id="Line8"><path style="stroke:#000000;stroke-width:0.353;fill:#e7f5fd" d="M12.63,178.97L94.45,178.97L94.45,183.56L12.63,183.56z"/><text xml:space="preserve" fill="#505050" stroke-width="0" x="14.39" y="182.50" font-size="2.32" opacity="1.00" font-family="Rubik">8</text><text xml:space="preserve" fill="#505050" stroke-width="0" x="23.17" y="182.50" font-size="2.52" opacity="1.00" font-family="Rubik">5A50119101</text><text xml:space="preserve" fill="#505050" stroke-width="0" x="46.81" y="182.50" font-size="2.40" opacity="1.00" font-family="Rubik">1</text><text xml:space="preserve" fill="#505050" stroke-width="0" x="55.48" y="182.50" font-size="2.54" opacity="1.00" font-family="Rubik">Radiator manifold kit 1</text><path style="stroke:#000000;stroke-width:0.353" d="M21.41,178.97L21.41,183.56"/><path style="stroke:#000000;stroke-width:0.353" d="M45.04,178.97L45.04,183.56"/><path style="stroke:#000000;stroke-width:0.353" d="M53.72,178.97L53.72,183.56"/></g><g id="Line9"><path style="stroke:#000000;stroke-width:0.353;fill:#ffffff" d="M12.63,183.56L94.45,183.56L94.45,188.14L12.63,188.14z"/><text xml:space="preserve" fill="#505050" stroke-width="0" x="14.39" y="187.08" font-size="2.38" opacity="1.00" font-family="Rubik">9</text><text xml:space="preserve" fill="#505050" stroke-width="0" x="23.17" y="187.08" font-size="2.54" opacity="1.00" font-family="Rubik">70023871</text><text xml:space="preserve" fill="#505050" stroke-width="0" x="46.81" y="187.08" font-size="2.41" opacity="1.00" font-family="Rubik">4</text><text xml:space="preserve" fill="#505050" stroke-width="0" x="55.48" y="187.08" font-size="2.54" opacity="1.00" font-family="Rubik">Hex flange screw M6X20</text><path style="stroke:#000000;stroke-width:0.353" d="M21.41,183.56L21.41,188.14"/><path style="stroke:#000000;stroke-width:0.353" d="M45.04,183.56L45.04,188.14"/><path style="stroke:#000000;stroke-width:0.353" d="M53.72,183.56L53.72,188.14"/></g><g id="Line10"><path style="stroke:#000000;stroke-width:0.353;fill:#e7f5fd" d="M12.63,188.14L94.45,188.14L94.45,192.73L12.63,192.73z"/><text xml:space="preserve" fill="#505050" stroke-width="0" x="14.39" y="191.67" font-size="2.48" opacity="1.00" font-family="Rubik">10</text><text xml:space="preserve" fill="#505050" stroke-width="0" x="23.17" y="191.67" font-size="2.54" opacity="1.00" font-family="Rubik">70044897_L250</text><text xml:space="preserve" fill="#505050" stroke-width="0" x="46.81" y="191.67" font-size="2.40" opacity="1.00" font-family="Rubik">1</text><text xml:space="preserve" fill="#505050" stroke-width="0" x="55.48" y="191.67" font-size="2.55" opacity="1.00" font-family="Rubik">Silicone hose  int. 45</text><path style="stroke:#000000;stroke-width:0.353" d="M21.41,188.14L21.41,192.73"/><path style="stroke:#000000;stroke-width:0.353" d="M45.04,188.14L45.04,192.73"/><path style="stroke:#000000;stroke-width:0.353" d="M53.72,188.14L53.72,192.73"/></g><g id="Line11"><path style="stroke:#000000;stroke-width:0.353;fill:#ffffff" d="M12.63,192.73L94.45,192.73L94.45,197.31L12.63,197.31z"/><text xml:space="preserve" fill="#505050" stroke-width="0" x="14.39" y="196.25" font-size="2.47" opacity="1.00" font-family="Rubik">11</text><text xml:space="preserve" fill="#505050" stroke-width="0" x="23.17" y="196.25" font-size="2.54" opacity="1.00" font-family="Rubik">70024023</text><text xml:space="preserve" fill="#505050" stroke-width="0" x="46.81" y="196.25" font-size="2.36" opacity="1.00" font-family="Rubik">2</text><text xml:space="preserve" fill="#505050" stroke-width="0" x="55.48" y="196.25" font-size="2.54" opacity="1.00" font-family="Rubik">Clamp  50.8/58.7 mm</text><path style="stroke:#000000;stroke-width:0.353" d="M21.41,192.73L21.41,197.31"/><path style="stroke:#000000;stroke-width:0.353" d="M45.04,192.73L45.04,197.31"/><path style="stroke:#000000;stroke-width:0.353" d="M53.72,192.73L53.72,197.31"/></g></g><g id="hotspot.0" ident="" onmouseover="ShowHotSpot(evt,&apos;0&apos;)" onmouseout="HideHotSpot(evt,&apos;0&apos;)" onmousemove="ShowToolTip(evt,&apos;0&apos;,&quot;Cut-Sweep3&quot;)" opacity="0"><path style="fill:#00ff00;fill-rule:evenodd" d="M12.63,146.88L12.63,151.46L94.45,151.46L94.45,146.88zM28.19,21.71L48.50,33.45L49.07,33.42L63.76,24.68L63.88,19.50L70.38,19.50L70.38,26.21L63.88,26.22L63.67,25.22L49.32,33.63L49.37,33.84L67.28,44.26L66.31,44.45L63.67,46.04L63.32,46.01L62.42,45.34L61.69,45.10L61.03,45.57L61.02,49.10L61.31,52.86L61.56,54.02L54.03,49.75L53.36,48.44L52.26,47.33L50.29,46.22L49.08,46.21L48.42,47.10L48.73,49.98L49.42,50.39L50.07,51.07L50.07,53.16L44.99,58.24L44.46,59.25L43.57,59.69L43.13,60.13L41.86,60.15L40.36,59.01L39.01,57.49L38.55,56.61L38.57,55.80L39.23,54.90L39.39,54.41L40.69,53.72L48.06,46.22L43.77,43.78L35.92,54.93L35.95,55.59L35.20,55.96L34.74,56.61L33.93,56.62L30.85,54.60L29.51,53.27L29.50,52.94L29.98,52.50L30.11,51.53L30.98,51.07L38.16,40.77L38.14,40.49L29.96,35.82L29.45,35.83L21.93,38.05L21.59,38.38L20.60,38.74L18.46,38.51L17.39,37.60L16.92,36.74L16.70,35.85L16.69,34.14L17.16,33.28L18.62,32.09L19.79,31.87L20.62,31.89L22.03,31.32L21.11,29.90L20.82,28.57L21.33,25.75L22.46,23.79L23.25,22.81L25.09,21.55L26.13,21.27L27.09,21.27zM71.03,46.45L86.73,55.47L89.12,56.40L90.49,57.93L90.49,58.44L87.59,63.11L87.56,63.65L86.92,65.28L86.64,66.76L85.77,67.22L84.48,67.21L82.53,66.52L80.97,65.22L64.86,55.93L64.17,54.85L63.67,49.32L66.74,47.53L67.94,46.52L68.52,46.21L70.14,45.98zM62.44,46.63L62.44,46.99L62.22,47.22L62.22,46.41zM51.61,49.08L51.81,50.45L51.40,50.43L51.14,49.99L51.16,48.63z"/></g><g id="hotspot.1" ident="" onmouseover="ShowHotSpot(evt,&apos;1&apos;)" onmouseout="HideHotSpot(evt,&apos;1&apos;)" onmousemove="ShowToolTip(evt,&apos;1&apos;,&quot;Linear austragen1&quot;)" opacity="0"><path style="fill:#00ff00;fill-rule:evenodd" d="M12.63,188.14L12.63,192.73L94.45,192.73L94.45,188.14zM121.74,56.46L121.74,49.75L128.45,49.75L128.45,56.46L125.49,56.60L125.57,76.70L152.05,91.95L152.51,92.60L152.97,94.00L150.01,98.78L149.35,100.77L148.74,102.81L147.59,103.43L145.67,103.66L143.04,102.29L99.97,77.35L99.06,76.05L98.84,74.57L99.06,72.56L100.39,69.48L102.29,67.18L104.15,65.95L104.96,65.65L106.37,65.65L124.02,75.82L124.91,76.13L124.92,56.60z"/></g><g id="hotspot.2" ident="" onmouseover="ShowHotSpot(evt,&apos;2&apos;)" onmouseout="HideHotSpot(evt,&apos;2&apos;)" onmousemove="ShowToolTip(evt,&apos;2&apos;,&quot;Linear austragen5&quot;)" opacity="0"><path style="fill:#00ff00;fill-rule:evenodd" d="M12.63,192.73L12.63,197.31L94.45,197.31L94.45,192.73zM104.85,55.92L104.74,56.82L103.41,57.26L101.86,58.13L99.73,58.65L99.73,59.70L100.40,62.57L100.18,65.29L99.73,66.83L98.85,68.82L97.31,71.04L96.33,71.82L94.81,72.95L93.49,73.39L92.22,73.39L91.33,73.18L88.05,71.16L87.14,70.31L86.69,69.20L86.71,66.61L86.92,65.28L87.56,63.65L87.59,63.11L91.51,56.84L91.92,56.59L92.90,56.60L93.55,57.08L93.98,57.13L94.67,56.03L95.54,55.70L96.66,56.37L98.13,56.39L101.49,55.72L104.62,55.69zM154.20,69.71L154.20,63.00L160.91,63.00L160.91,69.71L157.73,69.84L157.81,91.71L159.13,92.39L159.94,92.38L163.04,91.72L165.24,91.73L166.65,91.47L167.11,91.93L167.02,92.82L165.27,93.28L164.21,93.99L161.73,94.56L162.68,98.80L162.45,101.07L161.72,103.42L160.18,106.07L158.61,107.82L156.28,109.24L154.73,109.40L153.40,108.94L150.32,107.15L149.19,105.86L148.97,105.20L148.98,102.16L149.19,101.05L150.11,98.66L153.63,92.90L154.43,92.35L154.72,92.36L155.86,93.05L156.25,93.12L156.73,92.03L157.14,91.78L157.16,69.84zM96.64,61.02L96.64,63.30L96.42,64.18L95.54,66.39L94.44,68.16L92.80,69.83L91.26,70.94L90.16,71.04L90.24,68.38L90.68,66.61L91.56,64.84L92.80,62.99L94.56,61.44L95.89,60.33L96.23,59.89zM158.92,97.02L158.92,99.07L158.25,101.28L156.73,103.96L155.18,105.72L153.34,106.97L152.44,107.04L152.51,104.15L152.72,103.04L154.52,99.53L155.75,98.11L158.04,96.44L158.48,95.69z"/></g><g id="hotspot.3" ident="" onmouseover="ShowHotSpot(evt,&apos;3&apos;)" onmouseout="HideHotSpot(evt,&apos;3&apos;)" onmousemove="ShowToolTip(evt,&apos;3&apos;,&quot;M14x1.5 Tapped Hole2&quot;)" opacity="0"><path style="fill:#00ff00;fill-rule:evenodd" d="M12.63,151.46L12.63,156.05L94.45,156.05L94.45,151.46zM168.63,102.31L169.53,103.18L199.78,120.66L198.80,120.85L196.16,122.44L195.82,122.41L194.46,121.50L194.18,121.51L193.52,121.98L193.58,127.71L193.81,130.22L193.36,130.17L186.53,126.15L185.17,124.20L182.56,122.62L181.58,122.62L181.34,122.85L180.78,122.87L164.00,113.13L162.43,112.71L160.67,110.72L160.46,109.83L160.46,108.35L160.90,106.58L162.24,104.17L163.03,103.19L164.87,101.93L166.42,101.64zM203.09,122.63L218.09,131.24L223.17,134.78L225.62,137.18L228.71,141.16L240.20,156.40L242.18,158.38L247.49,161.72L247.90,161.81L247.92,146.47L244.95,146.34L244.95,139.62L251.45,139.62L251.45,146.34L248.49,146.47L248.57,162.38L273.52,176.73L275.29,177.39L276.41,178.26L277.28,179.38L277.70,180.69L277.28,183.43L276.39,185.20L275.30,186.75L274.21,187.65L272.58,188.45L271.30,188.45L270.55,188.24L269.11,187.76L268.45,186.88L253.76,178.49L252.24,180.93L251.43,180.94L247.90,178.71L247.88,178.35L249.27,176.13L249.23,175.86L238.66,169.64L235.11,167.22L231.58,163.91L216.97,144.51L214.56,142.51L210.59,140.07L197.58,132.55L196.67,131.47L196.44,130.81L196.16,125.73L198.69,124.28L200.58,122.85L202.19,122.40zM194.91,123.01L194.68,123.59L194.72,122.82z"/></g><g id="hotspot.4" ident="" onmouseover="ShowHotSpot(evt,&apos;4&apos;)" onmouseout="HideHotSpot(evt,&apos;4&apos;)" onmousemove="ShowToolTip(evt,&apos;4&apos;,&quot;Cut-Extrude2&quot;)" opacity="0"><path style="fill:#00ff00;fill-rule:evenodd" d="M12.63,156.05L12.63,160.63L94.45,160.63L94.45,156.05zM52.51,47.52L53.80,49.10L54.47,52.41L55.56,53.08L55.79,53.96L56.47,64.20L55.56,65.71L55.37,68.84L54.62,69.44L54.03,69.44L51.84,68.28L50.73,67.41L50.04,66.11L49.82,65.22L49.82,62.85L50.72,61.10L50.07,51.07L49.42,50.39L48.73,49.98L48.42,47.10L49.08,46.21L50.29,46.22zM184.78,123.92L185.66,124.82L186.52,126.60L186.74,128.81L188.09,129.67L188.51,135.00L188.74,140.82L187.82,142.57L187.85,145.23L187.62,145.89L187.19,146.33L187.10,162.02L190.06,162.15L190.06,168.86L183.57,168.86L183.57,162.15L186.53,162.02L186.51,146.48L185.87,146.03L185.43,145.36L183.88,144.48L182.53,142.96L182.31,142.30L182.01,139.64L183.00,137.73L182.76,131.91L182.34,127.25L181.16,126.44L180.98,125.96L181.00,123.15L181.57,122.62L182.56,122.62zM51.61,49.08L51.81,50.45L51.40,50.43L51.14,49.99L51.16,48.63zM53.15,53.06L53.40,54.01L53.15,54.01L52.46,53.06L52.47,52.62zM52.94,66.31L53.17,67.93L52.48,67.42L52.48,65.86zM184.10,125.71L184.10,126.90L183.67,126.60L183.41,126.18L183.36,125.03L183.64,125.01zM185.89,130.16L185.86,130.44L185.44,130.37L184.97,129.91L184.89,129.24L185.18,129.21zM185.43,143.15L185.43,144.35L184.99,144.04L184.74,143.62L184.76,142.26z"/></g><g id="hotspot.5" ident="" onmouseover="ShowHotSpot(evt,&apos;5&apos;)" onmouseout="HideHotSpot(evt,&apos;5&apos;)" onmousemove="ShowToolTip(evt,&apos;5&apos;,&quot;Boss-Extrude2&quot;)" opacity="0"><path style="fill:#00ff00;fill-rule:evenodd" d="M12.63,160.63L12.63,165.22L94.45,165.22L94.45,160.63zM68.61,44.68L71.05,46.23L70.60,46.25L70.14,45.98L68.52,46.21L67.94,46.52L66.74,47.53L63.67,49.32L64.17,54.85L64.63,55.71L65.29,56.18L64.63,56.16L63.52,55.28L62.44,54.82L61.52,53.75L61.31,52.86L61.02,49.10L61.03,45.57L61.69,45.10L62.42,45.34L63.32,46.01L63.67,46.04L66.31,44.45L67.94,44.45zM72.59,55.04L72.75,55.95L72.07,56.61L72.05,78.55L75.23,78.68L75.23,85.39L68.52,85.39L68.52,78.68L71.48,78.55L71.46,56.61L70.78,55.95L71.03,54.90L72.38,54.81zM201.56,121.50L203.55,122.63L203.10,122.65L201.91,122.40L200.14,123.07L198.69,124.28L196.16,125.73L196.44,130.81L196.67,131.47L197.57,132.57L197.12,132.60L195.79,131.68L194.70,131.23L194.04,130.35L193.80,129.48L193.58,127.71L193.52,121.98L194.18,121.51L194.46,121.50L195.82,122.41L196.16,122.44L198.80,120.85L200.44,120.85zM62.44,46.63L62.44,46.99L62.22,47.22L62.22,46.41zM194.91,123.01L194.68,123.59L194.72,122.82z"/></g><g id="hotspot.6" ident="" onmouseover="ShowHotSpot(evt,&apos;6&apos;)" onmouseout="HideHotSpot(evt,&apos;6&apos;)" onmousemove="ShowToolTip(evt,&apos;6&apos;,&quot;nut_m6k-x&quot;)" opacity="0"><path style="fill:#00ff00;fill-rule:evenodd" d="M12.63,165.22L12.63,169.80L94.45,169.80L94.45,165.22zM40.57,61.01L41.24,62.13L41.25,62.64L40.47,63.46L39.89,63.48L39.03,62.77L38.77,62.36L38.80,61.32L39.37,60.78L40.12,60.78zM173.27,137.86L173.74,139.05L172.97,139.85L172.16,139.87L171.74,139.62L170.52,139.42L154.72,148.76L154.51,153.85L148.01,153.85L148.01,147.13L154.51,147.13L154.72,148.34L170.38,138.96L170.37,138.38L170.76,137.85L171.88,137.18L172.38,137.18z"/></g><g id="hotspot.7" ident="" onmouseover="ShowHotSpot(evt,&apos;7&apos;)" onmouseout="HideHotSpot(evt,&apos;7&apos;)" onmousemove="ShowToolTip(evt,&apos;7&apos;,&quot;Fillet1&quot;)" opacity="0"><path style="fill:#00ff00;fill-rule:evenodd" d="M12.63,169.80L12.63,174.39L94.45,174.39L94.45,169.80zM79.66,35.61L79.86,36.73L79.59,36.94L78.98,37.91L77.36,37.81L76.93,38.07L75.88,38.07L75.82,36.96L76.57,36.38L76.76,35.02L78.76,34.72zM211.50,111.58L212.81,111.57L213.39,112.32L237.76,112.33L237.89,109.15L244.38,109.15L244.38,115.87L237.89,115.87L237.76,112.90L213.39,112.92L213.16,113.35L211.88,113.62L211.20,114.50L210.59,114.48L209.85,114.22L209.17,114.68L208.59,114.72L208.13,114.26L208.16,113.43L209.06,112.76L209.01,112.09L209.21,111.60L209.73,111.39L211.26,111.36z"/></g><g id="hotspot.8" ident="" onmouseover="ShowHotSpot(evt,&apos;8&apos;)" onmouseout="HideHotSpot(evt,&apos;8&apos;)" onmousemove="ShowToolTip(evt,&apos;8&apos;,&quot;Cut-Extrude2&quot;)" opacity="0"><path style="fill:#00ff00;fill-rule:evenodd" d="M12.63,174.39L12.63,178.97L94.45,178.97L94.45,174.39zM11.85,18.40L16.93,21.55L17.61,20.60L18.91,22.38L19.16,23.11L17.15,23.04L16.17,22.82L16.72,21.91L11.85,18.82L11.64,19.81L4.92,19.81L4.92,13.09L11.64,13.09zM28.19,21.71L66.86,43.99L68.61,44.67L69.47,45.35L70.37,45.78L71.27,46.43L86.73,55.47L89.12,56.40L90.49,57.93L90.49,58.44L87.59,63.11L87.56,63.65L86.92,65.28L86.64,66.76L85.77,67.22L84.48,67.21L82.53,66.52L80.97,65.22L65.95,56.61L64.64,56.15L63.52,55.28L62.43,54.82L61.09,53.74L54.45,49.94L54.18,49.96L54.25,51.09L54.47,52.41L55.56,53.08L55.79,53.96L56.47,64.20L55.56,65.71L55.37,68.84L54.62,69.44L54.03,69.44L51.84,68.28L50.73,67.41L50.04,66.11L49.82,65.22L49.82,62.85L50.72,61.10L50.28,53.95L50.05,53.30L44.99,58.24L44.46,59.25L43.57,59.69L43.13,60.13L41.86,60.15L40.36,59.01L39.01,57.49L38.55,56.61L38.57,55.80L39.23,54.90L39.39,54.41L40.69,53.72L48.06,46.22L43.77,43.78L35.92,54.93L35.95,55.59L35.20,55.96L34.74,56.61L33.93,56.62L30.85,54.60L29.51,53.27L29.50,52.94L29.98,52.50L30.11,51.53L30.98,51.07L38.16,40.77L38.14,40.49L29.96,35.82L29.45,35.83L21.93,38.05L21.59,38.38L20.60,38.74L18.46,38.51L17.39,37.60L16.92,36.74L16.70,35.85L16.69,34.14L17.16,33.28L18.62,32.09L19.79,31.87L20.62,31.89L22.03,31.32L21.11,29.90L20.82,28.57L21.33,25.75L22.46,23.79L23.25,22.81L25.09,21.55L26.13,21.27L27.09,21.27zM79.66,35.61L79.86,36.73L79.59,36.94L78.98,37.91L77.36,37.81L76.93,38.07L75.88,38.07L75.82,36.96L76.57,36.38L76.76,35.02L78.76,34.72zM40.57,61.01L41.24,62.13L41.25,62.64L40.47,63.46L39.89,63.48L39.03,62.77L38.77,62.36L38.80,61.32L39.37,60.78L40.12,60.78zM53.15,53.06L53.40,54.01L53.15,54.01L52.46,53.06L52.47,52.62zM52.94,66.31L53.17,67.93L52.48,67.42L52.48,65.86z"/></g><g id="hotspot.9" ident="" onmouseover="ShowHotSpot(evt,&apos;9&apos;)" onmouseout="HideHotSpot(evt,&apos;9&apos;)" onmousemove="ShowToolTip(evt,&apos;9&apos;,&quot;Boss-Extrude2&quot;)" opacity="0"><path style="fill:#00ff00;fill-rule:evenodd" d="M12.63,178.97L12.63,183.56L94.45,183.56L94.45,178.97zM168.63,102.31L169.53,103.18L198.22,119.76L200.87,121.08L201.77,121.73L203.30,122.41L203.98,123.06L218.09,131.24L223.17,134.78L225.62,137.18L228.71,141.16L240.20,156.40L241.74,157.94L244.18,159.70L273.52,176.73L275.29,177.39L276.41,178.26L277.28,179.38L277.70,180.69L277.28,183.43L276.39,185.20L275.30,186.75L274.21,187.65L272.58,188.45L271.30,188.45L270.55,188.24L269.11,187.76L268.45,186.88L253.76,178.49L252.24,180.93L251.43,180.94L247.90,178.71L247.88,178.35L249.27,176.13L249.23,175.86L238.66,169.64L235.11,167.22L231.58,163.91L216.97,144.51L214.56,142.51L210.59,140.07L198.22,133.01L196.69,132.33L195.79,131.68L194.71,131.22L193.81,130.35L186.51,126.15L186.74,128.81L188.09,129.67L188.51,135.00L188.74,140.82L187.82,142.57L187.86,145.24L187.12,145.83L186.06,145.83L183.88,144.48L182.53,142.96L182.31,142.30L182.01,139.64L183.00,137.73L182.76,131.91L182.34,127.25L181.16,126.44L180.98,125.96L181.00,123.03L164.00,113.13L162.43,112.71L160.67,110.72L160.46,109.83L160.46,108.35L160.90,106.58L162.24,104.17L163.03,103.19L164.87,101.93L166.42,101.64zM212.15,112.24L212.16,113.45L211.91,113.65L211.20,114.50L210.59,114.48L209.85,114.22L209.17,114.68L208.59,114.72L208.13,114.26L208.16,113.43L209.06,112.76L209.01,112.09L209.21,111.60L209.73,111.39L211.27,111.35zM173.27,137.86L173.74,139.05L172.97,139.85L172.15,139.87L171.52,139.40L171.27,138.99L171.29,137.72L171.87,137.18L172.39,137.18zM280.58,185.10L280.14,185.89L280.07,186.27L285.68,189.84L285.81,188.86L292.52,188.87L292.52,195.58L285.81,195.58L285.68,190.41L281.69,187.78L279.92,186.63L279.64,186.66L279.25,187.42L278.84,187.35L277.42,184.89zM184.10,125.71L184.10,126.90L183.67,126.60L183.41,126.18L183.36,125.03L183.64,125.01zM185.89,130.16L185.86,130.44L185.44,130.37L184.97,129.91L184.89,129.24L185.18,129.21zM185.43,143.15L185.43,144.35L184.99,144.04L184.74,143.62L184.76,142.26z"/></g><g id="hotspot.10" ident="" onmouseover="ShowHotSpot(evt,&apos;10&apos;)" onmouseout="HideHotSpot(evt,&apos;10&apos;)" onmousemove="ShowToolTip(evt,&apos;10&apos;,&quot;Fillet1&quot;)" opacity="0"><path style="fill:#00ff00;fill-rule:evenodd" d="M12.63,183.56L12.63,188.14L94.45,188.14L94.45,183.56zM84.07,28.33L84.08,29.08L83.20,30.23L82.73,30.36L81.86,29.88L79.33,31.64L78.54,31.66L78.32,31.43L78.32,30.40L80.97,28.67L80.97,27.53L81.33,27.23L82.96,26.99zM84.51,44.45L85.38,45.75L85.16,46.52L84.42,47.55L83.61,47.57L82.88,47.31L80.66,48.86L79.63,48.89L79.58,47.78L82.07,46.07L82.28,44.74L83.82,44.22zM239.97,95.55L233.47,95.55L233.33,94.56L233.06,94.55L217.65,103.49L217.36,104.53L216.49,104.97L216.35,105.72L216.11,105.92L215.39,106.77L214.78,106.75L214.05,106.49L211.63,108.08L210.82,108.06L210.58,107.83L210.58,107.03L213.25,105.05L213.39,103.86L215.01,103.42L215.56,103.42L216.58,102.98L216.99,103.22L217.56,103.20L233.33,93.99L233.47,88.84L239.97,88.84zM216.77,120.86L217.67,121.96L217.67,122.71L216.92,123.95L215.87,123.96L215.46,123.73L213.01,125.36L212.35,125.53L211.92,125.28L211.91,124.25L214.57,122.46L214.53,121.35L214.72,121.09L216.12,120.65z"/></g></g></svg>