<?xml version="1.0" encoding="UTF-8"?>
<svg id="Ebene_1" xmlns="http://www.w3.org/2000/svg" version="1.1" viewBox="0 0 268.72 43.23">
  <!-- Generator: Adobe Illustrator 30.1.0, SVG Export Plug-In . SVG Version: 2.1.1 Build 136)  -->
  <defs>
    <style>
      .st0 {
        fill: #fff;
      }
    </style>
  </defs>
  <path class="st0" d="M21.58,0C7.26,0,0,7.27,0,21.61s7.26,21.61,21.58,21.61h.17c4.79,0,9.44-.79,13.81-2.35l.37-.13v-5.48l-.76.29c-4.14,1.57-8.53,2.37-13.06,2.37-5.56,0-9.68-1.31-12.23-3.89-2.55-2.58-3.85-6.76-3.85-12.42s1.29-9.83,3.85-12.42c2.55-2.58,6.67-3.89,12.23-3.89,4.44,0,8.83.82,13.06,2.43l.76.29V2.55l-.37-.14C31.17.81,26.46,0,21.58,0Z"/>
  <path class="st0" d="M61.67,0C47.36,0,40.11,7.27,40.11,21.61s7.26,21.61,21.57,21.61,21.6-7.27,21.6-21.61S76,0,61.67,0ZM77.24,21.61c0,5.66-1.25,9.84-3.7,12.42-2.45,2.58-6.44,3.88-11.86,3.88s-9.35-1.31-11.81-3.89c-2.47-2.58-3.72-6.77-3.72-12.42s1.25-9.84,3.72-12.42c2.46-2.58,6.43-3.88,11.81-3.88s9.41,1.31,11.86,3.88c2.46,2.58,3.7,6.76,3.7,12.42Z"/>
  <path class="st0" d="M122.63,23.01c-.69-.72-1.51-1.37-2.44-1.94-.71-.43-1.23-.72-1.6-.9.25-.17.5-.38.77-.63.46-.44.95-.97,1.45-1.58.52-.64.96-1.49,1.31-2.53.35-1.04.53-2.17.53-3.38,0-7.64-5.25-11.51-15.61-11.51h-15.58v42.21h16.96c11.27,0,16.99-4.12,16.99-12.23,0-1.59-.29-3.07-.87-4.4-.57-1.33-1.22-2.37-1.92-3.11ZM117.16,25.35c.61.45,1.14,1.1,1.58,1.93.43.83.65,1.83.65,2.99,0,2.78-.88,4.61-2.69,5.6-1.89,1.04-4.55,1.56-7.88,1.56h-11.31v-13.79h11.11c1.2,0,2.27.04,3.17.12.91.08,1.89.25,2.93.51,1,.25,1.83.61,2.45,1.08ZM116.63,12.42c0,2.39-.71,3.93-2.17,4.7-1.55.82-3.68,1.23-6.34,1.23h-10.62V5.85h10c3.14,0,5.49.49,6.99,1.46,1.44.94,2.14,2.61,2.14,5.1Z"/>
  <path class="st0" d="M164.32,25.55c0,8.4-4.24,12.49-12.95,12.49s-12.95-4.09-12.95-12.49V.54h-6.03v24.77c0,5.75,1.66,10.22,4.93,13.3,3.27,3.06,7.99,4.62,14.03,4.62s10.77-1.55,14.04-4.6c3.29-3.06,4.95-7.54,4.95-13.31V.54h-6.03v25.01Z"/>
  <path class="st0" d="M206.97,25.1c-1.3-1.79-2.93-3.14-4.84-4-1.83-.83-3.87-1.6-6.06-2.31-2.27-.73-4.26-1.3-6.06-1.74-1.75-.43-3.23-1.1-4.41-2-1.11-.83-1.65-1.84-1.65-3.07,0-2.07.86-3.62,2.61-4.73,1.82-1.14,4.52-1.72,8.01-1.72,3.78,0,7.35.85,10.61,2.52l.82.42V2.63l-.34-.15c-3.77-1.65-7.66-2.48-11.56-2.48-5.47,0-9.57,1.17-12.2,3.48-2.65,2.33-3.99,5.19-3.99,8.51,0,2.27.68,4.21,2.01,5.76,1.32,1.53,2.96,2.65,4.88,3.34,1.87.67,3.9,1.33,6.03,1.97l5.98,1.8c1.74.55,3.21,1.43,4.39,2.61,1.15,1.15,1.71,2.54,1.71,4.24-.02,4.02-3.61,5.97-10.99,5.97-4.99,0-9.28-1.08-12.75-3.2l-.86-.52v6.17l.32.15c4.06,1.95,8.65,2.94,13.65,2.94s9.25-1.01,12.16-3.01c2.98-2.05,4.49-4.9,4.49-8.49,0-2.57-.67-4.8-1.98-6.61Z"/>
  <path class="st0" d="M233.78.65h-1.88c-.34,0-.68.04-1,.1-.1.02-.2.06-.3.09-.21.06-.42.11-.62.19h0c-.13.05-.24.12-.36.18,0,0,0,0,0,0-.16.08-.32.16-.47.26,0,0,0,0,0,0-.13.08-.24.18-.36.27,0,0,0,0,0,0-.12.1-.25.19-.36.3,0,0,0,0,0,0-.12.11-.22.23-.33.35,0,0,0,0,0,0-.09.11-.19.22-.28.34,0,0,0,0,0,0-.1.14-.19.28-.27.42,0,0,0,0,0,0-.07.12-.14.24-.2.37,0,0,0,0,0,0-.08.16-.14.31-.2.48h0c-.05.14-.09.28-.13.42,0,0,0,0,0,0-.05.17-.08.34-.11.51t0,0c0,.06-.03.11-.04.18,0,0,0,.1,0,.25,0,.12-.04.25-.04.37h0v31.58h0c0,2.22,1.43,4.1,3.41,4.82.14.05.28.09.43.13h0c.16.04.33.08.5.11h0c.06,0,.12.03.18.04,0,0,.1,0,.26,0,.12,0,.25.04.37.04h31.65c.32,0,.64-.04.94-.1.08-.01.16-.04.24-.06.23-.05.46-.12.67-.21.08-.03.15-.06.23-.09.55-.24,1.05-.58,1.48-1,.06-.06.12-.12.18-.19.15-.16.29-.33.42-.51.05-.07.11-.14.16-.22.15-.24.29-.48.41-.75.27-.62.43-1.31.43-2.03h0v-1.59c-3.21.88-7.54,1.32-13.01,1.32-9.84,0-16.05-1.41-18.64-4.25-2.55-2.8-3.82-9.58-3.82-20.32,0-4.75.18-8.71.54-11.9"/>
  <path class="st0" d="M268.72,18.69V3.93s0,0,0,0c0-.24-.03-.46-.08-.68-.01-.06-.03-.11-.05-.17-.05-.17-.11-.34-.18-.5-.02-.04-.04-.08-.06-.12-.1-.19-.21-.36-.34-.53,0,0,0-.01-.01-.02-.35-.44-.81-.78-1.33-.99-.05-.02-.1-.05-.16-.07-.09-.03-.18-.05-.27-.08-.11-.03-.21-.05-.32-.07-.02,0-.05-.01-.07-.01,0,0-.05,0-.12,0-.09,0-.18-.03-.28-.03h-15.17c-.25,1.69-.38,4.21-.38,7.58,0,5.56.47,8.86,1.42,9.91.97,1.08,4.01,1.62,9.12,1.62,4.11,0,6.87-.36,8.29-1.07"/>
</svg>